<svg width="30" height="30" viewBox="0 0 30 30" fill="none" xmlns="http://www.w3.org/2000/svg">
<path d="M24.375 3.75H20.625V1.875H18.75V3.75H11.25V1.875H9.375V3.75H5.625C4.59375 3.75 3.75 4.59375 3.75 5.625V24.375C3.75 25.4062 4.59375 26.25 5.625 26.25H24.375C25.4062 26.25 26.25 25.4062 26.25 24.375V5.625C26.25 4.59375 25.4062 3.75 24.375 3.75ZM24.375 24.375H5.625V11.25H24.375V24.375ZM24.375 9.375H5.625V5.625H9.375V7.5H11.25V5.625H18.75V7.5H20.625V5.625H24.375V9.375Z" fill="#212121"/>
</svg>
