<svg width="30" height="30" viewBox="0 0 30 30" fill="none" xmlns="http://www.w3.org/2000/svg">
<g clip-path="url(#clip0_2206_1690)">
<path d="M19.7255 23.5062V21.6159C19.7255 20.6133 19.3272 19.6517 18.6182 18.9427C17.9092 18.2338 16.9476 17.8354 15.945 17.8354H8.384C7.38136 17.8354 6.41977 18.2338 5.71079 18.9427C5.00182 19.6517 4.60352 20.6133 4.60352 21.6159V23.5062" stroke="#212121" stroke-width="2" stroke-linecap="round" stroke-linejoin="round"/>
<path d="M12.1645 14.0551C14.2524 14.0551 15.945 12.3625 15.945 10.2746C15.945 8.18672 14.2524 6.49414 12.1645 6.49414C10.0766 6.49414 8.38403 8.18672 8.38403 10.2746C8.38403 12.3625 10.0766 14.0551 12.1645 14.0551Z" stroke="#212121" stroke-width="2" stroke-linecap="round" stroke-linejoin="round"/>
<path d="M25.3962 23.5064V21.6161C25.3955 20.7785 25.1167 19.9648 24.6035 19.3028C24.0904 18.6407 23.3718 18.1679 22.5608 17.9585" stroke="#212121" stroke-width="2" stroke-linecap="round" stroke-linejoin="round"/>
<path d="M18.7805 6.6167C19.5937 6.82491 20.3145 7.29785 20.8292 7.96096C21.3439 8.62406 21.6233 9.43962 21.6233 10.279C21.6233 11.1185 21.3439 11.934 20.8292 12.5971C20.3145 13.2602 19.5937 13.7332 18.7805 13.9414" stroke="#212121" stroke-width="2" stroke-linecap="round" stroke-linejoin="round"/>
</g>
<defs>
<clipPath id="clip0_2206_1690">
<rect width="22.6829" height="22.6829" fill="white" transform="translate(3.65845 3.65869)"/>
</clipPath>
</defs>
</svg>
