<svg width="30" height="30" viewBox="0 0 30 30" fill="none" xmlns="http://www.w3.org/2000/svg">
<path d="M14.0625 10.3125H15.9375V18.75H14.0625V10.3125ZM12.1875 1.875H17.8125V3.75H12.1875V1.875Z" fill="black"/>
<path d="M26.25 8.43755L24.9187 7.11567L22.8093 9.22505C21.0827 7.23101 18.6541 5.97889 16.0283 5.72883C13.4024 5.47878 10.7812 6.25002 8.70915 7.88231C6.63714 9.51459 5.27367 11.8824 4.90203 14.4938C4.53039 17.1053 5.17915 19.7595 6.71353 21.905C8.24791 24.0505 10.5499 25.5224 13.1413 26.0148C15.7326 26.5073 18.4141 25.9824 20.6285 24.5492C22.8429 23.116 24.4201 20.8848 25.0322 18.3191C25.6444 15.7534 25.2445 13.0505 23.9156 10.7719L26.25 8.43755ZM15 24.375C13.3312 24.375 11.6999 23.8802 10.3123 22.9531C8.92481 22.0259 7.84335 20.7082 7.20474 19.1664C6.56613 17.6247 6.39904 15.9282 6.7246 14.2915C7.05016 12.6548 7.85375 11.1513 9.03376 9.97133C10.2138 8.79133 11.7172 7.98773 13.3539 7.66217C14.9906 7.33661 16.6871 7.5037 18.2289 8.14231C19.7706 8.78093 21.0884 9.86238 22.0155 11.2499C22.9426 12.6375 23.4375 14.2688 23.4375 15.9375C23.4375 18.1753 22.5485 20.3214 20.9662 21.9038C19.3838 23.4861 17.2377 24.375 15 24.375Z" fill="black"/>
</svg>
