<?xml version="1.0" encoding="UTF-8"?>
<svg id="Layer_1" data-name="Layer 1" xmlns="http://www.w3.org/2000/svg" viewBox="0 0 400 420.38">
  <defs>
    <style>
      .cls-1 {
        fill: #000;
        stroke-width: 0px;
      }
    </style>
  </defs>
  <path class="cls-1" d="M116.2,76.56c.72.51,1.26.88,1.78,1.25.4-.4.17-.66,0-.89-.45-.6-.83-1.23-.87-1.99,0-.14.14-.31.26-.42.06-.05.26-.01.33.06.3.31.55.65.85.97.79.86,1.62,1.67,2.73,2.07.74-.24,1.43-.5,2.14-.68.18-.05.57.11.62.25.08.25.06.66-.09.82-.34.34-.8.55-1.21.82-1.02.67-1.45,1.95-.97,3.05.22.5.53.97.86,1.41.8,1.09,1.67,2.12,2.43,3.23.85,1.23,1.86,2.27,3.1,3.11,1.53,1.03,2.98,2.16,4.26,3.5.17.18.34.35.52.52,1.31,1.26,1.96,1.04,3.09.38,2.28-1.36,4.4-2.9,6.26-4.82,1.67-1.72,3.52-3.25,5.54-4.55,2.84-1.82,5.63-3.75,8.56-5.42,4.81-2.75,9.84-5.07,15.25-6.41,2.74-.68,5.5-1.29,8.27-1.85,1.26-.26,2.56-.32,3.84-.47,2.07-.24,4.15-.48,6.22-.72.3-.03.61-.05.92-.05,3.69,0,7.38-.03,11.06.01,1.35.02,2.69.22,4.03.36,1.77.18,3.54.38,5.31.59,5.19.61,10.32,1.6,15.39,2.87,6.2,1.56,12.31,3.43,18.16,6.06,2.86,1.28,5.73,2.55,8.54,3.92,4.03,1.97,7.92,4.21,11.65,6.7,2.25,1.5,4.56,2.91,6.73,4.52,2.41,1.79,4.65,3.82,7.04,5.64,2.74,2.09,5.23,4.47,7.75,6.79,2.84,2.62,5.67,5.28,8.11,8.29.15.19.32.37.49.55,1.88,2.02,3.78,4.03,5.65,6.06.71.77,1.36,1.58,2.02,2.39,3.17,3.83,6.34,7.66,9.51,11.49,3.02,3.65,5.77,7.49,8.5,11.35,2.3,3.26,4.47,6.62,6.33,10.16,2.54,4.84,5.08,9.69,7.46,14.61,1.39,2.87,2.55,5.86,3.69,8.84,1.58,4.13,3.18,8.26,4.55,12.46,2.16,6.6,3.96,13.31,5.38,20.11,1.28,6.13,2.21,12.33,3.15,18.52.27,1.76.34,3.54.5,5.31.22,2.44.43,4.89.63,7.33.05.61.09,1.23.09,1.84.01,2.21.02,4.43,0,6.64,0,1.96-.09,3.92-.26,5.88-.2,2.39-.47,4.76-.81,7.13-.47,3.35-1.13,6.65-1.97,9.93-1.02,3.99-2.28,7.91-3.61,11.81-1.39,4.08-3.06,8.03-4.94,11.91-1.85,3.82-3.82,7.58-6.02,11.2-1.34,2.2-2.92,4.26-4.51,6.28-2.24,2.85-4.55,5.65-7.28,8.06-2.39,2.11-4.6,4.42-7.19,6.32-2.57,1.89-5.01,3.96-7.6,5.83-1.94,1.4-3.98,2.68-6.05,3.88-6.32,3.68-12.86,6.96-19.37,10.29-3.99,2.04-7.86,4.31-11.84,6.39-3.76,1.97-7.56,3.85-11.37,5.7-2.71,1.31-5.44,2.58-8.21,3.75-5.38,2.28-10.86,4.29-16.58,5.57-2.04.46-4.08.91-6.12,1.36-2.71.59-5.45.83-8.2,1.11-2.7.28-5.39.25-8.09.31-3.2.07-6.37-.32-9.54-.64-3.98-.39-7.91-1.05-11.82-1.9-4.45-.98-8.78-2.37-12.99-4.09-2.45-1-4.9-1.98-7.33-3-4.31-1.81-8.47-3.91-12.58-6.14-4.06-2.21-7.82-4.87-11.56-7.55-3.19-2.29-6.23-4.79-9.3-7.25-2.16-1.72-4.25-3.53-6.37-5.29-.05-.04-.09-.08-.14-.12-4.16-3.73-8.2-7.61-12.02-11.69-1.76-1.88-3.56-3.73-5.3-5.63-1.57-1.72-3.05-3.53-4.54-5.32-1.37-1.65-2.71-3.33-4.04-5.02-1.44-1.84-2.86-3.69-4.26-5.55-1.54-2.07-3.1-4.13-4.56-6.25-2.09-3.03-4.13-6.11-6.15-9.19-3.18-4.84-5.79-9.99-8.32-15.19-2.12-4.37-4.07-8.81-5.72-13.38-1.15-3.18-2.33-6.35-3.42-9.54-3.01-8.8-5.23-17.8-6.84-26.95-.55-3.14-.88-6.32-1.27-9.49-.27-2.19-.46-4.39-.67-6.59-.06-.61-.05-1.23-.06-1.84-.04-1.96-.12-3.92-.26-5.88-.2-2.75-.3-5.52.14-8.28.04-.24.09-.49.08-.73-.11-2.83.3-5.64.43-8.46.07-1.47.21-2.94.41-4.4.7-5.24,1.55-10.45,2.81-15.58,1.34-5.45,3.31-10.66,5.69-15.74,1.67-3.57,3.55-7.01,5.72-10.3,2.03-3.08,4.38-5.92,6.7-8.78,2.71-3.34,5.6-6.53,8.74-9.47,4.72-4.43,9.79-8.38,15.64-11.26,4.41-2.17,8.74-4.5,12.89-7.14.26-.16.53-.31.79-.48.39-.27.55-.64.48-1.11-.21-1.34-.45-2.64-1.11-3.87-.58-1.07-1.01-2.24-1.37-3.41-.31-1.02-.75-1.94-1.34-2.81-1.28-1.88-2.56-3.76-3.42-5.88-.11-.28-.25-.58-.46-.8-1.45-1.56-1.45-3.6-1.81-5.51-.05-.29.17-.72.4-.95.33-.33.79-.54,1.25-.83Z"/>
</svg>