<svg width="157" height="146" viewBox="0 0 157 146" fill="none" xmlns="http://www.w3.org/2000/svg">
<g clip-path="url(#clip0_2246_2365)" filter="url(#filter0_d_2246_2365)">
<path d="M133.878 43.0489C154.126 81.1316 131.923 99.3079 101.273 115.605C70.6235 131.901 43.1385 140.145 22.8896 102.062C2.64062 63.9795 24.8444 45.8032 55.494 29.5065C86.1435 13.2098 113.629 4.96613 133.878 43.0489Z" fill="#2C2F74"/>
<path d="M58.2607 34.7091C70.9614 27.956 85.6496 21.1388 98.2926 21.771C104.1 22.0616 109.212 23.8786 113.916 27.3281C119.278 31.2586 124.244 37.4802 128.677 45.8173C133.109 54.1544 135.488 61.7489 135.751 68.3936C135.98 74.2221 134.628 79.4762 131.621 84.4532C125.076 95.2883 111.21 103.653 98.5096 110.406C85.8088 117.159 71.1207 123.977 58.4777 123.344C52.6681 123.055 47.5582 121.237 42.8546 117.787C37.492 113.857 32.5266 107.635 28.0937 99.2981C23.6608 90.961 21.2827 83.3665 21.0196 76.7218C20.7902 70.8934 22.1413 65.6426 25.1489 60.6622C31.6947 49.8271 45.5599 41.4622 58.2607 34.7091ZM57.7996 33.842C44.9818 40.6573 30.9761 49.1137 24.3081 60.1528C21.1981 65.3016 19.801 70.7325 20.0376 76.7574C20.3044 83.5503 22.7222 91.2877 27.2255 99.757C31.7287 108.226 36.7912 114.558 42.2736 118.577C47.1361 122.142 52.421 124.023 58.4275 124.322C71.308 124.967 86.1484 118.086 98.9683 111.269C111.788 104.453 125.792 95.9974 132.46 84.9583C135.57 79.8095 136.967 74.3786 136.73 68.3537C136.464 61.5608 134.046 53.8234 129.542 45.3541C125.039 36.8848 119.977 30.5535 114.494 26.5338C109.632 22.9686 104.347 21.0878 98.3405 20.7891C85.4599 20.1441 70.6196 27.0255 57.7996 33.842Z" fill="#F9EDC1"/>
<path d="M85.5088 106.65L86.173 106.33L88.4674 111.111L87.8032 111.43L85.5088 106.65Z" fill="#F9EDC1"/>
<path d="M89.368 106.993C89.1109 107.122 88.5053 107.588 88.9586 108.499L89.9116 110.411L89.2922 110.721L87.582 107.295L88.1753 106.999L88.4217 107.494C88.492 107.056 88.7294 106.624 89.237 106.371C90.0875 105.946 90.764 106.382 91.0946 107.04L92.2058 109.266L91.5864 109.576L90.5063 107.409C90.2786 106.954 89.8833 106.739 89.3691 106.996L89.368 106.993Z" fill="#F9EDC1"/>
<path d="M92.1511 107.884L92.7659 107.565C93.0798 108.041 93.4683 108.07 93.992 107.8C94.469 107.552 94.6651 107.225 94.5048 106.919C94.3548 106.631 94.1937 106.559 93.382 106.82C92.2557 107.191 91.8103 106.992 91.5276 106.45C91.216 105.848 91.5467 105.194 92.3045 104.799C93.187 104.341 93.9265 104.487 94.31 105.193L93.7017 105.508C93.4237 105.022 93.0033 105.073 92.5664 105.302C92.1869 105.498 91.9774 105.816 92.1343 106.116C92.2877 106.41 92.5081 106.437 93.2761 106.187C94.3734 105.84 94.8111 105.994 95.1041 106.555C95.4469 107.216 95.0496 107.886 94.2462 108.305C93.4092 108.739 92.6293 108.689 92.1511 107.884Z" fill="#F9EDC1"/>
<path d="M94.3165 103.844L94.9343 103.515L96.728 106.899L96.1102 107.228L94.3165 103.844ZM93.6271 102.542L94.2384 102.217L94.6049 102.906L93.9936 103.231L93.6271 102.542Z" fill="#F9EDC1"/>
<path d="M100.013 105.129L99.736 104.618C99.7045 105.113 99.4395 105.54 98.928 105.818C97.9247 106.362 96.9666 105.91 96.4185 104.9C95.8704 103.89 96.0133 102.841 97.0166 102.296C97.5151 102.025 97.9909 102.037 98.4158 102.25L97.4567 100.483L98.0657 100.153L100.596 104.814L100.013 105.129ZM98.7364 105.227C99.4158 104.858 99.4688 104.168 99.0819 103.456C98.6951 102.744 98.0871 102.411 97.4077 102.781C96.7218 103.154 96.6688 103.844 97.0557 104.555C97.4425 105.267 98.0505 105.6 98.7364 105.227Z" fill="#F9EDC1"/>
<path d="M100.25 102.819C99.6819 101.819 99.8754 100.729 100.842 100.179C101.804 99.6343 102.836 100.022 103.413 101.039L103.523 101.231L101.001 102.664C101.401 103.233 101.96 103.458 102.524 103.138C102.948 102.899 103.148 102.507 103.101 102.067L103.716 101.718C103.878 102.499 103.565 103.244 102.821 103.665C101.853 104.213 100.817 103.818 100.251 102.821L100.25 102.819ZM102.602 101.087C102.199 100.586 101.672 100.405 101.139 100.705C100.601 101.011 100.488 101.557 100.717 102.156L102.599 101.088L102.602 101.087Z" fill="#F9EDC1"/>
<path d="M120.911 53.5694C117.402 68.0506 109.083 78.3326 94.6585 83.7527C87.4555 86.4592 84.5272 86.6259 78.4005 90.8651C77.9633 91.1671 77.7269 91.6848 77.7754 92.2152L78.0526 95.2154C78.0975 95.692 78.4054 96.1039 78.8606 96.2539C99.5717 103.023 137.606 79.002 128.358 55.1039C127.549 53.0121 126.297 51.887 124.522 51.3658L120.909 53.5706L120.911 53.5694Z" fill="#EEB91D"/>
<path d="M115.827 38.6184L114.534 45.5042C114.534 45.5042 119.813 49.4566 120.91 53.5697L124.523 51.365C119.897 46.4869 118.613 45.8128 119.677 42.5385L115.827 38.6184Z" fill="#EEB91D"/>
<path d="M40.2238 72.3271C44.5422 67.281 50.8724 65.4694 57.5599 64.1937C64.1315 62.9407 70.3201 62.3112 75.4496 58.2101C75.6198 58.0752 75.7044 57.8578 75.6771 57.6443L75.2698 54.4046C75.2493 54.2459 75.1146 54.1285 74.9553 54.127C71.8045 54.095 70.4322 53.768 67.165 53.6895C63.8034 53.6111 52.9642 54.311 46.1874 57.1969C39.4107 60.0827 34.9823 63.1074 30.9686 68.2613C26.9538 73.4129 27.2055 78.9015 28.9997 80.4194C33.5001 81.4522 35.902 77.3722 40.2216 72.3283L40.2238 72.3271Z" fill="#EEB91D"/>
<path d="M29.8381 90.1507L32.5982 87.696C32.5982 87.696 31.0755 82.4634 32.4557 79.202L28.8842 78.8598C29.7059 85.3994 30.2763 85.3269 27.6012 87.0941L29.8359 90.1518L29.8381 90.1507Z" fill="#EEB91D"/>
<path d="M48.9526 100.892C49.1583 100.249 49.2298 99.6408 49.1663 99.0768C49.1065 98.4885 48.9292 97.9877 48.63 97.5712C48.3409 97.1688 47.9457 96.8701 47.4422 96.6762C46.9318 96.4693 46.3324 96.3932 45.6452 96.45C44.2588 96.5671 42.9857 97.0438 41.827 97.8767C40.8431 98.5834 40.0676 99.4573 39.4973 100.497C40.2365 102.165 41.3786 104.658 42.9247 107.979L42.9531 108.017C44.5194 106.795 45.803 105.642 46.805 104.562C47.8178 103.47 48.5341 102.249 48.9559 100.893L48.9526 100.892ZM39.96 92.0487C39.2206 91.3379 38.4285 91.2864 37.5838 91.894C37.1814 92.1831 36.7814 92.6127 36.3893 93.1826C36.8564 94.3384 37.5814 96.0523 38.5675 98.3252C39.3656 97.3893 39.9709 96.3417 40.3823 95.1859C40.8057 94.0209 40.7556 93.0743 40.2298 92.3418C40.1854 92.2792 40.094 92.1804 39.9622 92.0475L39.96 92.0487ZM45.3856 94.3719C46.4323 94.1546 47.3871 94.1669 48.2486 94.4067C49.1232 94.6396 49.8046 95.0948 50.2917 95.7756C50.7629 96.4316 51.0113 97.2282 51.0348 98.1667C51.1047 100.39 50.3542 102.524 48.7866 104.57C47.2308 106.607 45.2742 108.47 42.919 110.165C42.2889 110.616 41.6765 111.028 41.0839 111.399C40.7846 111.594 40.5763 111.611 40.4591 111.448C40.3317 111.271 40.3337 110.955 40.4649 110.496C40.6071 110.031 40.7769 109.708 40.9734 109.528C38.8975 105.096 36.8974 100.534 34.9742 95.8397C34.8494 95.9867 34.699 96.1223 34.5243 96.2486C34.3236 96.3942 34.136 96.4911 33.9594 96.5406C33.7967 96.5798 33.675 96.5444 33.5953 96.4311C33.4962 96.2919 33.4877 96.0406 33.5687 95.675C33.6818 95.1922 33.8988 94.6069 34.2231 93.9145C34.1947 93.8768 34.1677 93.8105 34.138 93.7179C34.0378 93.4458 34.0866 93.114 34.2834 92.7258C34.4941 92.3273 34.75 92.0189 35.051 91.8004C35.2905 91.6286 35.479 91.5701 35.6144 91.626C36.1716 90.9377 36.714 90.4046 37.2437 90.0256C38.6183 89.0389 39.9044 88.9529 41.1045 89.7718C41.4362 89.993 41.7051 90.2477 41.9123 90.5379C42.3732 91.1799 42.5785 91.9688 42.5262 92.9059C42.4858 93.8339 42.2524 94.8227 41.8231 95.8768C42.9454 95.1271 44.1333 94.6262 45.3879 94.3762L45.3856 94.3719ZM53.463 90.9724C54.2545 90.2123 55.0225 89.5648 55.7648 89.0311L52.4113 84.7637C52.4984 85.5237 52.6959 86.7005 53.0017 88.2953C53.2577 89.6607 53.4097 90.5531 53.463 90.9724ZM63.9789 93.6755C64.1662 93.8289 64.2463 94.0477 64.2227 94.3327C64.19 94.6059 64.0751 94.8867 63.8847 95.177C63.7131 95.4713 63.5156 95.7014 63.2901 95.863C62.9244 96.1269 62.6342 96.1617 62.4219 95.9715C60.6727 94.4964 58.7997 92.5949 56.8017 90.2649C55.6576 91.0679 54.6076 91.9849 53.6493 93.0172C53.8861 95.847 54.0932 98.4591 54.2675 100.858C54.2935 101.105 54.1956 101.408 53.9683 101.759C53.7222 102.107 53.46 102.383 53.1828 102.583C52.8311 102.837 52.587 102.869 52.4504 102.68C52.3958 102.604 52.3626 102.505 52.3496 102.381C52.0884 99.8921 51.8621 97.61 51.6695 95.5324L51.4299 95.8767C51.2828 96.0968 51.1277 96.2654 50.9627 96.3838C50.7997 96.501 50.644 96.5532 50.502 96.5425C50.3471 96.5387 50.2282 96.4823 50.1473 96.3668C50.0573 96.2395 50.029 96.0711 50.0652 95.8516C50.0783 95.6305 50.1646 95.39 50.3161 95.1259C50.7195 94.436 51.099 93.8476 51.4548 93.361C51.2924 91.7011 51.0615 89.8497 50.7622 87.8121C50.4214 85.4769 50.2089 83.6129 50.1258 82.2223C50.126 82.1443 50.1414 82.0583 50.1687 81.9632L50.081 81.8819C49.9182 81.6542 49.929 81.3398 50.1189 80.9386C50.3103 80.5142 50.5711 80.1837 50.8969 79.9493C51.2994 79.6603 51.6168 79.6611 51.8482 79.9551L52.8147 81.1819C55.1117 84.137 57.094 86.5893 58.7641 88.543C60.4379 90.4726 62.1755 92.1874 63.9769 93.6821L63.9789 93.6755ZM64.7625 70.1522C64.816 70.0959 64.8999 70.0235 65.0132 69.9438C65.2268 69.7913 65.4173 69.7206 65.5813 69.7363C65.7481 69.731 65.877 69.7904 65.9691 69.9166C66.1057 70.1054 66.1397 70.3681 66.0744 70.7003C66.0001 71.0207 65.8349 71.3115 65.5833 71.5704L65.5761 71.7188C65.5436 71.9141 65.5531 72.2038 65.6001 72.5903C65.678 73.2023 65.8869 73.9977 66.2266 74.9766C66.7274 76.3369 67.5495 78.0659 68.6971 80.1668C69.453 81.5361 70.3221 83.0399 71.311 84.6801C71.3628 84.7777 71.4554 84.9203 71.5919 85.1091C71.8573 85.5297 72.0585 85.8926 72.199 86.1933C72.3303 86.4822 72.3879 86.763 72.3773 87.0411C72.3539 87.2482 72.2488 87.5265 72.0576 87.8729C71.8714 88.1971 71.659 88.4463 71.4195 88.6181C71.1034 88.8446 70.8246 88.8538 70.5811 88.6468C69.6325 87.9138 68.3216 86.7924 66.6441 85.2847C66.3812 85.0518 65.9937 84.7101 65.4761 84.2596C64.9607 83.8079 64.5083 83.4173 64.1178 83.0855L62.2078 81.5067C62.7036 82.3554 63.1844 83.2231 63.6503 84.1098C64.4898 85.7044 65.1391 87.072 65.5961 88.2137C66.0682 89.3475 66.3196 90.4845 66.3547 91.6226C66.3692 91.9374 66.3013 92.2543 66.1479 92.5723C65.9983 92.8715 65.8 93.1104 65.5465 93.2924C65.3695 93.4199 65.1838 93.5047 64.9862 93.5514C64.7817 93.5851 64.6323 93.5394 64.5423 93.4121C64.4786 93.3236 64.451 93.2298 64.454 93.1309C64.3226 91.9634 64.026 90.8198 63.5641 89.7001C63.1072 88.5584 62.4669 87.2026 61.6446 85.6351C60.4021 83.2983 59.1366 81.2267 57.8405 79.4272C57.3159 78.6968 56.9092 78.1567 56.6215 77.8092C56.4378 77.5788 56.4333 77.2669 56.6079 76.8738C56.7757 76.4676 57.0225 76.1473 57.3493 75.9096C57.6007 75.7286 57.835 75.6569 58.0533 75.6909C58.5529 75.7729 59.0075 75.9427 59.4214 76.1981C59.838 76.4326 60.421 76.8178 61.1658 77.3505C62.134 78.0313 63.5165 79.1203 65.3179 80.615C65.6328 80.8674 66.0905 81.2524 66.6956 81.7732C66.4652 81.3452 66.1225 80.6849 65.6706 79.7879C65.0029 78.4329 64.4745 77.2456 64.0854 76.2263C63.7082 75.1978 63.5286 74.1227 63.5445 73.002C63.5513 71.8695 63.958 70.9192 64.7614 70.15L64.7625 70.1522ZM74.9489 75.5302C75.7404 74.7701 76.5084 74.1226 77.2506 73.589L73.8972 69.3215C73.9843 70.0815 74.1818 71.2583 74.4875 72.8531C74.7425 74.2163 74.8956 75.1109 74.9489 75.5302ZM85.4626 78.2344C85.6499 78.3879 85.73 78.6067 85.7064 78.8917C85.6737 79.1649 85.5588 79.4457 85.3684 79.736C85.1968 80.0302 84.9993 80.2603 84.7717 80.4231C84.406 80.6871 84.1158 80.7218 83.9034 80.5316C82.1542 79.0565 80.2812 77.155 78.2833 74.825C77.1413 75.6268 76.0891 76.545 75.1309 77.5773C75.3676 80.4072 75.5747 83.0192 75.749 85.4179C75.775 85.6655 75.6771 85.9678 75.452 86.3183C75.2059 86.6661 74.9437 86.9417 74.6665 87.1419C74.3148 87.3957 74.0707 87.4281 73.9341 87.2394C73.8795 87.1628 73.8463 87.0636 73.8333 86.9399C73.5721 84.4511 73.3458 82.169 73.1532 80.0914L72.9136 80.4357C72.7665 80.6557 72.6114 80.8244 72.4464 80.9427C72.2835 81.0599 72.1277 81.1122 71.9858 81.1014C71.8308 81.0976 71.7119 81.0413 71.631 80.9258C71.5389 80.7996 71.5115 80.6279 71.5489 80.4106C71.562 80.1895 71.6483 79.949 71.7998 79.6849C72.2032 78.9949 72.5827 78.4066 72.9385 77.9199C72.7761 76.2601 72.5452 74.4086 72.2459 72.3711C71.9052 70.0359 71.6926 68.1719 71.6095 66.7813C71.6097 66.7033 71.6251 66.6173 71.6524 66.5221L71.5647 66.4409C71.4019 66.2132 71.4127 65.8988 71.6026 65.4976C71.794 65.0732 72.0548 64.7427 72.3828 64.5071C72.7852 64.2181 73.1027 64.2189 73.3341 64.5129L74.3006 65.7397C76.5976 68.6948 78.5799 71.1471 80.25 73.1009C81.9238 75.0304 83.6614 76.7452 85.4627 78.2399L85.4626 78.2344ZM86.2462 54.7111C86.2986 54.6527 86.3836 54.5825 86.4969 54.5028C86.7106 54.3502 86.901 54.2796 87.065 54.2952C87.2318 54.29 87.3607 54.3493 87.4528 54.4755C87.5894 54.6643 87.6234 54.9271 87.5581 55.2593C87.4838 55.5796 87.3186 55.8704 87.067 56.1294L87.0598 56.2778C87.0273 56.473 87.0368 56.7627 87.0838 57.1493C87.1617 57.7613 87.3706 58.5567 87.7103 59.5356C88.2111 60.8959 89.0332 62.6249 90.1808 64.7258C90.9367 66.0951 91.8058 67.5988 92.7947 69.2391C92.8466 69.3366 92.9391 69.4793 93.0756 69.6681C93.341 70.0887 93.5423 70.4516 93.6827 70.7523C93.814 71.0411 93.8716 71.322 93.8598 71.5979C93.8365 71.805 93.7314 72.0833 93.5402 72.4297C93.3539 72.7539 93.1416 73.0031 92.9021 73.1749C92.5859 73.4014 92.3072 73.4106 92.0637 73.2036C91.1172 72.4695 89.8041 71.3492 88.1266 69.8415C87.8638 69.6086 87.4763 69.2669 86.9587 68.8164C86.4433 68.3647 85.9909 67.9741 85.6003 67.6423L83.6904 66.0635C84.1861 66.9122 84.6669 67.7799 85.1307 68.6678C85.9702 70.2623 86.6195 71.6299 87.0765 72.7717C87.5452 73.9044 87.8 75.0424 87.8351 76.1805C87.8517 76.4942 87.7817 76.8123 87.6282 77.1302C87.4809 77.4283 87.2804 77.6683 87.0268 77.8504C86.8499 77.9778 86.6642 78.0627 86.4666 78.1094C86.2621 78.143 86.1127 78.0974 86.0227 77.97C85.959 77.8815 85.9314 77.7878 85.9344 77.6889C85.803 76.5214 85.5064 75.3778 85.0445 74.2581C84.5875 73.1163 83.9473 71.7606 83.125 70.193C81.8825 67.8562 80.6169 65.7847 79.3209 63.9852C78.7963 63.2547 78.3896 62.7147 78.1019 62.3671C77.9182 62.1367 77.9137 61.8249 78.0883 61.4317C78.2561 61.0255 78.5029 60.7052 78.8297 60.4675C79.0811 60.2866 79.3154 60.2148 79.5337 60.2489C80.0333 60.3308 80.4879 60.5007 80.9017 60.7561C81.3184 60.9906 81.9013 61.3757 82.6462 61.9084C83.6143 62.5893 84.9969 63.6782 86.7982 65.1729C87.1132 65.4253 87.5721 65.8125 88.176 66.3312C87.9456 65.9031 87.6029 65.2428 87.1509 64.3459C86.4833 62.9908 85.9549 61.8036 85.5658 60.7842C85.1886 59.7558 85.009 58.6806 85.0249 57.56C85.0317 56.4275 85.4384 55.4771 86.2418 54.708L86.2462 54.7111ZM96.4315 60.087C97.223 59.3269 97.9909 58.6795 98.7332 58.1458L95.3797 53.8783C95.4668 54.6383 95.6644 55.8152 95.9701 57.4099C96.2262 58.7753 96.3781 59.6677 96.4315 60.087ZM106.948 62.7923C107.136 62.9457 107.216 63.1645 107.192 63.4495C107.16 63.7227 107.045 64.0035 106.854 64.2938C106.683 64.5881 106.485 64.8182 106.258 64.9809C105.892 65.2449 105.602 65.2796 105.389 65.0894C103.64 63.6143 101.767 61.7128 99.7691 59.3829C98.625 60.1858 97.575 61.1028 96.6167 62.1351C96.8535 64.965 97.0606 67.577 97.2349 69.9758C97.2609 70.2233 97.163 70.5256 96.9357 70.8773C96.6896 71.225 96.4274 71.5007 96.1502 71.7009C95.7985 71.9546 95.5544 71.9871 95.4178 71.7983C95.3632 71.7217 95.33 71.6226 95.317 71.4988C95.0558 69.01 94.8295 66.7279 94.6369 64.6504L94.3973 64.9947C94.2502 65.2147 94.0951 65.3833 93.9301 65.5017C93.7672 65.6189 93.6114 65.6711 93.4695 65.6604C93.3145 65.6566 93.1956 65.6003 93.1147 65.4848C93.0247 65.3574 92.9952 65.1868 93.0326 64.9695C93.0469 64.7506 93.132 64.508 93.2857 64.2427C93.689 63.5528 94.0686 62.9644 94.4243 62.4778C94.2619 60.8179 94.031 58.9665 93.7318 56.9289C93.391 54.5937 93.1785 52.7297 93.0953 51.3391C93.0956 51.2611 93.111 51.1751 93.1383 51.0799L93.0506 50.9987C92.8878 50.771 92.8986 50.4566 93.0884 50.0554C93.2799 49.631 93.5407 49.3005 93.8665 49.0661C94.2689 48.777 94.5864 48.7779 94.8166 49.0697L95.7831 50.2965C98.0801 53.2516 100.064 55.706 101.733 57.6577C103.406 59.5872 105.144 61.302 106.945 62.7967L106.948 62.7923ZM112.043 49.5839C113.335 49.7064 114.243 50.1328 114.769 50.8621C115.113 51.3411 115.294 51.9374 115.31 52.652C115.347 55.1486 114.723 57.1543 113.442 58.6669C113.11 59.0575 112.693 59.4347 112.19 59.7966C111.006 60.6489 109.66 61.1669 108.149 61.3531C107.434 61.4468 106.817 61.3469 106.297 61.0502C105.778 60.7535 105.302 60.303 104.868 59.6999C104.559 59.2716 104.167 58.6181 103.688 57.7383C103.571 57.4974 103.672 57.2631 103.986 57.0378C104.338 56.784 104.78 56.6379 105.307 56.6049C105.836 56.5686 106.18 56.7028 106.342 57.0084C106.401 57.119 106.534 57.3683 106.738 57.7574C106.932 58.1326 107.132 58.468 107.342 58.7571C107.813 59.4131 108.287 59.7395 108.766 59.7407C109.244 59.7419 109.734 59.5594 110.239 59.1964C110.744 58.8334 111.189 58.3521 111.577 57.7482C111.876 57.2861 112.14 56.6842 112.372 55.9436C112.615 55.1939 112.744 54.4527 112.752 53.7199C112.772 52.978 112.621 52.38 112.294 51.9279C112.03 51.5622 111.665 51.3199 111.197 51.1987C110.737 51.0905 110.178 51.0704 109.523 51.1407C108.88 51.2018 108.052 51.328 107.044 51.5191C105.795 51.7492 104.768 51.9034 103.967 51.9817C103.167 52.0402 102.404 51.9868 101.675 51.8238C100.936 51.6468 100.36 51.2692 99.9435 50.6898C99.7523 50.4244 99.6163 50.1686 99.5354 49.9224C99.0227 48.5712 99.1823 47.224 100.014 45.8808C100.849 44.5166 101.959 43.3367 103.346 42.341C103.951 41.9052 104.507 41.565 105.016 41.314C105.524 41.0629 106.018 40.956 106.503 40.99C107.043 41.0226 107.495 41.2914 107.857 41.7941C108.073 42.0962 108.242 42.4347 108.358 42.8096C108.479 43.1624 108.624 43.6607 108.797 44.3C108.903 44.7388 108.97 45.0062 109.001 45.101C109.08 45.3703 108.949 45.6262 108.609 45.8708C108.269 46.1155 107.868 46.2596 107.403 46.3063C106.939 46.3531 106.623 46.2567 106.449 46.0183C106.405 45.9557 106.375 45.8994 106.362 45.8536L106.06 44.8375C105.933 44.3937 105.831 44.0667 105.755 43.8545L105.316 42.9671C103.71 44.0825 102.674 45.3144 102.212 46.6615C102.015 47.186 101.932 47.6943 101.961 48.1879C101.995 48.6593 102.133 49.0666 102.378 49.4064C102.804 49.9976 103.466 50.2962 104.367 50.2978C105.012 50.2916 105.689 50.2373 106.396 50.1284C107.116 50.0126 107.556 49.9456 107.712 49.9263C108.706 49.7652 109.513 49.6527 110.136 49.5888C110.77 49.5158 111.411 49.514 112.055 49.5857L112.043 49.5839Z" fill="#F9EDC1" stroke="#F9EDC1" stroke-width="0.491022" stroke-miterlimit="10"/>
<path d="M102.827 97.7722L102.431 97.9995L103.026 99.0401L102.738 99.2044L102.143 98.1638L101.747 98.3912L101.595 98.127L102.677 97.5101L102.829 97.7743L102.827 97.7722ZM105.134 97.833L104.848 97.9961L104.363 97.145L104.315 97.9128L104.306 97.9174L103.629 97.5742L104.112 98.4209L103.831 98.5817L103.086 97.2758L103.396 97.1L104.055 97.4558L104.082 96.7072L104.392 96.5314L105.137 97.8373L105.134 97.833Z" fill="#F8EED0"/>
<path d="M42.9978 49.6358L44.8442 48.3705C45.8894 47.6535 46.7054 47.8285 47.2252 48.5865C47.5091 49 47.5566 49.5392 47.2553 50.0915C47.6701 49.9933 48.0144 50.1439 48.3036 50.4628L49.4263 51.6593L48.8012 52.0891L47.8718 51.0733C47.4496 50.6138 47.0698 50.5794 46.5763 50.9169L45.3432 51.7616L46.5995 53.5962L45.9927 54.0133L42.9935 49.6381L42.9978 49.6358ZM46.1998 50.3969C46.8379 49.9603 46.9204 49.4827 46.6092 49.0281C46.3003 48.5778 45.8257 48.4854 45.1875 48.922L43.9728 49.7542L44.9862 51.2313L46.2009 50.3991L46.1998 50.3969Z" fill="#F9EDC1"/>
<path d="M47.0456 46.9146L47.6282 46.5409L48.0499 47.1981L47.4673 47.5718L47.0456 46.9146ZM47.8432 48.1533L48.4323 47.7761L50.5009 50.9972L49.9118 51.3744L47.8432 48.1533Z" fill="#F9EDC1"/>
<path d="M49.7544 46.9363L50.058 47.4339C50.0664 46.9372 50.3058 46.4985 50.8034 46.195C51.7781 45.6017 52.7569 46.0044 53.3559 46.9844C53.9548 47.9645 53.866 49.0211 52.8891 49.6156C52.4045 49.9122 51.9304 49.9252 51.4939 49.7318L52.5408 51.4497L51.9491 51.8116L49.1876 47.2822L49.7544 46.9363ZM52.4777 49.1503C53.1429 48.7438 53.1619 48.0525 52.7403 47.359C52.3199 46.6677 51.6951 46.366 51.0277 46.7737C50.3668 47.1779 50.35 47.8681 50.7715 48.5615C51.1931 49.255 51.8167 49.5546 52.4777 49.1503Z" fill="#F9EDC1"/>
<path d="M53.7337 46.7641C53.1617 45.7669 53.3486 44.6749 54.3133 44.1203C55.2714 43.5691 56.3069 43.9528 56.8892 44.9696L56.9994 45.1612L54.4831 46.6048C54.885 47.1724 55.4452 47.3945 56.0072 47.0707C56.4295 46.8295 56.6282 46.4346 56.5777 45.9944L57.1916 45.6429C57.3583 46.4218 57.0486 47.1677 56.308 47.5948C55.3433 48.1494 54.3045 47.7592 53.7337 46.7641ZM56.0788 45.0195C55.6753 44.5222 55.1447 44.34 54.6153 44.6465C54.0782 44.9543 53.9689 45.5018 54.2003 46.099L56.0788 45.0195Z" fill="#F9EDC1"/>
<path d="M58.7167 44.5261C58.332 43.8131 58.6354 43.1651 59.0116 42.5758C58.5052 42.3974 58.1681 42.2708 57.9032 41.7777C57.5358 41.0971 57.9034 40.4289 58.5331 40.0914C59.1681 39.7482 59.922 39.8116 60.2894 40.4922C60.6084 41.0817 60.3429 41.6594 60 42.2227L61.5958 42.7922C61.5911 42.4277 61.486 42.0471 61.2967 41.6806L61.8797 41.365C62.1684 41.9289 62.2903 42.4981 62.2574 43.0272L63.5751 43.4972L62.7775 43.9268L62.1247 43.6928C61.9372 44.2291 61.5565 44.6845 60.967 45.0035C59.9885 45.5321 59.1083 45.2522 58.7167 44.5261ZM60.6672 44.4344C61.0822 44.2109 61.3592 43.869 61.4972 43.4592L59.6299 42.7921C59.3388 43.2749 59.1241 43.7339 59.3601 44.1673C59.5732 44.5629 60.057 44.7616 60.666 44.4322L60.6672 44.4344ZM59.3882 42.003C59.6641 41.5699 59.8575 41.1807 59.6686 40.8306C59.4957 40.5055 59.1473 40.4516 58.8298 40.6232C58.5111 40.7926 58.3688 41.1158 58.5417 41.441C58.7076 41.7531 58.9562 41.8545 59.3894 42.0051L59.3882 42.003Z" fill="#F9EDC1"/>
<path d="M62.7464 37.9433L65.9507 36.2979L66.2532 36.8878L63.7039 38.1961L64.4139 39.5786L66.8321 38.3374L67.1311 38.9208L64.713 40.162L65.8238 42.3242L65.1688 42.6613L62.7464 37.9433Z" fill="#F9EDC1"/>
<path d="M67.1001 37.3773L67.6947 37.0834L67.9885 37.6779C68.0091 37.0525 68.3303 36.7204 68.7577 36.5098L69.0225 36.3802L69.3163 36.9747L69.0321 37.1147C68.4506 37.4017 68.1164 37.8713 68.5318 38.7154L69.4147 40.5066L68.793 40.8121L67.1001 37.3773Z" fill="#F9EDC1"/>
<path d="M70.2108 37.9725C69.7234 36.9303 70.0019 35.8591 71.0104 35.3868C72.0124 34.918 73.0115 35.385 73.5071 36.4478L73.6 36.6487L70.9707 37.8799C71.3251 38.4784 71.8656 38.7471 72.4507 38.4721C72.8914 38.2656 73.1226 37.8897 73.1104 37.4485L73.752 37.149C73.8531 37.9406 73.4812 38.6583 72.7082 39.0192C71.6997 39.4915 70.6972 39.018 70.2098 37.9758L70.2108 37.9725ZM72.6927 36.4276C72.3302 35.8974 71.8194 35.6741 71.2646 35.9329C70.7034 36.1952 70.5488 36.7306 70.7311 37.3455L72.6927 36.4276Z" fill="#F9EDC1"/>
<path d="M74.1593 36.8631L74.7938 36.5869C75.0742 37.0829 75.4612 37.1413 76.0012 36.907C76.4933 36.6926 76.7118 36.3818 76.5743 36.0656C76.4438 35.7679 76.2879 35.684 75.4628 35.8892C74.3124 36.1783 73.8838 35.9474 73.6391 35.3879C73.3698 34.7664 73.7473 34.1375 74.5306 33.7961C75.4432 33.3998 76.172 33.599 76.5044 34.3288L75.8764 34.6015C75.6331 34.0969 75.2087 34.1196 74.7567 34.3154C74.3655 34.4845 74.1336 34.7857 74.2688 35.0976C74.4006 35.4029 74.6191 35.4424 75.4028 35.2482C76.5218 34.9785 76.9482 35.1633 77.1989 35.7446C77.4949 36.427 77.0497 37.0696 76.2207 37.4298C75.3559 37.8062 74.5789 37.6993 74.1593 36.8631Z" fill="#F9EDC1"/>
<path d="M76.1767 31.5834L76.8205 31.3301L77.5468 33.1823C77.6616 32.7654 77.9375 32.3795 78.4443 32.1823C79.3274 31.8351 79.9659 32.3298 80.2335 33.0161L81.1405 35.3339L80.4967 35.5873L79.6121 33.3326C79.4267 32.8584 79.0525 32.6097 78.5163 32.8197C78.2499 32.9252 77.6034 33.3357 77.973 34.282L78.7521 36.2702L78.1083 36.5235L76.1724 31.5857L76.1767 31.5834Z" fill="#F9EDC1"/>
</g>
<defs>
<filter id="filter0_d_2246_2365" x="-3" y="-3" width="162.767" height="151.111" filterUnits="userSpaceOnUse" color-interpolation-filters="sRGB">
<feFlood flood-opacity="0" result="BackgroundImageFix"/>
<feColorMatrix in="SourceAlpha" type="matrix" values="0 0 0 0 0 0 0 0 0 0 0 0 0 0 0 0 0 0 127 0" result="hardAlpha"/>
<feOffset/>
<feGaussianBlur stdDeviation="1.5"/>
<feComposite in2="hardAlpha" operator="out"/>
<feColorMatrix type="matrix" values="0 0 0 0 0 0 0 0 0 0 0 0 0 0 0 0 0 0 0.4 0"/>
<feBlend mode="normal" in2="BackgroundImageFix" result="effect1_dropShadow_2246_2365"/>
<feBlend mode="normal" in="SourceGraphic" in2="effect1_dropShadow_2246_2365" result="shape"/>
</filter>
<clipPath id="clip0_2246_2365">
<rect width="125.702" height="97.512" fill="white" transform="translate(0 59.0132) rotate(-28)"/>
</clipPath>
</defs>
</svg>
