<svg width="119" height="141" viewBox="0 0 119 141" fill="none" xmlns="http://www.w3.org/2000/svg">
<path d="M70.7037 132.165C28.1648 139.666 17.7585 113.088 11.7644 79.0933C5.7702 45.0986 6.45875 16.5646 48.9977 9.06387C91.5366 1.56312 101.943 28.1408 107.937 62.1354C113.931 96.1301 113.243 124.664 70.7037 132.165Z" fill="#C63535"/>
<path d="M17.1085 36.0237L17.1085 36.0236C19.2329 30.5026 22.6197 26.1381 27.4661 22.6716C32.9369 18.7585 40.4807 15.9211 49.9132 14.2579C59.3457 12.5947 67.405 12.6809 73.8842 14.4868C79.6239 16.0867 84.2968 19.03 88.1839 23.4912C92.3572 28.281 95.3725 34.6096 97.6582 41.5341C99.9431 48.4561 101.491 55.9491 102.743 63.0519C103.996 70.1559 105.104 77.7264 105.325 85.0122C105.545 92.3005 104.876 99.2781 102.592 105.206L102.592 105.207C100.468 110.728 97.0812 115.092 92.2349 118.559C86.7641 122.472 79.2203 125.309 69.7878 126.972C60.3553 128.635 52.296 128.549 45.8167 126.743C40.0771 125.143 35.4042 122.2 31.517 117.739C27.3437 112.949 24.3285 106.621 22.0429 99.697C19.7581 92.7752 18.2101 85.2823 16.9575 78.1783C15.7049 71.0742 14.5968 63.5037 14.3764 56.218C14.156 48.9297 14.825 41.952 17.1085 36.0237Z" stroke="#FEFFE4" stroke-width="0.78125"/>
<path d="M33.7163 109.307C33.2779 108.805 33.108 108.317 33.2066 107.844C33.3131 107.364 33.6566 106.87 34.2374 106.363C34.826 105.85 36.7016 104.648 39.8642 102.759L40.5793 101.036C41.9262 101.423 42.9182 101.981 43.5552 102.711C43.9798 103.197 43.9978 103.693 43.6091 104.198C44.7777 104.603 45.701 105.193 46.3791 105.97C46.8243 106.48 47.097 107.03 47.1972 107.62C47.3198 108.315 47.0436 108.957 46.3687 109.546C45.2543 110.519 43.9082 110.608 42.3306 109.815C43.2068 111.262 43.0523 112.503 41.8673 113.537C41.0982 114.209 40.2086 114.425 39.1986 114.187C38.1886 113.948 37.3377 113.433 36.6459 112.64C35.961 111.855 35.5744 111.08 35.4862 110.313C34.7446 110.145 34.1546 109.809 33.7163 109.307ZM39.7529 110.592C40.1218 110.27 40.2966 109.924 40.2775 109.553C40.2652 109.191 40.1015 108.829 39.7865 108.468C39.4714 108.107 39.0441 107.768 38.5045 107.451C37.7279 107.907 37.1041 108.341 36.6332 108.752C36.7883 109.294 37.0474 109.773 37.4104 110.189C37.7735 110.605 38.1627 110.853 38.578 110.933C39.0003 111.021 39.3919 110.907 39.7529 110.592ZM43.582 105.902C43.3149 105.596 42.9683 105.318 42.5424 105.067C42.1952 105.287 41.2837 105.827 39.8078 106.687C40.4234 107.297 41.0633 107.713 41.7274 107.935C42.3993 108.151 42.9904 108.036 43.5005 107.591C44.0891 107.077 44.1163 106.514 43.582 105.902Z" fill="#FEFFE4"/>
<path d="M53.0575 118.382L52.6875 116.753C52.1491 116.694 51.6147 116.551 51.0843 116.324C50.8971 116.974 50.7874 117.444 50.7554 117.734C50.6442 118.738 50.7165 119.506 50.9721 120.038C50.2993 120.435 49.6264 120.596 48.9535 120.522C48.2805 120.447 47.8202 120.202 47.5727 119.787C47.3264 119.362 47.2456 118.766 47.3304 118C47.4163 117.223 47.9848 115.07 49.0357 111.539L48.3965 109.786C49.6386 109.169 50.7463 108.914 51.7195 109.022C52.4649 109.104 53.0224 109.323 53.3918 109.678C54.2027 109.454 54.9187 109.376 55.5399 109.445C56.4924 109.55 57.2127 109.955 57.7008 110.658C58.1888 111.362 58.383 112.164 58.2833 113.065C58.2089 113.738 57.9659 114.371 57.5543 114.965C57.1439 115.549 56.5856 116 55.8794 116.32C56.1203 117.364 56.4181 118.272 56.7727 119.045C57.1377 119.819 57.5245 120.349 57.933 120.635C57.6903 120.839 57.3321 120.998 56.8582 121.113C56.3935 121.24 55.98 121.283 55.6176 121.243C54.9136 121.165 54.3688 120.927 53.9833 120.528C53.5989 120.119 53.2903 119.403 53.0575 118.382ZM51.955 114.707C52.7832 114.799 53.4486 114.658 53.9512 114.284C54.464 113.911 54.7474 113.481 54.8013 112.994C54.8551 112.508 54.7635 112.104 54.5264 111.785C54.2893 111.465 53.9222 111.278 53.4253 111.223C53.1561 111.193 52.8829 111.199 52.6057 111.242C52.0555 113.183 51.7201 114.32 51.5995 114.652C51.6708 114.67 51.7893 114.689 51.955 114.707Z" fill="#FEFFE4"/>
<path d="M64.8038 120.878C64.1978 120.98 63.719 120.866 63.3673 120.534C63.014 120.192 62.7733 119.641 62.6453 118.881C62.5156 118.11 62.4733 115.883 62.5184 112.2L61.4241 110.689C62.4586 109.743 63.4535 109.19 64.4088 109.029C65.0148 108.927 65.4382 109.152 65.6789 109.703C66.8344 109.476 68.2387 108.971 69.8916 108.185C70.0309 108.51 70.1282 108.837 70.1835 109.166C70.3236 109.998 70.1518 110.671 69.6681 111.186C69.1946 111.699 68.5264 112.028 67.6635 112.173C67.078 112.272 66.482 112.245 65.8756 112.094C65.8712 112.57 65.8546 113.349 65.8256 114.432C66.2178 114.439 66.5474 114.421 66.8144 114.376C67.2218 114.223 67.6641 114.027 68.1415 113.788C68.2223 113.954 68.2964 114.237 68.3638 114.638C68.4296 115.028 68.3231 115.368 68.0445 115.658C67.7658 115.948 67.4262 116.127 67.0256 116.194C66.6352 116.26 66.2269 116.281 65.8004 116.258C65.7964 116.924 65.8428 117.545 65.9397 118.12L68.4358 117.7C69.1974 117.455 69.9495 117.123 70.692 116.702C70.7848 116.876 70.858 117.123 70.9116 117.441C71.0137 118.047 70.9247 118.617 70.6448 119.15C70.3751 119.681 69.927 120 69.3004 120.105C68.9717 120.16 68.4777 120.175 67.8183 120.149C67.171 120.131 66.6906 120.133 66.3773 120.154C65.9344 120.535 65.4099 120.776 64.8038 120.878Z" fill="#FEFFE4"/>
<path d="M80.923 106.495L82.3459 109.933C82.8754 111.099 83.4158 112.038 83.9671 112.749C84.5279 113.455 85.1427 113.84 85.8117 113.902C85.3423 114.607 84.7708 115.112 84.0973 115.418C82.9116 115.956 81.7465 115.329 80.6019 113.538L77.6993 114.855C77.7988 115.554 77.924 116.069 78.0746 116.401C78.221 116.723 78.3773 116.967 78.5436 117.132C78.044 117.896 77.5191 118.403 76.9689 118.653C76.1247 119.036 75.4701 118.715 75.0052 117.691C74.7728 117.179 74.6366 116.463 74.5966 115.543C74.5661 114.619 74.5836 113.535 74.649 112.293C74.7239 111.047 74.7593 110.23 74.7553 109.843C74.4185 109.378 74.0718 108.929 73.7151 108.496C74.0534 107.931 74.4115 107.459 74.7893 107.082C75.1723 106.691 75.6294 106.375 76.1606 106.134C76.7013 105.888 77.1298 105.837 77.4461 105.979C77.8791 105.497 78.2711 105.176 78.6221 105.017C78.9731 104.857 79.2598 104.796 79.4822 104.832C79.7046 104.868 79.9032 104.979 80.0781 105.162C80.3831 105.481 80.6647 105.926 80.923 106.495ZM78.2116 108.12L77.7563 108.326C77.6516 110.364 77.6058 111.952 77.6189 113.09L79.8243 112.089C79.3551 111.055 78.8175 109.732 78.2116 108.12Z" fill="#FEFFE4"/>
<path d="M90.4034 108.306C89.8586 108.07 88.954 107.525 87.6895 106.671C86.425 105.816 85.6235 105.282 85.2852 105.067L83.4219 105.162C83.2597 103.65 83.3629 102.469 83.7315 101.618C83.9138 101.197 84.1938 100.944 84.5717 100.858C84.6383 99.9446 84.8165 99.1534 85.1064 98.4844C85.6449 97.2418 86.4694 96.4525 87.58 96.1164C88.6811 95.7761 89.8338 95.8669 91.038 96.3888C92.6247 97.0763 93.8296 98.291 94.6528 100.033C95.0489 100.874 95.2419 101.843 95.2321 102.94C95.2263 104.028 94.9957 105.097 94.5401 106.148C94.0845 107.2 93.501 107.917 92.7896 108.302C92.0686 108.682 91.2732 108.683 90.4034 108.306ZM92.2653 105.503C92.3905 105.319 92.507 105.103 92.6146 104.854C93.0661 103.812 93.0454 102.838 92.5525 101.932C92.0501 101.022 91.2493 100.329 90.1501 99.8526C89.2612 99.4674 88.467 99.3616 87.7674 99.5352C87.0677 99.7089 86.5543 100.173 86.2271 100.928C86.1774 101.043 86.1137 101.242 86.0359 101.527C86.4944 101.805 87.5074 102.454 89.0749 103.474C90.637 104.48 91.7004 105.156 92.2653 105.503Z" fill="#FEFFE4"/>
<path d="M27.9739 34.8858L24.8256 32.0775L25.2157 31.6403L27.9704 34.0975L29.3667 32.5321L29.7602 32.8832L27.9739 34.8858Z" fill="#FEFFE4"/>
<path d="M32.2005 30.8239C31.4761 31.3319 30.6253 31.0983 30.1005 30.3499C29.5757 29.6015 29.646 28.7221 30.3704 28.2141C31.09 27.7095 31.9374 27.9382 32.4723 28.701L32.5732 28.8449L30.6831 30.1704C31.0425 30.5911 31.5024 30.7265 31.9246 30.4305C32.2412 30.2085 32.3701 29.8819 32.3002 29.5373L32.7608 29.2144C32.9489 29.8195 32.757 30.4336 32.2005 30.8239ZM30.4221 29.788L31.8325 28.799C31.476 28.4335 31.0444 28.3283 30.6462 28.6075C30.2433 28.8901 30.1952 29.3317 30.4221 29.788Z" fill="#FEFFE4"/>
<path d="M33.4765 25.2092L33.9742 24.9599L34.3942 25.798L35.1171 25.4358L35.3271 25.8549L34.6042 26.2171L35.41 27.8254C35.5071 28.0192 35.6277 28.0636 35.8268 27.9639L36.272 27.7408L36.482 28.1599L35.932 28.4355C35.4605 28.6717 35.1669 28.5829 34.9412 28.1324L34.1065 26.4665L33.6088 26.7159L33.3988 26.2968L33.8965 26.0474L33.4765 25.2092Z" fill="#FEFFE4"/>
<path d="M36.6935 23.4161L37.2361 23.1948L37.3648 24.8446L36.9741 25.0039L36.6935 23.4161Z" fill="#FEFFE4"/>
<path d="M41.4433 26.1865C40.7308 26.4207 40.1236 26.2811 39.8523 25.587L40.3755 25.415C40.5609 25.8289 40.8627 25.9024 41.308 25.756C41.7143 25.6225 41.9098 25.3917 41.8238 25.13C41.7433 24.8851 41.625 24.8068 40.9557 24.9097C40.0231 25.0559 39.6997 24.8415 39.5478 24.3795C39.3795 23.8674 39.7242 23.3963 40.3699 23.184C41.1214 22.937 41.6838 23.1468 41.8944 23.7499L41.3767 23.9201C41.2209 23.5025 40.8838 23.49 40.5108 23.6126C40.188 23.7188 39.9832 23.9403 40.0674 24.1963C40.1498 24.4468 40.32 24.4957 40.9541 24.3982C41.8607 24.2667 42.1843 24.4441 42.3416 24.9228C42.5265 25.485 42.128 25.9614 41.4433 26.1865Z" fill="#FEFFE4"/>
<path d="M48.8442 24.1736C47.5452 24.4309 46.6781 23.5812 46.4492 22.4259C46.2204 21.2706 46.6982 20.1546 48.0202 19.8927C49.0721 19.6844 49.8571 20.18 50.1682 20.9965L49.5819 21.1126C49.3691 20.5813 48.825 20.2769 48.1238 20.4158C47.1639 20.6059 46.8728 21.4281 47.047 22.3075C47.2212 23.1869 47.8037 23.8361 48.7636 23.646C49.551 23.4901 49.867 22.9138 49.8534 22.1818L48.3532 22.4789L48.2542 21.9788L50.3291 21.5679L50.756 23.7233L50.2847 23.8166L50.139 23.0809C49.9782 23.6264 49.5856 24.0268 48.8442 24.1736Z" fill="#FEFFE4"/>
<path d="M54.7512 23.1514C53.8733 23.2612 53.2308 22.6566 53.1173 21.7496C53.0038 20.8426 53.4776 20.0983 54.3555 19.9885C55.2277 19.8794 55.8694 20.4782 55.9851 21.4026L56.0069 21.5771L53.7162 21.8636C53.8369 22.4036 54.1799 22.7386 54.6916 22.6746C55.0753 22.6266 55.342 22.3984 55.4415 22.0611L55.9997 21.9913C55.8827 22.6142 55.4256 23.067 54.7512 23.1514ZM53.6645 21.4036L55.3739 21.1898C55.2299 20.6999 54.8978 20.4049 54.4152 20.4653C53.9268 20.5264 53.6776 20.8941 53.6645 21.4036Z" fill="#FEFFE4"/>
<path d="M58.2761 18.689L58.8317 18.6554L58.8882 19.5912L59.6953 19.5425L59.7236 20.0104L58.9164 20.0591L59.0248 21.8547C59.0378 22.0711 59.1312 22.1594 59.3535 22.146L59.8506 22.116L59.8789 22.5839L59.2647 22.6209C58.7384 22.6527 58.5034 22.4555 58.473 21.9526L58.3608 20.0927L57.8052 20.1262L57.777 19.6583L58.3326 19.6248L58.2761 18.689Z" fill="#FEFFE4"/>
<path d="M65.5207 22.5597L65.8589 18.8838L64.4586 18.755L64.5069 18.2299L67.9027 18.5423L67.8544 19.0674L66.454 18.9386L66.1158 22.6145L65.5207 22.5597Z" fill="#FEFFE4"/>
<path d="M69.489 22.9591L70.5838 18.8849L71.1157 19.0278L70.7052 20.5556C70.9747 20.3429 71.3335 20.2269 71.7522 20.3394C72.4822 20.5356 72.6561 21.1526 72.5041 21.7185L71.9902 23.6311L71.4583 23.4882L71.9585 21.6265C72.0634 21.2361 71.9414 20.8999 71.5 20.7813C71.2793 20.722 70.6717 20.6801 70.4619 21.461L70.021 23.102L69.489 22.9591Z" fill="#FEFFE4"/>
<path d="M73.976 24.3022L75.2457 21.5325L75.7517 21.7644L74.482 24.5341L73.976 24.3022ZM75.4752 21.0318L75.7341 20.4672L76.2347 20.6967L75.9759 21.2613L75.4752 21.0318Z" fill="#FEFFE4"/>
<path d="M76.8883 25.8823C76.2742 25.4517 76.0226 24.8818 76.4162 24.2489L76.8672 24.5651C76.6466 24.9614 76.7683 25.2471 77.1521 25.5162C77.5023 25.7618 77.8043 25.7802 77.9623 25.5547C78.1103 25.3436 78.1023 25.202 77.6193 24.7274C76.9439 24.0679 76.9221 23.6805 77.2013 23.2823C77.5107 22.8409 78.0944 22.835 78.651 23.2252C79.2986 23.6793 79.4672 24.2555 79.1102 24.7851L78.664 24.4723C78.9052 24.0976 78.7134 23.82 78.392 23.5947C78.1137 23.3996 77.8137 23.3681 77.659 23.5888C77.5076 23.8047 77.5704 23.9704 78.028 24.42C78.676 25.0676 78.7276 25.4329 78.4383 25.8455C78.0986 26.3301 77.4784 26.296 76.8883 25.8823Z" fill="#FEFFE4"/>
<rect x="47.7021" y="60.4092" width="43.1181" height="37.8757" rx="6.05469" transform="rotate(-19.3141 47.7021 60.4092)" fill="#FEFFE4"/>
<rect x="22.4775" y="42.6689" width="43.8514" height="37.7608" rx="6.05469" transform="rotate(-5.53342 22.4775 42.6689)" fill="#FEFFE4"/>
<path d="M30.5924 66.0425C30.5936 66.0424 30.5948 66.0423 30.596 66.0422L30.5955 66.0422L30.5946 66.0423L30.5931 66.0425L30.5972 66.0423C30.6037 66.042 30.6161 66.0416 30.6335 66.0418C30.6686 66.0424 30.7234 66.0454 30.7918 66.0563C30.9288 66.0782 31.1166 66.131 31.3123 66.2555C31.6488 66.4696 32.0778 66.9412 32.2567 68.0234L30.6143 68.1825C29.8627 68.2553 29.3125 68.9236 29.3853 69.6752L29.6527 72.4352C29.8685 74.663 31.8495 76.2941 34.0773 76.0783L58.9664 73.6671C59.8322 73.5832 60.6662 73.2973 61.2591 72.706C61.8641 72.1027 62.1671 71.2324 62.0569 70.0951C61.9812 69.3134 62.1557 68.7753 62.4773 68.3274C62.8137 67.8589 63.3252 67.467 63.9809 67.0115C64.7516 66.476 64.9369 65.6678 64.7971 64.9524C64.6622 64.2627 64.2191 63.61 63.6553 63.297L62.1376 62.4102L61.124 51.8016C61.1077 51.6308 60.9819 51.4908 60.8141 51.4561C60.8134 51.456 60.8127 51.4558 60.8119 51.4557L60.8123 51.4558L60.8087 51.4549C60.8023 51.4533 60.7908 51.4504 60.7748 51.4459C60.7427 51.4367 60.6933 51.4209 60.6317 51.3963C60.508 51.3468 60.3391 51.2629 60.1653 51.1274C59.8266 50.8636 59.4452 50.3873 59.3608 49.5158C59.2727 48.607 59.4847 48.0532 59.7977 47.7129C60.1181 47.3645 60.6032 47.1754 61.1825 47.1201L61.183 47.12C62.2418 47.0174 63.0093 46.1041 62.8888 44.8426C62.8281 44.2079 62.5245 43.6023 61.969 43.1839C61.4136 42.7656 60.6412 42.5599 59.6836 42.6526L48.1089 43.774C47.9918 43.7853 47.8861 43.8488 47.8211 43.9468L45.4045 47.5896C45.2117 47.8803 45.0701 48.2901 45.1986 48.7092C45.3053 49.0571 45.4873 49.3264 45.7364 49.5199C45.9809 49.7098 46.2656 49.8078 46.5501 49.8572C47.0159 49.9381 47.5603 49.8977 48.047 49.8615C48.1319 49.8552 48.2151 49.8491 48.2958 49.8437C48.8837 49.8045 49.3551 49.8046 49.695 49.9514C49.8516 50.0191 49.9768 50.1173 50.0732 50.2645C50.1507 50.3829 50.2182 50.5462 50.2597 50.7742C49.7256 51.2631 49.5582 52.0593 49.626 52.7592C49.6951 53.4722 50.0208 54.2371 50.6389 54.6543C50.6817 55.5955 50.3465 56.3155 49.6613 56.8579C48.9041 57.4572 47.6859 57.8647 45.9776 58.0302C44.2693 58.1957 42.9956 58.0296 42.1374 57.5868C41.3627 57.187 40.8959 56.5467 40.756 55.6184C41.3063 55.0977 41.5019 54.3086 41.4327 53.5943C41.3636 52.8807 41.0208 52.1446 40.382 51.7389C40.3701 51.2128 40.5416 50.9611 40.7499 50.8079C41.0298 50.6019 41.4575 50.509 42.0088 50.4339C42.0927 50.4224 42.1799 50.4114 42.2693 50.4001C42.7196 50.3432 43.2252 50.2793 43.6391 50.1208C43.8981 50.0216 44.1495 49.8767 44.3477 49.652C44.5495 49.4233 44.6755 49.1351 44.7173 48.7862C44.7726 48.3242 44.5308 47.9312 44.2637 47.6796L40.9909 44.5976C40.9089 44.5203 40.7975 44.4823 40.6854 44.4931L28.6423 45.6599C28.4276 45.6807 28.2704 45.8716 28.2912 46.0863L28.5831 49.0989M30.5924 66.0425C30.4907 66.0513 30.3896 66.0199 30.3107 65.9549C30.2307 65.889 30.1801 65.7941 30.1701 65.691L29.1928 55.6029C29.1928 55.6024 29.1927 55.6019 29.1927 55.6014C29.1374 55.0794 28.9634 54.7331 28.7431 54.4745C28.5151 54.207 28.2216 54.0138 27.8888 53.8213C27.8323 53.7886 27.7732 53.7553 27.7127 53.7211C27.4392 53.5667 27.1355 53.3952 26.8917 53.1857C26.5707 52.9099 26.3209 52.5458 26.2699 52.0191C26.1499 50.7805 26.9254 49.924 27.8556 49.8339C28.3026 49.7906 28.452 49.5913 28.5182 49.4422C28.5573 49.3542 28.5742 49.2645 28.5805 49.1944C28.5836 49.1601 28.5839 49.1328 28.5836 49.1158C28.5835 49.1074 28.5832 49.1017 28.5831 49.0992M30.5924 66.0425V66.0425ZM28.5831 49.0992L28.5831 49.0994L28.5832 49.1006L28.5831 49.0989M28.5831 49.0992L28.583 49.098L28.583 49.0978C28.583 49.0978 28.583 49.0982 28.5831 49.0989M28.5831 49.0992C28.5831 49.0991 28.5831 49.099 28.5831 49.0989" fill="#BBDC36" stroke="#C63535" stroke-width="0.78125" stroke-linejoin="round"/>
<path d="M36.9358 71.6488C36.6217 71.6447 36.3606 71.5635 36.1524 71.4052C35.9469 71.2438 35.8226 71.0012 35.7797 70.6772L36.1689 70.6395C36.199 70.8611 36.2782 71.0247 36.4064 71.1303C36.5372 71.2327 36.7025 71.2901 36.9023 71.3024L36.792 70.1647C36.4567 70.1195 36.2073 70.0401 36.0437 69.9264C35.8799 69.8099 35.7857 69.6248 35.7611 69.371C35.739 69.1429 35.8094 68.949 35.9724 68.7893C36.1351 68.6268 36.354 68.525 36.6292 68.4839L36.5865 68.0434L36.903 68.0128L36.9465 68.4618C37.2806 68.464 37.5377 68.5485 37.7179 68.7152C37.8978 68.8791 38.0036 69.0947 38.0353 69.3622L37.6504 69.3995C37.6205 69.2096 37.5518 69.0651 37.4444 68.9662C37.3369 68.8672 37.182 68.8132 36.9797 68.804L37.0799 69.839C37.3623 69.8721 37.5832 69.924 37.7426 69.9949C37.9046 70.0627 38.0208 70.1479 38.0911 70.2504C38.1612 70.3501 38.2037 70.4769 38.2186 70.6309C38.2352 70.802 38.2057 70.9574 38.13 71.0971C38.0572 71.2365 37.9446 71.3525 37.7924 71.4449C37.6431 71.5371 37.4633 71.5977 37.2531 71.6267L37.2958 72.0672L36.9793 72.0979L36.9358 71.6488ZM36.1503 69.3333C36.1591 69.4245 36.1793 69.4988 36.2107 69.5562C36.2448 69.6105 36.3026 69.6581 36.3843 69.6992C36.4686 69.737 36.5926 69.7696 36.7564 69.7969L36.6624 68.8261C36.4927 68.8569 36.3618 68.9171 36.2697 69.0066C36.1777 69.0961 36.1379 69.205 36.1503 69.3333ZM37.22 71.2846C37.4213 71.2535 37.5773 71.1852 37.6879 71.0795C37.7986 70.9738 37.8458 70.8368 37.8295 70.6686C37.8209 70.5802 37.7952 70.5079 37.7523 70.4516C37.7094 70.3953 37.6372 70.3476 37.5356 70.3086C37.4368 70.2692 37.2968 70.2353 37.1156 70.2068L37.22 71.2846ZM38.5933 71.1127L39.6842 69.8068C39.8001 69.6661 39.8864 69.5326 39.9433 69.4062C40.0029 69.2795 40.0261 69.1478 40.0129 69.0109C39.9977 68.8541 39.9315 68.7353 39.8143 68.6546C39.7 68.5735 39.5516 68.5419 39.3691 68.5595C39.1752 68.5783 39.0255 68.6518 38.9199 68.7801C38.8141 68.9054 38.7733 69.0792 38.7977 69.3013L38.4214 69.3378C38.3933 69.0181 38.4618 68.7597 38.6268 68.5624C38.7945 68.3619 39.0309 68.247 39.3359 68.2174C39.5298 68.1986 39.7032 68.2207 39.8561 68.2836C40.009 68.3465 40.1302 68.4398 40.2199 68.5635C40.3122 68.684 40.3658 68.8213 40.3807 68.9753C40.3975 69.1492 40.3658 69.3264 40.2854 69.5069C40.2076 69.6842 40.1003 69.8543 39.9636 70.0172L39.0843 71.0565L40.6112 70.9085L40.6443 71.2507L38.6256 71.4463L38.5933 71.1127ZM42.0808 71.1633C41.7044 71.1998 41.417 71.0852 41.2186 70.8195C41.023 70.5535 40.9012 70.1724 40.8532 69.6763C40.8051 69.1802 40.8515 68.7829 40.9924 68.4843C41.1361 68.1855 41.3962 68.0178 41.7725 67.9813C42.1489 67.9449 42.4348 68.0596 42.6304 68.3256C42.8288 68.5913 42.9521 68.9722 43.0001 69.4683C43.0482 69.9645 43.0004 70.3619 42.8566 70.6608C42.7158 70.9594 42.4571 71.1269 42.0808 71.1633ZM41.2466 69.6382C41.2856 70.0402 41.3669 70.3446 41.4905 70.5514C41.6167 70.755 41.8024 70.8449 42.0476 70.8212C42.2928 70.7974 42.4564 70.6737 42.5383 70.4499C42.6228 70.223 42.6456 69.9085 42.6067 69.5065C42.5677 69.1044 42.4851 68.8016 42.3589 68.598C42.2353 68.3912 42.0509 68.2997 41.8057 68.3235C41.5605 68.3473 41.3956 68.4726 41.3111 68.6995C41.2292 68.9233 41.2077 69.2362 41.2466 69.6382ZM43.5152 70.4373L43.9429 70.3958L43.9942 70.9262L43.5666 70.9676L43.5152 70.4373ZM44.3737 70.5527L45.4646 69.2469C45.5805 69.1061 45.6669 68.9726 45.7237 68.8462C45.7834 68.7195 45.8066 68.5878 45.7933 68.4509C45.7781 68.2941 45.7119 68.1753 45.5947 68.0946C45.4804 68.0135 45.332 67.9819 45.1495 67.9996C44.9556 68.0183 44.8059 68.0918 44.7003 68.2201C44.5945 68.3454 44.5538 68.5192 44.5782 68.7413L44.2018 68.7778C44.1737 68.4582 44.2422 68.1997 44.4073 68.0024C44.5749 67.802 44.8113 67.687 45.1164 67.6574C45.3103 67.6386 45.4836 67.6607 45.6365 67.7236C45.7894 67.7865 45.9107 67.8798 46.0004 68.0035C46.0926 68.124 46.1462 68.2613 46.1611 68.4153C46.178 68.5892 46.1462 68.7664 46.0658 68.9469C45.9881 69.1242 45.8808 69.2943 45.744 69.4572L44.8647 70.4965L46.3916 70.3485L46.4247 70.6907L44.4061 70.8863L44.3737 70.5527ZM46.5859 69.6045L47.9129 67.4383L48.3149 67.3993L48.5121 69.4351L48.9398 69.3937L48.973 69.7358L48.5453 69.7773L48.6132 70.4787L48.2369 70.5151L48.1689 69.8137L46.6207 69.9637L46.5859 69.6045ZM48.1358 69.4716L47.9866 67.9319L46.9896 69.5826L48.1358 69.4716Z" fill="#C63535"/>
<path d="M65.9489 58.2128L69.9416 60.4718C70.1479 60.5885 70.3163 60.7777 70.357 61.0112C70.7668 63.356 65.9116 62.3345 66.9418 65.274C68.2728 65.5484 68.9666 67.528 68.0981 68.5733C68.869 70.7728 71.014 71.2559 74.3133 70.0996C77.6126 68.9432 78.9868 67.2268 78.216 65.0272C76.9399 64.7335 76.2098 62.6503 77.0596 61.7279C76.0255 58.7772 72.6612 62.766 71.5002 60.5883C71.3947 60.3904 71.4028 60.1522 71.4787 59.9412L72.9874 55.746L83.9618 51.8998C85.6347 51.3135 86.7448 52.0103 87.0983 53.0233C87.4518 54.0363 87.0048 54.8704 86.2238 55.1442C85.0178 55.565 84.13 56.5333 84.7852 58.4029C85.4405 60.2725 87.042 60.2023 87.042 60.2023L90.6194 70.4531L92.5008 71.011C93.4966 71.2794 94.5147 72.7749 93.5157 73.9067C92.4632 75.0992 91.7277 76.0979 92.3059 77.7475C92.9997 79.7271 91.9343 80.9154 90.3947 81.455L66.1052 89.9678C64.5782 90.503 62.9065 89.6989 62.3714 88.172L61.1474 84.6796C61.0047 84.2724 61.2191 83.8266 61.6263 83.6839L63.7484 82.9402C62.7848 80.1908 61.0252 80.8075 61.0252 80.8075L57.6719 71.2395C56.8568 68.9751 54.5201 69.9979 53.9804 68.4582C53.6335 67.4684 54.1007 66.6873 54.7606 66.456C55.8794 66.0639 55.5325 65.0741 55.5325 65.0741L54.5304 62.2147L65.9489 58.2128Z" fill="#FFD830" stroke="#C63535" stroke-width="0.78125" stroke-linejoin="round"/>
<path d="M68.6965 84.9915C68.3904 85.0623 68.1175 85.0457 67.8776 84.9415C67.6395 84.8338 67.461 84.6277 67.3422 84.3233L67.7112 84.1939C67.7932 84.402 67.9091 84.542 68.0588 84.614C68.2102 84.6823 68.3844 84.6987 68.5814 84.663L68.2033 83.5844C67.8669 83.6203 67.6057 83.6026 67.4198 83.5312C67.2329 83.457 67.0973 83.2997 67.013 83.0591C66.9372 82.8428 66.9594 82.6377 67.0796 82.4438C67.1989 82.2472 67.3873 82.0962 67.6448 81.9907L67.4984 81.5731L67.7985 81.4679L67.9477 81.8937C68.2727 81.8162 68.5425 81.837 68.7573 81.956C68.971 82.0723 69.1252 82.2566 69.2196 82.5088L68.8547 82.6367C68.7804 82.4594 68.6793 82.3354 68.5514 82.2649C68.4234 82.1944 68.2601 82.1788 68.0614 82.2181L68.4053 83.1994C68.6875 83.1643 68.9144 83.1622 69.0861 83.193C69.2595 83.2203 69.3927 83.2753 69.4854 83.3581C69.5773 83.4383 69.6487 83.5513 69.6999 83.6973C69.7568 83.8595 69.7651 84.0175 69.7248 84.1712C69.6873 84.324 69.6057 84.4634 69.4799 84.5894C69.3568 84.7145 69.1966 84.8162 68.9994 84.8944L69.1458 85.3121L68.8457 85.4173L68.6965 84.9915ZM67.382 82.9297C67.4123 83.0162 67.4496 83.0836 67.4938 83.1319C67.5398 83.1765 67.6073 83.2089 67.6964 83.2293C67.7873 83.246 67.9155 83.2482 68.0811 83.2356L67.7585 82.3152C67.601 82.3855 67.4883 82.4751 67.4202 82.584C67.3521 82.6928 67.3394 82.8081 67.382 82.9297ZM68.8857 84.57C69.0738 84.4919 69.2091 84.3884 69.2913 84.2594C69.3736 84.1304 69.3868 83.9861 69.3309 83.8266C69.3015 83.7428 69.2593 83.6787 69.2043 83.6343C69.1492 83.5898 69.0677 83.5607 68.9597 83.547C68.8544 83.5323 68.7103 83.5327 68.5276 83.5481L68.8857 84.57ZM70.1785 84.0759L70.927 82.5479C71.006 82.3836 71.058 82.2333 71.0831 82.097C71.1109 81.9598 71.1021 81.8263 71.0566 81.6965C71.0045 81.5478 70.9119 81.4483 70.7789 81.3977C70.6485 81.3463 70.4968 81.3509 70.3238 81.4115C70.14 81.476 70.0121 81.583 69.9401 81.7327C69.8672 81.8797 69.869 82.0581 69.9456 82.268L69.5887 82.3931C69.4853 82.0894 69.4903 81.822 69.6036 81.5911C69.7187 81.3565 69.9209 81.1885 70.2101 81.0871C70.394 81.0227 70.5676 81.0028 70.7311 81.0275C70.8945 81.0522 71.0345 81.1139 71.1511 81.2127C71.2694 81.3078 71.3542 81.4283 71.4053 81.5743C71.4631 81.7392 71.4745 81.9189 71.4394 82.1133C71.4061 82.3041 71.3425 82.4948 71.2484 82.6856L70.642 83.9044L72.0897 83.397L72.2034 83.7214L70.2894 84.3922L70.1785 84.0759ZM73.5777 83.2944C73.2208 83.4195 72.9144 83.3766 72.6584 83.1658C72.4051 82.9541 72.1961 82.613 72.0312 82.1427C71.8663 81.6723 71.8168 81.2753 71.8825 80.9518C71.9509 80.6273 72.1635 80.4025 72.5203 80.2775C72.8772 80.1524 73.1823 80.1957 73.4355 80.4075C73.6915 80.6183 73.902 80.9588 74.0668 81.4292C74.2317 81.8996 74.2799 82.297 74.2115 82.6215C74.1458 82.9451 73.9345 83.1694 73.5777 83.2944ZM72.4043 82.0119C72.5379 82.3931 72.6893 82.6693 72.8586 82.8407C73.0297 83.0084 73.2315 83.0515 73.464 82.97C73.6965 82.8885 73.8259 82.7294 73.8521 82.4925C73.8801 82.252 73.8274 81.9411 73.6938 81.56C73.5602 81.1788 73.4078 80.9044 73.2368 80.7367C73.0674 80.5653 72.8665 80.5204 72.634 80.6019C72.4015 80.6833 72.2713 80.8443 72.2433 81.0849C72.217 81.3217 72.2707 81.6307 72.4043 82.0119ZM74.7978 82.2476L75.2034 82.1054L75.3796 82.6083L74.9741 82.7504L74.7978 82.2476ZM75.6592 82.1551L76.4076 80.6271C76.4866 80.4628 76.5387 80.3125 76.5638 80.1762C76.5916 80.039 76.5827 79.9055 76.5372 79.7757C76.4851 79.627 76.3926 79.5274 76.2595 79.4769C76.1292 79.4255 75.9775 79.4301 75.8045 79.4907C75.6206 79.5551 75.4927 79.6622 75.4207 79.8119C75.3478 79.9589 75.3496 80.1373 75.4262 80.3472L75.0694 80.4723C74.966 80.1686 74.9709 79.9012 75.0843 79.6703C75.1994 79.4357 75.4015 79.2677 75.6908 79.1663C75.8746 79.1019 76.0483 79.082 76.2117 79.1067C76.3752 79.1313 76.5152 79.1931 76.6317 79.2918C76.7501 79.387 76.8348 79.5075 76.886 79.6535C76.9438 79.8184 76.9551 79.9981 76.9201 80.1925C76.8868 80.3832 76.8231 80.574 76.7291 80.7648L76.1227 81.9836L77.5703 81.4762L77.684 81.8006L75.77 82.4714L75.6592 82.1551ZM77.5818 80.7073L78.3546 78.2874L78.7358 78.1538L79.4123 80.084L79.8178 79.9418L79.9315 80.2663L79.526 80.4084L79.759 81.0734L79.4022 81.1985L79.1691 80.5334L77.7012 81.0479L77.5818 80.7073ZM79.0554 80.209L78.5438 78.7492L77.9687 80.5899L79.0554 80.209Z" fill="#C63535"/>
</svg>
