<svg width="128" height="146" viewBox="0 0 128 146" fill="none" xmlns="http://www.w3.org/2000/svg">
<path d="M80.1763 133.371C38.453 144.55 25.77 118.981 16.8358 85.6378C7.90159 52.295 6.10062 23.8096 47.8239 12.6298C89.5472 1.45011 102.23 27.0197 111.164 60.3626C120.099 93.7054 121.9 122.191 80.1763 133.371Z" fill="#C63535"/>
<path d="M18.4998 42.293L18.4998 42.2928C20.1297 36.6262 23.1126 31.9995 27.624 28.1361C32.7182 23.7737 39.9711 20.2948 49.2141 17.8182C58.4571 15.3415 66.4777 14.7279 73.0707 15.9587C78.9093 17.0488 83.8036 19.5647 88.0509 23.6568C92.6127 28.052 96.1618 34.0806 99.0397 40.7735C101.916 47.4635 104.11 54.7877 105.976 61.753C107.843 68.7194 109.605 76.1592 110.459 83.3909C111.313 90.6258 111.254 97.6207 109.501 103.708L109.5 103.708C107.871 109.375 104.888 114.001 100.376 117.865C95.2821 122.227 88.0292 125.706 78.7862 128.183C69.5432 130.659 61.5226 131.273 54.9296 130.042C49.091 128.952 44.1967 126.436 39.9494 122.344C35.3877 117.949 31.8387 111.921 28.9608 105.228C26.0843 98.5386 23.8905 91.2144 22.0239 84.248C20.1572 77.2815 18.395 69.8418 17.5413 62.61C16.6873 55.3751 16.7468 48.3803 18.4998 42.293Z" stroke="#FEFFE4" stroke-width="0.976562"/>
<path d="M40.3883 115.826C39.7877 115.248 39.523 114.659 39.5943 114.059C39.6745 113.45 40.0486 112.798 40.7166 112.104C41.3936 111.4 43.5983 109.699 47.3307 107.002L48.0334 104.779C49.7528 105.113 51.0488 105.701 51.9215 106.54C52.5034 107.1 52.5798 107.715 52.1508 108.387C53.65 108.763 54.864 109.398 55.7931 110.291C56.4031 110.878 56.8026 111.533 56.9916 112.257C57.22 113.109 56.946 113.939 56.1697 114.746C54.888 116.078 53.2216 116.336 51.1706 115.52C52.4193 117.227 52.3622 118.789 50.9992 120.206C50.1146 121.125 49.0304 121.492 47.7468 121.305C46.4631 121.118 45.3474 120.569 44.3996 119.657C43.4611 118.754 42.8953 117.831 42.7019 116.886C41.7601 116.757 40.9889 116.403 40.3883 115.826ZM48.0454 116.768C48.4696 116.327 48.6497 115.877 48.5855 115.418C48.5307 114.968 48.2875 114.535 47.8558 114.12C47.4241 113.705 46.8551 113.329 46.1487 112.993C45.2313 113.646 44.5018 114.254 43.9602 114.817C44.2124 115.475 44.5872 116.043 45.0846 116.522C45.5819 117 46.0936 117.267 46.6195 117.321C47.1549 117.384 47.6302 117.2 48.0454 116.768ZM52.3026 110.511C51.9366 110.159 51.4748 109.85 50.9171 109.585C50.5087 109.897 49.4325 110.668 47.6883 111.899C48.5214 112.592 49.3635 113.041 50.2147 113.245C51.0749 113.44 51.7984 113.233 52.3851 112.623C53.0621 111.919 53.0346 111.215 52.3026 110.511Z" fill="#FEFFE4"/>
<path d="M63.0309 122.673L62.3927 120.685C61.7158 120.67 61.0348 120.55 60.3497 120.326C60.1874 121.156 60.102 121.753 60.0937 122.117C60.0647 123.38 60.2383 124.328 60.6145 124.962C59.82 125.53 58.9997 125.804 58.1535 125.785C57.3074 125.765 56.7076 125.511 56.3542 125.021C56.0011 124.518 55.8355 123.784 55.8577 122.821C55.8801 121.845 56.3533 119.101 57.2774 114.59L56.2904 112.477C57.7699 111.573 59.1214 111.135 60.3451 111.163C61.2823 111.185 62.0003 111.397 62.499 111.799C63.4843 111.431 64.3674 111.255 65.1485 111.273C66.3461 111.301 67.2871 111.726 67.9715 112.549C68.6559 113.373 68.9851 114.351 68.9591 115.483C68.9397 116.329 68.7061 117.144 68.2583 117.929C67.8108 118.7 67.1648 119.323 66.3204 119.799C66.734 121.071 67.2037 122.17 67.7295 123.094C68.2684 124.018 68.8077 124.636 69.3476 124.948C69.0676 125.228 68.6389 125.465 68.0613 125.66C67.4965 125.869 66.9863 125.968 66.5307 125.957C65.6455 125.937 64.9411 125.7 64.4176 125.245C63.8943 124.777 63.4321 123.92 63.0309 122.673ZM61.2577 118.217C62.2991 118.241 63.1123 117.993 63.6973 117.472C64.2953 116.952 64.6013 116.386 64.6154 115.774C64.6294 115.162 64.4714 114.67 64.1413 114.298C63.8112 113.926 63.3338 113.732 62.7089 113.718C62.3705 113.71 62.031 113.748 61.6904 113.831C61.2168 116.308 60.923 117.76 60.809 118.187C60.8998 118.202 61.0494 118.212 61.2577 118.217Z" fill="#FEFFE4"/>
<path d="M74.5069 124.504C73.7634 124.697 73.1546 124.606 72.6806 124.231C72.2033 123.844 71.8436 123.184 71.6014 122.252C71.3559 121.306 71.0606 118.538 70.7155 113.946L69.1883 112.183C70.3734 110.894 71.552 110.096 72.7241 109.792C73.4676 109.599 74.0193 109.832 74.379 110.492C75.7933 110.085 77.4868 109.302 79.4596 108.144C79.6684 108.533 79.8252 108.93 79.93 109.333C80.1951 110.354 80.0545 111.211 79.5081 111.904C78.9744 112.595 78.1782 113.077 77.1196 113.352C76.4012 113.539 75.6562 113.571 74.8845 113.448C74.9309 114.042 74.9951 115.014 75.0769 116.365C75.5661 116.332 75.9745 116.273 76.3022 116.188C76.7927 115.953 77.3222 115.66 77.8907 115.311C78.0093 115.509 78.1325 115.854 78.2601 116.345C78.3845 116.824 78.289 117.259 77.9736 117.651C77.6582 118.042 77.2547 118.301 76.7632 118.429C76.2843 118.553 75.7781 118.624 75.2445 118.642C75.3121 119.472 75.4375 120.24 75.6208 120.945L78.6833 120.15C79.6051 119.763 80.5054 119.266 81.3841 118.662C81.5187 118.869 81.6367 119.168 81.7382 119.558C81.9313 120.302 81.8826 121.021 81.592 121.715C81.3141 122.406 80.7908 122.852 80.022 123.051C79.6187 123.156 79.0051 123.228 78.1812 123.267C77.3731 123.315 76.7752 123.37 76.3873 123.43C75.8773 123.953 75.2505 124.311 74.5069 124.504Z" fill="#FEFFE4"/>
<path d="M90.1548 105.465L92.3012 109.591C93.0877 110.987 93.8629 112.097 94.6268 112.922C95.4021 113.74 96.2096 114.152 97.0494 114.157C96.5417 115.086 95.8851 115.777 95.0798 116.231C93.6619 117.03 92.1427 116.377 90.5223 114.271L87.0513 116.228C87.2514 117.086 87.4633 117.714 87.6871 118.111C87.9045 118.497 88.1257 118.783 88.3507 118.97C87.8118 119.977 87.2135 120.665 86.5556 121.036C85.546 121.605 84.696 121.277 84.0055 120.052C83.6602 119.439 83.4126 118.563 83.2627 117.421C83.124 116.274 83.0278 114.923 82.9739 113.369C82.9314 111.809 82.8865 110.788 82.8392 110.306C82.3692 109.764 81.8886 109.243 81.3973 108.742C81.7569 108.002 82.1515 107.376 82.5808 106.865C83.0152 106.336 83.5499 105.892 84.1851 105.534C84.8317 105.17 85.3596 105.059 85.769 105.202C86.2557 104.554 86.7089 104.112 87.1286 103.875C87.5483 103.639 87.8986 103.531 88.1795 103.552C88.4604 103.573 88.7197 103.688 88.9575 103.898C89.3721 104.262 89.7712 104.785 90.1548 105.465ZM86.9555 107.784L86.411 108.091C86.5027 110.64 86.6186 112.623 86.7589 114.038L89.3962 112.552C88.6992 111.315 87.8857 109.726 86.9555 107.784Z" fill="#FEFFE4"/>
<path d="M99.0901 108.095C98.386 107.86 97.2001 107.28 95.5324 106.354C93.8646 105.427 92.8084 104.849 92.3637 104.618L90.0538 104.94C89.6871 103.075 89.687 101.592 90.0533 100.493C90.2344 99.9493 90.5555 99.6034 91.0167 99.4551C91.0001 98.3104 91.1359 97.3057 91.424 96.441C91.9591 94.8351 92.8998 93.7624 94.2462 93.2228C95.5802 92.6792 97.0255 92.6667 98.582 93.1853C100.633 93.8686 102.265 95.2498 103.48 97.3291C104.065 98.3337 104.411 99.5195 104.518 100.887C104.63 102.241 104.459 103.598 104.006 104.957C103.553 106.316 102.905 107.273 102.061 107.829C101.205 108.381 100.214 108.469 99.0901 108.095ZM101.103 104.401C101.239 104.158 101.36 103.876 101.467 103.555C101.916 102.209 101.784 100.998 101.072 99.9234C100.347 98.8447 99.2743 98.0686 97.8537 97.5953C96.7048 97.2125 95.7043 97.1673 94.852 97.4597C93.9997 97.7522 93.4109 98.3863 93.0858 99.3622C93.0364 99.5105 92.9787 99.7658 92.9129 100.128C93.5141 100.425 94.8462 101.122 96.9092 102.221C98.964 103.304 100.362 104.031 101.103 104.401Z" fill="#FEFFE4"/>
<path d="M26.5667 38.1487L27.0048 37.5617L30.7028 40.3215L32.271 38.2201L32.7993 38.6143L30.793 41.3027L26.5667 38.1487Z" fill="#FEFFE4"/>
<path d="M35.2468 37.8127C34.9702 38.0452 34.6722 38.1839 34.3529 38.229C34.0336 38.2741 33.7187 38.2294 33.408 38.095C33.1011 37.9575 32.8252 37.7429 32.5801 37.4513C32.3351 37.1598 32.1713 36.851 32.0887 36.525C32.0098 36.1958 32.0201 35.8779 32.1195 35.5711C32.2189 35.2644 32.4069 34.9948 32.6836 34.7623C32.9602 34.5299 33.2563 34.3927 33.5718 34.3507C33.8911 34.3057 34.2058 34.3538 34.5158 34.4951C34.8265 34.6294 35.1059 34.8443 35.354 35.1396L35.4954 35.3078L33.2861 37.1643C33.5384 37.4115 33.8031 37.5558 34.0802 37.5971C34.3611 37.6354 34.6212 37.554 34.8604 37.3529C35.0436 37.199 35.1663 37.0225 35.2287 36.8235C35.2947 36.6212 35.2955 36.4134 35.2308 36.1998L35.7691 35.7475C35.9207 36.1176 35.951 36.4876 35.8599 36.8574C35.7727 37.2242 35.5683 37.5426 35.2468 37.8127ZM34.568 35.3313C34.3196 35.1192 34.0646 35.0017 33.8032 34.979C33.5424 34.9495 33.298 35.0305 33.0699 35.2221C32.8419 35.4137 32.7181 35.6421 32.6986 35.9073C32.6759 36.1687 32.7495 36.4385 32.9194 36.7166L34.568 35.3313Z" fill="#FEFFE4"/>
<path d="M35.5529 31.3206L36.1672 32.3186L37.0279 31.7887L37.3351 32.2877L36.4743 32.8176L37.653 34.7324C37.7246 34.8488 37.8021 34.9187 37.8852 34.9421C37.97 34.9587 38.0706 34.9312 38.187 34.8595L38.7172 34.5332L39.0243 35.0321L38.3694 35.4353C38.0867 35.6093 37.8458 35.6744 37.6468 35.6306C37.4479 35.5868 37.2665 35.4319 37.1027 35.1657L35.8818 33.1823L35.2892 33.547L34.9821 33.048L35.5746 32.6833L34.9603 31.6853L35.5529 31.3206Z" fill="#FEFFE4"/>
<path d="M38.4596 29.3419L38.7996 31.3822L38.3305 31.6231L37.8081 29.6765L38.4596 29.3419Z" fill="#FEFFE4"/>
<path d="M43.3164 32.9742C42.8676 33.1665 42.463 33.2204 42.1027 33.1357C41.7469 33.0492 41.4693 32.8043 41.2699 32.401L41.9027 32.1298C42.0373 32.3696 42.2005 32.5148 42.3922 32.5654C42.5865 32.6097 42.8227 32.5722 43.101 32.4529C43.3478 32.3471 43.5225 32.2218 43.6251 32.0769C43.7258 31.9275 43.7425 31.7743 43.6751 31.6172C43.629 31.5095 43.5722 31.4329 43.5049 31.3873C43.4376 31.3418 43.3315 31.3236 43.1866 31.3325C43.0443 31.3351 42.8388 31.37 42.5701 31.4373C42.1951 31.529 41.8886 31.5701 41.6507 31.5604C41.4154 31.5444 41.2285 31.4864 41.0901 31.3864C40.9541 31.2799 40.8439 31.128 40.7592 30.9305C40.6284 30.6253 40.6448 30.3288 40.8083 30.0409C40.9763 29.7511 41.2577 29.5216 41.6527 29.3523C42.106 29.1581 42.5048 29.1093 42.8491 29.2062C43.1914 29.2985 43.446 29.5267 43.6127 29.8909L42.9866 30.1592C42.8757 29.9252 42.726 29.7928 42.5375 29.762C42.347 29.7268 42.1262 29.763 41.8748 29.8707C41.6729 29.9573 41.5251 30.0711 41.4315 30.2121C41.3379 30.3532 41.3228 30.4977 41.3863 30.6458C41.4305 30.7491 41.4908 30.8215 41.5671 30.8632C41.6434 30.9049 41.754 30.9212 41.8989 30.9122C42.0438 30.9033 42.2483 30.8661 42.5124 30.8007C42.8785 30.7129 43.1783 30.6747 43.4116 30.6863C43.6431 30.6933 43.8258 30.7478 43.9598 30.8498C44.0983 30.9498 44.2108 31.1008 44.2974 31.3027C44.4397 31.6348 44.4189 31.9519 44.2349 32.2539C44.0489 32.5514 43.7428 32.7915 43.3164 32.9742Z" fill="#FEFFE4"/>
<path d="M50.3646 30.437C49.8535 30.5856 49.3811 30.5957 48.9472 30.4676C48.518 30.338 48.1525 30.1036 47.8504 29.7642C47.5518 29.4188 47.3323 29.0046 47.1919 28.5217C47.0516 28.0387 47.0156 27.5737 47.084 27.1267C47.1558 26.6737 47.3405 26.2768 47.6381 25.9361C47.9404 25.594 48.3517 25.3473 48.8722 25.1961C49.2895 25.0748 49.6801 25.0452 50.0439 25.1073C50.4124 25.168 50.7346 25.3058 51.0105 25.5205C51.2865 25.7352 51.5054 26.0072 51.6672 26.3365L50.9498 26.545C50.7833 26.2171 50.5311 25.9878 50.1931 25.8572C49.8538 25.7219 49.4755 25.7149 49.0582 25.8361C48.6831 25.9451 48.3925 26.1262 48.1863 26.3793C47.9789 26.6277 47.8554 26.9204 47.816 27.2573C47.78 27.5881 47.8157 27.9387 47.9234 28.3091C48.031 28.6795 48.1894 28.9971 48.3985 29.2617C48.6109 29.5204 48.872 29.7013 49.1817 29.8045C49.49 29.9031 49.8317 29.8978 50.2068 29.7888C50.671 29.654 50.9986 29.4164 51.1895 29.0762C51.3852 28.7345 51.4568 28.3248 51.4043 27.8468L49.5686 28.3802L49.3908 27.7683L51.9298 27.0305L52.6962 29.668L52.1195 29.8356L51.8579 28.9353C51.7064 29.6912 51.2086 30.1918 50.3646 30.437Z" fill="#FEFFE4"/>
<path d="M55.824 29.0243C55.4708 29.1003 55.1425 29.0834 54.8393 28.9738C54.536 28.8642 54.2786 28.6773 54.067 28.4131C53.8602 28.1479 53.7167 27.8291 53.6367 27.4568C53.5567 27.0844 53.5564 26.7349 53.636 26.4081C53.7204 26.0803 53.8783 25.8042 54.1097 25.5796C54.3411 25.3551 54.6335 25.2049 54.9867 25.1289C55.34 25.053 55.6659 25.0704 55.9643 25.181C56.2676 25.2906 56.5231 25.4804 56.731 25.7504C56.9426 26.0146 57.0889 26.3352 57.17 26.7123L57.2162 26.9272L54.3949 27.5336C54.5021 27.8701 54.6686 28.1215 54.8941 28.2878C55.1244 28.453 55.3923 28.5028 55.6978 28.4372C55.9317 28.3869 56.1228 28.2884 56.2711 28.1416C56.4241 27.9939 56.522 27.8105 56.5649 27.5915L57.2523 27.4438C57.213 27.8418 57.0666 28.1829 56.813 28.4672C56.5642 28.7504 56.2346 28.9361 55.824 29.0243ZM56.3857 26.5138C56.2654 26.21 56.0951 25.9869 55.8747 25.8445C55.6581 25.6963 55.4042 25.6535 55.113 25.7161C54.8218 25.7787 54.6055 25.9226 54.4641 26.1477C54.3217 26.3681 54.2604 26.641 54.2804 26.9663L56.3857 26.5138Z" fill="#FEFFE4"/>
<path d="M59.0524 23.263L59.2246 24.4222L60.2244 24.2736L60.3105 24.8531L59.3108 25.0017L59.6413 27.2258C59.6614 27.3611 59.7051 27.4558 59.7724 27.5099C59.8438 27.5586 59.9471 27.5728 60.0823 27.5527L60.6981 27.4612L60.7843 28.0408L60.0236 28.1538C59.6951 28.2026 59.4481 28.1678 59.2824 28.0493C59.1167 27.9307 59.0108 27.7169 58.9649 27.4078L58.6225 25.104L57.9343 25.2063L57.8482 24.6267L58.5364 24.5244L58.3641 23.3653L59.0524 23.263Z" fill="#FEFFE4"/>
<path d="M65.8477 23.0202L64.0899 23.0123L64.0928 22.3531L68.3555 22.3722L68.3525 23.0314L66.5948 23.0235L66.5741 27.6378L65.827 27.6344L65.8477 23.0202Z" fill="#FEFFE4"/>
<path d="M69.933 22.4613L70.6109 22.5813L70.2662 24.5286C70.4331 24.3697 70.6246 24.2548 70.8404 24.184C71.0563 24.1131 71.2916 24.1002 71.5464 24.1453C71.8445 24.1981 72.0807 24.3069 72.2548 24.4716C72.4338 24.6371 72.5526 24.8342 72.6113 25.0628C72.67 25.2914 72.6772 25.5307 72.633 25.7807L72.2014 28.2184L71.5234 28.0983L71.9435 25.7256C71.9895 25.4659 71.9564 25.2468 71.8442 25.0683C71.7377 24.8858 71.5498 24.7707 71.2805 24.723C71.1507 24.7001 71.0033 24.7062 70.8384 24.7415C70.6743 24.7719 70.5173 24.8607 70.3673 25.0077C70.2173 25.1547 70.1155 25.3796 70.0619 25.6825L69.6916 27.774L69.0136 27.654L69.933 22.4613Z" fill="#FEFFE4"/>
<path d="M74.7245 23.9568L75.3799 24.1905L74.1005 27.7778L73.4451 27.544L74.7245 23.9568ZM75.2166 22.577L75.8651 22.8083L75.6043 23.5396L74.9558 23.3083L75.2166 22.577Z" fill="#FEFFE4"/>
<path d="M76.3819 28.8815C75.9592 28.6371 75.6739 28.3453 75.526 28.006C75.3823 27.6691 75.4124 27.3001 75.6161 26.899L76.2121 27.2436C76.1006 27.495 76.0819 27.7126 76.1561 27.8965C76.237 28.0786 76.4084 28.2454 76.6705 28.3969C76.903 28.5313 77.108 28.5963 77.2855 28.5917C77.4654 28.5829 77.5981 28.5046 77.6837 28.3566C77.7423 28.2552 77.7697 28.1639 77.7659 28.0827C77.7621 28.0015 77.7132 27.9056 77.6193 27.7949C77.532 27.6824 77.381 27.5387 77.1663 27.3638C76.8683 27.1182 76.652 26.8973 76.5174 26.701C76.3894 26.5029 76.324 26.3184 76.3212 26.1476C76.3251 25.975 76.3808 25.7957 76.4883 25.6097C76.6545 25.3223 76.9018 25.1579 77.2303 25.1166C77.563 25.0776 77.9154 25.1657 78.2874 25.3808C78.7143 25.6276 78.992 25.9179 79.1206 26.2517C79.2515 26.5812 79.2211 26.9217 79.0291 27.2732L78.4394 26.9323C78.5605 26.7034 78.5769 26.5042 78.4888 26.3348C78.403 26.1611 78.2418 26.0059 78.0051 25.869C77.8149 25.7591 77.6352 25.7088 77.4662 25.7182C77.2972 25.7277 77.1724 25.8022 77.0917 25.9416C77.0355 26.0389 77.0135 26.1305 77.0258 26.2166C77.0381 26.3026 77.0912 26.401 77.1851 26.5117C77.279 26.6224 77.4313 26.764 77.6418 26.9365C77.9313 27.1772 78.1412 27.3944 78.2717 27.5883C78.4046 27.7779 78.4703 27.9569 78.4688 28.1253C78.4716 28.2961 78.418 28.4766 78.308 28.6668C78.1272 28.9796 77.8607 29.1527 77.5087 29.1861C77.1591 29.2152 76.7835 29.1137 76.3819 28.8815Z" fill="#FEFFE4"/>
<rect x="51.0103" y="63.8916" width="43.1181" height="37.8757" rx="7.56836" transform="rotate(-24.3141 51.0103 63.8916)" fill="#FEFFE4"/>
<rect x="24.3354" y="48.418" width="43.8514" height="37.7608" rx="7.56836" transform="rotate(-10.5334 24.3354 48.418)" fill="#FEFFE4"/>
<path d="M42.6143 48.5515C42.7528 48.5258 42.8956 48.561 43.0061 48.6483L46.5351 51.4333C46.837 51.6716 47.1367 52.0687 47.1205 52.5759C47.1087 52.9448 47.0028 53.2625 46.8087 53.5256C46.6187 53.7831 46.3664 53.9583 46.1078 54.0841C45.6976 54.2838 45.1849 54.3946 44.7418 54.4903C44.6547 54.5091 44.5703 54.5273 44.4899 54.5455C43.945 54.6689 43.5511 54.795 43.3113 55.0059C43.1516 55.1464 43.0133 55.3676 43.0534 55.8306C43.7302 56.2039 44.134 56.9218 44.2659 57.631C44.398 58.3414 44.2786 59.158 43.7791 59.7499C43.9989 60.6063 44.4954 61.1622 45.2569 61.4744C46.1251 61.8304 47.3867 61.8881 49.0662 61.5758C50.7458 61.2635 51.9023 60.7562 52.5845 60.1119C53.1847 59.5451 53.4481 58.8453 53.3427 57.9632C52.6832 57.5752 52.2945 56.8267 52.1632 56.1207C52.0349 55.4306 52.123 54.609 52.6087 54.0455C52.5524 53.8594 52.4822 53.7301 52.4105 53.6391C52.3147 53.5174 52.1981 53.4408 52.0524 53.3925C51.7266 53.2844 51.28 53.3202 50.6949 53.4109C50.6166 53.423 50.5354 53.4363 50.452 53.4499C49.9713 53.5283 49.4182 53.6185 48.9338 53.5773C48.6357 53.552 48.3267 53.4761 48.0491 53.2969C47.7654 53.1138 47.5484 52.8446 47.4052 52.4908C47.2258 52.0479 47.3425 51.5956 47.5174 51.2742L49.6073 47.4347C49.6776 47.3055 49.8024 47.2149 49.9469 47.1881L61.3799 45.0622C62.3442 44.8829 63.1576 45.0216 63.7724 45.4054C64.3873 45.7894 64.7572 46.3909 64.8775 47.0427C65.1164 48.3367 64.4024 49.3687 63.2986 49.5739L63.298 49.574C62.7396 49.6771 62.2988 49.8996 62.0297 50.2488C61.769 50.5873 61.6069 51.1269 61.7703 52.0056C61.925 52.838 62.3297 53.2569 62.6692 53.4768C62.845 53.5906 63.0118 53.656 63.1324 53.6925C63.1924 53.7106 63.2399 53.7212 63.2697 53.727C63.2845 53.7299 63.2949 53.7315 63.3001 53.7323L42.6143 48.5515ZM42.6143 48.5515L30.7188 50.7634C30.4537 50.8127 30.2787 51.0676 30.328 51.3327L30.8809 54.3064C30.8812 54.3083 30.8817 54.3121 30.8822 54.3174C30.8837 54.3314 30.8855 54.3551 30.8854 54.3856C30.8853 54.4487 30.8771 54.5282 30.8503 54.6065C30.8085 54.7282 30.7051 54.9146 30.2988 54.9901C29.3221 55.1717 28.595 56.1476 28.8314 57.4191C28.9337 57.9691 29.2319 58.3304 29.5916 58.5885C29.8614 58.7822 30.1902 58.9316 30.4762 59.0615C30.5385 59.0898 30.5988 59.1172 30.656 59.1439C31.0024 59.3058 31.2988 59.467 31.5367 59.7013C31.7641 59.9254 31.9584 60.2371 32.0554 60.7334L33.9084 70.699C33.9573 70.962 34.2086 71.1363 34.4714 71.0909C34.4719 71.0909 34.4725 71.0908 34.4734 71.0907C34.478 71.09 34.4884 71.0888 34.5038 71.0877C34.5347 71.0854 34.5848 71.0838 34.6486 71.0883C34.7766 71.0974 34.9548 71.131 35.1464 71.2306C35.46 71.3936 35.8949 71.7793 36.1647 72.7461M42.6143 48.5515L36.1647 72.7461M36.1647 72.7461L34.6462 73.0285C33.8508 73.1764 33.3259 73.9411 33.4738 74.7364L33.9808 77.4627C34.3998 79.7162 36.5664 81.2034 38.8199 80.7844L63.4042 76.2131C64.2726 76.0516 65.1026 75.6866 65.6612 75.0228C66.2336 74.3426 66.4629 73.418 66.2498 72.2715C66.1102 71.5212 66.2339 70.9942 66.5025 70.5416C66.7872 70.0617 67.2501 69.6362 67.8641 69.1249C68.6206 68.4949 68.7393 67.6307 68.5291 66.9004C68.3279 66.2016 67.8125 65.5652 67.1942 65.2891L65.6512 64.5598L63.726 54.129C63.6871 53.9184 63.5156 53.7579 63.3033 53.7328C63.3037 53.7328 63.3038 53.7329 63.3038 53.7328L63.3026 53.7327L63.3011 53.7325L63.3002 53.7324L36.1647 72.7461Z" fill="#BBDC36" stroke="#C63535" stroke-width="0.976562" stroke-linejoin="round"/>
<path d="M41.5591 75.9825C41.1676 76.0117 40.8336 75.939 40.5571 75.7646C40.2835 75.586 40.1024 75.2974 40.0137 74.8987L40.4942 74.8093C40.5558 75.0819 40.6722 75.277 40.8434 75.3945C41.0174 75.5078 41.2295 75.5613 41.4796 75.5548L41.2184 74.1502C40.7959 74.1304 40.4766 74.0587 40.2606 73.9349C40.0439 73.8077 39.9064 73.5874 39.8482 73.2741C39.7958 72.9925 39.8624 72.7434 40.0479 72.5267C40.2328 72.3066 40.4944 72.156 40.8326 72.0749L40.7314 71.531L41.1222 71.4584L41.2253 72.0128C41.6415 71.9791 41.9709 72.0563 42.2134 72.2443C42.4553 72.4287 42.6106 72.6858 42.6792 73.0154L42.2039 73.1038C42.146 72.8705 42.0447 72.6981 41.9001 72.5866C41.7556 72.4751 41.5568 72.4246 41.3038 72.4353L41.5414 73.7132C41.8967 73.7236 42.1774 73.7643 42.3836 73.8352C42.5927 73.9019 42.7466 73.9953 42.8454 74.1153C42.9436 74.2319 43.0103 74.3852 43.0457 74.5753C43.085 74.7865 43.0651 74.9832 42.9861 75.1654C42.9106 75.347 42.7831 75.5037 42.6036 75.6354C42.4277 75.7664 42.2104 75.8614 41.9519 75.9204L42.053 76.4643L41.6622 76.537L41.5591 75.9825ZM40.3287 73.1847C40.3497 73.2974 40.3828 73.3877 40.4283 73.4558C40.4766 73.5196 40.5538 73.5727 40.66 73.6148C40.769 73.6528 40.927 73.6799 41.134 73.6961L40.9111 72.4974C40.7032 72.5542 40.5467 72.6434 40.4419 72.7649C40.337 72.8864 40.2993 73.0263 40.3287 73.1847ZM41.8733 75.498C42.1207 75.4374 42.3074 75.3353 42.4337 75.1917C42.56 75.048 42.6038 74.8723 42.5652 74.6646C42.5449 74.5555 42.505 74.4682 42.4454 74.4028C42.3859 74.3374 42.2908 74.2859 42.1599 74.2483C42.0326 74.21 41.8546 74.183 41.6259 74.1673L41.8733 75.498ZM43.5647 75.1343L44.7809 73.3894C44.9098 73.2016 45.0028 73.0258 45.0598 72.8623C45.1203 72.6981 45.1349 72.5315 45.1035 72.3625C45.0675 72.1689 44.9721 72.0282 44.8174 71.9404C44.6662 71.8519 44.4779 71.8287 44.2526 71.8706C44.0132 71.9151 43.8348 72.0229 43.7173 72.1941C43.5991 72.3618 43.5673 72.5825 43.6219 72.8565L43.1572 72.9429C43.0874 72.548 43.1446 72.2186 43.3286 71.955C43.5156 71.6871 43.7974 71.5182 44.1741 71.4481C44.4134 71.4036 44.6317 71.4122 44.829 71.4739C45.0262 71.5355 45.1874 71.6385 45.3125 71.7828C45.4405 71.9228 45.5222 72.0879 45.5576 72.278C45.5975 72.4928 45.5773 72.7169 45.4969 72.9504C45.4193 73.1797 45.3043 73.4032 45.1517 73.621L44.17 75.0109L46.0552 74.6603L46.1337 75.0828L43.6413 75.5462L43.5647 75.1343ZM47.913 74.8175C47.4483 74.9039 47.0779 74.7925 46.8019 74.4832C46.5294 74.1733 46.3362 73.7121 46.2223 73.0996C46.1084 72.487 46.1229 71.9872 46.2658 71.6C46.4122 71.2122 46.7178 70.9751 47.1825 70.8887C47.6472 70.8023 48.0158 70.9141 48.2883 71.224C48.5643 71.5332 48.7593 71.9941 48.8732 72.6067C48.987 73.2192 48.9708 73.7194 48.8244 74.1072C48.6815 74.4943 48.3777 74.7311 47.913 74.8175ZM46.7081 73.0092C46.8004 73.5056 46.9348 73.8758 47.1113 74.1198C47.2906 74.3596 47.5317 74.4513 47.8344 74.395C48.1372 74.3387 48.3274 74.1668 48.405 73.8792C48.4855 73.5874 48.4796 73.1934 48.3873 72.697C48.295 72.2006 48.1592 71.8325 47.9799 71.5927C47.8034 71.3487 47.5638 71.2549 47.261 71.3112C46.9583 71.3675 46.7666 71.5415 46.6861 71.8333C46.6085 72.1209 46.6158 72.5129 46.7081 73.0092ZM49.6201 73.7571L50.1481 73.6589L50.2699 74.3137L49.7418 74.4119L49.6201 73.7571ZM50.7017 73.8073L51.9179 72.0624C52.0469 71.8745 52.1398 71.6988 52.1968 71.5352C52.2574 71.371 52.2719 71.2044 52.2405 71.0354C52.2045 70.8418 52.1091 70.7011 51.9544 70.6133C51.8032 70.5249 51.615 70.5016 51.3896 70.5435C51.1503 70.588 50.9718 70.6958 50.8543 70.867C50.7362 71.0347 50.7044 71.2555 50.759 71.5294L50.2943 71.6158C50.2245 71.2209 50.2816 70.8916 50.4657 70.6279C50.6526 70.36 50.9344 70.1911 51.3111 70.121C51.5505 70.0765 51.7688 70.0851 51.966 70.1468C52.1632 70.2084 52.3244 70.3114 52.4496 70.4557C52.5776 70.5958 52.6593 70.7609 52.6946 70.951C52.7346 71.1657 52.7143 71.3898 52.6339 71.6233C52.5563 71.8526 52.4413 72.0761 52.2887 72.2939L51.3071 73.6838L53.1922 73.3332L53.2708 73.7557L50.7783 74.2191L50.7017 73.8073ZM53.3531 72.3855L54.7696 69.5435L55.2659 69.4512L55.7333 71.9648L56.2614 71.8666L56.3399 72.289L55.8119 72.3872L55.9729 73.2532L55.5082 73.3397L55.3472 72.4736L53.4356 72.8291L53.3531 72.3855ZM55.2686 72.0512L54.9152 70.1502L53.8534 72.3143L55.2686 72.0512Z" fill="#C63535"/>
<path d="M68.9963 60.1134L73.0871 61.9777C73.3567 62.1006 73.5913 62.3149 73.6526 62.6048C74.1177 64.8024 69.335 64.2593 70.6009 67.0612C71.9507 67.2185 72.8144 69.1301 72.0403 70.2471C73 72.3711 75.179 72.6654 78.3649 71.2259C81.5509 69.7865 82.7703 67.9567 81.8106 65.8328C80.5138 65.6514 79.6049 63.6397 80.3712 62.6468C79.0991 59.8314 76.1513 63.9635 74.7825 62.0674C74.6184 61.8401 74.6063 61.5405 74.6779 61.2694L75.793 57.0426L86.3905 52.2545C88.0059 51.5246 89.1725 52.122 89.613 53.1003C90.0534 54.0787 89.6808 54.9486 88.9266 55.2894C87.7619 55.8137 86.9619 56.8557 87.7776 58.6611C88.5933 60.4665 90.1826 60.257 90.1826 60.257L94.6397 70.157L96.5627 70.5487C97.578 70.7294 98.7226 72.1304 97.8261 73.345C96.8815 74.6246 96.2359 75.6836 96.9556 77.2766C97.8193 79.1882 96.8615 80.4648 95.3748 81.1366L72.5871 91.4324C70.744 92.2651 68.5747 91.4461 67.742 89.6029L66.6002 87.0759C66.3782 86.5844 66.5966 86.006 67.0881 85.7839L68.9593 84.9385C67.7598 82.2835 66.0606 83.0512 66.0606 83.0512L61.8861 73.8119C60.8768 71.6272 58.6381 72.8497 57.9664 71.3629C57.5345 70.4071 57.9318 69.5883 58.569 69.3004C59.6494 68.8122 59.2176 67.8564 59.2176 67.8564L57.97 65.0952L68.9963 60.1134Z" fill="#FFD830" stroke="#C63535" stroke-width="0.976562" stroke-linejoin="round"/>
<path d="M74.344 86.4368C73.9706 86.5583 73.6289 86.5673 73.3189 86.4638C73.0106 86.3555 72.7659 86.1183 72.5848 85.7522L73.0302 85.551C73.155 85.8011 73.3145 85.9628 73.5088 86.0361C73.7048 86.1048 73.9235 86.1061 74.1649 86.0403L73.5766 84.7383C73.1615 84.8198 72.8344 84.8261 72.5951 84.7574C72.3543 84.6855 72.1683 84.5043 72.0371 84.2139C71.9192 83.9528 71.9245 83.695 72.0531 83.4404C72.1802 83.1826 72.3983 82.974 72.7075 82.8147L72.4797 82.3105L72.8419 82.1469L73.0741 82.6608C73.4703 82.529 73.8086 82.5254 74.089 82.6503C74.3679 82.7718 74.5798 82.9845 74.725 83.2882L74.2844 83.4873C74.1726 83.2745 74.0332 83.1312 73.8662 83.0574C73.6993 82.9835 73.4942 82.9818 73.251 83.0524L73.7862 84.2369C74.1337 84.1624 74.416 84.1351 74.6332 84.1548C74.8522 84.1699 75.0239 84.2239 75.1485 84.3169C75.2716 84.4067 75.3729 84.5397 75.4525 84.7159C75.541 84.9117 75.5685 85.1075 75.5352 85.3033C75.5051 85.4976 75.4186 85.6801 75.2757 85.8508C75.136 86.02 74.9477 86.164 74.7106 86.2829L74.9384 86.7871L74.5762 86.9507L74.344 86.4368ZM72.4825 84.0126C72.5297 84.117 72.5834 84.1969 72.6438 84.2521C72.7059 84.3026 72.7935 84.3357 72.9067 84.3514C73.0217 84.3623 73.1816 84.351 73.3864 84.3174L72.8844 83.2063C72.696 83.3111 72.5653 83.4349 72.4924 83.5779C72.4195 83.7209 72.4162 83.8658 72.4825 84.0126ZM74.5337 85.8913C74.7595 85.7736 74.9166 85.6299 75.005 85.4603C75.0934 85.2907 75.0941 85.1097 75.0071 84.9171C74.9614 84.816 74.9018 84.7407 74.8285 84.6914C74.7551 84.642 74.6504 84.6147 74.5144 84.6093C74.3816 84.6025 74.2023 84.6187 73.9764 84.6579L74.5337 85.8913ZM76.0898 85.1352L76.8553 83.1509C76.9358 82.9377 76.9842 82.7449 77.0006 82.5724C77.0203 82.3985 76.9947 82.2333 76.9239 82.0766C76.8429 81.8972 76.7167 81.7832 76.5455 81.7348C76.3776 81.685 76.1893 81.7072 75.9804 81.8016C75.7585 81.9018 75.6109 82.0491 75.5376 82.2433C75.4628 82.4343 75.4845 82.6563 75.6027 82.9093L75.172 83.1039C75.0101 82.737 74.9872 82.4036 75.1031 82.1036C75.2209 81.799 75.4543 81.5677 75.8035 81.41C76.0254 81.3097 76.2395 81.2661 76.4457 81.279C76.6519 81.2919 76.833 81.3535 76.9889 81.4638C77.1466 81.5694 77.2653 81.7102 77.3449 81.8864C77.4348 82.0855 77.4685 82.308 77.4461 82.5539C77.4254 82.7951 77.3669 83.0396 77.2706 83.2874L76.6482 84.8711L78.3956 84.0816L78.5726 84.4732L76.2623 85.517L76.0898 85.1352ZM80.2374 83.7917C79.8067 83.9863 79.4204 83.9663 79.0787 83.7318C78.7402 83.4957 78.4427 83.0938 78.1862 82.526C77.9296 81.9582 77.8246 81.4693 77.8712 81.0593C77.921 80.6478 78.1613 80.3447 78.5921 80.1501C79.0228 79.9555 79.4074 79.9762 79.7459 80.2123C80.0876 80.4469 80.3868 80.848 80.6433 81.4158C80.8998 81.9836 81.0032 82.4733 80.9534 82.8848C80.9068 83.2948 80.6681 83.5971 80.2374 83.7917ZM78.6365 82.3225C78.8444 82.7826 79.0631 83.1101 79.2926 83.3051C79.5239 83.4952 79.7799 83.5269 80.0605 83.4002C80.3411 83.2734 80.4849 83.0611 80.4918 82.7633C80.5005 82.4607 80.4009 82.0794 80.193 81.6193C79.9851 81.1592 79.7655 80.834 79.5342 80.6439C79.3047 80.4489 79.0496 80.4149 78.769 80.5417C78.4883 80.6684 78.3437 80.8831 78.335 81.1857C78.3281 81.4835 78.4286 81.8624 78.6365 82.3225ZM81.6427 82.3552L82.1322 82.1341L82.4064 82.741L81.917 82.9622L81.6427 82.3552ZM82.7052 82.1463L83.4708 80.1619C83.5513 79.9487 83.5997 79.7559 83.6161 79.5835C83.6357 79.4096 83.6102 79.2443 83.5394 79.0877C83.4583 78.9082 83.3322 78.7943 83.161 78.7459C82.9931 78.696 82.8047 78.7182 82.5959 78.8126C82.374 78.9129 82.2264 79.0601 82.153 79.2543C82.0782 79.4453 82.1 79.6673 82.2182 79.9204L81.7875 80.115C81.6256 79.748 81.6027 79.4146 81.7186 79.1147C81.8364 78.81 82.0698 78.5788 82.419 78.421C82.6409 78.3208 82.8549 78.2771 83.0612 78.29C83.2674 78.3029 83.4485 78.3645 83.6044 78.4748C83.7621 78.5804 83.8808 78.7213 83.9604 78.8975C84.0503 79.0965 84.084 79.319 84.0615 79.5649C84.0408 79.8061 83.9823 80.0506 83.8861 80.2984L83.2637 81.8822L85.0111 81.0927L85.188 81.4842L82.8777 82.5281L82.7052 82.1463ZM84.9416 80.1339L85.6403 77.0363L86.1004 76.8284L87.1531 79.1583L87.6426 78.9371L87.8195 79.3287L87.33 79.5499L87.6927 80.3526L87.262 80.5472L86.8993 79.7445L85.1274 80.545L84.9416 80.1339ZM86.7224 79.3529L85.9262 77.5908L85.4106 79.9456L86.7224 79.3529Z" fill="#C63535"/>
</svg>
