<svg width="127" height="147" viewBox="0 0 127 147" fill="none" xmlns="http://www.w3.org/2000/svg">
<g filter="url(#filter0_d_2726_7660)">
<path d="M79.5166 133.378C37.7933 144.558 25.1103 118.988 16.1761 85.6457C7.24192 52.3028 5.44095 23.8174 47.1643 12.6376C88.8876 1.45792 101.571 27.0275 110.505 60.3704C119.439 93.7132 121.24 122.199 79.5166 133.378Z" fill="#EA3636"/>
<path d="M17.8394 42.2989L17.8394 42.2987C19.4693 36.632 22.4521 32.0054 26.9636 28.142C32.0578 23.7796 39.3107 20.3007 48.5537 17.824C57.7967 15.3474 65.8173 14.7337 72.4103 15.9646C78.2489 17.0546 83.1432 19.5706 87.3905 23.6627C91.9523 28.0579 95.5014 34.0865 98.3793 40.7794C101.256 47.4694 103.45 54.7936 105.316 61.7588C107.183 68.7253 108.945 76.165 109.799 83.3968C110.653 90.6317 110.593 97.6266 108.84 103.714L108.84 103.714C107.21 109.381 104.227 114.007 99.7159 117.871C94.6217 122.233 87.3688 125.712 78.1258 128.189C68.8828 130.665 60.8622 131.279 54.2692 130.048C48.4306 128.958 43.5363 126.442 39.289 122.35C34.7272 117.955 31.1783 111.927 28.3004 105.234C25.4239 98.5444 23.2301 91.2203 21.3635 84.2538C19.4968 77.2874 17.7346 69.8476 16.8809 62.6159C16.0269 55.381 16.0864 48.3861 17.8394 42.2989Z" stroke="#FEFFE4" stroke-width="0.976562"/>
<path d="M39.7287 115.831C39.1281 115.253 38.8634 114.664 38.9346 114.064C39.0148 113.455 39.3889 112.803 40.0569 112.109C40.7339 111.405 42.9386 109.704 46.671 107.007L47.3737 104.783C49.0931 105.118 50.3891 105.706 51.2619 106.545C51.8437 107.105 51.9201 107.72 51.4911 108.392C52.9903 108.768 54.2044 109.402 55.1334 110.296C55.7434 110.883 56.1429 111.538 56.3319 112.262C56.5603 113.114 56.2863 113.943 55.5101 114.75C54.2283 116.083 52.5619 116.341 50.5109 115.524C51.7596 117.231 51.7025 118.793 50.3395 120.21C49.4549 121.13 48.3708 121.497 47.0871 121.31C45.8034 121.123 44.6877 120.574 43.7399 119.662C42.8015 118.759 42.2356 117.836 42.0423 116.891C41.1005 116.762 40.3293 116.408 39.7287 115.831ZM47.3857 116.773C47.81 116.332 47.99 115.882 47.9258 115.423C47.871 114.973 47.6278 114.54 47.1961 114.125C46.7644 113.709 46.1954 113.334 45.489 112.998C44.5716 113.651 43.8421 114.259 43.3005 114.822C43.5527 115.48 43.9275 116.048 44.4249 116.527C44.9223 117.005 45.4339 117.271 45.9599 117.326C46.4952 117.389 46.9705 117.205 47.3857 116.773ZM51.6429 110.516C51.2769 110.164 50.8151 109.855 50.2574 109.59C49.8491 109.901 48.7728 110.673 47.0286 111.904C47.8617 112.597 48.7038 113.046 49.555 113.25C50.4152 113.445 51.1387 113.238 51.7254 112.628C52.4024 111.924 52.3749 111.22 51.6429 110.516Z" fill="#FEFFE4"/>
<path d="M62.372 122.679L61.7338 120.691C61.0569 120.676 60.3759 120.556 59.6907 120.332C59.5284 121.162 59.4431 121.759 59.4347 122.123C59.4057 123.386 59.5793 124.334 59.9555 124.968C59.161 125.536 58.3407 125.81 57.4946 125.791C56.6485 125.771 56.0487 125.516 55.6953 125.026C55.3421 124.523 55.1766 123.79 55.1987 122.827C55.2211 121.851 55.6944 119.107 56.6184 114.596L55.6315 112.483C57.1109 111.579 58.4625 111.141 59.6861 111.169C60.6234 111.191 61.3414 111.402 61.8401 111.805C62.8253 111.436 63.7085 111.261 64.4895 111.279C65.6871 111.307 66.6282 111.732 67.3126 112.555C67.997 113.379 68.3262 114.356 68.3002 115.489C68.2808 116.335 68.0472 117.15 67.5994 117.934C67.1519 118.706 66.5059 119.329 65.6614 119.804C66.0751 121.077 66.5448 122.176 67.0706 123.099C67.6094 124.023 68.1488 124.641 68.6886 124.953C68.4087 125.234 67.9799 125.471 67.4024 125.666C66.8376 125.875 66.3274 125.974 65.8717 125.963C64.9866 125.943 64.2822 125.705 63.7586 125.251C63.2354 124.783 62.7732 123.925 62.372 122.679ZM60.5987 118.223C61.6401 118.247 62.4533 117.999 63.0383 117.478C63.6364 116.958 63.9424 116.392 63.9565 115.78C63.9705 115.168 63.8125 114.676 63.4824 114.304C63.1523 113.932 62.6748 113.738 62.05 113.724C61.7115 113.716 61.3721 113.754 61.0315 113.837C60.5579 116.314 60.2641 117.766 60.1501 118.193C60.2409 118.208 60.3905 118.218 60.5987 118.223Z" fill="#FEFFE4"/>
<path d="M73.8472 124.512C73.1037 124.705 72.4949 124.614 72.0209 124.239C71.5437 123.852 71.1839 123.192 70.9417 122.259C70.6962 121.314 70.4009 118.546 70.0559 113.954L68.5286 112.191C69.7138 110.901 70.8924 110.104 72.0644 109.8C72.808 109.607 73.3596 109.84 73.7194 110.5C75.1337 110.092 76.8272 109.309 78.7999 108.151C79.0088 108.541 79.1655 108.938 79.2703 109.341C79.5354 110.362 79.3948 111.219 78.8485 111.912C78.3147 112.602 77.5185 113.085 76.4599 113.36C75.7415 113.547 74.9965 113.579 74.2248 113.456C74.2713 114.049 74.3354 115.022 74.4172 116.373C74.9064 116.34 75.3149 116.281 75.6426 116.196C76.1331 115.961 76.6626 115.668 77.231 115.319C77.3497 115.517 77.4728 115.861 77.6005 116.353C77.7248 116.832 77.6293 117.267 77.3139 117.658C76.9985 118.05 76.5951 118.309 76.1036 118.437C75.6247 118.561 75.1184 118.632 74.5849 118.65C74.6524 119.48 74.7779 120.247 74.9612 120.953L78.0236 120.158C78.9454 119.77 79.8457 119.274 80.7245 118.669C80.859 118.877 80.977 119.176 81.0785 119.566C81.2716 120.31 81.2229 121.029 80.9324 121.723C80.6544 122.414 80.1311 122.859 79.3623 123.059C78.959 123.164 78.3454 123.236 77.5215 123.275C76.7135 123.323 76.1155 123.378 75.7276 123.438C75.2176 123.961 74.5908 124.318 73.8472 124.512Z" fill="#FEFFE4"/>
<path d="M89.4956 105.472L91.6421 109.598C92.4285 110.993 93.2037 112.103 93.9676 112.928C94.7429 113.747 95.5504 114.159 96.3902 114.164C95.8825 115.092 95.226 115.784 94.4206 116.238C93.0027 117.037 91.4836 116.384 89.8631 114.278L86.3921 116.234C86.5922 117.093 86.8042 117.721 87.0279 118.118C87.2453 118.504 87.4665 118.79 87.6915 118.977C87.1527 119.983 86.5543 120.672 85.8964 121.043C84.8869 121.612 84.0368 121.284 83.3463 120.059C83.0011 119.446 82.7534 118.569 82.6035 117.428C82.4648 116.281 82.3686 114.93 82.3147 113.376C82.2722 111.816 82.2273 110.795 82.1801 110.313C81.71 109.771 81.2294 109.25 80.7381 108.749C81.0978 108.008 81.4923 107.383 81.9216 106.871C82.356 106.343 82.8907 105.899 83.5259 105.541C84.1725 105.177 84.7005 105.066 85.1098 105.209C85.5965 104.561 86.0497 104.119 86.4694 103.882C86.8891 103.645 87.2394 103.538 87.5203 103.559C87.8012 103.58 88.0606 103.695 88.2984 103.905C88.7129 104.269 89.112 104.791 89.4956 105.472ZM86.2963 107.791L85.7518 108.098C85.8435 110.647 85.9595 112.629 86.0997 114.045L88.737 112.559C88.0401 111.322 87.2265 109.733 86.2963 107.791Z" fill="#FEFFE4"/>
<path d="M98.4304 108.102C97.7263 107.867 96.5404 107.287 94.8727 106.36C93.205 105.434 92.1488 104.856 91.704 104.625L89.3941 104.947C89.0275 103.081 89.0273 101.599 89.3936 100.5C89.5748 99.9561 89.8959 99.6102 90.357 99.4619C90.3404 98.3173 90.4762 97.3126 90.7643 96.4478C91.2994 94.8419 92.2402 93.7692 93.5866 93.2297C94.9206 92.686 96.3658 92.6735 97.9223 93.1921C99.9729 93.8754 101.606 95.2567 102.821 97.3359C103.405 98.3405 103.751 99.5263 103.859 100.893C103.97 102.248 103.799 103.605 103.346 104.964C102.894 106.322 102.245 107.28 101.401 107.836C100.545 108.388 99.5546 108.476 98.4304 108.102ZM100.444 104.408C100.579 104.165 100.701 103.883 100.808 103.562C101.256 102.215 101.125 101.005 100.412 99.9302C99.6873 98.8515 98.6146 98.0755 97.194 97.6021C96.0452 97.2193 95.0446 97.1741 94.1923 97.4666C93.34 97.759 92.7513 98.3932 92.4261 99.3691C92.3767 99.5173 92.3191 99.7726 92.2532 100.135C92.8544 100.431 94.1865 101.129 96.2496 102.228C98.3043 103.311 99.7023 104.038 100.444 104.408Z" fill="#FEFFE4"/>
<path d="M29.3314 40.7134L25.1051 37.5594L25.5432 36.9724L29.2412 39.7322L30.8094 37.6308L31.3377 38.025L29.3314 40.7134Z" fill="#FEFFE4"/>
<path d="M33.3 36.2884C32.4533 36.9999 31.3684 36.8017 30.6333 35.927C29.8983 35.0522 29.89 33.9494 30.7367 33.238C31.5779 32.5312 32.658 32.7237 33.4072 33.6153L33.5486 33.7835L31.3393 35.64C31.8326 36.1246 32.4202 36.2432 32.9136 35.8286C33.2837 35.5176 33.4086 35.097 33.284 34.6755L33.8223 34.2231C34.1226 34.9562 33.9504 35.7418 33.3 36.2884ZM30.9726 35.1923L32.6212 33.807C32.1375 33.3907 31.5885 33.3067 31.1231 33.6978C30.6521 34.0936 30.6403 34.6488 30.9726 35.1923Z" fill="#FEFFE4"/>
<path d="M33.2515 29.99L33.8441 29.6252L34.4584 30.6232L35.3191 30.0934L35.6263 30.5923L34.7655 31.1222L35.9442 33.037C36.0862 33.2678 36.2412 33.31 36.4782 33.1641L37.0084 32.8378L37.3156 33.3368L36.6606 33.7399C36.0993 34.0854 35.7241 34.0068 35.3939 33.4704L34.173 31.4869L33.5804 31.8516L33.2733 31.3527L33.8658 30.9879L33.2515 29.99Z" fill="#FEFFE4"/>
<path d="M36.2336 27.9083L36.8851 27.5736L37.2251 29.6139L36.756 29.8549L36.2336 27.9083Z" fill="#FEFFE4"/>
<path d="M41.8677 31.1408C41.006 31.5101 40.2347 31.4023 39.8212 30.5676L40.454 30.2964C40.73 30.7916 41.1137 30.8503 41.6523 30.6195C42.1437 30.4089 42.362 30.1002 42.2264 29.7838C42.0995 29.4876 41.9437 29.4029 41.1214 29.6039C39.976 29.8876 39.55 29.6558 39.3105 29.0971C39.0451 28.4777 39.4231 27.8536 40.204 27.5189C41.1128 27.1294 41.836 27.3295 42.1639 28.0575L41.5379 28.3258C41.2984 27.8228 40.8772 27.844 40.4261 28.0373C40.0357 28.2046 39.8048 28.5028 39.9376 28.8124C40.0674 29.1154 40.2847 29.1577 41.0637 28.9673C42.1784 28.7047 42.6006 28.8904 42.8487 29.4693C43.1401 30.1492 42.6957 30.7859 41.8677 31.1408Z" fill="#FEFFE4"/>
<path d="M49.1457 28.5233C47.5561 28.9852 46.3837 28.0216 45.973 26.6079C45.5622 25.1943 46.0356 23.7524 47.6532 23.2824C48.9403 22.9084 49.9719 23.44 50.4482 24.4228L49.7308 24.6312C49.408 23.9928 48.6973 23.6731 47.8392 23.9224C46.6647 24.2637 46.3917 25.3193 46.7044 26.3954C47.0171 27.4715 47.8132 28.2164 48.9878 27.8751C49.9514 27.5951 50.282 26.8431 50.1853 25.9331L48.3497 26.4665L48.1719 25.8546L50.7109 25.1168L51.4773 27.7543L50.9005 27.9219L50.6389 27.0216C50.4982 27.7184 50.0529 28.2597 49.1457 28.5233Z" fill="#FEFFE4"/>
<path d="M54.7431 27.0719C53.6618 27.3043 52.7959 26.6214 52.5558 25.5044C52.3157 24.3873 52.8246 23.4089 53.9058 23.1765C54.9799 22.9456 55.8444 23.6214 56.0891 24.7599L56.1352 24.9747L53.3139 25.5811C53.5231 26.2404 53.9868 26.6202 54.6169 26.4847C55.0895 26.3832 55.3967 26.0699 55.4839 25.6391L56.1714 25.4914C56.0936 26.2797 55.5737 26.8934 54.7431 27.0719ZM53.1995 25.0139L55.3047 24.5614C55.0721 23.9671 54.6264 23.6359 54.032 23.7637C53.4305 23.893 53.1602 24.3781 53.1995 25.0139Z" fill="#FEFFE4"/>
<path d="M57.4097 21.3948L58.098 21.2925L58.2702 22.4517L59.27 22.3031L59.3561 22.8827L58.3564 23.0313L58.6869 25.2554C58.7267 25.5234 58.8526 25.6232 59.1279 25.5823L59.7437 25.4908L59.8299 26.0703L59.0692 26.1834C58.4172 26.2803 58.1031 26.0604 58.0105 25.4373L57.6681 23.1335L56.9799 23.2358L56.8938 22.6563L57.582 22.554L57.4097 21.3948Z" fill="#FEFFE4"/>
<path d="M65.1756 25.6374L65.1963 21.0231L63.4385 21.0153L63.4414 20.3561L67.7041 20.3752L67.7011 21.0344L65.9433 21.0265L65.9226 25.6407L65.1756 25.6374Z" fill="#FEFFE4"/>
<path d="M68.7017 25.6914L69.621 20.4988L70.299 20.6188L69.9542 22.566C70.2666 22.2718 70.7008 22.0883 71.2345 22.1828C72.1648 22.3475 72.4487 23.0969 72.321 23.8182L71.8894 26.2558L71.2115 26.1358L71.6316 23.763C71.7197 23.2654 71.5311 22.8601 70.9685 22.7605C70.6873 22.7107 69.9261 22.7247 69.7499 23.72L69.3796 25.8115L68.7017 25.6914Z" fill="#FEFFE4"/>
<path d="M73.1214 26.6109L74.4008 23.0237L75.0561 23.2574L73.7768 26.8447L73.1214 26.6109ZM74.6321 22.3752L74.8929 21.6439L75.5413 21.8752L75.2805 22.6065L74.6321 22.3752Z" fill="#FEFFE4"/>
<path d="M76.222 28.0226C75.4104 27.5534 75.035 26.8711 75.4562 26.0401L76.0522 26.3847C75.8207 26.9023 76.0034 27.2448 76.5106 27.538C76.9735 27.8056 77.3515 27.7957 77.5238 27.4977C77.6851 27.2187 77.6596 27.0433 77.0064 26.5049C76.0935 25.7572 76.0242 25.2771 76.3284 24.7508C76.6657 24.1675 77.3919 24.0967 78.1275 24.5219C78.9835 25.0168 79.2561 25.7159 78.8692 26.4143L78.2795 26.0734C78.5391 25.5805 78.27 25.2558 77.8452 25.0101C77.4774 24.7975 77.1004 24.7911 76.9318 25.0828C76.7669 25.3681 76.8631 25.5675 77.4819 26.0776C78.3594 26.8133 78.4634 27.2626 78.1481 27.8079C77.7779 28.4484 77.0019 28.4735 76.222 28.0226Z" fill="#FEFFE4"/>
<rect x="50.3511" y="63.8984" width="43.1181" height="37.5244" rx="7.56836" transform="rotate(-24.3141 50.3511 63.8984)" fill="#FEFFE4"/>
<rect x="23.675" y="48.4229" width="43.1181" height="37.5244" rx="7.56836" transform="rotate(-10.5334 23.675 48.4229)" fill="#FEFFE4"/>
<path d="M42.0432 49.0374L45.5722 51.8225C45.8047 52.006 45.9815 52.2701 45.972 52.5662C45.9003 54.8113 41.3845 53.1447 41.9466 56.1674C43.2201 56.6417 43.6036 58.704 42.5857 59.6045C43.0118 61.8959 45.0579 62.7008 48.4951 62.0617C51.9322 61.4226 53.5524 59.936 53.1263 57.6446C51.91 57.1595 51.5065 54.9893 52.4872 54.2074C51.9224 51.17 48.0751 54.481 47.1974 52.3134C47.0921 52.0535 47.1518 51.7597 47.2859 51.5135L49.3758 47.674L60.8087 45.5481C62.5515 45.224 63.5422 46.0821 63.737 47.1372C63.9317 48.1923 63.3626 48.9484 62.5489 49.0997C61.2928 49.3316 60.2676 50.153 60.6298 52.1007C60.992 54.0484 62.5854 54.2235 62.5854 54.2235L64.5561 64.9002L66.3303 65.7388C67.2734 66.1561 68.0513 67.7895 66.8912 68.7555C65.6691 69.7733 64.7897 70.648 65.1093 72.3666C65.4928 74.4289 64.2585 75.4407 62.6545 75.7389L38.0703 80.3102C36.0818 80.6799 34.1702 79.3677 33.8004 77.3793L33.2935 74.653C33.1949 74.1228 33.5448 73.613 34.0751 73.5144L36.0938 73.139C35.5612 70.2747 33.7281 70.6156 33.7281 70.6156L31.8747 60.6479C31.4148 58.2856 28.9493 58.9397 28.6511 57.3357C28.4593 56.3045 29.0402 55.6039 29.7277 55.476C30.8933 55.2593 30.7015 54.2282 30.7015 54.2282L30.1476 51.2493L42.0432 49.0374Z" fill="#ACCF1F"/>
<path d="M41.0016 76.5438L40.8985 75.9894C40.1656 76.0437 39.5365 75.7455 39.353 74.9055L39.8336 74.8161C39.9627 75.3931 40.3626 75.5755 40.819 75.5617L40.5578 74.157C39.764 74.1189 39.3093 73.9357 39.1875 73.2809C39.0805 72.7054 39.5081 72.2434 40.1719 72.0818L40.0708 71.5379L40.4615 71.4652L40.5646 72.0197C41.4473 71.9484 41.8888 72.4126 42.0185 73.0222L41.5433 73.1106C41.4305 72.6508 41.1576 72.4175 40.6432 72.4421L40.8808 73.72C41.9748 73.757 42.2859 74.0488 42.385 74.5821C42.5038 75.221 42.0712 75.744 41.2912 75.9273L41.3924 76.4712L41.0016 76.5438ZM39.6681 73.1916C39.725 73.4979 39.8409 73.6511 40.4733 73.7029L40.2505 72.5042C39.8392 72.6134 39.6092 72.8747 39.6681 73.1916ZM41.2127 75.5048C41.6883 75.3891 41.984 75.0992 41.9045 74.6714C41.8466 74.3599 41.662 74.2194 40.9652 74.1741L41.2127 75.5048ZM42.9807 75.5531L42.9041 75.1412L44.1202 73.3963C44.3438 73.0706 44.5106 72.7337 44.4428 72.3693C44.3711 71.9838 44.0461 71.793 43.592 71.8774C43.1378 71.9618 42.85 72.294 42.9613 72.8633L42.4966 72.9497C42.3526 72.1461 42.7689 71.5934 43.5134 71.455C44.258 71.3165 44.7929 71.7251 44.8969 72.2849C44.9833 72.7496 44.7629 73.2385 44.4911 73.6278L43.5094 75.0177L45.3945 74.6672L45.4731 75.0896L42.9807 75.5531ZM47.2523 74.8243C46.2702 75.007 45.7737 74.247 45.5617 73.1064C45.3496 71.9658 45.5396 71.0782 46.5218 70.8956C47.504 70.7129 48.0004 71.4729 48.2125 72.6135C48.4246 73.7541 48.2345 74.6417 47.2523 74.8243ZM46.0475 73.0161C46.2203 73.9454 46.5401 74.5197 47.1738 74.4019C47.8075 74.2841 47.8995 73.6332 47.7267 72.7038C47.5539 71.7744 47.234 71.2002 46.6004 71.318C45.9667 71.4358 45.8747 72.0867 46.0475 73.0161ZM49.0812 74.4187L48.9594 73.7639L49.4875 73.6657L49.6092 74.3205L49.0812 74.4187ZM50.1177 74.226L50.0411 73.8141L51.2573 72.0692C51.4808 71.7435 51.6476 71.4066 51.5798 71.0422C51.5082 70.6568 51.1831 70.4659 50.729 70.5503C50.2749 70.6348 49.987 70.9669 50.0983 71.5362L49.6336 71.6226C49.4897 70.819 49.9059 70.2663 50.6505 70.1279C51.395 69.9894 51.9299 70.3981 52.034 70.9578C52.1204 71.4225 51.8999 71.9115 51.6281 72.3007L50.6464 73.6906L52.5316 73.3401L52.6101 73.7625L50.1177 74.226ZM52.775 72.8359L52.6925 72.3923L54.1089 69.5504L54.6053 69.4581L55.0727 71.9716L55.6007 71.8734L55.6793 72.2959L55.1512 72.3941L55.3123 73.2601L54.8476 73.3465L54.6865 72.4805L52.775 72.8359ZM53.1928 72.3212L54.608 72.058L54.2545 70.157L53.1928 72.3212Z" fill="#FEFFE4"/>
<path d="M68.3364 60.1193L72.4272 61.9836C72.6968 62.1064 72.9314 62.3208 72.9927 62.6106C73.4578 64.8082 68.675 64.2652 69.9409 67.067C71.2908 67.2244 72.1545 69.136 71.3804 70.253C72.34 72.377 74.5191 72.6712 77.705 71.2318C80.891 69.7923 82.1104 67.9626 81.1507 65.8386C79.8539 65.6573 78.945 63.6456 79.7113 62.6527C78.4392 59.8372 75.4914 63.9694 74.1225 62.0732C73.9584 61.8459 73.9464 61.5464 74.018 61.2753L75.1331 57.0484L85.7306 52.2604C87.346 51.5305 88.5126 52.1279 88.9531 53.1062C89.3935 54.0846 89.0209 54.9545 88.2667 55.2952C87.102 55.8196 86.302 56.8616 87.1177 58.667C87.9334 60.4723 89.5227 60.2628 89.5227 60.2628L93.9798 70.1628L95.9028 70.5546C96.9181 70.7352 98.0627 72.1363 97.1661 73.3509C96.2216 74.6305 95.5759 75.6895 96.2957 77.2825C97.1594 79.1941 96.2016 80.4707 94.7148 81.1425L71.9272 91.4382C70.0841 92.271 67.9148 91.4519 67.0821 89.6088L65.9403 87.0818C65.7183 86.5903 65.9367 86.0118 66.4282 85.7898L68.2994 84.9443C67.0999 82.2893 65.4007 83.0571 65.4007 83.0571L61.2262 73.8178C60.2169 71.633 57.9782 72.8556 57.3064 71.3688C56.8746 70.413 57.2719 69.5941 57.9091 69.3062C58.9895 68.8181 58.5577 67.8623 58.5577 67.8623L57.3101 65.1011L68.3364 60.1193Z" fill="#FBCF14"/>
<path d="M73.917 86.9576L73.6848 86.4436C72.986 86.6709 72.3039 86.5312 71.9256 85.7591L72.371 85.5578C72.6339 86.0874 73.0658 86.1693 73.5057 86.0471L72.9174 84.7452C72.1374 84.8972 71.6521 84.8276 71.3779 84.2207C71.1369 83.6872 71.4422 83.1367 72.0483 82.8215L71.8205 82.3174L72.1827 82.1537L72.4149 82.6677C73.2553 82.3882 73.7946 82.7339 74.0658 83.2951L73.6253 83.4941C73.4062 83.0744 73.0856 82.9128 72.5919 83.0593L73.127 84.2438C74.1984 84.019 74.57 84.2284 74.7933 84.7227C75.0609 85.315 74.7653 85.926 74.0514 86.2897L74.2792 86.7939L73.917 86.9576ZM71.8233 84.0194C71.9516 84.3033 72.1007 84.4246 72.7272 84.3242L72.2252 83.2131C71.8518 83.4172 71.6906 83.7258 71.8233 84.0194ZM73.8745 85.8982C74.3089 85.6725 74.527 85.3204 74.3479 84.924C74.2174 84.6352 74.0047 84.5427 73.3172 84.6647L73.8745 85.8982ZM75.6031 85.5239L75.4306 85.1421L76.1961 83.1577C76.3356 82.7882 76.4174 82.4212 76.2648 82.0835C76.1033 81.7262 75.7422 81.6182 75.3212 81.8084C74.9003 81.9986 74.6998 82.3898 74.9436 82.9162L74.5128 83.1108C74.1816 82.3646 74.4542 81.7286 75.1443 81.4168C75.8345 81.105 76.4513 81.3744 76.6857 81.8933C76.8803 82.324 76.7827 82.8514 76.6114 83.2942L75.9891 84.878L77.7365 84.0885L77.9134 84.48L75.6031 85.5239ZM79.5782 83.7986C78.6678 84.2099 78.0047 83.5901 77.527 82.5328C77.0493 81.4756 77.0225 80.5683 77.9329 80.1569C78.8433 79.7456 79.5064 80.3654 79.9841 81.4227C80.4618 82.4799 80.4886 83.3872 79.5782 83.7986ZM77.9773 82.3294C78.3665 83.1908 78.8139 83.6724 79.4013 83.407C79.9887 83.1416 79.923 82.4876 79.5338 81.6261C79.1446 80.7646 78.6972 80.2831 78.1098 80.5485C77.5224 80.8139 77.5881 81.4679 77.9773 82.3294ZM81.2578 82.969L80.9836 82.362L81.473 82.1409L81.7473 82.7478L81.2578 82.969ZM82.2186 82.5349L82.0461 82.1531L82.8116 80.1687C82.9511 79.7992 83.0328 79.4322 82.8802 79.0945C82.7188 78.7372 82.3577 78.6293 81.9367 78.8194C81.5158 79.0096 81.3153 79.4008 81.559 79.9272L81.1283 80.1218C80.7971 79.3756 81.0696 78.7397 81.7598 78.4279C82.4499 78.116 83.0668 78.3855 83.3012 78.9043C83.4958 79.3351 83.3981 79.8625 83.2269 80.3053L82.6045 81.889L84.3519 81.0995L84.5289 81.4911L82.2186 82.5349ZM84.4682 80.5519L84.2825 80.1407L84.9812 77.0431L85.4413 76.8353L86.4939 79.1651L86.9834 78.944L87.1603 79.3356L86.6708 79.5567L87.0335 80.3594L86.6028 80.554L86.2401 79.7513L84.4682 80.5519ZM84.7514 79.9524L86.0632 79.3597L85.2671 77.5977L84.7514 79.9524Z" fill="#FEFFE4"/>
</g>
<defs>
<filter id="filter0_d_2726_7660" x="8.9668" y="7.97461" width="108.747" height="130.067" filterUnits="userSpaceOnUse" color-interpolation-filters="sRGB">
<feFlood flood-opacity="0" result="BackgroundImageFix"/>
<feColorMatrix in="SourceAlpha" type="matrix" values="0 0 0 0 0 0 0 0 0 0 0 0 0 0 0 0 0 0 127 0" result="hardAlpha"/>
<feOffset/>
<feGaussianBlur stdDeviation="1"/>
<feComposite in2="hardAlpha" operator="out"/>
<feColorMatrix type="matrix" values="0 0 0 0 0 0 0 0 0 0 0 0 0 0 0 0 0 0 0.4 0"/>
<feBlend mode="normal" in2="BackgroundImageFix" result="effect1_dropShadow_2726_7660"/>
<feBlend mode="normal" in="SourceGraphic" in2="effect1_dropShadow_2726_7660" result="shape"/>
</filter>
</defs>
</svg>
