<svg width="134" height="118" viewBox="0 0 134 118" fill="none" xmlns="http://www.w3.org/2000/svg">
<path d="M126.936 78.5249C123.42 58.41 98.3897 53.33 67.9965 50.5254C37.6033 47.7208 12.0825 48.2577 4.8512 67.2593L3.78626 67.161L2.99163 75.5881C0.432225 102.731 24.4846 108.633 62.1892 112.112C99.8939 115.591 124.62 114.351 127.194 87.0491L127.989 78.6221L126.936 78.5249Z" fill="#F5F7D9"/>
<path d="M71.8835 6.2969C37.5935 3.12707 7.19839 28.1432 3.99121 62.1747L3.46922 67.7136L127.64 79.1921L128.162 73.6533C131.369 39.6242 106.171 9.4665 71.8835 6.2969Z" fill="#E97624"/>
<path d="M122.726 73.4097C123.486 66.0688 122.771 58.6541 120.623 51.5941C118.475 44.5342 114.936 37.9635 110.207 32.2562C105.477 26.5514 99.6528 21.8232 93.0622 18.3424C86.474 14.8619 79.2492 12.6971 71.8 11.9702C64.3507 11.2434 56.8292 11.9693 49.6573 14.1071C42.4878 16.2451 35.8089 19.7533 30.0052 24.4303C24.2014 29.1073 19.3871 34.8629 15.8356 41.3691C12.2842 47.873 10.0648 55.0014 9.30529 62.3422L122.722 73.4092L122.726 73.4097Z" stroke="#F5F7D9" stroke-width="0.976562"/>
<path d="M71.3899 11.5713L66.4195 68.3831" stroke="#F5F7D9" stroke-width="0.976562"/>
<path d="M122.841 73.4045C123.851 63.534 122.237 53.5747 118.159 44.5332C114.082 35.4893 107.689 27.679 99.6168 21.8846L66.3904 67.7819L122.839 73.4043L122.841 73.4045Z" stroke="#F5F7D9" stroke-width="0.976562"/>
<path d="M9.33392 62.8642C10.3492 53.0509 13.9668 43.6653 19.8228 35.6514L66.0421 68.3977L9.33392 62.8642Z" stroke="#F5F7D9" stroke-width="0.976562"/>
<path d="M9.32939 62.7898C10.3386 52.9193 13.936 43.479 19.7615 35.4238C25.5872 27.3662 33.4325 20.9741 42.5148 16.8884L65.7779 68.4121L9.32939 62.7898Z" stroke="#F5F7D9" stroke-width="0.976562"/>
<path d="M123.106 73.3929C124.121 63.5795 122.498 53.6826 118.401 44.6975L66.3974 67.8594L123.106 73.3929Z" stroke="#F5F7D9" stroke-width="0.976562"/>
<path d="M100.007 86.6407C99.595 90.4368 83.5632 92.0486 64.2 90.2428C44.8368 88.437 29.4734 83.8974 29.8859 80.1013C30.2984 76.3052 46.3302 74.6934 65.6934 76.4992C85.0566 78.3049 100.42 82.8446 100.007 86.6407Z" stroke="#E97624" stroke-width="0.976562"/>
<path d="M64.5854 86.7234C77.2984 87.8902 87.7725 87.2634 87.98 85.3233C88.1874 83.3832 78.0496 80.8645 65.3366 79.6977C52.6236 78.5309 42.1495 79.1577 41.942 81.0978C41.7346 83.0379 51.8723 85.5566 64.5854 86.7234Z" stroke="#E97624" stroke-width="0.976562"/>
<path d="M66.8193 47.7527C68.4343 47.9151 69.9259 48.1913 71.2436 48.5761C73.0807 49.1126 74.6415 49.8785 75.6954 50.8942C76.1396 50.1868 76.9109 49.6337 77.7185 49.3438C77.8194 49.3079 77.9251 49.2967 78.0262 49.3069C78.3488 49.3393 78.6322 49.5885 78.6615 49.9214C78.7682 51.1887 78.1801 52.4734 77.0522 53.0659C77.1378 53.3001 77.2199 53.5436 77.2961 53.7987C77.5771 54.7391 77.8148 55.8667 78.013 57.1189C78.4118 59.6236 78.671 62.6868 78.8315 65.8831C79.1526 72.2757 79.0832 79.255 78.9391 83.4832C78.9272 83.8386 78.6494 84.1308 78.2914 84.1603C74.7562 84.467 69.683 84.2841 64.6766 83.7806C60.1756 83.3279 55.6821 82.6115 52.3469 81.7423C52.2545 81.7185 52.1669 81.6951 52.0745 81.6713C52.0036 81.652 51.9326 81.6328 51.864 81.6137C51.6583 81.5566 51.4573 81.5001 51.2615 81.4415C50.9357 81.3457 50.7246 81.0309 50.7589 80.6948C51.0396 77.9407 52.3399 74.2484 53.3249 71.98C53.3249 71.98 53.3249 71.98 53.3225 71.9797C51.8833 72.0484 49.9016 72.048 47.2911 71.8946C47.1967 71.89 47.1053 71.8808 47.0114 71.8713C42.999 71.4677 40.1866 67.5462 39.3993 63.4136C39.1695 62.2091 39.1054 60.9534 39.2314 59.7168C39.558 56.5597 41.1473 53.5394 44.4973 51.8775C44.5127 51.8694 44.5252 51.8658 44.5404 51.86C50.576 48.8746 57.5061 47.5631 63.3816 47.5791C64.5728 47.5825 65.7244 47.6401 66.8195 47.7503M66.9172 46.7922C65.7883 46.6787 64.6004 46.6198 63.3849 46.6164C56.8165 46.5986 49.8121 48.1864 44.1538 50.977C44.1285 50.9866 44.0979 51.0005 44.0671 51.0168C40.7299 52.6727 38.6726 55.7284 38.2708 59.6226C38.1376 60.9288 38.1961 62.264 38.4493 63.597C38.8831 65.8772 39.8795 68.0296 41.2545 69.6646C42.8208 71.5226 44.7759 72.6192 46.9133 72.8342C47.0192 72.8448 47.1251 72.8555 47.2317 72.8589C48.9333 72.9597 50.4828 73.0016 51.863 72.9876C50.9389 75.3495 50.0306 78.2734 49.7934 80.6001C49.7122 81.3973 50.2126 82.1414 50.9845 82.3694C51.1852 82.4284 51.3931 82.4882 51.6061 82.546L51.7552 82.5852L51.8238 82.6043L51.9138 82.6279C51.9754 82.6438 52.0392 82.6623 52.1032 82.6784C52.1198 82.6825 52.1364 82.6866 52.153 82.6907C55.408 83.5348 59.8199 84.2648 64.5809 84.7437C69.9387 85.2826 74.9677 85.4221 78.3779 85.1248C79.2218 85.052 79.8809 84.359 79.9083 83.5176C80.0619 79.0526 80.1128 72.0643 79.7991 65.8373C79.6211 62.2875 79.3415 59.3048 78.9692 56.9701C78.7543 55.6192 78.5027 54.461 78.2236 53.5257C78.2164 53.5007 78.2092 53.4757 78.2018 53.4532C79.2003 52.6027 79.7452 51.2651 79.6272 49.8463C79.5613 49.061 78.93 48.4323 78.126 48.3514C77.8757 48.3263 77.6294 48.3573 77.3924 48.4402C76.7083 48.6867 76.0808 49.0699 75.5805 49.5411C74.5285 48.7683 73.1656 48.1363 71.5174 47.6552C70.1478 47.2554 68.5991 46.9662 66.9167 46.797L66.9172 46.7922Z" fill="#F5F7D9"/>
<path fillRule="evenodd" clipRule="evenodd" d="M71.244 48.5785C73.4353 49.2185 75.2337 50.1829 76.251 51.5103C76.68 52.0725 77.0189 52.8756 77.2963 53.8034C77.5774 54.7438 77.815 55.8714 78.0132 57.1236C78.412 59.6283 78.6713 62.6914 78.8318 65.8877C79.1528 72.2803 79.0607 79.4827 78.9166 83.7108C78.9047 84.0662 78.6269 84.3585 78.2689 84.388C74.7336 84.6946 69.6604 84.5118 64.6539 84.0083C59.6475 83.5047 54.6401 82.676 51.2387 81.6693C50.9129 81.5734 50.7018 81.2587 50.7361 80.9225C51.0168 78.1684 52.3399 74.2529 53.325 71.9845C51.8857 72.0532 49.9016 72.0525 47.2911 71.8991C43.1313 71.653 40.2058 67.6473 39.3989 63.4206C38.5828 59.142 39.8375 54.2032 44.4965 51.8895C50.5435 48.8882 57.491 47.5736 63.3813 47.5887C66.3277 47.5964 69.0332 47.9389 71.2435 48.5833L71.244 48.5785Z" fill="#D79D4F"/>
<path fillRule="evenodd" clipRule="evenodd" d="M47.103 72.1201C42.9752 71.8744 40.0653 67.8428 39.2572 63.5874C38.4397 59.2798 39.6759 54.3064 44.2945 51.9743C47.7958 50.2077 52.1233 72.4173 47.103 72.1201Z" fill="#A46E29"/>
<path d="M56.846 72.565L53.8521 72.8333C52.552 76.3456 51.6415 79.7165 51.5869 81.2336C52.1999 78.4411 55.1928 74.5408 56.8457 72.5675L56.846 72.565Z" fill="#A46E29"/>
<path fillRule="evenodd" clipRule="evenodd" d="M52.46 82.2113C52.0862 82.1123 51.7271 82.0123 51.3851 81.9092C51.0617 81.8129 50.8518 81.496 50.8851 81.1575C51.1584 78.3838 52.4635 74.44 53.4363 72.155C53.4363 72.155 53.4363 72.155 53.4339 72.1547C53.4339 72.1547 53.4387 72.1552 53.4413 72.153L56.7935 71.8632C57.4067 71.8082 57.7914 72.5555 57.3924 73.0304C55.0614 75.8076 53.758 78.804 52.4647 82.2118L52.46 82.2113Z" fill="#A46E29"/>
<path fillRule="evenodd" clipRule="evenodd" d="M78.6122 49.5268C78.7423 51.0799 77.8428 52.665 76.1899 52.9749C75.8446 53.0398 75.5013 52.8417 75.3937 52.514C74.8594 50.8883 76.2086 49.478 77.673 48.9467C78.0975 48.7924 78.574 49.0868 78.6122 49.5268Z" fill="#A46E29"/>
<path d="M62.2634 58.2422L64.8317 58.4669" stroke="#A46E29" stroke-width="1.06201" stroke-linecap="round" stroke-linejoin="round"/>
<path d="M66.5454 49.187C65.6174 49.0807 64.7131 48.8303 63.8558 48.4433C61.6644 47.4533 59.9905 45.6731 59.1433 43.4317C58.3022 41.2005 58.3798 38.7787 59.3662 36.6101C60.9785 33.062 64.6745 30.9801 68.5628 31.4256C69.4885 31.5317 70.3952 31.7824 71.2525 32.1694C72.4513 32.7111 73.4912 33.4825 74.3452 34.466C75.1081 34.6882 76.392 35.307 77.4034 37.0209C77.5165 37.212 77.4813 37.4558 77.3213 37.6108C77.2157 37.7118 77.0732 37.7556 76.9352 37.7398C76.8638 37.7316 76.7919 37.7066 76.7267 37.6654C76.4644 37.4933 76.2157 37.3493 75.9828 37.236C76.7992 39.4306 76.7224 41.8453 75.7418 44.0049C74.1295 47.553 70.4335 49.6349 66.5452 49.1894L66.5454 49.187Z" fill="#F5F7D9"/>
<path d="M68.5113 31.904C69.3704 32.0024 70.2287 32.2331 71.0585 32.6074C72.2665 33.1525 73.2825 33.9429 74.0802 34.8911C75.0718 35.1371 76.1752 35.8797 76.9927 37.2658C76.1898 36.7406 75.5886 36.5176 75.1106 36.4388C76.2615 38.6598 76.4221 41.3593 75.3097 43.8072C73.7497 47.2362 70.1748 49.1251 66.6031 48.7158C65.7441 48.6174 64.8857 48.3867 64.0559 48.0124C59.7764 46.0804 57.873 41.0655 59.8071 36.8129C61.3671 33.3839 64.942 31.495 68.5137 31.9042M68.6203 30.9537C64.525 30.4845 60.6331 32.6788 58.934 36.4168C57.8957 38.7022 57.8126 41.256 58.698 43.6054C59.5892 45.9675 61.3512 47.8421 63.6595 48.884C64.5627 49.2907 65.5161 49.554 66.4918 49.6658C70.587 50.135 74.4793 47.9384 76.1781 44.2027C77.0483 42.2903 77.2433 40.1899 76.7751 38.1963C76.8103 38.2052 76.8457 38.2116 76.8814 38.2157C77.1574 38.2474 77.4399 38.1594 77.6511 37.9574C77.9732 37.6501 78.0412 37.1621 77.815 36.78C77.0118 35.4171 75.885 34.4577 74.6155 34.0499C73.7353 33.0633 72.672 32.2868 71.4526 31.7355C70.5494 31.3288 69.5959 31.0655 68.6203 30.9537Z" fill="#F5F7D9"/>
<path d="M75.8489 42.1298C76.8467 37.5668 73.9399 33.0555 69.3565 32.0536C64.773 31.0517 60.2485 33.9386 59.2507 38.5016C58.253 43.0646 61.1597 47.5759 65.7432 48.5778C70.3266 49.5797 74.8511 46.6928 75.8489 42.1298Z" fill="#E97624"/>
<path d="M71.9538 34.9941C73.7615 37.527 73.8046 34.8037 77.0175 36.9469C75.5035 34.309 72.8366 33.9692 71.9538 34.9941Z" fill="#9DCC4C"/>
<path d="M68.6243 35.5146C65.6357 35.1701 63.2137 32.9607 62.5952 30.0184C62.2152 28.2037 62.5613 26.352 63.5737 24.8016C64.5894 23.2443 66.1535 22.1797 67.9768 21.8036C68.7061 21.6536 69.4462 21.6207 70.1803 21.7053C70.6625 21.7609 71.1415 21.8668 71.6027 22.0237C71.7808 21.9598 71.9612 21.9179 72.1511 21.8771C72.6939 21.7587 73.311 21.6223 74.2055 20.8183C74.31 20.7242 74.4468 20.6844 74.5799 20.6998C74.6654 20.7096 74.7482 20.7433 74.8192 20.7973C75.0026 20.9415 75.056 21.1938 74.9487 21.3985C74.8445 21.5964 74.7488 21.7832 74.6568 21.9584C74.3703 22.5141 74.1395 22.9603 73.8995 23.3163C75.0791 24.316 75.893 25.6765 76.2123 27.1971C76.5923 29.0118 76.2462 30.8634 75.2337 32.4138C74.2181 33.9711 72.654 35.0358 70.8307 35.4119C70.1014 35.5618 69.3586 35.5968 68.6245 35.5122L68.6243 35.5146Z" fill="#F5F7D9"/>
<path d="M74.5246 21.1736C73.9663 22.2382 73.6322 22.9596 73.2333 23.4009C74.4781 24.3139 75.4032 25.6701 75.7442 27.2968C76.4781 30.7948 74.2359 34.2176 70.7339 34.943C70.0389 35.0872 69.3475 35.1137 68.6775 35.0364C65.9761 34.7251 63.6509 32.7226 63.0625 29.9192C62.3286 26.4211 64.5708 22.9983 68.0728 22.273C68.7679 22.1287 69.4566 22.1044 70.1242 22.1813C70.6398 22.2408 71.1389 22.361 71.6172 22.5368C72.2421 22.2252 73.1154 22.4417 74.5219 21.1757M74.6321 20.221C74.3684 20.1906 74.0947 20.27 73.8857 20.4582C73.085 21.1765 72.5593 21.292 72.0483 21.4044C71.9028 21.4359 71.7522 21.4692 71.6003 21.5144C71.1541 21.3737 70.6956 21.2774 70.2323 21.224C69.4482 21.1337 68.6547 21.17 67.8786 21.3291C65.9293 21.7316 64.2582 22.8682 63.1724 24.533C62.0902 26.1886 61.7196 28.1698 62.1263 30.1104C62.7869 33.255 65.3772 35.6162 68.5705 35.9842C69.3545 36.0746 70.1481 36.0382 70.9292 35.8774C72.8785 35.4748 74.5496 34.3382 75.6353 32.6734C76.7176 31.0178 77.0882 29.0366 76.6815 27.096C76.3682 25.6077 75.6128 24.2614 74.5191 23.2258C74.6953 22.9229 74.8764 22.5771 75.0831 22.1739C75.1725 22.0009 75.2682 21.8141 75.3721 21.6186C75.5868 21.2092 75.478 20.7021 75.1134 20.414C74.9697 20.3009 74.8037 20.236 74.6327 20.2163L74.6321 20.221Z" fill="#F5F7D9"/>
<path d="M75.8358 29.5028C76.3133 25.9818 73.8288 22.7342 70.2865 22.2491C66.7441 21.7639 63.4853 24.2249 63.0077 27.7458C62.5302 31.2668 65.0147 34.5144 68.5571 34.9996C72.0995 35.4847 75.3582 33.0237 75.8358 29.5028Z" fill="#E97624"/>
<path d="M70.6778 23.6624C71.3787 21.3505 72.2645 22.9474 74.4597 21.0128C73.1672 23.4167 73.0654 24.0459 70.6778 23.6624Z" fill="#9DCC4C"/>
<path d="M22.2064 93.6605C22.204 93.5042 22.269 93.0979 22.0787 93.0168C21.8533 92.9202 21.6375 93.1904 21.0027 93.8118L19.5072 95.2776C18.9932 95.7835 18.6837 96.1669 17.9162 95.8344C17.2543 95.5483 17.2563 95.0581 17.2792 94.4236L17.5124 87.876C17.5493 86.8842 16.8877 87.1153 17.1994 86.3955C17.5518 85.5818 19.1596 86.2512 19.7017 86.4871C21.4267 87.2357 21.6066 87.6354 21.3952 88.1182C21.2423 88.4723 20.9485 88.4011 20.7897 88.7668C20.6403 89.1091 20.6327 90.128 20.6199 90.2903C20.5973 90.5053 20.4996 91.4426 20.7694 91.5605C21.0768 91.694 21.6934 90.9538 21.8297 90.803C21.8959 90.7482 22.1469 90.4935 22.1841 90.4091C22.2307 90.3037 22.2995 89.4661 22.0323 89.1119C21.8477 88.8922 21.7176 88.6386 21.8453 88.3456C21.8763 88.2753 22.0178 87.4957 24.4892 88.5675C26.7822 89.5617 26.5047 90.0725 26.4176 90.2718C26.2492 90.661 25.6698 90.5363 25.5422 90.8293C25.4048 91.1483 25.4886 92.0513 25.4937 92.3616C25.4946 92.5861 25.4375 93.4297 25.7216 93.5513C26.1229 93.7253 27.5015 91.9437 27.5757 91.7774C27.7967 91.2711 26.9146 91.1962 27.1976 90.5493C27.5094 89.8295 28.7001 90.3893 29.1861 90.598C29.6719 90.8091 30.5317 91.2502 30.245 91.9114C29.9931 92.4881 29.5634 92.1212 28.886 92.8069L24.5465 97.2254C24.0206 97.7545 23.4833 98.2484 22.8097 97.9564C22.2181 97.7012 22.168 97.2989 22.1691 96.7136L22.2038 93.6627L22.2064 93.6605Z" fill="#E97624"/>
<path d="M36.2717 92.5105C37.9384 92.9519 38.2413 92.7653 38.4413 92.8182C39.1508 93.0066 39.1272 94.3036 38.9834 94.8494C38.8743 95.2592 38.5842 95.701 38.0984 95.5726C37.1151 95.3122 38.2269 94.3293 35.8626 93.703C34.4816 93.3371 34.5526 93.6221 34.1751 95.0497C33.9858 95.7695 34.0143 95.8039 34.7737 96.0067C35.719 96.2562 35.375 94.6905 36.2583 94.9244C36.9797 95.1164 36.6594 96.5322 36.531 97.0183C36.3955 97.5283 35.9144 98.995 35.1666 98.7981C34.3952 98.5941 35.513 97.4947 34.2536 97.1596C33.7298 97.0203 33.6195 97.496 33.5139 97.894C33.0345 99.7076 33.1811 99.6529 34.4882 99.9997C37.0407 100.675 36.7808 98.7316 37.8021 99.0029C38.1997 99.1084 38.2822 99.6094 38.1887 99.9572C37.9656 100.803 36.8916 102.139 36.394 102.007C36.3059 101.984 36.1168 101.893 35.8657 101.787C35.5991 101.688 35.2599 101.559 34.8361 101.446L29.7194 100.091C28.898 99.873 28.9843 99.4976 29.0263 99.3355C29.2074 98.6516 29.9087 99.4228 30.3444 98.1302C31.0912 95.9093 31.0457 96.1346 31.5152 93.8536C31.9318 91.9291 30.7263 92.6614 30.9578 91.7771C31.158 91.0192 32.1696 91.4214 32.6817 91.5547L36.2674 92.5052L36.2717 92.5105Z" fill="#E97624"/>
<path d="M40.8857 96.6667C40.9825 96.2013 40.0296 95.9212 40.27 94.7747C40.4457 93.9303 41.1816 93.427 42.0223 93.6036C42.9276 93.7936 43.3499 94.7259 43.173 95.5824C42.8658 97.0553 41.075 98.7192 40.22 98.5388C40.005 98.4942 39.6469 98.2601 39.703 97.9963C39.7592 97.7325 40.7195 97.4606 40.8857 96.6667Z" fill="#E97624"/>
<path d="M44.8535 97.092C45.1744 95.1253 44.0757 95.7794 44.2054 94.9934C44.3195 94.2961 45.3259 94.3681 45.8331 94.452C46.0999 94.4965 46.3501 94.5613 46.6158 94.6178C46.8658 94.6851 47.1279 94.7535 47.3829 94.7944C47.7891 94.8616 48.2003 94.9024 48.6236 94.9443C49.0336 94.9972 49.4566 95.0416 49.8631 95.1064C51.2986 95.3404 52.8616 96.2454 52.5863 97.9332C52.4613 98.6953 51.9734 99.3699 51.2052 99.596C51.0814 99.6405 50.9841 99.6632 50.9599 99.8172C50.9299 100.007 51.0861 100.085 51.2292 100.174C52.0661 100.648 52.3642 101.296 52.3187 102.695C52.2791 103.899 53.2216 103.323 53.0954 104.098C53.0162 104.578 52.3501 104.992 50.9122 104.758C48.8781 104.427 48.8153 103.22 48.6926 101.48C48.6469 100.873 48.5253 100.269 47.8256 100.154C47.5467 100.109 47.4373 100.13 47.3088 100.929C47.2476 101.297 47.1923 101.809 47.1972 102.173C47.2044 102.774 47.8802 102.7 47.7817 103.309C47.7072 103.766 47.3334 104.055 45.2726 103.722C44.6618 103.623 42.8562 103.328 43.0088 102.402C43.1168 101.743 43.9945 102.355 44.2637 100.706L44.8535 97.092ZM47.7125 98.1301C47.6333 98.4547 47.525 98.7253 47.9433 98.7936C48.7703 98.9294 49.1119 98.5146 49.2392 97.7283C49.3412 97.108 49.2909 96.4467 48.5549 96.3292C48.0835 96.2535 48.0489 96.5456 47.9587 96.9351L47.7123 98.1325L47.7125 98.1301Z" fill="#E97624"/>
<path d="M60.0799 96.4995C61.7943 96.6938 62.0671 96.4653 62.2722 96.4894C63.0014 96.5721 63.1667 97.8573 63.1043 98.4204C63.0577 98.8409 62.8347 99.3207 62.3348 99.2642C61.323 99.1502 62.2807 98.0163 59.849 97.7427C58.429 97.5832 58.5403 97.8549 58.3738 99.3215C58.2898 100.063 58.3262 100.091 59.106 100.181C60.0791 100.291 59.5094 98.7903 60.4174 98.8922C61.1587 98.9761 61.0475 100.426 60.9912 100.924C60.9324 101.448 60.6681 102.969 59.9002 102.883C59.1057 102.794 60.0525 101.542 58.7581 101.396C58.2195 101.336 58.1789 101.823 58.1333 102.232C57.9223 104.097 58.0611 104.022 59.4038 104.172C62.0262 104.468 61.4874 102.584 62.5379 102.702C62.9485 102.747 63.101 103.23 63.0602 103.588C62.962 104.455 62.0938 105.937 61.5843 105.88C61.4948 105.871 61.2932 105.809 61.0288 105.74C60.7511 105.682 60.3974 105.603 59.9602 105.555L54.7009 104.961C53.8558 104.865 53.8867 104.482 53.9048 104.315C53.9852 103.612 54.792 104.273 55.0325 102.928C55.4485 100.621 55.4364 100.854 55.5686 98.5272C55.701 96.5641 54.6141 97.4613 54.716 96.5551C54.8034 95.7771 55.8637 96.025 56.3901 96.084L60.0751 96.499L60.0799 96.4995Z" fill="#E97624"/>
<path d="M68.7682 100.061C68.8416 98.7263 70.2166 97.1401 72.7089 97.2754C73.5315 97.3206 74.4372 97.7301 74.6289 97.7407C74.8085 97.7502 75 97.58 75.2693 97.5954C75.7062 97.6192 76.6284 98.6606 76.5716 99.7398C76.5478 100.177 76.2402 100.598 75.7647 100.571C74.9031 100.524 74.4816 99.0314 73.1443 98.9601C72.7464 98.9376 72.3122 99.0948 72.2861 99.5565C72.2305 100.57 74.0053 100.396 75.4444 101.467C76.2132 102.037 76.5755 102.701 76.5223 103.663C76.4405 105.165 75.1129 106.793 72.1183 106.63C71.2691 106.582 69.8308 106.286 69.118 105.849C68.5194 105.468 68.2991 104.091 68.3334 103.437C68.3536 103.09 68.5266 102.752 68.91 102.773C69.8226 102.822 69.557 104.856 71.9231 104.985C72.2069 105.001 72.9216 104.897 72.9477 104.409C72.9973 103.485 71.2237 103.62 69.8597 102.398C69.1843 101.795 68.7113 100.984 68.7636 100.058L68.7682 100.061Z" fill="#E97624"/>
<path d="M77.4996 102.152C77.5081 99.4288 79.69 97.5066 82.4994 97.5124C86.0554 97.522 87.4105 100.648 87.4067 102.305C87.3994 105.067 84.9464 106.886 82.3177 106.88C79.5988 106.873 77.4922 104.89 77.502 102.152L77.4996 102.152ZM81.9002 99.4262C81.1777 99.4247 80.815 100.169 80.8146 100.799C80.8123 101.892 81.5745 104.963 82.9679 104.969C83.7538 104.971 84.091 104.29 84.0924 103.597C84.0969 102.428 83.4083 99.4326 81.9024 99.4288L81.9002 99.4262Z" fill="#E97624"/>
<path d="M100.154 98.7363C99.9916 97.3713 98.9537 98.0263 98.8644 97.2857C98.77 96.4958 100.256 96.3441 100.782 96.2809C101.268 96.2237 102.676 96.0548 102.763 96.7952C102.847 97.5084 101.837 97.1896 101.975 98.3521L102.385 101.795C102.453 102.37 102.83 105.43 98.4037 105.959C93.3622 106.562 93.4633 102.615 93.4459 102.462L93.0945 99.5152C93.0507 98.7056 92.1792 98.8098 92.1097 98.2224C92.0873 98.0446 91.8623 97.345 94.4988 97.0321C96.5851 96.7825 97.052 97.1141 97.1103 97.6126C97.2196 98.5308 96.1834 97.7873 96.3054 99.351L96.586 101.698C96.7661 103.216 97.458 104.118 98.8136 103.954C100.836 103.713 100.547 102.053 100.531 101.913L100.152 98.736L100.154 98.7363Z" fill="#E97624"/>
<path d="M104.841 97.6137C104.569 96.6894 103.541 97.4335 103.313 96.6575C103.169 96.1653 103.68 95.893 104.064 95.7799C104.372 95.6891 104.676 95.6271 104.984 95.5362C106.775 95.0099 107.812 94.5157 108.331 94.364C110.011 93.8689 111.914 94.3668 112.456 96.2176C112.994 98.0559 111.727 99.5007 110.011 100.005C109.64 100.114 109.253 100.161 108.919 100.259C108.771 100.304 108.74 100.379 108.778 100.515L108.987 101.23C109.476 102.761 110.19 101.856 110.399 102.569C110.634 103.37 108.866 103.93 108.309 104.096C107.79 104.248 105.958 104.775 105.723 103.971C105.526 103.293 106.548 103.447 106.252 102.435L104.839 97.6111L104.841 97.6137ZM107.978 96.0482C107.496 96.1912 107.552 96.3332 107.623 96.5817L108.165 98.4325C108.241 98.6912 108.214 99.0087 108.881 98.8121C109.696 98.5732 109.836 97.8608 109.616 97.1075C109.388 96.3315 108.806 95.8056 107.978 96.0482Z" fill="#E97624"/>
<path fillRule="evenodd" clipRule="evenodd" d="M119.56 83.6196L119.656 82.6256L123.445 82.9844L123.077 86.7765L122.084 86.6824L122.287 84.5856L119.519 86.8715L118.886 86.1013L121.65 83.82L119.562 83.6222L119.56 83.6196Z" fill="#E97624"/>
<path fillRule="evenodd" clipRule="evenodd" d="M9.28093 73.9517L11.4913 76.6334L10.7426 77.2507L8.53008 74.5664L8.3326 76.6027L7.3679 76.5113L7.7251 72.8281L11.4079 73.1769L11.3143 74.1418L9.28357 73.9495L9.28093 73.9517Z" fill="#E97624"/>
</svg>
