<svg width="134" height="118" viewBox="0 0 134 118" fill="none" xmlns="http://www.w3.org/2000/svg">
<g filter="url(#filter0_d_2726_7095)">
<path d="M126.822 77.9497C123.306 57.8348 98.2762 52.7548 67.883 49.9503C37.4897 47.1457 11.969 47.6825 4.73767 66.6841L3.67273 66.5858L2.87811 75.0129C0.318699 102.156 24.371 108.057 62.0757 111.537C99.7803 115.016 124.506 113.776 127.081 86.4739L127.875 78.0469L126.822 77.9497Z" fill="#F5F7D9"/>
<path d="M71.77 5.7217C37.4799 2.55187 7.08486 27.568 3.87768 61.5995L3.35569 67.1384L127.527 78.6169L128.049 73.0781C131.255 39.049 106.058 8.89131 71.77 5.7217Z" fill="#E97624"/>
<path d="M122.613 72.8345C123.372 65.4936 122.658 58.0789 120.51 51.0189C118.362 43.959 114.823 37.3883 110.093 31.681C105.364 25.9762 99.5393 21.248 92.9487 17.7672C86.3605 14.2867 79.1357 12.1219 71.6864 11.395C64.2372 10.6682 56.7157 11.3941 49.5438 13.5319C42.3743 15.6699 35.6954 19.1781 29.8916 23.8551C24.0879 28.5321 19.2736 34.2877 15.722 40.7939C12.1707 47.2978 9.95125 54.4262 9.19176 61.767L122.608 72.834L122.613 72.8345Z" stroke="#F5F7D9" stroke-width="0.976562"/>
<path d="M71.2764 10.9961L66.306 67.8079" stroke="#F5F7D9" stroke-width="0.976562"/>
<path d="M122.728 72.8293C123.737 62.9589 122.123 52.9995 118.046 43.958C113.969 34.9141 107.575 27.1038 99.5033 21.3094L66.2769 67.2067L122.725 72.8291L122.728 72.8293Z" stroke="#F5F7D9" stroke-width="0.976562"/>
<path d="M9.22039 62.289C10.2357 52.4757 13.8532 43.0901 19.7092 35.0762L65.9285 67.8225L9.22039 62.289Z" stroke="#F5F7D9" stroke-width="0.976562"/>
<path d="M9.21587 62.2146C10.2251 52.3441 13.8225 42.9038 19.648 34.8486C25.4737 26.791 33.319 20.3989 42.4013 16.3132L65.6644 67.8369L9.21587 62.2146Z" stroke="#F5F7D9" stroke-width="0.976562"/>
<path d="M122.992 72.8177C124.007 63.0044 122.385 53.1074 118.287 44.1223L66.2839 67.2842L122.992 72.8177Z" stroke="#F5F7D9" stroke-width="0.976562"/>
<path d="M99.8939 86.0655C99.4815 89.8616 83.4497 91.4734 64.0865 89.6676C44.7233 87.8618 29.3599 83.3222 29.7724 79.5261C30.1848 75.73 46.2166 74.1182 65.5798 75.924C84.943 77.7297 100.306 82.2694 99.8939 86.0655Z" stroke="#E97624" stroke-width="0.976562"/>
<path d="M64.4718 86.1482C77.1849 87.315 87.659 86.6882 87.8664 84.7481C88.0739 82.808 77.9361 80.2893 65.2231 79.1225C52.5101 77.9557 42.0359 78.5825 41.8285 80.5226C41.621 82.4627 51.7588 84.9814 64.4718 86.1482Z" stroke="#E97624" stroke-width="0.976562"/>
<path d="M66.7058 47.1775C68.3208 47.3399 69.8124 47.6161 71.13 48.0009C72.9671 48.5374 74.528 49.3033 75.5819 50.319C76.0261 49.6117 76.7973 49.0585 77.605 48.7686C77.7059 48.7327 77.8116 48.7215 77.9127 48.7317C78.2352 48.7641 78.5187 49.0133 78.5479 49.3462C78.6546 50.6135 78.0666 51.8982 76.9387 52.4907C77.0242 52.7249 77.1064 52.9684 77.1825 53.2235C77.4636 54.1639 77.7012 55.2915 77.8994 56.5437C78.2983 59.0484 78.5575 62.1116 78.718 65.3079C79.0391 71.7006 78.9697 78.6798 78.8256 82.908C78.8137 83.2634 78.5359 83.5556 78.1779 83.5851C74.6427 83.8918 69.5695 83.709 64.5631 83.2054C60.0621 82.7527 55.5685 82.0363 52.2334 81.1672C52.141 81.1433 52.0534 81.1199 51.961 81.0961C51.89 81.0768 51.819 81.0576 51.7505 81.0385C51.5447 80.9815 51.3438 80.9249 51.148 80.8663C50.8222 80.7705 50.6111 80.4557 50.6453 80.1196C50.9261 77.3655 52.2264 73.6732 53.2114 71.4048C53.2114 71.4048 53.2114 71.4048 53.209 71.4045C51.7698 71.4732 49.7881 71.4728 47.1776 71.3194C47.0832 71.3148 46.9917 71.3056 46.8979 71.2961C42.8855 70.8926 40.073 66.971 39.2858 62.8384C39.0559 61.6339 38.9918 60.3782 39.1179 59.1416C39.4445 55.9846 41.0338 52.9642 44.3838 51.3023C44.3992 51.2942 44.4117 51.2906 44.4269 51.2848C50.4625 48.2994 57.3925 46.9879 63.2681 47.0039C64.4593 47.0073 65.6108 47.0649 66.706 47.1751M66.8036 46.217C65.6748 46.1035 64.4869 46.0446 63.2714 46.0412C56.703 46.0234 49.6986 47.6112 44.0403 50.4018C44.015 50.4114 43.9844 50.4253 43.9536 50.4416C40.6164 52.0975 38.559 55.1532 38.1573 59.0474C38.0241 60.3536 38.0826 61.6888 38.3357 63.0218C38.7696 65.302 39.766 67.4544 41.141 69.0894C42.7073 70.9474 44.6624 72.044 46.7997 72.259C46.9056 72.2696 47.0115 72.2803 47.1182 72.2837C48.8198 72.3845 50.3693 72.4264 51.7494 72.4124C50.8254 74.7743 49.9171 77.6982 49.6799 80.0249C49.5987 80.8221 50.0991 81.5662 50.871 81.7942C51.0717 81.8532 51.2796 81.913 51.4925 81.9708L51.6417 82.01L51.7103 82.0291L51.8003 82.0527C51.8619 82.0686 51.9257 82.0871 51.9897 82.1032C52.0063 82.1073 52.0229 82.1114 52.0395 82.1155C55.2945 82.9596 59.7064 83.6896 64.4673 84.1685C69.8252 84.7074 74.8541 84.8469 78.2644 84.5496C79.1083 84.4768 79.7674 83.7838 79.7948 82.9424C79.9483 78.4774 79.9992 71.4891 79.6856 65.2621C79.5076 61.7123 79.228 58.7296 78.8556 56.3949C78.6408 55.044 78.3892 53.8858 78.1101 52.9505C78.1029 52.9255 78.0957 52.9006 78.0883 52.878C79.0868 52.0275 79.6317 50.6899 79.5137 49.2711C79.4478 48.4858 78.8164 47.8571 78.0125 47.7762C77.7622 47.7511 77.5159 47.7821 77.2789 47.865C76.5948 48.1115 75.9672 48.4947 75.4669 48.966C74.415 48.1931 73.0521 47.5611 71.4038 47.08C70.0342 46.6802 68.4856 46.3911 66.8032 46.2218L66.8036 46.217Z" fill="#F5F7D9"/>
<path fill-rule="evenodd" clip-rule="evenodd" d="M71.1305 48.0033C73.3218 48.6433 75.1202 49.6077 76.1375 50.9351C76.5665 51.4973 76.9053 52.3004 77.1828 53.2282C77.4638 54.1686 77.7015 55.2962 77.8997 56.5484C78.2985 59.0531 78.5577 62.1162 78.7183 65.3125C79.0393 71.7051 78.9471 78.9075 78.8031 83.1356C78.7912 83.491 78.5134 83.7833 78.1554 83.8128C74.6201 84.1194 69.5469 83.9366 64.5404 83.4331C59.5339 82.9295 54.5266 82.1008 51.1252 81.0941C50.7994 80.9982 50.5883 80.6835 50.6226 80.3473C50.9033 77.5932 52.2264 73.6777 53.2114 71.4093C51.7722 71.478 49.7881 71.4773 47.1775 71.3239C43.0178 71.0778 40.0923 67.0721 39.2854 62.8454C38.4692 58.5668 39.724 53.628 44.383 51.3143C50.43 48.313 57.3775 46.9984 63.2678 47.0135C66.2141 47.0212 68.9197 47.3637 71.13 48.0081L71.1305 48.0033Z" fill="#D79D4F"/>
<path fill-rule="evenodd" clip-rule="evenodd" d="M46.9895 71.5449C42.8617 71.2992 39.9518 67.2676 39.1437 63.0122C38.3262 58.7046 39.5624 53.7312 44.181 51.3992C47.6823 49.6325 52.0098 71.8421 46.9895 71.5449Z" fill="#A46E29"/>
<path d="M56.7325 71.9898L53.7386 72.2581C52.4385 75.7704 51.528 79.1413 51.4734 80.6585C52.0864 77.8659 55.0793 73.9656 56.7322 71.9923L56.7325 71.9898Z" fill="#A46E29"/>
<path fill-rule="evenodd" clip-rule="evenodd" d="M52.3464 81.6361C51.9727 81.5371 51.6135 81.4371 51.2716 81.334C50.9482 81.2377 50.7382 80.9208 50.7716 80.5823C51.0449 77.8086 52.35 73.8648 53.3228 71.5798C53.3228 71.5798 53.3228 71.5798 53.3204 71.5795C53.3204 71.5795 53.3252 71.58 53.3278 71.5778L56.68 71.288C57.2932 71.233 57.6778 71.9803 57.2789 72.4552C54.9479 75.2325 53.6445 78.2288 52.3512 81.6366L52.3464 81.6361Z" fill="#A46E29"/>
<path fill-rule="evenodd" clip-rule="evenodd" d="M78.4987 48.9516C78.6288 50.5047 77.7293 52.0898 76.0764 52.3997C75.731 52.4646 75.3878 52.2665 75.2802 51.9389C74.7459 50.3131 76.095 48.9028 77.5595 48.3715C77.984 48.2172 78.4604 48.5116 78.4987 48.9516Z" fill="#A46E29"/>
<path d="M62.1499 57.667L64.7182 57.8917" stroke="#A46E29" stroke-width="1.06201" stroke-linecap="round" stroke-linejoin="round"/>
<path d="M66.4319 48.6118C65.5038 48.5055 64.5995 48.2551 63.7422 47.8681C61.5509 46.8781 59.8769 45.0979 59.0298 42.8565C58.1886 40.6253 58.2662 38.2035 59.2527 36.0349C60.865 32.4868 64.561 30.4049 68.4493 30.8504C69.375 30.9565 70.2817 31.2072 71.139 31.5942C72.3378 32.1359 73.3776 32.9073 74.2316 33.8908C74.9945 34.113 76.2785 34.7318 77.2898 36.4457C77.4029 36.6368 77.3678 36.8806 77.2077 37.0356C77.1021 37.1366 76.9597 37.1804 76.8217 37.1646C76.7503 37.1564 76.6784 37.1314 76.6132 37.0902C76.3509 36.9181 76.1022 36.7741 75.8693 36.6608C76.6856 38.8554 76.6088 41.2702 75.6283 43.4297C74.016 46.9778 70.32 49.0597 66.4316 48.6142L66.4319 48.6118Z" fill="#F5F7D9"/>
<path d="M68.3978 31.3288C69.2568 31.4272 70.1152 31.6579 70.945 32.0322C72.153 32.5774 73.169 33.3677 73.9667 34.3159C74.9583 34.5619 76.0617 35.3045 76.8792 36.6906C76.0763 36.1654 75.4751 35.9424 74.9971 35.8636C76.148 38.0846 76.3086 40.7842 75.1962 43.232C73.6362 46.661 70.0613 48.5499 66.4896 48.1406C65.6305 48.0422 64.7722 47.8115 63.9424 47.4372C59.6629 45.5052 57.7595 40.4903 59.6936 36.2377C61.2536 32.8087 64.8284 30.9198 68.4002 31.329M68.5068 30.3785C64.4115 29.9093 60.5196 32.1036 58.8205 35.8416C57.7821 38.1271 57.6991 40.6808 58.5845 43.0302C59.4757 45.3923 61.2377 47.2669 63.5459 48.3088C64.4492 48.7155 65.4026 48.9788 66.3782 49.0906C70.4735 49.5599 74.3657 47.3632 76.0645 43.6275C76.9347 41.7151 77.1298 39.6147 76.6616 37.6211C76.6967 37.63 76.7322 37.6365 76.7678 37.6405C77.0439 37.6722 77.3264 37.5842 77.5376 37.3822C77.8597 37.0749 77.9277 36.5869 77.7015 36.2048C76.8983 34.8419 75.7715 33.8825 74.5019 33.4747C73.6218 32.4881 72.5584 31.7116 71.3391 31.1604C70.4358 30.7536 69.4824 30.4903 68.5068 30.3785Z" fill="#F5F7D9"/>
<path d="M75.7354 41.5546C76.7331 36.9916 73.8264 32.4803 69.2429 31.4784C64.6595 30.4765 60.135 33.3634 59.1372 37.9264C58.1394 42.4894 61.0462 47.0007 65.6296 48.0026C70.2131 49.0045 74.7376 46.1176 75.7354 41.5546Z" fill="#E97624"/>
<path d="M71.8402 34.4189C73.6479 36.9518 73.6911 34.2285 76.904 36.3718C75.39 33.7339 72.723 33.394 71.8402 34.4189Z" fill="#9DCC4C"/>
<path d="M68.5107 34.9394C65.5222 34.5949 63.1002 32.3855 62.4816 29.4432C62.1016 27.6285 62.4478 25.7768 63.4602 24.2264C64.4759 22.6691 66.04 21.6045 67.8633 21.2284C68.5925 21.0784 69.3327 21.0455 70.0668 21.1302C70.549 21.1857 71.028 21.2916 71.4892 21.4485C71.6673 21.3846 71.8477 21.3427 72.0376 21.3019C72.5804 21.1835 73.1975 21.0471 74.092 20.2431C74.1965 20.149 74.3333 20.1093 74.4664 20.1246C74.5519 20.1344 74.6347 20.1681 74.7056 20.2221C74.8891 20.3663 74.9425 20.6186 74.8351 20.8233C74.731 21.0212 74.6353 21.208 74.5433 21.3832C74.2568 21.9389 74.0259 22.3851 73.786 22.7411C74.9655 23.7408 75.7794 25.1013 76.0988 26.6219C76.4788 28.4366 76.1327 30.2882 75.1202 31.8386C74.1045 33.3959 72.5405 34.4606 70.7171 34.8367C69.9879 34.9866 69.2451 35.0216 68.511 34.937L68.5107 34.9394Z" fill="#F5F7D9"/>
<path d="M74.4111 20.5984C73.8528 21.663 73.5186 22.3844 73.1198 22.8257C74.3646 23.7387 75.2897 25.0949 75.6307 26.7216C76.3645 30.2196 74.1224 33.6424 70.6203 34.3678C69.9253 34.512 69.234 34.5385 68.564 34.4613C65.8625 34.1499 63.5374 32.1474 62.949 29.344C62.2151 25.8459 64.4573 22.4231 67.9593 21.6978C68.6543 21.5535 69.343 21.5292 70.0107 21.6061C70.5262 21.6656 71.0253 21.7858 71.5037 21.9616C72.1286 21.65 73.0019 21.8665 74.4084 20.6005M74.5186 19.6458C74.2549 19.6154 73.9812 19.6948 73.7722 19.883C72.9714 20.6013 72.4457 20.7168 71.9348 20.8292C71.7893 20.8607 71.6387 20.894 71.4868 20.9392C71.0405 20.7985 70.5821 20.7022 70.1188 20.6488C69.3347 20.5585 68.5412 20.5948 67.765 20.7539C65.8158 21.1564 64.1446 22.293 63.0589 23.9578C61.9766 25.6134 61.6061 27.5946 62.0128 29.5352C62.6734 32.6798 65.2637 35.041 68.457 35.409C69.241 35.4994 70.0346 35.463 70.8157 35.3022C72.765 34.8996 74.4361 33.763 75.5218 32.0982C76.6041 30.4426 76.9746 28.4614 76.568 26.5208C76.2547 25.0325 75.4993 23.6862 74.4056 22.6506C74.5818 22.3477 74.7628 22.0019 74.9696 21.5987C75.059 21.4257 75.1547 21.2389 75.2586 21.0434C75.4733 20.634 75.3645 20.1269 74.9999 19.8388C74.8562 19.7257 74.6902 19.6608 74.5192 19.6411L74.5186 19.6458Z" fill="#F5F7D9"/>
<path d="M75.7223 28.9276C76.1998 25.4066 73.7153 22.159 70.1729 21.6739C66.6306 21.1887 63.3718 23.6497 62.8942 27.1707C62.4167 30.6916 64.9012 33.9392 68.4436 34.4244C71.9859 34.9095 75.2447 32.4485 75.7223 28.9276Z" fill="#E97624"/>
<path d="M70.5643 23.0872C71.2652 20.7753 72.151 22.3722 74.3462 20.4376C73.0537 22.8415 72.9519 23.4707 70.5643 23.0872Z" fill="#9DCC4C"/>
<path d="M22.0929 93.0853C22.0905 92.929 22.1554 92.5228 21.9652 92.4416C21.7398 92.345 21.5239 92.6152 20.8892 93.2366L19.3937 94.7024C18.8797 95.2083 18.5702 95.5917 17.8027 95.2592C17.1408 94.9731 17.1428 94.483 17.1657 93.8484L17.3989 87.3008C17.4357 86.309 16.7741 86.5401 17.0859 85.8203C17.4382 85.0066 19.0461 85.676 19.5882 85.9119C21.3132 86.6605 21.493 87.0602 21.2817 87.543C21.1288 87.8972 20.835 87.8259 20.6761 88.1916C20.5268 88.5339 20.5191 89.5528 20.5064 89.7151C20.4837 89.9301 20.386 90.8674 20.6559 90.9853C20.9633 91.1188 21.5799 90.3786 21.7161 90.2278C21.7823 90.173 22.0334 89.9183 22.0706 89.834C22.1171 89.7285 22.1859 88.8909 21.9187 88.5367C21.7342 88.317 21.6041 88.0634 21.7317 87.7704C21.7627 87.7001 21.9043 86.9205 24.3756 87.9923C26.6687 88.9865 26.3912 89.4973 26.3041 89.6966C26.1357 90.0858 25.5563 89.9611 25.4287 90.2541C25.2913 90.5731 25.3751 91.4762 25.3802 91.7864C25.3811 92.0109 25.3239 92.8545 25.6081 92.9761C26.0094 93.1501 27.388 91.3685 27.4622 91.2022C27.6831 90.6959 26.8011 90.6211 27.0841 89.9741C27.3958 89.2543 28.5865 89.8141 29.0725 90.0228C29.5583 90.2339 30.4182 90.6751 30.1315 91.3363C29.8795 91.9129 29.4499 91.546 28.7725 92.2318L24.433 96.6502C23.907 97.1793 23.3698 97.6732 22.6962 97.3812C22.1046 97.126 22.0544 96.7237 22.0556 96.1384L22.0902 93.0875L22.0929 93.0853Z" fill="#E97624"/>
<path d="M36.1582 91.9353C37.8249 92.3767 38.1278 92.1901 38.3278 92.243C39.0373 92.4314 39.0136 93.7284 38.8699 94.2742C38.7608 94.684 38.4706 95.1258 37.9849 94.9974C37.0016 94.737 38.1133 93.7541 35.749 93.1278C34.3681 92.7619 34.439 93.0469 34.0616 94.4745C33.8723 95.1943 33.9008 95.2287 34.6602 95.4315C35.6055 95.681 35.2615 94.1153 36.1448 94.3492C36.8662 94.5412 36.5459 95.957 36.4175 96.4431C36.282 96.9531 35.8008 98.4198 35.0531 98.2229C34.2816 98.019 35.3994 96.9195 34.14 96.5844C33.6163 96.4451 33.5059 96.9208 33.4004 97.3188C32.921 99.1324 33.0676 99.0777 34.3747 99.4245C36.9271 100.1 36.6672 98.1564 37.6886 98.4277C38.0862 98.5332 38.1687 99.0342 38.0752 99.382C37.8521 100.228 36.7781 101.564 36.2805 101.432C36.1924 101.409 36.0032 101.318 35.7521 101.211C35.4856 101.113 35.1463 100.984 34.7226 100.871L29.6058 99.5162C28.7845 99.2978 28.8708 98.9224 28.9128 98.7603C29.0939 98.0764 29.7952 98.8476 30.2308 97.555C30.9777 95.3341 30.9322 95.5594 31.4017 93.2784C31.8183 91.3539 30.6128 92.0862 30.8443 91.2019C31.0445 90.444 32.056 90.8462 32.5682 90.9795L36.1538 91.93L36.1582 91.9353Z" fill="#E97624"/>
<path d="M40.7722 96.0915C40.8689 95.6261 39.9161 95.346 40.1564 94.1995C40.3322 93.3551 41.0681 92.8518 41.9088 93.0284C42.814 93.2184 43.2364 94.1507 43.0595 95.0072C42.7523 96.4801 40.9615 98.144 40.1065 97.9636C39.8915 97.919 39.5333 97.6849 39.5895 97.4211C39.6456 97.1574 40.6059 96.8854 40.7722 96.0915Z" fill="#E97624"/>
<path d="M44.74 96.5168C45.0609 94.5501 43.9621 95.2042 44.0919 94.4182C44.206 93.7209 45.2123 93.7929 45.7195 93.8768C45.9863 93.9213 46.2366 93.9861 46.5023 94.0426C46.7523 94.1099 47.0144 94.1783 47.2693 94.2192C47.6756 94.2864 48.0868 94.3272 48.51 94.3691C48.9201 94.422 49.3431 94.4664 49.7496 94.5312C51.185 94.7652 52.748 95.6702 52.4728 97.358C52.3478 98.1201 51.8598 98.7947 51.0917 99.0208C50.9679 99.0654 50.8706 99.088 50.8464 99.242C50.8164 99.432 50.9726 99.51 51.1156 99.599C51.9525 100.073 52.2507 100.72 52.2051 102.12C52.1656 103.324 53.1081 102.748 52.9819 103.522C52.9027 104.003 52.2365 104.417 50.7987 104.183C48.7645 103.851 48.7018 102.645 48.5791 100.905C48.5334 100.298 48.4118 99.6933 47.7121 99.5792C47.4332 99.5337 47.3238 99.5552 47.1953 100.354C47.134 100.721 47.0787 101.234 47.0837 101.598C47.0909 102.199 47.7666 102.125 47.6682 102.734C47.5937 103.19 47.2199 103.48 45.1591 103.146C44.5483 103.048 42.7427 102.752 42.8952 101.827C43.0033 101.168 43.881 101.78 44.1502 100.13L44.74 96.5168ZM47.599 97.5549C47.5198 97.8795 47.4114 98.1501 47.8298 98.2184C48.6568 98.3542 48.9984 97.9394 49.1257 97.1531C49.2277 96.5328 49.1774 95.8715 48.4414 95.754C47.97 95.6783 47.9353 95.9704 47.8452 96.3599L47.5988 97.5573L47.599 97.5549Z" fill="#E97624"/>
<path d="M59.9664 95.9243C61.6808 96.1186 61.9535 95.8901 62.1587 95.9142C62.8879 95.9969 63.0532 97.2821 62.9908 97.8452C62.9441 98.2657 62.7211 98.7455 62.2213 98.689C61.2095 98.575 62.1672 97.4411 59.7354 97.1675C58.3155 97.008 58.4267 97.2797 58.2603 98.7463C58.1763 99.4881 58.2127 99.5159 58.9925 99.6059C59.9656 99.7163 59.3959 98.2151 60.3039 98.317C61.0452 98.4009 60.934 99.8507 60.8777 100.348C60.8189 100.873 60.5546 102.394 59.7867 102.307C58.9922 102.219 59.9389 100.966 58.6446 100.821C58.106 100.761 58.0653 101.248 58.0198 101.656C57.8088 103.522 57.9475 103.447 59.2903 103.597C61.9127 103.893 61.3739 102.009 62.4244 102.126C62.835 102.172 62.9875 102.655 62.9467 103.013C62.8485 103.88 61.9803 105.362 61.4708 105.304C61.3812 105.296 61.1797 105.233 60.9153 105.165C60.6376 105.107 60.2839 105.028 59.8467 104.979L54.5874 104.386C53.7423 104.29 53.7732 103.907 53.7912 103.74C53.8716 103.037 54.6785 103.698 54.919 102.353C55.3349 100.046 55.3229 100.279 55.4551 97.952C55.5875 95.9889 54.5006 96.8861 54.6024 95.9799C54.6899 95.2019 55.7501 95.4498 56.2766 95.5088L59.9616 95.9238L59.9664 95.9243Z" fill="#E97624"/>
<path d="M68.6547 99.4854C68.7281 98.1511 70.1031 96.5649 72.5954 96.7002C73.418 96.7454 74.3237 97.1549 74.5154 97.1655C74.695 97.175 74.8865 97.0048 75.1558 97.0202C75.5926 97.044 76.5149 98.0854 76.458 99.1646C76.4343 99.6021 76.1267 100.023 75.6512 99.9955C74.7896 99.9491 74.368 98.4562 73.0307 98.3849C72.6328 98.3624 72.1986 98.5196 72.1726 98.9813C72.117 99.9948 73.8918 99.8212 75.3309 100.891C76.0996 101.462 76.462 102.126 76.4087 103.088C76.327 104.59 74.9994 106.217 72.0048 106.055C71.1555 106.007 69.7172 105.711 69.0045 105.273C68.4059 104.892 68.1856 103.516 68.2198 102.862C68.2401 102.515 68.4131 102.177 68.7965 102.198C69.7091 102.247 69.4435 104.281 71.8096 104.41C72.0934 104.426 72.808 104.322 72.8341 103.834C72.8838 102.91 71.1102 103.045 69.7462 101.823C69.0708 101.22 68.5978 100.408 68.6501 99.4825L68.6547 99.4854Z" fill="#E97624"/>
<path d="M77.3861 101.577C77.3945 98.8536 79.5764 96.9314 82.3858 96.9372C85.9419 96.9468 87.297 100.073 87.2931 101.73C87.2859 104.492 84.8329 106.311 82.2042 106.305C79.4853 106.298 77.3786 104.314 77.3885 101.577L77.3861 101.577ZM81.7867 98.851C81.0642 98.8495 80.7015 99.5942 80.7011 100.224C80.6988 101.317 81.4609 104.388 82.8544 104.393C83.6402 104.396 83.9775 103.715 83.9789 103.022C83.9834 101.853 83.2948 98.8574 81.7889 98.8536L81.7867 98.851Z" fill="#E97624"/>
<path d="M100.041 98.1611C99.8781 96.7961 98.8402 97.4511 98.7509 96.7105C98.6564 95.9206 100.143 95.7689 100.669 95.7057C101.155 95.6485 102.562 95.4796 102.649 96.22C102.734 96.9332 101.724 96.6144 101.861 97.7769L102.271 101.22C102.339 101.795 102.717 104.854 98.2901 105.384C93.2486 105.987 93.3498 102.04 93.3324 101.887L92.981 98.94C92.9372 98.1304 92.0657 98.2346 91.9962 97.6472C91.9738 97.4694 91.7488 96.7698 94.3853 96.4569C96.4715 96.2074 96.9385 96.5389 96.9968 97.0374C97.1061 97.9556 96.0698 97.2121 96.1919 98.7758L96.4725 101.123C96.6526 102.641 97.3445 103.543 98.7001 103.379C100.722 103.138 100.433 101.478 100.417 101.337L100.038 98.1609L100.041 98.1611Z" fill="#E97624"/>
<path d="M104.728 97.0385C104.456 96.1142 103.427 96.8583 103.2 96.0823C103.056 95.5901 103.566 95.3178 103.95 95.2047C104.259 95.1139 104.562 95.0519 104.871 94.961C106.661 94.4347 107.698 93.9405 108.217 93.7888C109.898 93.2937 111.8 93.7916 112.342 95.6424C112.88 97.4807 111.613 98.9255 109.898 99.4295C109.527 99.539 109.139 99.5858 108.806 99.6841C108.657 99.7288 108.626 99.8041 108.665 99.9396L108.873 100.655C109.362 102.186 110.076 101.281 110.285 101.994C110.52 102.795 108.753 103.355 108.196 103.521C107.677 103.672 105.844 104.2 105.61 103.396C105.412 102.718 106.434 102.872 106.139 101.86L104.726 97.0359L104.728 97.0385ZM107.865 95.473C107.383 95.616 107.438 95.758 107.51 96.0065L108.052 97.8574C108.128 98.116 108.1 98.4335 108.768 98.2369C109.583 97.998 109.722 97.2856 109.503 96.5323C109.275 95.7563 108.692 95.2304 107.865 95.473Z" fill="#E97624"/>
<path fill-rule="evenodd" clip-rule="evenodd" d="M119.446 83.0444L119.543 82.0504L123.331 82.4092L122.964 86.2013L121.97 86.1072L122.173 84.0104L119.406 86.2963L118.772 85.5261L121.537 83.2448L119.448 83.047L119.446 83.0444Z" fill="#E97624"/>
<path fill-rule="evenodd" clip-rule="evenodd" d="M9.1674 73.3765L11.3777 76.0582L10.6291 76.6755L8.41656 73.9912L8.21908 76.0275L7.25437 75.9361L7.61157 72.2529L11.2943 72.6017L11.2007 73.5666L9.17005 73.3743L9.1674 73.3765Z" fill="#E97624"/>
</g>
<defs>
<filter id="filter0_d_2726_7095" x="0.692139" y="3.45117" width="129.632" height="111.479" filterUnits="userSpaceOnUse" color-interpolation-filters="sRGB">
<feFlood flood-opacity="0" result="BackgroundImageFix"/>
<feColorMatrix in="SourceAlpha" type="matrix" values="0 0 0 0 0 0 0 0 0 0 0 0 0 0 0 0 0 0 127 0" result="hardAlpha"/>
<feOffset/>
<feGaussianBlur stdDeviation="1"/>
<feComposite in2="hardAlpha" operator="out"/>
<feColorMatrix type="matrix" values="0 0 0 0 0 0 0 0 0 0 0 0 0 0 0 0 0 0 0.4 0"/>
<feBlend mode="normal" in2="BackgroundImageFix" result="effect1_dropShadow_2726_7095"/>
<feBlend mode="normal" in="SourceGraphic" in2="effect1_dropShadow_2726_7095" result="shape"/>
</filter>
</defs>
</svg>
