<svg width="161" height="161" viewBox="0 0 161 161" fill="none" xmlns="http://www.w3.org/2000/svg">
<g filter="url(#filter0_d_2726_7695)">
<path d="M58.6766 138.818C41.3075 132.496 29.2273 124.813 21.7476 115.333C17.1538 109.509 14.3413 102.995 13.3856 95.9704C12.3809 88.5873 13.4337 80.5552 16.5116 72.0989C26.3805 44.9841 48.5602 39.4169 63.2385 35.7362C67.2816 34.7214 70.7725 33.8459 73.2166 32.7557C78.3432 30.4699 80.7418 27.9914 82.8597 25.8057C84.7092 23.8937 86.8065 21.729 89.9925 20.6205C94.2539 19.1344 98.3733 20.244 101.484 21.3763C104.595 22.5085 108.46 24.3102 110.627 28.1854C112.292 31.1635 112.29 34.1245 112.29 36.7358C112.288 39.7748 112.288 42.9159 114.627 47.898C115.797 50.3867 118.209 53.6392 120.764 57.0841C129.909 69.4124 143.731 88.0418 133.973 114.851C130.894 123.312 126.534 130.143 121.013 135.154C115.761 139.919 109.413 143.099 102.147 144.603C90.3265 147.048 76.1255 145.163 58.7332 138.841L58.6758 138.82L58.6766 138.818Z" fill="#FDE8D3"/>
<path d="M60.5132 133.77C44.1098 127.8 32.8067 120.68 25.9638 112.006C21.9724 106.947 19.5307 101.307 18.7069 95.2468C17.8213 88.7358 18.781 81.5662 21.5574 73.9381C30.4519 49.5006 50.157 44.5578 64.5445 40.9479C68.8302 39.8733 72.5303 38.9441 75.402 37.664C81.4778 34.9547 84.3803 31.9555 86.7153 29.5447C88.2889 27.9195 89.7751 26.3845 91.7564 25.6949C94.4036 24.7748 97.2293 25.5486 99.6473 26.4287C102.065 27.3088 104.644 28.4969 105.939 30.8129C106.922 32.5682 106.92 34.5006 106.918 36.7395C106.916 40.028 106.916 44.1198 109.766 50.1871C111.165 53.1617 113.731 56.6239 116.451 60.2872C125.417 72.3735 137.696 88.924 128.927 113.017C126.148 120.652 122.272 126.761 117.404 131.177C112.873 135.291 107.373 138.038 101.06 139.344C90.2421 141.582 76.9985 139.765 60.5697 133.794L60.5146 133.774L60.5132 133.77Z" fill="#FDE8D3"/>
<path d="M99.4791 26.8829C101.78 27.7204 104.295 28.8696 105.512 31.0453C106.431 32.6892 106.43 34.474 106.429 36.7338C106.427 40.0718 106.426 44.223 109.323 50.3904C110.742 53.4089 113.323 56.8892 116.058 60.5738C120.642 66.7526 125.838 73.7566 128.903 82.3522C132.455 92.3096 132.31 102.286 128.467 112.846C125.716 120.405 121.884 126.449 117.075 130.812C112.609 134.866 107.186 137.574 100.957 138.861C90.2329 141.079 77.0748 139.269 60.7332 133.329L60.6781 133.309C44.362 127.371 33.1308 120.303 26.3445 111.701C22.4084 106.712 20 101.151 19.1885 95.1789C18.3131 88.7469 19.2645 81.6575 22.0142 74.1027C25.9153 63.3844 32.1906 55.5228 41.1999 50.0646C48.9723 45.3564 57.3072 43.2641 64.6608 41.4199C68.969 40.3405 72.6893 39.4056 75.5986 38.1081C81.7612 35.3601 84.701 32.3226 87.0646 29.8833C88.5969 28.3001 90.0418 26.8073 91.914 26.1533C94.4162 25.2818 97.1405 26.0343 99.476 26.8844M99.8131 25.9652C97.3147 25.0559 94.3863 24.2576 91.5955 25.2294C89.5043 25.957 87.9799 27.5326 86.365 29.1999C84.0594 31.5798 81.1935 34.5429 75.2021 37.2129C72.3703 38.4763 68.6881 39.399 64.4249 40.4689C49.9317 44.1052 30.0804 49.0858 21.0973 73.7664C18.2925 81.4726 17.3253 88.7199 18.2211 95.31C19.0563 101.46 21.5322 107.178 25.5789 112.306C32.4808 121.054 43.8513 128.224 60.3441 134.227L60.3992 134.247C76.9151 140.251 90.2451 142.073 101.155 139.816C107.555 138.493 113.132 135.706 117.729 131.533C122.656 127.062 126.577 120.887 129.383 113.177C138.243 88.8355 125.872 72.1635 116.84 59.9881C114.137 56.3438 111.581 52.9012 110.205 49.9712C107.4 44.0033 107.402 39.9695 107.404 36.7304C107.405 34.4234 107.408 32.4317 106.364 30.5658C104.99 28.1093 102.282 26.8614 99.8116 25.9621L99.8131 25.9652Z" fill="#660C39"/>
<path d="M64.0387 46.0655L64.7596 45.9407L65.5467 50.4881L68.1307 50.0412L68.2428 50.69L64.9378 51.2615L64.0387 46.0655Z" fill="#660C39"/>
<path d="M68.2795 48.7627C68.1716 47.6244 68.792 46.7123 69.9511 46.6042C71.111 46.4937 71.8899 47.2734 71.9978 48.4117C72.1057 49.55 71.4853 50.4621 70.3254 50.5726C69.1654 50.683 68.3866 49.9033 68.2786 48.765L68.2795 48.7627ZM70.2694 49.9624C71.0414 49.8901 71.3601 49.2786 71.2832 48.4764C71.2062 47.6741 70.7792 47.1342 70.0072 47.2066C69.2344 47.2812 68.9165 47.8904 68.9935 48.6926C69.0704 49.4949 69.4974 50.0348 70.2694 49.9624Z" fill="#660C39"/>
<path d="M72.4972 48.3853C72.4844 47.2426 73.1759 46.3849 74.2668 46.3715C75.2326 46.3593 75.8244 46.9176 75.9524 47.7436L75.2424 47.7528C75.142 47.272 74.7879 46.9742 74.2742 46.9795C73.5719 46.9889 73.2046 47.5697 73.215 48.3763C73.2254 49.1829 73.6044 49.7547 74.3082 49.7485C74.8273 49.7426 75.1751 49.4223 75.2575 48.9248L75.9675 48.9157C75.868 49.7602 75.2241 50.3442 74.3155 50.3565C73.2246 50.3699 72.5123 49.5287 72.4995 48.3861L72.4972 48.3853Z" fill="#660C39"/>
<path d="M78.8323 49.9751C78.4732 50.3692 78.0316 50.4761 77.5806 50.4445C76.7319 50.385 76.235 49.9443 76.2871 49.2228C76.3341 48.5514 76.8646 48.2431 77.7603 48.1378L78.9449 48.0026L78.9654 47.7321C78.9947 47.3089 78.7234 47.1192 78.2115 47.0836C77.766 47.0513 77.2956 47.1659 77.2271 47.6969L76.541 47.6473C76.6362 46.7362 77.4197 46.4394 78.2453 46.4983C79.2536 46.5691 79.6929 47.0252 79.6427 47.7058L79.4454 50.4893L78.8017 50.4446L78.8346 49.976L78.8323 49.9751ZM77.6928 49.8722C78.2324 49.9101 78.8257 49.6506 78.8751 48.9437L78.9021 48.5482L77.8264 48.6841C77.3365 48.7526 77.0213 48.8405 76.9924 49.2483C76.9683 49.5929 77.1718 49.8332 77.6905 49.8713L77.6928 49.8722Z" fill="#660C39"/>
<path d="M81.4398 45.4521L80.8485 49.7108C80.8111 49.9778 80.9109 50.1103 81.1802 50.1485L81.6873 50.2188L81.6057 50.7996L80.9602 50.7102C80.307 50.6205 80.068 50.3205 80.1545 49.6973L80.7565 45.3593L81.439 45.4544L81.4398 45.4521Z" fill="#660C39"/>
<path d="M83.7664 45.8344L82.9613 50.0594C82.9107 50.3268 83.0043 50.4622 83.2694 50.5119L83.7727 50.6068L83.662 51.1822L83.0204 51.0604C82.372 50.9361 82.1495 50.6265 82.2661 50.0064L83.0864 45.7038L83.7618 45.8327L83.7664 45.8344Z" fill="#660C39"/>
<path d="M83.6704 52.0524L84.2371 52.2015C84.576 52.2911 84.6945 52.1939 84.8909 51.9042L85.1432 51.5466L84.7088 47.4862L85.4397 47.6768L85.6955 50.8643L87.4817 48.2122L88.2049 48.4027L85.4907 52.2265C85.1866 52.6692 84.8968 52.9872 84.3156 52.8354L83.5211 52.6268L83.6727 52.0532L83.6704 52.0524Z" fill="#660C39"/>
<path d="M91.8657 48.8659L90.2348 48.2073L90.4809 47.5954L94.4341 49.1901L94.188 49.8021L92.5571 49.1435L90.8306 53.4229L90.1378 53.1422L91.8642 48.8627L91.8657 48.8659Z" fill="#660C39"/>
<path d="M94.4815 50.8714L95.0696 51.1686L94.7724 51.7567C95.2818 51.3992 95.7367 51.4556 96.1626 51.6704L96.4239 51.8019L96.1267 52.39L95.8456 52.2487C95.2704 51.9588 94.6962 51.9732 94.2748 52.8097L93.3799 54.5832L92.7651 54.2737L94.4792 50.8706L94.4815 50.8714Z" fill="#660C39"/>
<path d="M96.6518 55.7762C96.8964 55.925 97.6122 56.1855 98.1324 55.32L99.2309 53.5011L99.8213 53.8563L97.8524 57.1173L97.2878 56.7768L97.571 56.3056C97.167 56.4807 96.678 56.5106 96.1948 56.2178C95.3857 55.7285 95.3913 54.9277 95.7699 54.3017L97.0504 52.1826L97.6408 52.5378L96.3966 54.5999C96.1353 55.0322 96.1648 55.4794 96.6549 55.7747L96.6518 55.7762Z" fill="#660C39"/>
<path d="M98.9048 56.3206L99.4622 56.7236C99.1792 57.2155 99.327 57.5733 99.8018 57.9176C100.237 58.2291 100.614 58.2572 100.813 57.9792C101.002 57.7179 100.994 57.5408 100.397 56.9391C99.5633 56.1031 99.5418 55.6198 99.8982 55.1259C100.292 54.5783 101.021 54.5812 101.711 55.0766C102.514 55.6546 102.716 56.3776 102.262 57.0333L101.708 56.6343C102.015 56.1693 101.781 55.8192 101.382 55.5333C101.038 55.2861 100.662 55.2403 100.466 55.5145C100.273 55.7818 100.35 55.9894 100.915 56.5586C101.716 57.3775 101.773 57.8347 101.404 58.3475C100.972 58.949 100.197 58.8953 99.4659 58.3695C98.7039 57.8219 98.4006 57.1062 98.9025 56.3198L98.9048 56.3206Z" fill="#660C39"/>
<path d="M105.117 56.336L104.374 57.2425L105.153 57.8847L104.781 58.3364L104.002 57.6941L102.575 59.43C102.402 59.64 102.414 59.8002 102.628 59.9767L103.107 60.3721L102.735 60.8238L102.142 60.3349C101.632 59.9155 101.585 59.5373 101.984 59.0485L103.462 57.2485L102.925 56.8059L103.297 56.3542L103.835 56.7968L104.578 55.8903L105.115 56.3328L105.117 56.336Z" fill="#660C39"/>
<path d="M104.269 59.6107C105.05 58.7778 106.145 58.6386 106.951 59.3943C107.753 60.1461 107.69 61.2403 106.892 62.0905L106.742 62.2517L104.637 60.2772C104.214 60.8248 104.165 61.4228 104.637 61.862C104.989 62.1929 105.422 62.2673 105.826 62.0922L106.34 62.5728C105.649 62.9578 104.846 62.8787 104.226 62.2995C103.418 61.543 103.485 60.4427 104.267 59.6075L104.269 59.6107ZM106.611 61.3336C106.968 60.8035 106.986 60.2487 106.542 59.8327C106.092 59.4118 105.539 59.4678 105.041 59.8604L106.611 61.3336Z" fill="#660C39"/>
<path d="M107.894 65.9465L108.32 65.5558C107.833 65.6436 107.357 65.4939 106.968 65.0662C106.202 64.229 106.406 63.1965 107.248 62.4248C108.09 61.6531 109.138 61.5381 109.904 62.373C110.285 62.7897 110.391 63.249 110.288 63.7104L111.762 62.3581L112.227 62.8651L108.342 66.4291L107.896 65.9419L107.894 65.9465ZM107.49 64.7368C108.009 65.3024 108.69 65.189 109.283 64.6437C109.876 64.0984 110.051 63.432 109.53 62.8656C109.006 62.2929 108.327 62.4095 107.733 62.9548C107.14 63.5 106.965 64.1664 107.49 64.7368Z" fill="#660C39"/>
<path d="M109.486 66.3234L110.007 66.9493L109.264 67.5677L108.743 66.9441L109.485 66.3257L109.486 66.3234Z" fill="#660C39"/>
<path d="M37.7266 110.41L39.3826 111.764C40.3579 112.561 40.3445 113.504 39.774 114.2C39.2035 114.897 38.2828 115.1 37.3075 114.303L36.2181 113.413L34.958 114.955L34.3914 114.491L37.7274 110.408L37.7266 110.41ZM37.7129 113.796C38.3074 114.282 38.8333 114.172 39.1945 113.73C39.5557 113.287 39.5587 112.75 38.9642 112.264L37.8809 111.378L36.6296 112.91L37.7129 113.796Z" fill="#660C39"/>
<path d="M40.3957 114.399L40.9352 114.78L40.5544 115.319C41.1111 115.039 41.5519 115.163 41.942 115.44L42.1814 115.61L41.8006 116.15L41.5422 115.967C41.0157 115.594 40.446 115.524 39.9045 116.291L38.7589 117.911L38.1967 117.514L40.3963 114.404L40.3957 114.399Z" fill="#660C39"/>
<path d="M41.4659 117.489C42.0732 116.52 43.1206 116.176 44.0576 116.764C44.9877 117.349 45.1357 118.434 44.5163 119.422L44.3993 119.608L41.9566 118.075C41.6462 118.692 41.7126 119.288 42.2577 119.632C42.6677 119.89 43.106 119.878 43.4688 119.631L44.0656 120.004C43.4593 120.513 42.6594 120.591 41.9403 120.14C41.0033 119.552 40.861 118.458 41.4674 117.492L41.4659 117.489ZM44.095 118.731C44.3427 118.143 44.2543 117.594 43.7402 117.272C43.2201 116.945 42.6867 117.104 42.2719 117.587L44.095 118.731Z" fill="#660C39"/>
<path d="M44.6178 120.223L45.218 120.558C44.9944 121.079 45.1829 121.418 45.6941 121.705C46.1604 121.966 46.5377 121.95 46.7065 121.65C46.8633 121.37 46.8364 121.194 46.1735 120.667C45.2505 119.933 45.1724 119.455 45.4696 118.924C45.7977 118.337 46.5244 118.253 47.2645 118.668C48.1288 119.149 48.411 119.844 48.0349 120.549L47.4408 120.219C47.6922 119.72 47.4191 119.4 46.9916 119.161C46.6204 118.953 46.2434 118.954 46.0794 119.248C45.9202 119.535 46.0167 119.734 46.6456 120.233C47.5334 120.956 47.6463 121.403 47.3393 121.954C46.9795 122.599 46.2023 122.636 45.4165 122.197C44.5979 121.74 44.2125 121.065 44.6215 120.226L44.6178 120.223Z" fill="#660C39"/>
<path d="M48.1553 121.431C48.6675 120.41 49.6759 119.966 50.6649 120.461C51.6469 120.954 51.8973 122.022 51.3754 123.063L51.2781 123.259L48.6992 121.964C48.4491 122.609 48.5728 123.197 49.1488 123.484C49.5816 123.702 50.0163 123.649 50.3553 123.368L50.9839 123.682C50.4293 124.249 49.6389 124.401 48.8808 124.021C47.8919 123.526 47.644 122.451 48.1562 121.429L48.1553 121.431ZM50.891 122.417C51.0814 121.808 50.9416 121.271 50.3969 120.998C49.8476 120.722 49.3329 120.93 48.9642 121.45L50.8887 122.416L50.891 122.417Z" fill="#660C39"/>
<path d="M52.8502 121.624L53.449 121.899L53.1739 122.497C53.67 122.119 54.1253 122.16 54.5593 122.36L54.8263 122.483L54.5512 123.082L54.2636 122.951C53.6778 122.683 53.1037 122.719 52.7136 123.569L51.885 125.375L51.2596 125.087L52.8471 121.625L52.8502 121.624Z" fill="#660C39"/>
<path d="M54.9995 122.616L55.695 122.911L55.5356 126.176L57.7587 123.787L58.4474 124.079L55.5787 127L54.9038 126.712L55.0018 122.617L54.9995 122.616Z" fill="#660C39"/>
<path d="M58.0246 125.96C58.4384 124.895 59.4007 124.356 60.4316 124.758C61.4557 125.156 61.8072 126.196 61.3837 127.281L61.304 127.486L58.6131 126.442C58.425 127.109 58.604 127.68 59.2055 127.912C59.6564 128.087 60.0853 127.993 60.3957 127.683L61.0514 127.937C60.5519 128.553 59.7811 128.779 58.9886 128.472C57.9577 128.071 57.6086 127.024 58.0223 125.959L58.0246 125.96ZM60.8401 126.683C60.9715 126.058 60.7818 125.537 60.2148 125.318C59.6408 125.096 59.148 125.35 58.8317 125.906L60.8393 126.686L60.8401 126.683Z" fill="#660C39"/>
<path d="M65.1601 128.422L64.2476 124.733L65.0381 125.003L65.7266 127.901L68.0399 126.028L68.8235 126.295L65.8532 128.638L65.1757 130.621L64.4894 130.386L65.1641 128.418L65.1601 128.422Z" fill="#660C39"/>
<path d="M68.1154 129.606C68.448 128.514 69.3659 127.905 70.4796 128.243C71.5934 128.58 72.0205 129.599 71.6879 130.691C71.3553 131.783 70.4373 132.392 69.3236 132.054C68.2099 131.716 67.7828 130.698 68.1154 129.606ZM69.5009 131.474C70.2423 131.7 70.7681 131.255 71.0023 130.483C71.2366 129.711 71.0461 129.049 70.3038 128.826C69.5616 128.602 69.0366 129.045 68.8024 129.817C68.5681 130.589 68.7586 131.251 69.5 131.477L69.5009 131.474Z" fill="#660C39"/>
<path d="M73.5093 132.605C73.7869 132.677 74.5455 132.727 74.8032 131.748L75.3427 129.695L76.0091 129.87L75.0396 133.554L74.4016 133.387L74.5404 132.856C74.2014 133.137 73.7404 133.305 73.1952 133.161C72.2827 132.92 72.0589 132.15 72.2466 131.441L72.8766 129.046L73.543 129.221L72.9287 131.552C72.8003 132.04 72.9541 132.46 73.5061 132.606L73.5093 132.605Z" fill="#660C39"/>
<path d="M76.8289 130.058L77.4721 130.203L77.3264 130.847C77.7316 130.376 78.188 130.321 78.6516 130.425L78.9371 130.49L78.7914 131.133L78.4843 131.063C77.8549 130.922 77.3031 131.075 77.0974 131.99L76.6607 133.925L75.9883 133.773L76.8258 130.059L76.8289 130.058Z" fill="#660C39"/>
<path d="M81.2413 129.487L81.963 129.617L81.035 134.808L80.3133 134.678L81.2413 129.487Z" fill="#660C39"/>
<path d="M84.8839 135.381L84.963 134.807C84.646 135.185 84.1852 135.373 83.6104 135.296C82.4861 135.144 81.9816 134.218 82.1361 133.087C82.2906 131.956 83.0219 131.196 84.1453 131.35C84.7047 131.426 85.0784 131.713 85.2939 132.134L85.5627 130.154L86.246 130.246L85.5372 135.47L84.8839 135.381ZM83.801 134.709C84.5635 134.812 85.0111 134.289 85.1202 133.49C85.2285 132.692 84.9358 132.069 84.1733 131.965C83.403 131.862 82.9554 132.385 82.8471 133.182C82.7389 133.979 83.0315 134.603 83.801 134.709Z" fill="#660C39"/>
<path d="M86.5407 133.666C86.6151 132.527 87.3745 131.725 88.4786 131.797C89.5748 131.868 90.221 132.756 90.1437 133.917L90.1292 134.136L87.2498 133.945C87.2711 134.636 87.6113 135.129 88.2558 135.171C88.7377 135.204 89.1205 134.987 89.3227 134.596L90.025 134.643C89.7338 135.379 89.0666 135.827 88.2171 135.77C87.1131 135.698 86.4671 134.803 86.5446 133.662L86.5407 133.666ZM89.4434 133.515C89.3835 132.88 89.0449 132.439 88.439 132.398C87.8253 132.357 87.4331 132.749 87.2948 133.372L89.4434 133.515Z" fill="#660C39"/>
<path d="M93.3031 135.326C92.978 135.748 92.547 135.89 92.0927 135.896C91.243 135.904 90.7116 135.508 90.7052 134.783C90.6981 134.11 91.1996 133.76 92.0826 133.583L93.2505 133.35L93.2479 133.079C93.244 132.654 92.9558 132.49 92.4421 132.495C91.9963 132.499 91.5357 132.651 91.5126 133.186L90.8243 133.192C90.8431 132.277 91.6029 131.917 92.4295 131.908C93.4416 131.897 93.912 132.318 93.9212 133L93.95 135.79L93.3057 135.797L93.3 135.327L93.3031 135.326ZM92.1611 135.316C92.7034 135.31 93.2702 135.002 93.2634 134.293L93.2595 133.897L92.2007 134.122C91.7174 134.229 91.4115 134.341 91.4173 134.754C91.4218 135.098 91.6442 135.322 92.1634 135.316L92.1611 135.316Z" fill="#660C39"/>
<path d="M94.5679 134.517L95.254 134.452C95.3663 135.008 95.7137 135.181 96.2953 135.125C96.828 135.075 97.1293 134.847 97.0976 134.505C97.0662 134.184 96.9438 134.057 96.1006 133.997C94.9242 133.917 94.5893 133.566 94.5317 132.961C94.4689 132.291 95.0203 131.811 95.8651 131.731C96.8501 131.638 97.4767 132.05 97.567 132.844L96.8887 132.909C96.8142 132.357 96.4071 132.248 95.9177 132.293C95.4949 132.334 95.1841 132.546 95.215 132.882C95.2462 133.21 95.4387 133.317 96.2388 133.374C97.3802 133.465 97.7263 133.77 97.7833 134.399C97.8527 135.136 97.2352 135.605 96.3393 135.689C95.4055 135.778 94.7049 135.44 94.5648 134.518L94.5679 134.517Z" fill="#660C39"/>
<path d="M98.3957 134.378L99.1986 134.249L99.3502 135.203L98.5473 135.332L98.3957 134.378Z" fill="#660C39"/>
<path d="M96.3468 125.803C104.005 124.215 110.552 119.446 114.734 107.957C118.916 96.4674 116.604 88.128 112.442 80.6478C99.0254 56.5414 78.8294 49.2634 54.5602 59.4222C46.9101 62.6238 39.7898 67.8888 35.6791 79.183C31.5683 90.4772 33.4448 98.5414 38.2926 104.681C43.5822 111.384 52.9758 116.819 65.1343 121.239C77.2974 125.661 87.9846 127.535 96.3477 125.801L96.3468 125.803Z" fill="#660C39"/>
<path d="M65.0084 71.5134C64.9005 72.3808 64.5271 72.7074 64.0156 72.5992L63.9673 72.5893C62.3133 72.2368 62.7821 68.9571 60.52 68.4767L59.1094 68.1764C58.2824 68.0001 57.8122 68.307 57.558 69.4979L56.6116 73.9469L58.8975 74.4334C60.0884 74.6876 60.4528 72.8586 61.2806 73.0326L61.329 73.0424C62.06 73.1968 61.9381 74.2384 61.5613 76.0161C61.183 77.7906 60.8707 78.7915 60.1396 78.6371L60.0912 78.6273C59.2643 78.451 59.677 76.6319 58.4852 76.38L56.1993 75.8935L55.3769 79.7589C55.1605 80.7818 56.0785 81.3575 55.8826 82.2813L55.8743 82.3042C55.6905 83.1804 54.3524 83.0234 52.2131 82.5695C50.4386 82.1912 48.9271 81.7684 49.117 80.8684L49.1254 80.8455C49.2971 80.0168 50.1861 79.9013 50.4403 78.7104L52.6222 68.4471C52.8764 67.2561 52.1114 66.7881 52.2877 65.9611L52.2961 65.9381C52.4897 65.0135 53.5862 64.9918 54.9008 65.2702L61.7111 66.7175C62.9988 66.9913 63.4029 66.6448 64.2299 66.821C64.934 66.9708 65.1777 67.3791 65.1587 68.188C65.1439 69.0997 65.0789 70.7128 65.0115 71.5119L65.0084 71.5134ZM73.3373 70.2086C73.161 71.0356 72.272 71.1511 72.0239 72.3183L69.8261 82.6538C69.5719 83.8447 70.3369 84.3128 70.1629 85.1406C70.153 85.189 70.1568 85.1644 70.153 85.189C69.9609 86.0881 68.4013 86.0115 66.6268 85.6333C64.8523 85.255 63.3703 84.687 63.5624 83.7879C63.5685 83.7641 63.5624 83.7879 63.5722 83.7395C63.7485 82.9125 64.6376 82.797 64.8895 81.6052L67.0872 71.2697C67.3354 70.1026 66.5704 69.6345 66.7467 68.8075C66.7565 68.7591 66.7528 68.7837 66.7565 68.7591C66.9487 67.86 68.5003 68.0869 70.2748 68.4652C72.0493 68.8435 73.537 69.2602 73.3471 70.1602C73.3411 70.184 73.3471 70.1602 73.3373 70.2086ZM87.3038 81.1325C89.0783 81.5108 90.4878 81.9354 90.2979 82.8354L90.2881 82.8838C90.1118 83.7108 89.2465 83.8323 88.9946 85.0241C88.9485 85.2437 88.2442 88.5494 88.1458 89.0124C87.8454 90.423 86.5229 90.0663 85.5007 89.263C85.2145 89.0497 85.0336 88.8331 84.8801 88.598C83.4316 88.9516 82.2251 89.1256 80.4014 88.7398C75.5131 87.7011 71.5677 83.7865 73.1599 77.7201C74.5139 72.5438 79.2575 70.1966 84.0974 71.2255C86.335 71.7022 87.0261 72.637 88.7842 72.3753C89.6769 72.2352 90.3599 72.7358 90.3647 73.5508C90.3437 74.4863 89.9864 77.3596 89.919 78.1587C89.8418 79.0061 89.4354 79.3518 88.9263 79.2445C88.9025 79.2384 88.9263 79.2445 88.8779 79.2346C87.2477 78.8881 87.9364 73.9764 84.3382 73.2123C81.8088 72.6737 79.51 75.0066 78.9375 78.2927C78.0238 83.6655 80.8495 86.2736 83.6764 86.4945L84.2029 84.0127C84.4571 82.8218 83.6922 82.3537 83.8685 81.5268L83.8783 81.4784C84.0705 80.5792 85.529 80.7619 87.3067 81.1388L87.3038 81.1325Z" fill="#F0483E"/>
<path d="M69.1771 90.0795C69.171 90.1033 69.1771 90.0795 69.1672 90.1279C68.991 90.9549 68.1257 91.0764 67.8776 92.2436L66.3584 99.394C65.3719 104.039 62.5409 105.749 58.6993 104.933C56.5339 104.472 54.5947 103.198 54.0839 101.539C53.7734 100.607 53.9554 99.629 54.3425 99.0008C55.1878 97.6561 56.9847 97.8087 57.9114 98.7176C58.8558 99.6563 58.5434 100.886 58.307 101.878C58.099 102.621 58.5779 102.875 59.0893 102.984C60.0368 103.186 60.5189 102.475 61.1294 99.6057L62.9186 91.1921C63.1667 90.025 62.4256 89.5629 62.6019 88.736C62.6117 88.6876 62.6079 88.7122 62.6117 88.6876C62.8038 87.7884 64.3308 88.0116 66.1062 88.3876C67.8815 88.7636 69.3684 89.1827 69.1785 90.0826L69.1771 90.0795ZM82.1407 105.622C82.3696 106.942 83.3806 107.562 83.1521 108.632L83.1423 108.68C82.9464 109.604 81.8131 109.67 79.624 109.203C77.8732 108.831 76.265 108.388 76.4548 107.488L76.4632 107.465C76.6349 106.637 77.3648 106.437 77.1461 105.196L76.8686 103.51L71.2017 102.305L70.4169 103.612C69.6418 104.871 70.364 105.178 70.1984 105.954C70.1886 106.002 70.1923 105.978 70.1886 106.002C70.0123 106.829 68.8515 106.914 67.7565 106.681C66.7606 106.469 65.8067 105.935 65.9663 105.183C65.9723 105.159 65.9663 105.183 65.9761 105.134C66.1524 104.307 67.4863 104.133 68.2171 102.967L74.1945 93.74C74.8414 92.7335 74.3334 92.2447 74.5097 91.4177L74.5195 91.3693C74.7117 90.4701 75.905 90.468 77.2188 90.7487C78.9933 91.127 79.4911 91.5368 79.7079 92.6757L82.1407 105.622ZM72.299 100.504L76.5315 101.403L75.5044 95.2378L72.3013 100.505L72.299 100.504ZM106.992 98.1687C106.815 98.9957 105.926 99.1112 105.678 100.278L103.48 110.614C103.226 111.805 103.991 112.273 103.817 113.101C103.807 113.149 103.811 113.124 103.807 113.149C103.615 114.048 102.032 113.966 100.281 113.593C98.5058 113.217 97.0246 112.647 97.2168 111.748C97.2229 111.724 97.2168 111.748 97.2266 111.7C97.4029 110.873 98.2919 110.757 98.5438 109.565L100.716 99.3503C98.4701 102.737 94.9813 107.918 94.3549 108.825C93.7987 109.646 93.3342 109.802 92.6538 109.658C92.0702 109.534 91.4984 109.235 91.2393 108.063C91.0693 107.188 89.8614 101.391 89.2307 98.3839L87.359 107.188C87.1048 108.379 88.1132 108.9 87.9369 109.727C87.9271 109.775 87.9308 109.75 87.9271 109.775C87.7508 110.602 86.7352 110.715 85.6402 110.483C84.5452 110.251 83.6903 109.737 83.8635 108.912C83.8696 108.888 83.8635 108.912 83.8733 108.863C84.0496 108.036 85.182 107.973 85.4339 106.781L87.5953 96.6169C87.8495 95.426 86.9855 94.9375 87.1618 94.1105L87.1716 94.0621C87.3638 93.1629 88.4603 93.1411 89.7741 93.4219C93.155 94.1406 93.232 94.9714 93.499 96.2222C93.6689 97.0972 94.5493 101.681 95.0493 104.355C95.0493 104.355 99.348 97.9977 99.8882 97.2486C100.642 96.2134 101.446 95.9033 103.925 96.429C105.676 96.8012 107.187 97.2241 106.998 98.124C106.991 98.1478 106.998 98.124 106.988 98.1724L106.992 98.1687Z" fill="#F0483E"/>
<path d="M55.926 112.175C56.2487 110.653 57.7458 109.681 59.2677 110.004L62.0244 110.589L61.4394 113.345C61.1166 114.867 59.6196 115.84 58.0976 115.517C56.5757 115.194 55.6033 113.697 55.926 112.175Z" fill="#F0483E"/>
<path d="M92.8097 114.533L92.8919 114.55C94.3915 114.87 95.3491 116.343 95.0293 117.843C94.7095 119.343 93.236 120.3 91.7364 119.981L91.6542 119.964C90.1546 119.644 89.197 118.17 89.5168 116.671C89.8366 115.171 91.3101 114.213 92.8097 114.533Z" fill="#F0483E"/>
<path d="M37.6705 88.6131C37.9903 87.1135 39.4638 86.1559 40.9634 86.4757L43.7608 87.0704L42.6053 92.5007L39.8079 91.906C38.3083 91.5863 37.3507 90.1128 37.6705 88.6131Z" fill="#F0483E"/>
<path d="M103.924 86.8988C104.246 85.3769 105.743 84.4045 107.265 84.7272L110.022 85.3123L108.85 90.8248L106.093 90.2397C104.571 89.917 103.599 88.4199 103.921 86.898L103.924 86.8988Z" fill="#F0483E"/>
<path d="M83.4329 60.7423L86.1896 61.3273C87.7115 61.6501 88.6839 63.1471 88.3612 64.6691C88.0385 66.191 86.5414 67.1634 85.0195 66.8407L82.2628 66.2556L83.4352 60.7431L83.4329 60.7423Z" fill="#F0483E"/>
<path fillRule="evenodd" clipRule="evenodd" d="M97.306 34.5329L95.9077 38.3888L94.8318 37.9971L96.2325 34.1344L94.0483 35.1529L93.5639 34.114L97.5129 32.2725L99.3588 36.2309L98.323 36.7139L97.306 34.5329Z" fill="#660C39"/>
</g>
<defs>
<filter id="filter0_d_2726_7695" x="10.0338" y="16.9201" width="130.264" height="131.7" filterUnits="userSpaceOnUse" color-interpolation-filters="sRGB">
<feFlood flood-opacity="0" result="BackgroundImageFix"/>
<feColorMatrix in="SourceAlpha" type="matrix" values="0 0 0 0 0 0 0 0 0 0 0 0 0 0 0 0 0 0 127 0" result="hardAlpha"/>
<feOffset/>
<feGaussianBlur stdDeviation="1.49163"/>
<feComposite in2="hardAlpha" operator="out"/>
<feColorMatrix type="matrix" values="0 0 0 0 0 0 0 0 0 0 0 0 0 0 0 0 0 0 0.4 0"/>
<feBlend mode="normal" in2="BackgroundImageFix" result="effect1_dropShadow_2726_7695"/>
<feBlend mode="normal" in="SourceGraphic" in2="effect1_dropShadow_2726_7695" result="shape"/>
</filter>
</defs>
</svg>
