<svg width="141" height="118" viewBox="0 0 141 118" fill="none" xmlns="http://www.w3.org/2000/svg">
<g filter="url(#filter0_d_2726_7257)">
<path d="M131.58 48.0864C139.081 90.6253 112.503 101.032 78.5083 107.026C44.5137 113.02 15.9797 112.331 8.47892 69.7924C0.978156 27.2535 27.5559 16.8472 61.5505 10.853C95.5451 4.85887 124.079 5.54743 131.58 48.0864Z" fill="#FFF1FC"/>
<path fillRule="evenodd" clipRule="evenodd" d="M119.114 50.7782L115.076 51.4952L114.877 50.3676L118.923 49.6493L116.948 48.267L117.606 47.328L121.175 49.8272L118.67 53.405L117.734 52.7495L119.114 50.7782Z" fill="#90207E"/>
<path fillRule="evenodd" clipRule="evenodd" d="M21.0633 68.0667L25.1034 67.3593L24.9046 66.2316L20.8573 66.9403L22.2396 64.9662L21.3006 64.3087L18.8014 67.878L22.3791 70.3832L23.0346 69.447L21.0633 68.0667Z" fill="#90207E"/>
<path d="M65.7824 82.5798L57.9699 38.2731L102.277 30.4607L110.089 74.7673L65.7824 82.5798Z" stroke="#90207E" stroke-width="0.899802"/>
<path d="M100.481 33.0638L99.6736 28.6623L104.073 27.8566L104.88 32.2582L100.481 33.0638Z" fill="#FFF1FC" stroke="#90207E" stroke-width="0.899802"/>
<path d="M108.293 77.3704L107.486 72.9689L111.886 72.1633L112.693 76.5648L108.293 77.3704Z" fill="#FFF1FC" stroke="#90207E" stroke-width="0.899802"/>
<path d="M63.9866 85.1839L63.1795 80.7824L67.5792 79.9767L68.3864 84.3783L63.9866 85.1839Z" fill="#FFF1FC" stroke="#90207E" stroke-width="0.899802"/>
<path d="M56.1741 40.8763L55.367 36.4748L59.7667 35.6691L60.5739 40.0707L56.1741 40.8763Z" fill="#FFF1FC" stroke="#90207E" stroke-width="0.899802"/>
<path d="M100.528 62.3405C103.803 64.9619 104.628 69.0862 102.667 71.5362C100.705 73.9861 96.5005 74.0842 93.2258 71.4628C89.9512 68.8415 89.1263 64.7172 91.0875 62.2672C93.0487 59.8173 97.2536 59.7192 100.528 62.3405Z" fill="#90207E" stroke="#FFF1FC" stroke-width="0.899802"/>
<path d="M91.4714 63.3719C94.3747 66.3994 94.6525 70.5962 92.3874 72.7683C90.1224 74.9404 85.9409 74.4871 83.0376 71.4596C80.1343 68.4321 79.8565 64.2353 82.1216 62.0632C84.3866 59.8911 88.5681 60.3444 91.4714 63.3719Z" fill="#90207E" stroke="#FFF1FC" stroke-width="0.899802"/>
<path d="M97.7045 54.1374C101.299 56.2991 102.666 60.2767 101.049 62.9662C99.4318 65.6556 95.2775 66.3131 91.6828 64.1514C88.088 61.9898 86.721 58.0121 88.3382 55.3227C89.9555 52.6333 94.1098 51.9758 97.7045 54.1374Z" fill="#5B2350" stroke="#FFF1FC" stroke-width="0.899802"/>
<path d="M81.5693 59.8231C83.9337 63.2879 83.5157 67.473 80.9235 69.242C78.3314 71.0109 74.2818 69.8744 71.9174 66.4096C69.5531 62.9449 69.971 58.7597 72.5632 56.9908C75.1554 55.2218 79.2049 56.3583 81.5693 59.8231Z" fill="#5B2350" stroke="#FFF1FC" stroke-width="0.899802"/>
<path d="M89.2256 53.234C92.3158 56.0705 92.8601 60.2411 90.738 62.553C88.6158 64.8649 84.4139 64.6788 81.3238 61.8422C78.2337 59.0057 77.6893 54.8351 79.8115 52.5232C81.9336 50.2113 86.1355 50.3974 89.2256 53.234Z" fill="#90207E" stroke="#FFF1FC" stroke-width="0.899802"/>
<path d="M88.3167 36.4765C92.2925 37.8137 94.4836 41.4038 93.4832 44.3783C92.4827 47.3528 88.5673 48.8891 84.5916 47.5519C80.6158 46.2146 78.4246 42.6245 79.4251 39.65C80.4255 36.6755 84.3409 35.1392 88.3167 36.4765Z" fill="#90207E" stroke="#FFF1FC" stroke-width="0.899802"/>
<path d="M94.2431 44.6062C97.8378 46.7678 99.2049 50.7455 97.5876 53.4349C95.9704 56.1243 91.8161 56.7818 88.2213 54.6202C84.6266 52.4585 83.2596 48.4809 84.8768 45.7915C86.4941 43.102 90.6484 42.4446 94.2431 44.6062Z" fill="#5B2350" stroke="#FFF1FC" stroke-width="0.899802"/>
<path d="M68.6025 45.6501C71.7141 45.2416 74.8147 48.0835 75.3608 52.2424C75.9068 56.4013 73.6449 59.9473 70.5334 60.3559C67.4218 60.7644 64.3212 57.9225 63.7751 53.7636C63.2291 49.6047 65.491 46.0587 68.6025 45.6501Z" fill="#90207E" stroke="#FFF1FC" stroke-width="0.899802"/>
<path d="M81.7264 41.8265C85.2313 44.1311 86.4372 48.1605 84.713 50.7827C82.9889 53.4049 78.8115 53.8947 75.3066 51.5901C71.8018 49.2856 70.5959 45.2562 72.32 42.634C74.0442 40.0118 78.2216 39.522 81.7264 41.8265Z" fill="#5B2350" stroke="#FFF1FC" stroke-width="0.899802"/>
<path d="M81.6455 51.2953C83.9122 54.8247 83.3776 58.9966 80.737 60.6924C78.0964 62.3883 74.0802 61.1392 71.8135 57.6097C69.5468 54.0803 70.0814 49.9084 72.722 48.2126C75.3626 46.5167 79.3788 47.7658 81.6455 51.2953Z" fill="#5B2350" stroke="#FFF1FC" stroke-width="0.899802"/>
<path d="M35.4731 101.59L35.473 101.59C29.9699 99.4729 25.6208 96.0981 22.1654 91.2671C18.2635 85.812 15.43 78.2836 13.7684 68.8599C12.1067 59.4362 12.1945 51.3926 13.9952 44.932C15.59 39.2107 18.523 34.5543 22.9697 30.6798C27.7457 26.5184 34.0607 23.5082 40.979 21.2246C47.8942 18.942 55.3817 17.3949 62.4831 16.1427C69.5858 14.8904 77.1508 13.7832 84.4294 13.5631C91.7112 13.3429 98.6743 14.0118 104.586 16.2887L104.586 16.2887C110.089 18.4062 114.438 21.781 117.893 26.612C121.795 32.0671 124.629 39.5956 126.29 49.0192C127.952 58.4429 127.864 66.4865 126.064 72.9471C124.469 78.6685 121.536 83.3248 117.089 87.1994C112.313 91.3607 105.999 94.3708 99.0807 96.6544C92.1657 98.937 84.6782 100.484 77.5756 101.736C70.473 102.989 62.9079 104.096 55.6293 104.316C48.3475 104.536 41.3844 103.867 35.4731 101.59Z" stroke="#5B2350" stroke-width="0.976562"/>
<path d="M42.7987 49.4269L41.7794 43.8703L49.0346 42.5422L50.0377 48.0104C48.2604 48.3358 48.2131 48.4046 48.5087 50.016L49.3167 54.4207C50.1405 58.9117 48.5133 61.6777 42.8935 62.7065C37.2736 63.7353 34.8088 62.1041 34.0076 57.2522L33.2051 52.8776C32.9096 51.2662 32.9517 51.1693 31.0584 51.5159L30.0498 46.0176L39.4842 44.2905L40.5035 49.847C38.3803 50.2357 38.3962 50.322 38.6918 51.9334L39.0665 53.9762C39.5417 56.5668 40.3826 57.2757 43.9113 56.6298C46.7222 56.1152 47.7356 55.1851 47.5089 53.949C47.0546 51.4727 43.277 52.046 42.7967 49.4273L42.7987 49.4269Z" fill="#5B2350"/>
<path d="M43.4568 75.8644L42.968 75.9539L43.1885 77.1561C43.4932 78.8175 43.7903 78.823 46.9815 78.2387L47.8328 82.8796L37.0271 84.8579L36.0184 79.3583C38.0878 78.9795 38.1301 78.883 37.836 77.2794L37.2107 73.8706C36.8694 72.0095 36.79 71.9043 34.7207 72.2832L33.717 66.8115L44.4065 64.8545C49.8374 63.8603 52.3946 64.8431 53.3088 69.8275C54.1601 74.4684 51.7892 76.116 49.175 76.5947C46.761 77.0366 44.6993 76.6442 43.4568 75.8644ZM42.0486 70.9416L42.7632 74.8376L45.7802 74.2853C47.8776 73.9013 48.5145 73.1634 48.2677 71.8175C47.9893 70.2998 47.1914 70.0021 45.2382 70.3597L42.049 70.9436L42.0486 70.9416Z" fill="#5B2350"/>
<path d="M48.8038 29.504L47.4722 24.4014L48.1809 24.2165L48.8874 26.9237L50.8526 23.5192L51.7739 23.2788L50.2252 25.9008L53.1055 28.3813L52.2409 28.607L49.8515 26.5282L49.1112 27.7812L49.5125 29.319L48.8038 29.504Z" fill="#5B2350"/>
<path d="M55.9618 27.832C54.8811 28.067 54.0135 27.3862 53.7707 26.2698C53.5279 25.1533 54.0344 24.1736 55.1151 23.9386C56.1887 23.7052 57.0547 24.3788 57.3022 25.5168L57.3489 25.7315L54.5291 26.3447C54.7398 27.0034 55.2044 27.3821 55.8342 27.2451C56.3066 27.1424 56.613 26.8284 56.6992 26.3974L57.3863 26.248C57.3104 27.0365 56.792 27.6515 55.9618 27.832ZM54.4133 25.7777L56.5174 25.3202C56.2833 24.7264 55.8368 24.3963 55.2428 24.5255C54.6416 24.6562 54.3724 25.142 54.4133 25.7777Z" fill="#5B2350"/>
<path d="M60.683 26.8663C59.5964 27.0725 58.7472 26.3688 58.5343 25.2462C58.3213 24.1237 58.8538 23.1579 59.9404 22.9518C61.0197 22.747 61.8675 23.4435 62.0846 24.5876L62.1255 24.8035L59.2903 25.3413C59.4834 26.0055 59.9378 26.3964 60.571 26.2763C61.046 26.1862 61.3607 25.8804 61.4583 25.4519L62.1491 25.3209C62.0523 26.1071 61.5177 26.708 60.683 26.8663ZM59.1897 24.7715L61.3053 24.3702C61.0872 23.7704 60.6495 23.4285 60.0523 23.5418C59.4478 23.6565 59.1659 24.1349 59.1897 24.7715Z" fill="#5B2350"/>
<path d="M63.2664 22.4213L63.9162 22.3108L64.0132 22.8813C64.2032 22.4255 64.5875 22.1076 65.1579 22.0107C66.2771 21.8205 67.0332 22.5539 67.2246 23.6803C67.416 24.8067 66.9446 25.7486 65.8254 25.9388C65.2694 26.0333 64.8257 25.8709 64.4935 25.5336L64.8285 27.5049L64.1497 27.6202L63.2664 22.4213ZM64.2569 24.1846C64.3919 24.9788 64.857 25.4867 65.6152 25.3579C66.3806 25.2278 66.6519 24.5948 66.517 23.8005C66.382 23.0063 65.9168 22.4984 65.1514 22.6284C64.3933 22.7573 64.1219 23.3903 64.2569 24.1846Z" fill="#5B2350"/>
<path d="M73.8674 24.7338C72.1954 24.9384 71.1926 23.7994 71.0137 22.3381C70.8348 20.8769 71.5332 19.5296 73.2053 19.3249C74.8701 19.1211 75.8729 20.2602 76.0518 21.7214C76.2307 23.1827 75.5323 24.53 73.8674 24.7338ZM71.7698 22.2456C71.906 23.3579 72.5715 24.2135 73.7856 24.0649C74.9997 23.9163 75.4319 22.9263 75.2957 21.814C75.1596 20.7017 74.5013 19.8451 73.2872 19.9938C72.0731 20.1424 71.6336 21.1333 71.7698 22.2456Z" fill="#5B2350"/>
<path d="M80.067 21.6194C80.0301 21.1153 79.7477 20.7688 79.178 20.8105C78.8931 20.8313 78.1587 21.0319 78.2324 22.0399L78.3873 24.1583L77.7007 24.2085L77.4229 20.4101L78.0803 20.362L78.1204 20.9099C78.3499 20.5332 78.7313 20.2263 79.2938 20.1851C80.2361 20.1162 80.6954 20.7729 80.7488 21.5034L80.9294 23.9724L80.2427 24.0226L80.067 21.6194Z" fill="#5B2350"/>
<path d="M64.4685 97.9456C63.2599 98.0781 62.2592 97.6206 62.0815 96.3359L62.8168 96.2552C62.9546 97.1759 63.6556 97.3864 64.4055 97.3041C65.1263 97.225 65.6032 96.8706 65.5377 96.2736C65.4882 95.8222 65.2159 95.6237 64.002 95.5063C62.7736 95.3905 62.114 95.0871 62.0094 94.1334C61.9168 93.2888 62.6294 92.6654 63.6778 92.5504C65.1339 92.3907 65.8156 93.097 65.942 94.0483L65.214 94.1282C65.092 93.4195 64.6581 93.0913 63.7481 93.1911C63.1001 93.2622 62.709 93.5924 62.7585 94.0438C62.8096 94.5098 62.9953 94.7252 64.2084 94.8353C65.7789 94.9799 66.2021 95.4124 66.2868 96.1841C66.3906 97.1306 65.6552 97.8154 64.4685 97.9456Z" fill="#5B2350"/>
<path d="M69.6309 97.2927C68.551 97.4503 67.7326 96.7111 67.5675 95.5805C67.4025 94.4499 67.9756 93.5077 69.0555 93.3501C70.0121 93.2104 70.6734 93.6839 70.9088 94.4859L70.2058 94.5885C70.0418 94.1239 69.6506 93.8776 69.1432 93.9516C68.4475 94.0531 68.1614 94.6796 68.2778 95.4768C68.3941 96.2741 68.8473 96.7927 69.5431 96.6911C70.0576 96.616 70.36 96.2536 70.3751 95.7481L71.0781 95.6455C71.091 96.4948 70.5296 97.1615 69.6309 97.2927Z" fill="#5B2350"/>
<path d="M75.2063 96.3205L75.128 95.8584C74.8728 96.3251 74.47 96.5345 74.0223 96.6104C73.1847 96.7525 72.5974 96.4435 72.4762 95.7286C72.3635 95.0642 72.8043 94.6404 73.6499 94.3261L74.7685 93.9136L74.7232 93.6464C74.6522 93.2276 74.3424 93.1092 73.8369 93.1949C73.3964 93.2696 72.966 93.4912 73.0265 94.0232L72.3477 94.1383C72.2235 93.2308 72.9158 92.7568 73.7317 92.6185C74.7283 92.4495 75.2614 92.79 75.3753 93.4615L75.8418 96.2128L75.2063 96.3205ZM73.173 95.5881C73.2305 95.9275 73.4851 96.1147 73.9978 96.0277C74.5322 95.9371 75.0452 95.5456 74.9265 94.8451L74.8603 94.4552L73.8488 94.8421C73.3893 95.024 73.1044 95.1838 73.173 95.5881Z" fill="#5B2350"/>
<path d="M76.5618 90.7306L77.2389 90.6059L78.0178 94.834C78.0669 95.1006 78.2033 95.1946 78.4699 95.1455L78.9741 95.0526L79.0802 95.6288L78.4391 95.7469C77.7909 95.8663 77.4694 95.6575 77.3553 95.038L76.5618 90.7306Z" fill="#5B2350"/>
<path d="M80.5875 95.3457L79.8503 91.6091L80.5329 91.4744L81.2702 95.211L80.5875 95.3457ZM79.717 90.9336L79.5667 90.172L80.2422 90.0387L80.3925 90.8004L79.717 90.9336Z" fill="#5B2350"/>
<path d="M85.1068 91.9465C84.9982 91.4529 84.6692 91.1503 84.1113 91.2731C83.8323 91.3344 83.1341 91.638 83.3513 92.6251L83.8075 94.6996L83.1351 94.8475L82.317 91.1278L82.9608 90.9862L83.0788 91.5227C83.252 91.1171 83.5857 90.7587 84.1365 90.6376C85.0592 90.4346 85.6077 91.0189 85.7651 91.7342L86.2969 94.152L85.6245 94.2999L85.1068 91.9465Z" fill="#5B2350"/>
<path d="M89.9801 94.8538C88.9809 95.1146 88.3202 94.7874 88.0425 94.0424L88.7016 93.8704C88.9072 94.339 89.3096 94.4308 89.8411 94.2921C90.3655 94.1552 90.8863 93.8301 90.6606 92.9655L90.5496 92.5403C90.3836 92.9773 90.0441 93.3005 89.5055 93.4411C88.407 93.7278 87.5901 93.0629 87.3034 91.9644C87.0167 90.866 87.4064 89.8938 88.5049 89.6071C89.0648 89.461 89.5297 89.5894 89.8937 89.9108L89.7531 89.3722L90.398 89.2039L91.3339 92.7898C91.6279 93.9166 90.9723 94.5949 89.9801 94.8538ZM87.9979 91.7832C88.2014 92.5627 88.7071 93.0212 89.4583 92.8251C90.2024 92.6309 90.4196 91.9838 90.2161 91.2043C90.0145 90.4318 89.507 89.9663 88.7629 90.1605C88.0117 90.3565 87.7963 91.0107 87.9979 91.7832Z" fill="#5B2350"/>
</g>
<defs>
<filter id="filter0_d_2726_7257" x="5.20264" y="6.15039" width="129.654" height="105.578" filterUnits="userSpaceOnUse" color-interpolation-filters="sRGB">
<feFlood flood-opacity="0" result="BackgroundImageFix"/>
<feColorMatrix in="SourceAlpha" type="matrix" values="0 0 0 0 0 0 0 0 0 0 0 0 0 0 0 0 0 0 127 0" result="hardAlpha"/>
<feOffset/>
<feGaussianBlur stdDeviation="1"/>
<feComposite in2="hardAlpha" operator="out"/>
<feColorMatrix type="matrix" values="0 0 0 0 0 0 0 0 0 0 0 0 0 0 0 0 0 0 0.4 0"/>
<feBlend mode="normal" in2="BackgroundImageFix" result="effect1_dropShadow_2726_7257"/>
<feBlend mode="normal" in="SourceGraphic" in2="effect1_dropShadow_2726_7257" result="shape"/>
</filter>
</defs>
</svg>
