<svg width="147" height="148" viewBox="0 0 147 148" fill="none" xmlns="http://www.w3.org/2000/svg">
<g filter="url(#filter0_d_2726_6974)">
<path d="M85.6655 135.235C119.521 128.507 141.513 95.6077 134.785 61.752C128.057 27.8962 95.157 5.90482 61.3013 12.6328C27.4455 19.3608 5.45412 52.2605 12.1821 86.1162C18.9101 119.972 51.8098 141.963 85.6655 135.235Z" fill="#FFECD6"/>
<path fillRule="evenodd" clipRule="evenodd" d="M123.698 64.2826L120.178 64.9865L119.983 64.0035L123.509 63.2984L121.755 62.1263L122.313 61.2922L125.483 63.4115L123.359 66.5895L122.528 66.0336L123.698 64.2826Z" fill="#670000"/>
<path fillRule="evenodd" clipRule="evenodd" d="M23.35 84.2242L26.8717 83.5287L26.6764 82.5458L23.1483 83.2425L24.3205 81.489L23.4864 80.9314L21.3672 84.1019L24.5452 86.2262L25.101 85.3946L23.35 84.2242Z" fill="#670000"/>
<path d="M22.8799 65.8644L23.2246 64.0825C23.3215 63.5796 23.521 63.1534 23.8196 62.8067C24.1181 62.4601 24.4905 62.2152 24.934 62.0732C25.3774 61.9312 25.8549 61.9093 26.3685 62.0083C26.882 62.1073 27.3178 62.3061 27.6747 62.6019C28.0317 62.8977 28.2866 63.2626 28.4346 63.697C28.5834 64.1294 28.6085 64.599 28.5116 65.1018L28.1689 66.8845L22.8819 65.8652L22.8799 65.8644ZM27.6866 64.0308C27.5767 63.7459 27.3916 63.5041 27.134 63.3042C26.8735 63.1055 26.5614 62.9711 26.1937 62.8994C25.826 62.8277 25.4855 62.8363 25.1702 62.9245C24.8549 63.0127 24.5947 63.1695 24.3863 63.3914C24.1791 63.616 24.043 63.8928 23.9783 64.2264L23.8055 65.1184L27.5821 65.8462L27.7548 64.9543C27.8188 64.6226 27.7952 64.313 27.6874 64.0289L27.6866 64.0308Z" fill="#670000"/>
<path d="M24.2584 59.5564L25.2985 56.2698L26.032 56.5025L25.2653 58.9221L26.637 59.3555L27.2637 57.3749L27.9893 57.6043L27.3627 59.5849L28.9328 60.0809L29.6975 57.6604L30.4311 57.8931L29.3918 61.1778L24.2572 59.5536L24.2584 59.5564Z" fill="#670000"/>
<path d="M31.0705 55.9201C30.7811 56.1482 30.4512 56.2834 30.0847 56.3276C29.7181 56.3718 29.3523 56.3124 28.9864 56.1514L29.2836 55.2826C29.5225 55.3871 29.759 55.4352 29.994 55.425C30.2282 55.4168 30.4394 55.3461 30.6268 55.215C30.8163 55.0846 30.9608 54.9059 31.0621 54.6749C31.1315 54.5163 31.1724 54.3484 31.1843 54.1778C31.1943 54.0065 31.1661 53.8495 31.0961 53.7102C31.0261 53.5708 30.9157 53.468 30.765 53.4018C30.6104 53.334 30.4593 53.3254 30.3081 53.3791C30.1569 53.4327 30.0178 53.519 29.884 53.6375C29.7494 53.7579 29.5784 53.9281 29.3692 54.1519C29.1124 54.4302 28.8886 54.6504 28.6986 54.8105C28.5085 54.9706 28.2891 55.0841 28.0458 55.1486C27.8017 55.215 27.5388 55.1861 27.2564 55.0639C26.9846 54.9436 26.7729 54.7671 26.6206 54.5295C26.4704 54.2927 26.3914 54.0227 26.3837 53.7195C26.376 53.4163 26.4409 53.1104 26.5765 52.8011C26.7048 52.5096 26.8764 52.2589 27.0954 52.0506C27.3124 51.8415 27.5602 51.6981 27.8373 51.6243C28.1144 51.5505 28.4 51.5633 28.6973 51.6663L28.4025 52.5291C28.2421 52.4867 28.0878 52.486 27.9431 52.5238C27.7975 52.5636 27.6661 52.6369 27.5494 52.7416C27.4328 52.8463 27.341 52.9749 27.2768 53.1265C27.1796 53.3476 27.1546 53.5612 27.2011 53.7695C27.2476 53.9778 27.366 54.1231 27.5594 54.209C27.7042 54.2727 27.8502 54.277 27.9946 54.2229C28.139 54.1688 28.2761 54.0817 28.408 53.9624C28.5398 53.8431 28.7064 53.6781 28.9115 53.4641C29.1763 53.1776 29.4065 52.9531 29.6013 52.7926C29.7961 52.6321 30.0156 52.5187 30.2617 52.453C30.5078 52.3873 30.7706 52.4162 31.0491 52.5369C31.3307 52.6612 31.5531 52.8513 31.7135 53.1084C31.8739 53.3655 31.9599 53.6637 31.9673 54.0014C31.9776 54.338 31.9065 54.6759 31.7588 55.0149C31.5937 55.3906 31.3666 55.6925 31.0753 55.9198L31.0705 55.9201Z" fill="#670000"/>
<path d="M28.3651 49.3787L28.797 48.5811L33.5332 51.1412L33.1012 51.9388L28.3651 49.3787Z" fill="#670000"/>
<path d="M34.6812 48.6859C34.2572 48.882 33.8027 48.9549 33.3226 48.9041C32.8404 48.8526 32.3767 48.677 31.9293 48.3766C31.4819 48.0761 31.1441 47.7165 30.9154 47.2931C30.686 46.8716 30.5841 46.4261 30.6101 45.9612C30.6361 45.4964 30.7893 45.0535 31.0725 44.6313C31.3264 44.2527 31.6385 43.9577 32.0078 43.7485C32.3772 43.5393 32.7601 43.4326 33.1593 43.4272C33.5577 43.4237 33.9287 43.5268 34.2736 43.7392L33.8329 44.5356C33.5824 44.3917 33.3266 44.3172 33.0616 44.3105C32.7985 44.3046 32.5481 44.3639 32.3127 44.4939C32.0772 44.624 31.8779 44.8126 31.7106 45.0582C31.516 45.348 31.4171 45.6469 31.4116 45.9539C31.4054 46.263 31.4913 46.5612 31.6694 46.8486C31.8466 47.138 32.1059 47.3962 32.4462 47.6252C32.7866 47.8543 33.1252 47.9972 33.4609 48.0512C33.7978 48.1081 34.1067 48.075 34.3897 47.9529C34.6727 47.8307 34.9111 47.6257 35.1057 47.3359C35.2693 47.0935 35.3716 46.8375 35.4192 46.5684C35.4648 46.2985 35.4472 46.042 35.372 45.7967C35.2968 45.5513 35.1662 45.3456 34.9809 45.1776L33.9556 46.7046L33.3163 46.2749L34.8944 43.9259L37.1554 45.4426L36.6664 46.1708L34.9925 44.7876L34.915 44.5875C35.3334 44.8854 35.6457 45.2114 35.8526 45.5637C36.0616 45.9168 36.1553 46.2805 36.1387 46.6546C36.1221 47.0286 35.9912 47.3999 35.745 47.7655C35.4642 48.1817 35.1119 48.4902 34.6879 48.6863L34.6812 48.6859Z" fill="#670000"/>
<path d="M34.0194 40.7506L34.692 39.9913L39.7401 40.8438L39.6575 41.0178L36.3615 38.102L36.9689 37.4175L41.0017 40.9875L40.3292 41.7468L35.2738 40.9006L35.3608 40.7215L38.6568 43.6373L38.0495 44.3217L34.0166 40.7518L34.0194 40.7506Z" fill="#670000"/>
<path d="M38.5377 35.9203L39.1997 35.2998L42.8832 39.2279L42.2212 39.8484L38.5377 35.9203Z" fill="#670000"/>
<path d="M40.7822 33.8415L41.5859 33.2188L46.3889 34.9937L46.2771 35.1488L43.5796 31.6719L44.3026 31.111L47.6036 35.3652L46.7999 35.9879L41.9905 34.2173L42.1087 34.0579L44.8062 37.5348L44.0832 38.0957L40.7822 33.8415Z" fill="#670000"/>
<path d="M49.6538 33.7584C49.1853 33.747 48.7466 33.6117 48.337 33.3544C47.9282 33.0951 47.5892 32.7327 47.32 32.2673C47.0508 31.8019 46.9074 31.3278 46.8871 30.8464C46.8688 30.3657 46.9712 29.9228 47.1992 29.5174C47.4271 29.1119 47.7604 28.7819 48.1991 28.5271C48.5948 28.2987 49.004 28.1727 49.4276 28.1472C49.8512 28.1217 50.2431 28.1964 50.6029 28.3665C50.9619 28.5385 51.2497 28.7946 51.4647 29.1386L50.7165 29.6593C50.5556 29.4204 50.3589 29.2408 50.1253 29.1177C49.8916 28.9946 49.6413 28.9408 49.3729 28.9535C49.1046 28.9662 48.8414 29.0457 48.5843 29.1946C48.2823 29.3689 48.0616 29.5927 47.9196 29.8671C47.7775 30.1414 47.7241 30.4473 47.7554 30.7833C47.7858 31.1211 47.9051 31.4676 48.1113 31.8219C48.3174 32.1761 48.557 32.454 48.8337 32.6525C49.1105 32.8509 49.4041 32.957 49.7119 32.9719C50.0197 32.9869 50.3242 32.9081 50.6263 32.7338C50.8797 32.588 51.0862 32.4046 51.2445 32.1808C51.4041 31.9597 51.5038 31.7212 51.543 31.4671C51.5821 31.2131 51.5569 30.9696 51.4665 30.7388L49.8746 31.6581L49.4914 30.9915L51.9436 29.5765L53.3045 31.9351L52.5442 32.3724L51.65 30.3914L51.6682 30.1773C51.9105 30.6294 52.0487 31.0597 52.0786 31.4667C52.1106 31.8744 52.0361 32.2433 51.8551 32.5733C51.675 32.9013 51.394 33.1766 51.0111 33.3964C50.576 33.648 50.1232 33.7677 49.6546 33.7564L49.6538 33.7584Z" fill="#670000"/>
<path d="M61.4967 27.0943L59.6341 27.4276L60.5224 29.0784L60.5025 29.0933L58.9652 28.0199L58.3868 29.8032L58.3638 29.8031L58.0745 27.9515L56.3946 28.8094L56.3745 28.7851L57.4886 27.2667L55.6898 26.6866L55.69 26.6636L57.5487 26.3795L56.6843 24.7039L56.7146 24.6863L58.2188 25.79L58.7556 24.0012L58.7861 23.9998L59.1083 25.8556L60.7651 24.9582L60.78 24.9782L59.695 26.5269L61.4965 27.0665L61.4999 27.0979L61.4967 27.0943Z" fill="#670000"/>
<path d="M65.139 22.4171L68.5461 21.9023L68.6604 22.6622L66.1514 23.0407L66.3669 24.4628L68.4968 24.1418L68.6116 24.895L66.4816 25.216L66.8424 27.6045L65.945 27.7388L65.1418 22.4159L65.139 22.4171Z" fill="#670000"/>
<path d="M71.5793 26.8162C71.1702 26.5914 70.8496 26.2689 70.6106 25.8481C70.3736 25.4281 70.245 24.9463 70.2275 24.4014C70.2092 23.8584 70.3033 23.3683 70.5136 22.9325C70.7211 22.498 71.0208 22.1541 71.4147 21.9019C71.8057 21.6508 72.2555 21.516 72.7631 21.4994C73.2707 21.4829 73.7271 21.5862 74.1361 21.811C74.5452 22.0358 74.8658 22.3583 75.1048 22.7791C75.3418 23.199 75.4705 23.6809 75.4887 24.2238C75.507 24.7668 75.413 25.2569 75.2027 25.6926C74.9924 26.1284 74.6927 26.4722 74.3016 26.7233C73.9097 26.9764 73.4607 27.1092 72.9531 27.1258C72.4455 27.1423 71.9891 27.039 71.5801 26.8142L71.5793 26.8162ZM73.8095 26.0745C74.0643 25.897 74.2622 25.6501 74.3954 25.3352C74.5314 25.0192 74.5924 24.6609 74.5778 24.2557C74.5633 23.8504 74.4798 23.4955 74.3225 23.1912C74.166 22.8849 73.9538 22.6528 73.6868 22.493C73.4197 22.3331 73.1171 22.2603 72.7785 22.2697C72.4459 22.2816 72.1512 22.3758 71.8964 22.5533C71.6415 22.7308 71.4457 22.9786 71.3125 23.2935C71.1792 23.6084 71.1195 23.9694 71.132 24.3738C71.1465 24.7791 71.23 25.134 71.3826 25.4387C71.5371 25.7441 71.7473 25.9754 72.0135 26.1373C72.2806 26.2971 72.5805 26.3711 72.9122 26.3612C73.2516 26.3498 73.5483 26.2564 73.8039 26.0769L73.8095 26.0745Z" fill="#670000"/>
<path d="M77.4385 21.6434L79.278 21.8131C79.6563 21.8476 79.9846 21.9424 80.2628 22.0976C80.541 22.2528 80.7507 22.4515 80.8909 22.6958C81.0312 22.9401 81.0856 23.2138 81.0596 23.5148C81.0362 23.7754 80.9501 24.0033 80.8058 24.1982C80.6615 24.3932 80.474 24.5359 80.2404 24.6274C80.0088 24.7198 79.7467 24.7512 79.4552 24.7245L79.5608 24.6637C79.9903 24.703 80.3054 24.8525 80.5091 25.1111C80.7108 25.3689 80.8033 25.7414 80.7839 26.2297L80.7495 27.3535L79.8462 27.2708L79.8806 25.983C79.8905 25.6593 79.826 25.416 79.6863 25.2551C79.5474 25.0922 79.3207 24.9973 79.009 24.9692L78.0506 24.8801L77.8465 27.0864L76.9432 27.0036L77.4413 21.6422L77.4385 21.6434ZM79.8161 24.0502C80.015 23.9191 80.1283 23.7322 80.1507 23.4852C80.1731 23.2382 80.0992 23.0349 79.9266 22.8697C79.754 22.7046 79.5147 22.6068 79.2078 22.5784L78.2736 22.4922L78.1229 24.1156L79.0571 24.2018C79.364 24.2302 79.6159 24.1785 79.8169 24.0482L79.8161 24.0502Z" fill="#670000"/>
<path d="M90.2098 27.9725L88.4878 27.1929L88.2834 29.0552L88.2596 29.057L87.601 27.3016L86.1142 28.4438L86.0941 28.431L86.9047 26.7402L85.0336 26.4952L85.0303 26.4639L86.8097 25.8427L85.656 24.3444L85.6689 24.3242L87.3612 25.1424L87.5986 23.2729L87.6323 23.2751L88.2472 25.0358L89.7021 23.8643L89.7281 23.8796L88.9431 25.5924L90.8145 25.7913L90.8163 25.8151L89.0458 26.4768L90.2247 27.9416L90.2094 27.9677L90.2098 27.9725Z" fill="#670000"/>
<path d="M95.7761 26.1769L96.5994 26.5571L94.3382 31.443L93.5149 31.0629L95.7761 26.1769Z" fill="#670000"/>
<path d="M98.5819 27.4679L99.6328 28.0933L98.7917 32.7745L98.5598 32.636L102.263 29.6568L103.326 30.2899L100.575 34.9179L99.7952 34.4539L102.137 30.5126L102.336 30.6307L98.5045 33.6867L97.8893 33.3223L98.7434 28.4963L98.9473 28.6189L96.6037 32.5594L95.8238 32.0955L98.5752 27.4674L98.5819 27.4679Z" fill="#670000"/>
<path d="M105.144 31.6098L106.6 32.7469C106.9 32.98 107.124 33.2399 107.273 33.5228C107.423 33.8056 107.488 34.0929 107.467 34.382C107.446 34.6712 107.339 34.939 107.148 35.1864C106.955 35.433 106.72 35.6003 106.445 35.6912C106.169 35.7812 105.877 35.789 105.564 35.7121C105.254 35.6361 104.949 35.4791 104.649 35.246L103.911 34.6696L102.546 36.4159L101.83 35.858L105.145 31.6146L105.144 31.6098ZM105.609 34.8903C105.772 34.9336 105.923 34.9307 106.066 34.8853C106.209 34.8399 106.33 34.7531 106.431 34.6237C106.582 34.4292 106.63 34.2157 106.575 33.9831C106.52 33.7506 106.371 33.5396 106.128 33.3502L105.389 32.7738L104.384 34.0596L105.124 34.6368C105.285 34.7626 105.449 34.8479 105.609 34.8903Z" fill="#670000"/>
<path d="M110.074 35.7222L111.022 36.6334L108.608 41.7802L107.941 41.1408L110.289 36.1631L110.582 36.4445L105.694 38.981L105.027 38.3417L110.072 35.7214L110.074 35.7222ZM107.47 37.4238L109.428 39.3038L108.894 39.859L106.936 37.979L107.47 37.4238Z" fill="#670000"/>
<path d="M110.12 43.1823C110.055 42.7196 110.12 42.2681 110.312 41.8251C110.505 41.3821 110.809 40.9919 111.227 40.6525C111.645 40.3131 112.092 40.0961 112.565 40.0007C113.037 39.9054 113.494 39.9349 113.93 40.0924C114.367 40.25 114.745 40.5221 115.061 40.9141C115.339 41.2562 115.512 41.6225 115.585 42.0079C115.659 42.3933 115.629 42.778 115.5 43.1548C115.371 43.5336 115.145 43.8776 114.82 44.1859L114.189 43.5286C114.528 43.1731 114.721 42.8087 114.766 42.4325C114.811 42.0562 114.707 41.7115 114.455 41.4009C114.248 41.1455 113.996 40.973 113.698 40.8816C113.401 40.7901 113.084 40.7854 112.748 40.8695C112.414 40.9524 112.093 41.1167 111.791 41.3629C111.484 41.6114 111.257 41.8903 111.109 42.1967C110.963 42.504 110.903 42.8142 110.931 43.1235C110.959 43.4348 111.076 43.7182 111.281 43.9729C111.449 44.1796 111.645 44.3267 111.871 44.412C112.095 44.4966 112.339 44.5202 112.599 44.4812C112.861 44.4403 113.126 44.3386 113.394 44.1735L113.906 44.9272C113.544 45.1742 113.167 45.3178 112.775 45.363C112.382 45.4081 112.003 45.3526 111.64 45.1972C111.276 45.0418 110.961 44.7974 110.689 44.4625C110.373 44.0726 110.182 43.6462 110.117 43.1835L110.12 43.1823Z" fill="#670000"/>
<path d="M117.631 45.9979L116.609 44.3688L117.26 43.9609L119.786 47.9885L119.134 48.3964L118.113 46.7673L114.203 49.2188L113.721 48.4495L117.631 45.9979Z" fill="#670000"/>
<path d="M66.1746 37.1561L77.9506 51.5022L94.3233 42.7605L92.506 61.2316L110.265 66.6276L95.9185 78.4036L104.66 94.7763L86.1891 92.959L80.7931 110.718L69.0171 96.3715L52.6443 105.113L54.4617 86.6421L36.7031 81.2461L51.0492 69.4701L42.3075 53.0973L60.7786 54.9147L66.1746 37.1561Z" fill="#EA7D5B"/>
<path d="M65.7191 32.6549L65.1399 31.9493L64.8745 32.8227L58.98 52.2219L38.8025 50.2367L37.894 50.1473L38.324 50.9526L47.8732 68.8379L32.2018 81.7018L31.4962 82.281L32.3697 82.5464L51.7689 88.4409L49.7836 108.618L49.6942 109.527L50.4995 109.097L68.3849 99.5477L81.2488 115.219L81.828 115.925L82.0934 115.051L87.9878 95.6521L108.165 97.6373L109.074 97.7267L108.644 96.9214L99.0946 79.0361L114.766 66.1722L115.472 65.593L114.598 65.3276L95.199 59.4331L97.1842 39.2556L97.2736 38.3471L96.4683 38.777L78.583 48.3263L65.7191 32.6549Z" stroke="#EA7D5B" stroke-width="0.976562"/>
<path d="M76.6484 90.4096C85.7924 88.5924 91.732 79.7066 89.9148 70.5626C88.0977 61.4186 79.2119 55.479 70.0679 57.2962C60.9239 59.1133 54.9843 67.9991 56.8015 77.1431C58.6186 86.2871 67.5044 92.2267 76.6484 90.4096Z" fill="#9B3F2B"/>
<path d="M68.9789 67.6791C70.982 66.6373 71.9984 64.6247 71.249 63.1839C70.4996 61.7432 68.2683 61.4198 66.2652 62.4617C64.262 63.5035 63.2457 65.5161 63.995 66.9569C64.7444 68.3976 66.9757 68.721 68.9789 67.6791Z" fill="#670000"/>
<path d="M83.2198 68.611C83.9235 67.1474 82.8445 65.1678 80.8096 64.1893C78.7748 63.2109 76.5547 63.6042 75.8509 65.0677C75.1472 66.5313 76.2262 68.511 78.2611 69.4894C80.296 70.4679 82.516 70.0746 83.2198 68.611Z" fill="#670000"/>
<path d="M80.7179 58.6596C78.5599 57.6145 76.1912 57.0376 73.7795 56.9736C73.623 57.4477 73.6025 57.9337 73.7478 58.3981C74.2341 59.9481 76.3727 60.6571 78.5259 59.9812C79.4175 59.7009 80.1732 59.2275 80.7174 58.6569L80.7179 58.6596Z" fill="#670000"/>
<path d="M61.4119 67.2157L59.0884 68.661" stroke="#670000" stroke-width="0.541992" stroke-miterlimit="10" stroke-linecap="round"/>
<path d="M64.104 72.4316L66.8338 72.6526" stroke="#670000" stroke-width="0.541992" stroke-miterlimit="10" stroke-linecap="round"/>
<path d="M58.4114 79.3975L60.9828 80.3353" stroke="#670000" stroke-width="0.541992" stroke-miterlimit="10" stroke-linecap="round"/>
<path d="M75.1166 71.3719L72.9119 72.9941" stroke="#670000" stroke-width="0.541992" stroke-miterlimit="10" stroke-linecap="round"/>
<path d="M76.8323 78.7298L74.7106 80.4609" stroke="#670000" stroke-width="0.541992" stroke-miterlimit="10" stroke-linecap="round"/>
<path d="M66.4409 79.0581L69.1302 79.5797" stroke="#670000" stroke-width="0.541992" stroke-miterlimit="10" stroke-linecap="round"/>
<path d="M73.3424 84.8925L71.0644 86.4123" stroke="#670000" stroke-width="0.541992" stroke-miterlimit="10" stroke-linecap="round"/>
<path d="M65.5446 84.9126L64.7182 87.526" stroke="#670000" stroke-width="0.541992" stroke-miterlimit="10" stroke-linecap="round"/>
<path d="M86.5977 67.7085L87.726 70.2036" stroke="#670000" stroke-width="0.541992" stroke-miterlimit="10" stroke-linecap="round"/>
<path d="M82.4895 73.1856L81.6652 75.7958" stroke="#670000" stroke-width="0.541992" stroke-miterlimit="10" stroke-linecap="round"/>
<path d="M87.2101 76.5944L87.4265 79.3237" stroke="#670000" stroke-width="0.541992" stroke-miterlimit="10" stroke-linecap="round"/>
<path d="M82.0709 82.3615L82.2546 85.0945" stroke="#670000" stroke-width="0.541992" stroke-miterlimit="10" stroke-linecap="round"/>
<path d="M77.5998 86.8292L76.7755 89.4393" stroke="#670000" stroke-width="0.541992" stroke-miterlimit="10" stroke-linecap="round"/>
<path d="M33.8234 96.8922L34.7962 98.4251C35.0702 98.8572 35.2188 99.3029 35.238 99.7605C35.2571 100.218 35.1554 100.65 34.932 101.057C34.7067 101.464 34.3749 101.808 33.9317 102.087C33.4904 102.367 33.0376 102.522 32.5732 102.552C32.1087 102.582 31.6752 102.491 31.2685 102.277C30.8638 102.064 30.5225 101.741 30.2484 101.309L29.2757 99.7758L33.8214 96.8914L33.8234 96.8922ZM31.584 101.524C31.8598 101.657 32.1587 101.705 32.483 101.673C32.8082 101.639 33.1299 101.523 33.4449 101.322C33.7619 101.121 34.0022 100.882 34.1721 100.6C34.3411 100.321 34.4238 100.027 34.4204 99.7232C34.4178 99.4177 34.3259 99.1219 34.1446 98.836L33.6579 98.0705L30.4092 100.131L30.8952 100.898C31.0765 101.184 31.3054 101.393 31.5792 101.525L31.584 101.524Z" fill="#670000"/>
<path d="M37.0508 101.752L39.2212 104.43L38.6232 104.913L37.024 102.941L35.9058 103.847L37.2126 105.46L36.6209 105.94L35.3142 104.326L34.0344 105.363L35.6335 107.335L35.0355 107.818L32.8652 105.141L37.0476 101.749L37.0508 101.752Z" fill="#670000"/>
<path d="M36.936 109.655C36.8281 109.302 36.8207 108.946 36.9108 108.588C37.003 108.231 37.189 107.91 37.4727 107.627L38.176 108.217C37.992 108.403 37.8611 108.606 37.7852 108.826C37.7093 109.047 37.6989 109.271 37.7515 109.493C37.8042 109.715 37.9205 109.917 38.098 110.093C38.2207 110.217 38.3614 110.313 38.5165 110.386C38.6716 110.458 38.8282 110.487 38.9842 110.472C39.1403 110.457 39.2752 110.392 39.3917 110.276C39.5118 110.156 39.5729 110.017 39.579 109.861C39.5831 109.703 39.5551 109.539 39.4902 109.37C39.4273 109.201 39.3286 108.979 39.1981 108.704C39.0298 108.364 38.9069 108.076 38.8253 107.84C38.7458 107.605 38.7182 107.36 38.7447 107.108C38.7712 106.856 38.8919 106.621 39.1099 106.403C39.3198 106.193 39.5614 106.059 39.8371 106.005C40.1128 105.951 40.3924 105.972 40.6775 106.077C40.9634 106.179 41.2259 106.351 41.4657 106.589C41.691 106.812 41.8629 107.064 41.9795 107.345C42.097 107.623 42.139 107.905 42.1083 108.19C42.0777 108.476 41.9619 108.738 41.7601 108.978L41.062 108.392C41.16 108.259 41.216 108.116 41.2312 107.965C41.2463 107.814 41.2262 107.666 41.1707 107.518C41.1152 107.371 41.0275 107.241 40.9111 107.124C40.7399 106.956 40.5508 106.853 40.3395 106.823C40.1282 106.792 39.9505 106.849 39.802 106.999C39.689 107.112 39.6323 107.246 39.6318 107.4C39.6313 107.554 39.6609 107.714 39.7254 107.879C39.79 108.043 39.8835 108.261 40.0078 108.529C40.1787 108.88 40.3052 109.176 40.3859 109.414C40.4659 109.654 40.4926 109.9 40.4633 110.153C40.4341 110.407 40.3133 110.641 40.1009 110.857C39.883 111.075 39.6263 111.213 39.3268 111.269C39.0273 111.325 38.7195 111.299 38.402 111.183C38.0836 111.07 37.795 110.883 37.5323 110.622C37.2415 110.333 37.0422 110.012 36.9344 109.659L36.936 109.655Z" fill="#670000"/>
<path d="M43.8849 108.996L44.579 109.58L41.1074 113.698L40.4132 113.113L43.8849 108.996Z" fill="#670000"/>
<path d="M43.76 115.473C43.5697 115.045 43.5029 114.591 43.5624 114.11C43.62 113.629 43.8028 113.168 44.1097 112.725C44.4166 112.283 44.7828 111.949 45.2083 111.726C45.6338 111.502 46.0787 111.406 46.5432 111.438C47.0076 111.47 47.4483 111.629 47.8657 111.918C48.2403 112.177 48.5313 112.494 48.7347 112.867C48.9389 113.238 49.0406 113.624 49.0399 114.022C49.0391 114.421 48.9298 114.792 48.7128 115.133L47.9214 114.679C48.0681 114.432 48.147 114.176 48.1572 113.912C48.1675 113.649 48.1106 113.398 47.985 113.162C47.8594 112.926 47.6729 112.721 47.4299 112.553C47.1434 112.356 46.8448 112.251 46.5373 112.241C46.2299 112.231 45.9294 112.312 45.64 112.485C45.3485 112.657 45.0875 112.913 44.853 113.251C44.6193 113.588 44.473 113.925 44.4127 114.26C44.3524 114.595 44.3812 114.905 44.5001 115.191C44.6179 115.474 44.8216 115.716 45.1074 115.915C45.3465 116.082 45.6029 116.188 45.8713 116.237C46.1396 116.287 46.3984 116.274 46.6449 116.201C46.8913 116.129 47.0999 116.001 47.2688 115.819L45.7568 114.772L46.1946 114.138L48.5219 115.749L46.9721 117.989L46.2501 117.49L47.6572 115.834L47.8584 115.759C47.5541 116.172 47.2241 116.479 46.869 116.682C46.5139 116.886 46.1479 116.975 45.7735 116.954C45.3998 116.931 45.0308 116.795 44.6672 116.544C44.2531 116.257 43.9532 115.9 43.762 115.474L43.76 115.473Z" fill="#670000"/>
<path d="M51.2832 114.274L52.1872 114.734L52.6238 119.837L52.4351 119.802L54.4335 115.881L55.2489 116.298L52.8018 121.095L51.8966 120.632L51.4521 115.527L51.6479 115.567L49.6495 119.488L48.8333 119.073L51.2805 114.276L51.2832 114.274Z" fill="#670000"/>
<path d="M56.7998 116.908L57.6434 117.245L55.6542 122.248L54.8106 121.912L56.7998 116.908Z" fill="#670000"/>
<path d="M59.17 117.856L60.1448 118.142L61.5228 123.074L61.3311 123.074L62.5691 118.851L63.4468 119.109L61.9332 124.276L60.9584 123.991L59.5745 119.056L59.774 119.059L58.5361 123.282L57.6583 123.024L59.1719 117.857L59.17 117.856Z" fill="#670000"/>
<path d="M65.2219 124.701C64.8622 124.4 64.6029 124.023 64.4429 123.565C64.2829 123.108 64.2437 122.615 64.3222 122.081C64.4026 121.549 64.5827 121.089 64.8678 120.7C65.1502 120.312 65.5098 120.029 65.9389 119.853C66.3709 119.676 66.8366 119.626 67.3389 119.701C67.7909 119.769 68.1891 119.924 68.5377 120.168C68.8843 120.41 69.1464 120.713 69.3217 121.07C69.4969 121.427 69.561 121.809 69.5174 122.211L68.6091 122.153C68.631 121.866 68.5885 121.602 68.4815 121.36C68.3746 121.119 68.2135 120.919 67.9954 120.764C67.7773 120.608 67.5211 120.506 67.2274 120.463C66.8821 120.41 66.5688 120.449 66.2891 120.575C66.0094 120.701 65.7761 120.906 65.5911 121.191C65.4061 121.475 65.2823 121.819 65.2236 122.224C65.1649 122.63 65.1791 122.997 65.2744 123.325C65.3669 123.653 65.5312 123.918 65.7626 124.121C65.9939 124.323 66.2828 124.452 66.6269 124.502C66.9159 124.546 67.1926 124.529 67.4541 124.453C67.7176 124.378 67.9437 124.254 68.1316 124.081C68.3203 123.906 68.4521 123.701 68.5237 123.463L66.7056 123.192L66.8191 122.43L69.6176 122.849L69.2167 125.542L68.3489 125.413L68.8805 123.306L69.0275 123.149C68.9372 123.654 68.7772 124.076 68.5467 124.416C68.317 124.754 68.0311 124.997 67.6838 125.142C67.3386 125.288 66.9467 125.327 66.5114 125.263C66.0139 125.187 65.5864 125.002 65.2267 124.701L65.2219 124.701Z" fill="#670000"/>
<path d="M79.518 123.949L77.6358 123.767L78.045 125.597L78.0227 125.606L76.8332 124.158L75.7945 125.719L75.7727 125.71L75.9938 123.851L74.1422 124.224L74.1293 124.193L75.6121 123.032L74.037 121.987L74.0458 121.965L75.9094 122.193L75.5297 120.348L75.5635 120.338L76.7124 121.807L77.7116 120.229L77.7417 120.235L77.5514 122.109L79.3882 121.693L79.3976 121.716L77.9368 122.914L79.5253 123.92L79.5199 123.95L79.518 123.949Z" fill="#670000"/>
<path d="M83.3058 119.492L86.6659 118.723L86.8381 119.474L84.3632 120.04L84.6836 121.442L86.7826 120.96L86.9533 121.703L84.8523 122.184L85.3913 124.539L84.5061 124.742L83.3058 119.492Z" fill="#670000"/>
<path d="M90.535 122.922C90.0784 122.831 89.6729 122.62 89.3197 122.291C88.9665 121.963 88.6991 121.543 88.5176 121.031C88.336 120.519 88.2794 120.023 88.3449 119.544C88.4123 119.067 88.5945 118.647 88.8918 118.29C89.1899 117.932 89.5767 117.667 90.0562 117.498C90.5338 117.327 91.0022 117.287 91.4588 117.379C91.9154 117.47 92.3208 117.681 92.6741 118.009C93.0273 118.337 93.2939 118.759 93.4782 119.27C93.6597 119.782 93.7163 120.278 93.6509 120.757C93.5834 121.235 93.4012 121.654 93.1031 122.013C92.805 122.371 92.4182 122.636 91.9387 122.805C91.4592 122.975 90.9935 123.014 90.5361 122.925L90.535 122.922ZM92.4369 121.541C92.6276 121.293 92.738 120.999 92.7729 120.658C92.8079 120.317 92.7568 119.955 92.6209 119.574C92.4859 119.192 92.2968 118.88 92.0566 118.637C91.8163 118.394 91.5415 118.236 91.2388 118.163C90.936 118.091 90.6252 118.112 90.3052 118.224C89.9899 118.336 89.7392 118.515 89.5493 118.761C89.3594 119.007 89.249 119.301 89.2169 119.641C89.1847 119.981 89.2378 120.344 89.3736 120.724C89.5087 121.107 89.6958 121.418 89.9352 121.663C90.1746 121.908 90.4447 122.066 90.7482 122.137C91.051 122.209 91.359 122.189 91.6743 122.077C91.9924 121.965 92.2478 121.785 92.4385 121.537L92.4369 121.541Z" fill="#670000"/>
<path d="M93.8119 116.154L95.4602 115.322C95.7997 115.151 96.128 115.059 96.4467 115.041C96.7654 115.023 97.048 115.082 97.2968 115.214C97.5448 115.347 97.7369 115.549 97.8738 115.82C97.9915 116.052 98.0417 116.292 98.022 116.533C98.0024 116.774 97.9209 116.997 97.7726 117.197C97.6242 117.397 97.4205 117.564 97.1586 117.697L97.2164 117.589C97.602 117.395 97.9486 117.354 98.2563 117.465C98.5639 117.577 98.8405 117.844 99.0833 118.268L99.6502 119.239L98.8404 119.648L98.1862 118.54C98.0227 118.261 97.8388 118.089 97.6336 118.026C97.4285 117.964 97.187 118.002 96.9084 118.142L96.0496 118.575L97.0472 120.551L96.2373 120.96L93.8119 116.154ZM97.1031 116.932C97.2032 116.714 97.1977 116.495 97.0879 116.277C96.9781 116.06 96.8046 115.925 96.5708 115.876C96.337 115.827 96.0828 115.873 95.8078 116.01L94.9693 116.433L95.7032 117.889L96.5417 117.467C96.8167 117.33 97.005 117.15 97.1043 116.935L97.1031 116.932Z" fill="#670000"/>
<path d="M107.158 112.168L105.503 113.084L106.876 114.36L106.863 114.38L105.062 113.862L105.091 115.736L105.07 115.743L104.197 114.083L102.883 115.437L102.855 115.419L103.421 113.621L101.53 113.653L101.523 113.631L103.19 112.764L101.833 111.458L101.855 111.432L103.634 111.99L103.566 110.123L103.593 110.112L104.499 111.765L105.777 110.381L105.797 110.394L105.27 112.21L107.149 112.139L107.161 112.167L107.158 112.168Z" fill="#670000"/>
<path d="M107.747 106.309L108.374 105.652L112.268 109.372L111.641 110.029L107.747 106.309Z" fill="#670000"/>
<path d="M109.523 104.498L110.274 103.532L114.816 104.944L114.651 105.156L112.151 101.112L112.911 100.134L117.164 103.435L116.607 104.152L112.984 101.343L113.126 101.16L115.687 105.337L115.25 105.902L110.565 104.46L110.712 104.271L114.335 107.08L113.778 107.797L109.524 104.496L109.523 104.498Z" fill="#670000"/>
<path d="M113.732 98.8076L114.669 97.2167C114.862 96.8893 115.089 96.6331 115.351 96.4489C115.61 96.2639 115.887 96.162 116.177 96.1462C116.468 96.1304 116.746 96.1999 117.015 96.3602C117.285 96.5185 117.483 96.7303 117.608 96.991C117.732 97.2516 117.778 97.5423 117.743 97.8603C117.708 98.1784 117.593 98.5007 117.4 98.8281L116.924 99.6356L118.832 100.762L118.372 101.544L113.734 98.8084L113.732 98.8076ZM116.925 97.9218C116.946 97.7553 116.925 97.6036 116.862 97.4695C116.799 97.3354 116.696 97.2245 116.555 97.1416C116.343 97.0161 116.124 96.9966 115.902 97.0838C115.68 97.171 115.489 97.3449 115.333 97.609L114.856 98.4185L116.261 99.248L116.737 98.4386C116.842 98.2618 116.904 98.0911 116.926 97.9246L116.925 97.9218Z" fill="#670000"/>
<path d="M116.56 93.6634L117.109 92.4679L122.764 93.061L122.379 93.8988L116.908 93.3134L117.077 92.9418L121.076 96.7275L120.691 97.5672L116.561 93.6614L116.56 93.6634ZM119.021 95.564L120.156 93.0962L120.856 93.4177L119.721 95.8855L119.021 95.564Z" fill="#670000"/>
<path d="M123.445 90.434C123.096 90.7438 122.681 90.9398 122.207 91.0236C121.732 91.1073 121.236 91.0671 120.723 90.9046C120.21 90.7421 119.783 90.4897 119.442 90.148C119.101 89.8064 118.875 89.4099 118.766 88.9573C118.656 88.5067 118.677 88.0402 118.828 87.5617C118.96 87.1403 119.168 86.7935 119.452 86.5214C119.735 86.2465 120.071 86.0604 120.456 85.9586C120.843 85.8577 121.254 85.8565 121.691 85.9579L121.49 86.8475C121.007 86.7594 120.596 86.7999 120.257 86.9689C119.919 87.138 119.689 87.4136 119.568 87.7958C119.469 88.1083 119.464 88.4154 119.552 88.7143C119.64 89.0132 119.811 89.2808 120.066 89.514C120.322 89.7472 120.634 89.9224 121.005 90.0413C121.382 90.1597 121.738 90.1963 122.076 90.1491C122.413 90.1018 122.704 89.9825 122.95 89.7871C123.194 89.5937 123.365 89.338 123.465 89.0255C123.545 88.772 123.559 88.5265 123.507 88.2928C123.454 88.0592 123.339 87.8439 123.162 87.6476C122.986 87.4514 122.753 87.2874 122.468 87.1532L122.815 86.3116C123.221 86.4767 123.55 86.7119 123.802 87.0153C124.055 87.3187 124.219 87.6645 124.289 88.053C124.36 88.4414 124.331 88.8405 124.201 89.2512C124.049 89.7316 123.798 90.123 123.448 90.4328L123.445 90.434Z" fill="#670000"/>
<path d="M120.945 82.8749L120.591 84.7656L119.834 84.6239L120.711 79.9516L121.467 80.0933L121.113 81.9839L125.651 82.8352L125.484 83.727L120.947 82.8757L120.945 82.8749Z" fill="#670000"/>
<path d="M130.114 62.6799C136.33 93.9563 116.014 124.349 84.7373 130.565C53.4609 136.78 23.0679 116.464 16.8525 85.1879C10.6371 53.9116 30.953 23.5185 62.2293 17.3031C93.5057 11.0877 123.899 31.4036 130.114 62.6799Z" stroke="#670000" stroke-width="0.976562"/>
</g>
<defs>
<filter id="filter0_d_2726_6974" x="8.97144" y="9.42236" width="129.024" height="129.024" filterUnits="userSpaceOnUse" color-interpolation-filters="sRGB">
<feFlood flood-opacity="0" result="BackgroundImageFix"/>
<feColorMatrix in="SourceAlpha" type="matrix" values="0 0 0 0 0 0 0 0 0 0 0 0 0 0 0 0 0 0 127 0" result="hardAlpha"/>
<feOffset/>
<feGaussianBlur stdDeviation="1"/>
<feComposite in2="hardAlpha" operator="out"/>
<feColorMatrix type="matrix" values="0 0 0 0 0 0 0 0 0 0 0 0 0 0 0 0 0 0 0.4 0"/>
<feBlend mode="normal" in2="BackgroundImageFix" result="effect1_dropShadow_2726_6974"/>
<feBlend mode="normal" in="SourceGraphic" in2="effect1_dropShadow_2726_6974" result="shape"/>
</filter>
</defs>
</svg>
