<svg width="128" height="142" viewBox="0 0 128 142" fill="none" xmlns="http://www.w3.org/2000/svg">
<ellipse cx="63.748" cy="70.8773" rx="53.7109" ry="62.5" transform="rotate(10 63.748 70.8773)" fill="#225733"/>
<path d="M111.354 79.2711C105.861 110.421 80.0481 131.761 53.8279 127.138C27.6076 122.515 10.6502 93.6327 16.1427 62.4829C21.6353 31.3331 47.4483 9.99269 73.6685 14.616C99.8887 19.2394 116.846 48.1214 111.354 79.2711Z" stroke="#F2ECE0" stroke-width="0.976562"/>
<path fill-rule="evenodd" clip-rule="evenodd" d="M103.996 78.5345L99.9564 77.827L100.155 76.6994L104.203 77.4081L102.82 75.434L103.759 74.7765L106.258 78.3458L102.681 80.8509L102.025 79.9148L103.996 78.5345Z" fill="#CCD4AC"/>
<path fill-rule="evenodd" clip-rule="evenodd" d="M24.9112 63.3552L28.9513 64.0626L28.7525 65.1902L24.7052 64.4815L26.0875 66.4557L25.1485 67.1131L22.6493 63.5439L26.227 61.0387L26.8825 61.9749L24.9112 63.3552Z" fill="#CCD4AC"/>
<path d="M49.6627 37.3127L48.4572 35.6175L44.9293 34.2078L45.6098 33.724L48.3652 34.8562L48.1943 31.886L48.8688 31.4064L49.0396 35.1854L50.2536 36.8925L49.6627 37.3127Z" fill="#F2ECE0"/>
<path d="M53.4685 34.9561C52.4403 35.5029 51.4206 35.0829 50.8841 34.0741C50.3477 33.0653 50.5695 31.985 51.5977 31.4382C52.626 30.8914 53.6457 31.3114 54.1821 32.3202C54.7186 33.329 54.4967 34.4093 53.4685 34.9561ZM51.5179 33.7371C51.8961 34.4484 52.4976 34.7839 53.1831 34.4194C53.8686 34.0548 53.9267 33.3686 53.5484 32.6572C53.1701 31.9459 52.5686 31.6104 51.8832 31.9749C51.1977 32.3395 51.1396 33.0257 51.5179 33.7371Z" fill="#F2ECE0"/>
<path d="M55.5536 32.2425C55.7316 32.7155 56.1005 32.968 56.6352 32.7668C56.9025 32.6662 57.5502 32.266 57.1942 31.32L56.4462 29.3321L57.0906 29.0896L58.4318 32.6542L57.8149 32.8863L57.6214 32.3722C57.5079 32.7984 57.2289 33.2007 56.7011 33.3994C55.8168 33.7321 55.1904 33.2322 54.9325 32.5467L54.0607 30.2297L54.705 29.9872L55.5536 32.2425Z" fill="#F2ECE0"/>
<path d="M57.9772 27.2905L58.6853 27.1033L58.58 29.1691L58.0702 29.3039L57.9772 27.2905Z" fill="#F2ECE0"/>
<path d="M60.8346 31.962L60.1863 28.209L60.8358 28.0968L60.948 28.7463C61.1432 28.1552 61.5429 27.93 62.012 27.849L62.3007 27.7991L62.4129 28.4487L62.1025 28.5023C61.4674 28.612 61.0155 28.9651 61.1751 29.8889L61.513 31.8448L60.8346 31.962Z" fill="#F2ECE0"/>
<path d="M64.7451 31.4967C63.6405 31.5511 62.8965 30.7371 62.8403 29.5959C62.7841 28.4547 63.4446 27.5716 64.5492 27.5172C65.6465 27.4632 66.3902 28.2699 66.4475 29.433L66.4583 29.6525L63.576 29.7944C63.6757 30.4788 64.0719 30.9286 64.7156 30.8969C65.1984 30.8731 65.5523 30.6137 65.7081 30.2027L66.4104 30.1682C66.206 30.9335 65.5937 31.455 64.7451 31.4967ZM63.5549 29.2161L65.7056 29.1102C65.5722 28.4861 65.1859 28.0872 64.5788 28.1171C63.9643 28.1473 63.619 28.5823 63.5549 29.2161Z" fill="#F2ECE0"/>
<path d="M70.8001 31.8339C69.15 31.4947 68.5628 30.0953 68.8592 28.6533C69.1557 27.2113 70.2472 26.1571 71.8973 26.4962C73.5402 26.834 74.1274 28.2333 73.831 29.6753C73.5345 31.1173 72.443 32.1716 70.8001 31.8339ZM69.6054 28.8067C69.3797 29.9043 69.7377 30.9275 70.9358 31.1738C72.1338 31.4201 72.8592 30.6196 73.0849 29.5219C73.3105 28.4243 72.9597 27.4026 71.7616 27.1563C70.5635 26.91 69.831 27.709 69.6054 28.8067Z" fill="#F2ECE0"/>
<path d="M76.4714 30.9004C76.6545 30.4293 76.5482 29.9951 76.0157 29.7882C75.7495 29.6847 75.0001 29.5506 74.634 30.4927L73.8645 32.4725L73.2228 32.2231L74.6025 28.6732L75.2169 28.912L75.0179 29.424C75.3868 29.1823 75.8631 29.0688 76.3888 29.2731C77.2694 29.6154 77.4024 30.4057 77.137 31.0883L76.2403 33.3958L75.5986 33.1464L76.4714 30.9004Z" fill="#F2ECE0"/>
<path d="M78.0225 34.3936C77.0604 33.8482 76.8677 32.7623 77.4311 31.7683C77.9945 30.7743 79.0252 30.3819 79.9873 30.9273C80.9431 31.4691 81.1394 32.5486 80.5652 33.5617L80.4568 33.7528L77.9463 32.3298C77.6642 32.9612 77.758 33.5532 78.3187 33.8711C78.7392 34.1094 79.177 34.0798 79.5286 33.816L80.1403 34.1627C79.558 34.6998 78.7617 34.8125 78.0225 34.3936ZM78.238 31.83L80.1113 32.8919C80.3327 32.2934 80.22 31.7496 79.6912 31.4498C79.1559 31.1464 78.6315 31.329 78.238 31.83Z" fill="#F2ECE0"/>
<path d="M81.6789 36.6824L85.0451 32.6231L85.6089 33.0906L82.2427 37.1499L81.6789 36.6824Z" fill="#F2ECE0"/>
<path d="M86.4915 37.8088C86.8506 37.4532 86.9304 37.0134 86.5285 36.6074C86.3275 36.4045 85.6977 35.9767 84.9795 36.6878L83.4702 38.1823L82.9858 37.6931L85.6921 35.0133L86.1559 35.4817L85.7656 35.8682C86.201 35.7979 86.6822 35.8883 87.079 36.289C87.7438 36.9604 87.5432 37.7363 87.0227 38.2516L85.2636 39.9935L84.7792 39.5043L86.4915 37.8088Z" fill="#F2ECE0"/>
<path d="M89.0865 45.1111L89.9697 43.8582L88.6388 41.8495L87.1407 42.1743L86.7159 41.5332L92.2852 40.3912L92.7342 41.0689L89.5153 45.7583L89.0865 45.1111ZM89.3197 41.697L90.3755 43.2906L91.9073 41.1336L89.3197 41.697Z" fill="#F2ECE0"/>
<path d="M42.9041 107.426C42.8088 107.405 42.7124 107.378 42.6183 107.347L39.5955 106.312C38.9609 106.095 38.4495 105.645 38.155 105.043C38.083 104.896 38.0261 104.744 37.9836 104.59C37.4091 105.026 36.6653 105.2 35.9405 105.044C35.844 105.023 35.7476 104.996 35.6547 104.965L33.4216 104.201C32.6271 103.929 32.0271 103.269 31.8112 102.477C31.246 102.906 30.5059 103.091 29.7678 102.933C29.6726 102.912 29.5762 102.885 29.4832 102.854L26.4605 101.82C25.8258 101.603 25.3145 101.152 25.0199 100.55C24.7254 99.9482 24.6823 99.2677 24.8992 98.6343L30.1407 83.311C30.5517 82.1086 31.7985 81.4025 33.0407 81.6694C33.1359 81.6899 33.2323 81.7169 33.3265 81.7485L37.2461 83.089C38.2238 83.4239 38.9058 84.3426 38.9412 85.3759L39.1399 91.1099L42.7988 86.6993C43.398 85.9777 44.3399 85.6514 45.2564 85.8483C45.3529 85.8691 45.4493 85.8961 45.5422 85.9274L49.483 87.275C50.1177 87.4921 50.629 87.9426 50.9236 88.5446C51.2181 89.1466 51.2612 89.8271 51.0444 90.4605L45.8016 105.784C45.3906 106.986 44.1438 107.692 42.9017 107.425L42.9041 107.426Z" fill="#CCD4AC"/>
<path d="M46.0761 113.858C44.7908 113.663 43.8583 112.493 43.952 111.196L44.8791 98.4222C44.9271 97.7532 45.2332 97.1435 45.7403 96.7053C46.2474 96.2672 46.8951 96.0525 47.5628 96.1004L56.1026 96.7204C56.1655 96.725 56.2317 96.7326 56.2988 96.7428C56.889 96.8325 57.4289 97.1305 57.8194 97.5816C58.2576 98.0887 58.4722 98.7365 58.4243 99.4042L58.2742 101.466C58.2261 102.135 57.92 102.745 57.4129 103.183C57.2436 103.328 57.0604 103.45 56.8638 103.545C56.9478 103.83 56.9794 104.13 56.958 104.435L56.8079 106.497C56.7748 106.953 56.6223 107.381 56.3685 107.745C56.6214 107.888 56.8491 108.072 57.0413 108.293C57.4795 108.8 57.6941 109.448 57.6462 110.116L57.4961 112.178C57.396 113.558 56.1922 114.598 54.8112 114.498L46.2715 113.878C46.2061 113.873 46.1399 113.866 46.0741 113.856L46.0761 113.858Z" fill="#CCD4AC"/>
<path d="M64.6274 122.335C64.5299 122.32 64.4308 122.298 64.3349 122.273L54.7506 119.629C54.1051 119.451 53.5662 119.032 53.2356 118.449C52.9051 117.866 52.8208 117.189 52.999 116.542L56.9983 102.051C57.1763 101.406 57.5952 100.867 58.1794 100.536C58.6669 100.26 59.2408 100.154 59.7944 100.238C59.892 100.253 59.9898 100.274 60.0845 100.3L62.9415 101.088C63.5869 101.266 64.1259 101.685 64.4564 102.268C64.787 102.851 64.8712 103.528 64.693 104.175L62.0076 113.907L66.3171 115.097C66.9638 115.275 67.5015 115.694 67.8318 116.278C68.1624 116.861 68.2467 117.537 68.0685 118.184L67.4233 120.523C67.0861 121.748 65.8845 122.527 64.6285 122.336L64.6274 122.335Z" fill="#CCD4AC"/>
<path d="M68.4495 114.523C66.6678 114.047 65.1513 113.19 63.9412 111.975C62.7166 110.747 61.8888 109.251 61.4796 107.532C61.0819 105.861 61.1249 104.098 61.6072 102.291C62.0895 100.484 62.931 98.9343 64.1088 97.6835C65.3208 96.3959 66.7833 95.5134 68.4574 95.0577C70.1108 94.608 71.8525 94.621 73.6342 95.0966C75.4159 95.5723 76.9324 96.4291 78.1417 97.6431C79.3671 98.8728 80.1949 100.368 80.6041 102.087C81.0018 103.759 80.9588 105.522 80.4765 107.328C79.9942 109.135 79.1527 110.685 77.9749 111.936C76.7633 113.222 75.3005 114.106 73.6263 114.562C71.9718 115.011 70.2297 114.999 68.448 114.524L68.4495 114.523ZM71.7405 102.195C71.3746 102.097 71.0685 102.096 70.7777 102.191C70.4685 102.292 70.2031 102.483 69.9417 102.792C69.6218 103.173 69.3737 103.686 69.2051 104.318C69.0364 104.95 68.9957 105.518 69.0833 106.008C69.1557 106.406 69.2892 106.705 69.5071 106.946C69.712 107.173 69.978 107.324 70.3439 107.422C70.7097 107.52 71.0158 107.521 71.3078 107.426C71.6155 107.326 71.881 107.135 72.1411 106.825C72.4622 106.445 72.7103 105.932 72.8793 105.299C73.0482 104.666 73.089 104.097 73.001 103.609C72.929 103.209 72.794 102.912 72.5764 102.67C72.3727 102.443 72.1064 102.293 71.7405 102.195Z" fill="#CCD4AC"/>
<path d="M79.4452 110.544C78.9193 110.431 78.4355 110.146 78.0817 109.742C77.6398 109.237 77.4226 108.59 77.4673 107.922L78.3142 95.3351C78.3591 94.666 78.6616 94.0547 79.166 93.614C79.6704 93.1733 80.3164 92.9546 80.9855 92.9996L83.6641 93.1798C83.7847 93.1879 83.9047 93.2048 84.0217 93.2299C84.7418 93.3841 85.3549 93.8434 85.7044 94.491L86.5225 96.0072L86.5307 95.8866C86.5756 95.2175 86.8781 94.6062 87.3837 94.1657C87.8881 93.725 88.5341 93.5064 89.2032 93.5513L91.7027 93.7196C91.8233 93.7278 91.9433 93.7447 92.0616 93.77C93.2713 94.0291 94.1211 95.156 94.038 96.3921L93.1902 108.978C93.1452 109.647 92.8427 110.258 92.3383 110.699C91.834 111.14 91.1879 111.358 90.5189 111.314L87.8402 111.133C87.7196 111.125 87.5996 111.108 87.4826 111.083C86.7625 110.929 86.1494 110.47 85.8 109.822L84.9818 108.306L84.9737 108.427C84.9287 109.096 84.6262 109.707 84.1206 110.147C83.615 110.588 82.9702 110.807 82.3012 110.762L79.8016 110.593C79.6822 110.586 79.5622 110.569 79.444 110.543L79.4452 110.544Z" fill="#CCD4AC"/>
<path d="M43.1674 106.2C43.1191 106.189 43.0714 106.176 43.0233 106.16L40.0017 105.126C39.6868 105.018 39.428 104.789 39.2816 104.49C39.1351 104.191 39.1132 103.847 39.2212 103.532L40.5329 99.7L37.4297 103.397C37.1279 103.756 36.6563 103.914 36.2053 103.817C36.1571 103.806 36.1093 103.794 36.0624 103.777L33.8293 103.014C33.3391 102.846 33.0025 102.393 32.9813 101.875L32.7926 97.0516L31.4821 100.884C31.2746 101.492 30.6453 101.837 30.0326 101.706C29.9844 101.695 29.9367 101.683 29.8885 101.666L26.8682 100.632C26.5533 100.524 26.2945 100.296 26.148 99.9969C26.0016 99.6979 25.9796 99.3538 26.0876 99.0389L31.3291 83.7156C31.5367 83.1079 32.166 82.7625 32.7787 82.8941C32.8269 82.9045 32.8746 82.9172 32.9228 82.9339L36.8412 84.2741C37.3335 84.443 37.6711 84.8978 37.6893 85.4177L38.0025 94.4478L43.7661 87.4993C44.0674 87.1363 44.5422 86.9759 44.9944 87.073C45.0427 87.0834 45.0904 87.0962 45.1373 87.1126L49.0781 88.4601C49.3931 88.5682 49.6518 88.7966 49.7983 89.0956C49.9448 89.3945 49.9667 89.7386 49.8587 90.0535L44.616 105.377C44.4084 105.984 43.7791 106.33 43.1664 106.198L43.1674 106.2Z" fill="#225733"/>
<path d="M46.2647 112.619C45.6232 112.521 45.1557 111.945 45.2031 111.288L46.1302 98.5145C46.1804 97.8234 46.781 97.3034 47.4721 97.3536L56.013 97.9738C56.0463 97.9763 56.0782 97.9799 56.1111 97.9849C56.405 98.0296 56.6757 98.1781 56.872 98.4051C57.0895 98.6565 57.198 98.9849 57.1737 99.3169L57.0236 101.379C56.9993 101.711 56.8451 102.019 56.5924 102.237C56.3398 102.454 56.0126 102.563 55.6806 102.538L50.9097 102.192L50.8705 102.738L54.5467 103.005C54.58 103.007 54.6119 103.011 54.6448 103.016C54.9387 103.061 55.2093 103.209 55.4056 103.436C55.6232 103.688 55.7317 104.016 55.7074 104.348L55.5572 106.41C55.507 107.101 54.9064 107.621 54.2154 107.571L50.5391 107.304L50.4636 108.342L55.2345 108.688C55.2678 108.69 55.2997 108.694 55.3326 108.699C55.6265 108.744 55.8972 108.892 56.0935 109.119C56.311 109.371 56.4195 109.699 56.3952 110.031L56.2451 112.093C56.1949 112.784 55.5943 113.304 54.9032 113.254L46.3623 112.634C46.329 112.631 46.2958 112.627 46.2629 112.622L46.2647 112.619Z" fill="#225733"/>
<path d="M64.8158 121.095C64.767 121.087 64.7174 121.077 64.6696 121.064L55.0852 118.42C54.7643 118.331 54.4922 118.119 54.3278 117.829C54.1635 117.54 54.1209 117.196 54.2094 116.877L58.2085 102.386C58.2973 102.066 58.5096 101.793 58.7991 101.629C59.0449 101.489 59.3298 101.438 59.6066 101.48C59.6554 101.487 59.7038 101.497 59.7516 101.511L62.6086 102.3C63.2769 102.484 63.6684 103.174 63.4844 103.843L60.4653 114.785L65.9842 116.308C66.3051 116.397 66.5773 116.609 66.7416 116.899C66.906 117.188 66.9487 117.53 66.86 117.851L66.2149 120.19C66.0446 120.809 65.4376 121.191 64.8181 121.096L64.8158 121.095Z" fill="#225733"/>
<path d="M68.7725 113.312C67.2078 112.894 65.8816 112.147 64.8305 111.091C63.7723 110.029 63.0557 108.734 62.7006 107.243C62.3517 105.776 62.392 104.219 62.8199 102.616C63.2479 101.013 63.9889 99.6432 65.0225 98.5454C66.0737 97.4293 67.3401 96.6644 68.7871 96.2706C70.2244 95.8793 71.7466 95.8925 73.3114 96.3102C74.8762 96.7279 76.2023 97.4752 77.2534 98.5308C78.3128 99.5936 79.0291 100.889 79.3833 102.379C79.7322 103.846 79.6922 105.402 79.264 107.006C78.8357 108.61 78.095 109.979 77.0614 111.077C76.0117 112.192 74.745 112.958 73.2968 113.352C71.8595 113.743 70.3361 113.729 68.7714 113.312L68.7725 113.312ZM72.0636 100.984C71.4605 100.823 70.9129 100.828 70.3884 100.999C69.8542 101.173 69.394 101.496 68.9823 101.986C68.5425 102.51 68.2089 103.185 67.9922 103.997C67.7756 104.809 67.7268 105.56 67.8483 106.234C67.9622 106.864 68.1991 107.373 68.5755 107.79C68.9448 108.2 69.4185 108.477 70.0204 108.638C70.6222 108.799 71.171 108.794 71.6967 108.623C72.2297 108.449 72.6896 108.127 73.1013 107.637C73.542 107.115 73.8744 106.439 74.0914 105.626C74.3084 104.814 74.3571 104.062 74.2352 103.39C74.1214 102.759 73.8844 102.25 73.5081 101.833C73.1385 101.424 72.6663 101.146 72.0632 100.985L72.0636 100.984Z" fill="#225733"/>
<path d="M79.708 109.317C79.4451 109.26 79.205 109.121 79.0257 108.916C78.807 108.664 78.6965 108.338 78.7184 108.006L79.5653 95.4186C79.6113 94.7271 80.2102 94.2044 80.9015 94.2516L83.5801 94.4318C83.641 94.436 83.7012 94.4438 83.759 94.4562C84.1149 94.5324 84.4241 94.7614 84.6004 95.0868L87.4819 100.427L87.7816 95.9713C87.8035 95.6392 87.9568 95.3301 88.208 95.1115C88.458 94.8925 88.7856 94.7823 89.1177 94.8043L91.6172 94.9726C91.6782 94.9768 91.7395 94.9849 91.7974 94.9973C92.3968 95.1257 92.8272 95.6783 92.7845 96.3075L91.9364 108.895C91.8905 109.586 91.2916 110.109 90.6003 110.062L87.9217 109.881C87.8608 109.877 87.8006 109.869 87.7427 109.857C87.3869 109.781 87.0777 109.552 86.9014 109.226L84.0199 103.886L83.7202 108.342C83.6742 109.033 83.0754 109.556 82.3841 109.509L79.8845 109.341C79.8236 109.336 79.7647 109.329 79.7056 109.316L79.708 109.317Z" fill="#225733"/>
<path d="M44.7309 88.3L36.8626 97.7864L36.4344 85.4627L32.5163 84.1213L27.2733 99.4455L30.2951 100.478L33.7832 90.2804L34.2345 101.827L36.4675 102.59L43.8964 93.7401L40.4083 103.938L43.4287 104.972L48.6714 89.6488L44.7309 88.3Z" fill="#F2ECE0"/>
<path d="M55.7728 101.285L55.9229 99.223L47.382 98.6029L46.4548 111.378L54.9957 111.998L55.1446 109.936L49.1223 109.499L49.3801 105.959L54.3077 106.316L54.4566 104.254L49.529 103.896L49.7505 100.848L55.7728 101.285Z" fill="#F2ECE0"/>
<path d="M58.9216 115.657L62.2744 103.505L59.4172 102.718L55.4193 117.208L65.0035 119.854L65.6488 117.514L58.9216 115.657Z" fill="#F2ECE0"/>
<path d="M78.1645 102.67C77.8633 101.403 77.263 100.318 76.3659 99.4173C75.4689 98.5164 74.3428 97.8852 72.989 97.5237C71.6351 97.1623 70.3443 97.1484 69.1176 97.4822C67.8909 97.8161 66.8311 98.4575 65.937 99.4061C65.044 100.355 64.4089 101.534 64.0332 102.941C63.6574 104.349 63.6206 105.687 63.9218 106.955C64.223 108.223 64.8221 109.307 65.7203 110.208C66.6174 111.109 67.7435 111.74 69.0973 112.101C70.4511 112.463 71.742 112.477 72.9687 112.143C74.1953 111.809 75.2552 111.168 76.1493 110.219C77.0423 109.27 77.6774 108.091 78.0531 106.684C78.4289 105.277 78.4654 103.939 78.1645 102.67ZM74.063 108.445C73.5004 109.114 72.8423 109.57 72.0859 109.816C71.3295 110.062 70.5349 110.074 69.6983 109.85C68.8617 109.627 68.1773 109.221 67.6454 108.631C67.1123 108.04 66.7696 107.315 66.6145 106.457C66.4597 105.597 66.5154 104.671 66.7814 103.675C67.0474 102.679 67.4606 101.848 68.0233 101.18C68.5859 100.512 69.244 100.055 70.0004 99.8091C70.7556 99.5626 71.5514 99.5516 72.388 99.775C73.2246 99.9983 73.909 100.404 74.4409 100.995C74.9728 101.585 75.3167 102.31 75.4718 103.168C75.6266 104.028 75.5706 104.955 75.3049 105.95C75.0392 106.945 74.6254 107.778 74.063 108.445Z" fill="#F2ECE0"/>
<path d="M89.0349 96.057L88.4437 104.848L83.4976 95.6833L80.8189 95.5031L79.9708 108.09L82.4704 108.258L83.0616 99.4677L88.008 108.631L90.6878 108.811L91.5345 96.2253L89.0349 96.057Z" fill="#F2ECE0"/>
<path d="M72.6033 30.5255L70.9002 31.1891L68.3817 28.9277C68.0656 28.6441 67.5739 28.6729 67.2844 28.9915C66.9942 29.3109 67.0158 29.7993 67.3303 30.083L69.8877 32.3796L68.8051 38.6018C68.7311 39.0236 69.0147 39.4187 69.4373 39.4854C69.626 39.5155 69.8104 39.4742 69.9637 39.3816C70.1536 39.2676 70.2949 39.0749 70.3355 38.8414L71.4136 32.6396L73.147 31.9646C73.1899 31.9474 73.2304 31.928 73.2692 31.9043C73.5882 31.7117 73.736 31.3164 73.6018 30.9618C73.4509 30.5647 73.0039 30.3695 72.6018 30.5256L72.6033 30.5255Z" fill="#CCD5AC"/>
<path d="M59.8414 91.6269C75.1119 94.3195 89.6738 84.1232 92.3664 68.8527C95.059 53.5822 84.8626 39.0203 69.5921 36.3277C54.3217 33.6351 39.7597 43.8315 37.0671 59.1019C34.3745 74.3724 44.5709 88.9343 59.8414 91.6269Z" fill="#225733" stroke="#CCD4AC" stroke-width="1.46484"/>
<path d="M60.2232 89.4634C74.2986 91.9452 87.7209 82.5468 90.2028 68.4714C92.6846 54.3961 83.2862 40.9737 69.2108 38.4919C55.1355 36.01 41.7131 45.4084 39.2313 59.4838C36.7494 73.5592 46.1478 86.9815 60.2232 89.4634Z" fill="#F2ECE0"/>
<mask id="mask0_2822_4697" style="mask-type:alpha" maskUnits="userSpaceOnUse" x="38" y="38" width="53" height="52">
<path d="M60.2232 89.4634C74.2986 91.9452 87.7209 82.5468 90.2028 68.4714C92.6846 54.3961 83.2862 40.9737 69.2108 38.4919C55.1355 36.01 41.7131 45.4084 39.2313 59.4838C36.7494 73.5592 46.1478 86.9815 60.2232 89.4634Z" fill="#F2ECE0"/>
</mask>
<g mask="url(#mask0_2822_4697)">
<path d="M75.3361 14.8767L74.88 14.2371L73.4294 15.2344L72.4073 13.8011L71.76 14.2461L72.7821 15.6794L66.9512 19.688L65.9291 18.2547L65.2818 18.6997L66.3039 20.133L60.4729 24.1416L59.4508 22.7083L58.8035 23.1533L59.8256 24.5866L53.9946 28.5952L52.9726 27.162L52.3253 27.607L53.3474 29.0402L47.5164 33.0489L46.4943 31.6156L45.847 32.0606L46.8691 33.4939L41.0381 37.5025L40.0161 36.0692L39.3688 36.5142L40.3908 37.9475L34.5599 41.9561L33.5378 40.5228L32.8905 40.9678L33.9126 42.4011L28.0816 46.4097L27.0596 44.9764L26.4123 45.4214L27.4343 46.8547L21.6034 50.8633L20.5813 49.43L19.934 49.875L20.9561 51.3083L15.1251 55.3169L14.1031 53.8837L13.4418 54.3369L14.4639 55.7702L13.0115 56.7687L13.4676 57.4083L14.92 56.4098L19.0283 62.1709L17.5758 63.1694L18.0319 63.809L19.4843 62.8105L23.5926 68.5717L22.1402 69.5702L22.5962 70.2097L24.0487 69.2112L28.1569 74.9724L26.7045 75.9709L27.1606 76.6104L28.613 75.6119L32.7213 81.3731L31.2689 82.3716L31.7249 83.0111L33.1773 82.0126L37.2856 87.7738L35.8332 88.7723L36.2892 89.4119L37.7417 88.4134L41.8499 94.1745L40.3975 95.173L40.8536 95.8126L42.306 94.8141L46.4143 100.575L44.9619 101.574L45.4179 102.213L46.8703 101.215L50.9786 106.976L49.5262 107.974L49.9823 108.614L51.4347 107.616L55.543 113.377L54.0906 114.375L54.5466 115.015L55.999 114.016L57.0223 115.451L57.6696 115.006L56.6463 113.571L62.4773 109.563L63.5006 110.998L64.1479 110.553L63.1246 109.118L68.9555 105.109L69.9789 106.544L70.6261 106.099L69.6028 104.664L75.4338 100.655L76.4571 102.09L77.1044 101.645L76.0811 100.21L81.912 96.2018L82.9354 97.6368L83.5827 97.1918L82.5593 95.7568L88.3903 91.7482L89.4136 93.1832L90.0609 92.7382L89.0376 91.3032L94.8685 87.2946L95.8919 88.7296L96.5392 88.2846L95.5158 86.8496L101.347 82.8409L102.37 84.276L103.017 83.831L101.994 82.396L107.825 78.3873L108.848 79.8224L109.496 79.3774L108.472 77.9423L114.303 73.9337L115.327 75.3688L115.974 74.9238L114.951 73.4887L116.401 72.4914L115.945 71.8519L114.495 72.8492L110.386 67.088L111.837 66.0907L111.381 65.4512L109.93 66.4484L105.822 60.6873L107.273 59.69L106.816 59.0504L105.366 60.0477L101.258 54.2865L102.708 53.2893L102.252 52.6497L100.802 53.647L96.6932 47.8858L98.1439 46.8885L97.6878 46.249L96.2372 47.2463L92.1289 41.4851L93.5795 40.4878L93.1235 39.8483L91.6728 40.8456L87.5646 35.0844L89.0152 34.0871L88.5591 33.4476L87.1085 34.4448L83.0002 28.6837L84.4509 27.6864L83.9948 27.0468L82.5442 28.0441L78.4359 22.2829L79.8865 21.2857L79.4305 20.6461L77.9798 21.6434L73.8715 15.8822L75.3222 14.8849L75.3361 14.8767ZM66.7581 20.7738L70.8664 26.5349L65.0355 30.5436L60.9272 24.7824L66.7581 20.7738ZM59.2924 63.114L55.1841 57.3528L61.0151 53.3442L65.1234 59.1054L59.2924 63.114ZM65.5809 59.7452L69.6892 65.5064L63.8583 69.515L59.75 63.7538L65.5809 59.7452ZM58.6451 63.559L52.8142 67.5676L48.7059 61.8065L54.5368 57.7978L58.6451 63.559ZM59.1012 64.1986L63.2095 69.9597L57.3785 73.9684L53.2702 68.2072L59.1012 64.1986ZM63.6668 70.601L67.7751 76.3622L61.9441 80.3708L57.8358 74.6097L63.6668 70.601ZM64.3141 70.156L70.145 66.1474L74.2533 71.9086L68.4223 75.9172L64.3141 70.156ZM70.7941 65.7012L76.625 61.6926L80.7333 67.4538L74.9024 71.4624L70.7941 65.7012ZM70.338 65.0617L66.2298 59.3005L72.0607 55.2919L76.169 61.053L70.338 65.0617ZM65.7724 58.6592L61.6642 52.898L67.4951 48.8894L71.6034 54.6506L65.7724 58.6592ZM61.2069 52.2567L57.0986 46.4955L62.9295 42.4869L67.0378 48.2481L61.2069 52.2567ZM60.5596 52.7017L54.7286 56.7103L50.6203 50.9491L56.4513 46.9405L60.5596 52.7017ZM54.0795 57.1565L48.2486 61.1652L44.1403 55.404L49.9713 51.3954L54.0795 57.1565ZM47.5995 61.6114L41.7685 65.62L37.6603 59.8588L43.4912 55.8502L47.5995 61.6114ZM48.0556 62.2509L52.1638 68.0121L46.3329 72.0207L42.2246 66.2595L48.0556 62.2509ZM52.6212 68.6534L56.7294 74.4146L50.8985 78.4232L46.7902 72.662L52.6212 68.6534ZM57.1867 75.0559L61.295 80.817L55.4641 84.8257L51.3558 79.0645L57.1867 75.0559ZM61.7523 81.4583L65.8606 87.2195L60.0297 91.2281L55.9214 85.467L61.7523 81.4583ZM62.3996 81.0133L68.2306 77.0047L72.3389 82.7659L66.5079 86.7745L62.3996 81.0133ZM68.8797 76.5585L74.7106 72.5499L78.8189 78.3111L72.9879 82.3197L68.8797 76.5585ZM75.3597 72.1037L81.1906 68.0951L85.2989 73.8562L79.468 77.8649L75.3597 72.1037ZM81.8397 67.6488L87.6707 63.6402L91.7789 69.4014L85.948 73.41L81.8397 67.6488ZM81.3836 67.0093L77.2754 61.2481L83.1063 57.2395L87.2146 63.0007L81.3836 67.0093ZM76.8181 60.6068L72.7098 54.8456L78.5407 50.837L82.649 56.5982L76.8181 60.6068ZM72.2525 54.2043L68.1442 48.4432L73.9751 44.4345L78.0834 50.1957L72.2525 54.2043ZM67.6869 47.8019L63.5786 42.0407L69.4096 38.0321L73.5178 43.7932L67.6869 47.8019ZM63.1213 41.3994L59.013 35.6382L64.844 31.6296L68.9522 37.3908L63.1213 41.3994ZM62.474 41.8444L56.643 45.853L52.5348 40.0918L58.3657 36.0832L62.474 41.8444ZM55.994 46.2992L50.163 50.3078L46.0547 44.5467L51.8857 40.538L55.994 46.2992ZM49.5139 50.7541L43.683 54.7627L39.5747 49.0015L45.4057 44.9929L49.5139 50.7541ZM43.0339 55.2089L37.203 59.2175L33.0947 53.4563L38.9256 49.4477L43.0339 55.2089ZM36.5539 59.6637L30.7229 63.6724L26.6147 57.9112L32.4456 53.9026L36.5539 59.6637ZM37.01 60.3033L41.1182 66.0645L35.2873 70.0731L31.179 64.3119L37.01 60.3033ZM41.5755 66.7058L45.6838 72.4669L39.8529 76.4755L35.7446 70.7144L41.5755 66.7058ZM46.1411 73.1082L50.2494 78.8694L44.4185 82.878L40.3102 77.1168L46.1411 73.1082ZM50.7067 79.5107L54.815 85.2719L48.984 89.2805L44.8758 83.5193L50.7067 79.5107ZM55.2723 85.9132L59.3806 91.6744L53.5496 95.683L49.4414 89.9218L55.2723 85.9132ZM59.8379 92.3157L63.9462 98.0768L58.1152 102.085L54.0069 96.3243L59.8379 92.3157ZM60.4852 91.8707L66.3161 87.862L70.4244 93.6232L64.5935 97.6318L60.4852 91.8707ZM66.9652 87.4158L72.7962 83.4072L76.9045 89.1684L71.0735 93.177L66.9652 87.4158ZM73.4452 82.961L79.2762 78.9524L83.3845 84.7135L77.5535 88.7222L73.4452 82.961ZM79.9253 78.5062L85.7562 74.4975L89.8645 80.2587L84.0335 84.2673L79.9253 78.5062ZM86.4053 74.0513L92.2363 70.0427L96.3445 75.8039L90.5136 79.8125L86.4053 74.0513ZM92.8853 69.5965L98.7163 65.5879L102.825 71.349L96.9936 75.3577L92.8853 69.5965ZM92.4293 68.9569L88.321 63.1958L94.1519 59.1871L98.2602 64.9483L92.4293 68.9569ZM87.8637 62.5545L83.7554 56.7933L89.5863 52.7847L93.6946 58.5458L87.8637 62.5545ZM83.2981 56.152L79.1898 50.3908L85.0208 46.3822L89.129 52.1434L83.2981 56.152ZM78.7325 49.7495L74.6242 43.9883L80.4552 39.9797L84.5635 45.7409L78.7325 49.7495ZM74.1669 43.347L70.0586 37.5859L75.8896 33.5772L79.9979 39.3384L74.1669 43.347ZM69.6013 36.9446L65.493 31.1834L71.324 27.1748L75.4323 32.9359L69.6013 36.9446ZM60.2802 25.2259L64.3884 30.9871L58.5575 34.9957L54.4492 29.2345L60.2802 25.2259ZM53.8001 29.6807L57.9084 35.4419L52.0774 39.4505L47.9692 33.6894L53.8001 29.6807ZM47.3201 34.1356L51.4284 39.8967L45.5974 43.9054L41.4891 38.1442L47.3201 34.1356ZM40.8401 38.5904L44.9484 44.3516L39.1174 48.3602L35.0091 42.599L40.8401 38.5904ZM34.3601 43.0452L38.4683 48.8064L32.6374 52.815L28.5291 47.0539L34.3601 43.0452ZM27.88 47.5001L31.9883 53.2613L26.1573 57.2699L22.0491 51.5087L27.88 47.5001ZM15.5688 55.965L21.3997 51.9564L25.508 57.7176L19.6771 61.7262L15.5688 55.965ZM20.1344 62.3675L25.9653 58.3589L30.0736 64.1201L24.2426 68.1287L20.1344 62.3675ZM24.7 68.77L30.5309 64.7614L34.6392 70.5225L28.8082 74.5312L24.7 68.77ZM29.2655 75.1724L35.0965 71.1638L39.2048 76.925L33.3738 80.9336L29.2655 75.1724ZM33.8311 81.5749L39.6621 77.5663L43.7704 83.3275L37.9394 87.3361L33.8311 81.5749ZM38.3967 87.9774L44.2277 83.9688L48.336 89.73L42.505 93.7386L38.3967 87.9774ZM42.9623 94.3799L48.7933 90.3713L52.9015 96.1324L47.0706 100.141L42.9623 94.3799ZM47.5279 100.782L53.3589 96.7737L57.4671 102.535L51.6362 106.544L47.5279 100.782ZM56.2018 112.946L52.0935 107.185L57.9244 103.176L62.0327 108.937L56.2018 112.946ZM62.6818 108.491L58.5735 102.73L64.4045 98.7214L68.5128 104.483L62.6818 108.491ZM69.1618 104.036L65.0535 98.2752L70.8845 94.2665L74.9928 100.028L69.1618 104.036ZM75.6418 99.5815L71.5336 93.8203L77.3645 89.8117L81.4728 95.5729L75.6418 99.5815ZM82.1219 95.1267L78.0136 89.3655L83.8446 85.3569L87.9528 91.118L82.1219 95.1267ZM88.6019 90.6718L84.4936 84.9106L90.3246 80.902L94.4329 86.6632L88.6019 90.6718ZM95.0819 86.217L90.9736 80.4558L96.8046 76.4472L100.913 82.2084L95.0819 86.217ZM101.562 81.7622L97.4537 76.001L103.285 71.9924L107.393 77.7535L101.562 81.7622ZM113.873 73.2987L108.042 77.3073L103.934 71.5461L109.765 67.5375L113.873 73.2987ZM109.307 66.8962L103.476 70.9048L99.3681 65.1437L105.199 61.135L109.307 66.8962ZM104.742 60.4937L98.9108 64.5024L94.8025 58.7412L100.633 54.7326L104.742 60.4937ZM100.176 54.0913L94.3452 58.0999L90.2369 52.3387L96.0679 48.3301L100.176 54.0913ZM95.6106 47.6888L89.7796 51.6974L85.6713 45.9362L91.5023 41.9276L95.6106 47.6888ZM91.045 41.2863L85.214 45.2949L81.1057 39.5338L86.9367 35.5251L91.045 41.2863ZM86.4794 34.8838L80.6484 38.8925L76.5402 33.1313L82.3711 29.1227L86.4794 34.8838ZM81.9138 28.4814L76.0829 32.49L71.9746 26.7288L77.8055 22.7202L81.9138 28.4814ZM77.3482 22.0789L71.5173 26.0875L67.409 20.3263L73.2399 16.3177L77.3482 22.0789Z" fill="#CCD5AC"/>
</g>
<path d="M54.0721 56.3975C55.0094 56.5628 55.9009 55.9499 56.0634 55.0285C56.2258 54.1071 55.5977 53.2262 54.6604 53.061C53.7232 52.8957 52.8317 53.5086 52.6692 54.43C52.5068 55.3514 53.1349 56.2323 54.0721 56.3975Z" fill="#225733"/>
<path d="M77.806 60.5831C78.7433 60.7484 79.6348 60.1354 79.7973 59.214C79.9597 58.2927 79.3316 57.4118 78.3943 57.2465C77.4571 57.0812 76.5656 57.6942 76.4031 58.6156C76.2406 59.5369 76.8687 60.4178 77.806 60.5831Z" fill="#225733"/>
<path d="M65.0303 63.6441C67.213 64.0289 69.2877 62.6025 69.6661 60.4568L61.7642 59.0635C61.3858 61.2092 62.8476 63.2592 65.0303 63.6441Z" fill="#225733"/>
</svg>
