<svg width="128" height="142" viewBox="0 0 128 142" fill="none" xmlns="http://www.w3.org/2000/svg">
<g filter="url(#filter0_d_2726_7224)">
<ellipse cx="63.748" cy="70.8773" rx="53.7109" ry="62.5" transform="rotate(10 63.748 70.8773)" fill="#225733"/>
<path d="M111.353 79.276C105.86 110.426 80.0473 131.766 53.8271 127.143C27.6069 122.52 10.6495 93.6375 16.142 62.4878C21.6345 31.338 47.4476 9.99758 73.6678 14.6209C99.888 19.2442 116.845 48.1262 111.353 79.276Z" stroke="#F2ECE0" stroke-width="0.976562"/>
<path d="M97.6813 48.8984L95.7089 48.0219L95.5025 43.9691C95.4764 43.4606 95.043 43.0691 94.5358 43.0951C94.0273 43.1212 93.6371 43.5545 93.6618 44.0618L93.8712 48.1775L87.7699 52.5512C87.3557 52.8473 87.2615 53.423 87.5576 53.8372C87.6895 54.0224 87.8775 54.1433 88.0825 54.1942C88.3359 54.258 88.6145 54.2136 88.8435 54.0495L94.9241 49.6893L96.9311 50.5818C96.9812 50.6033 97.0311 50.6212 97.0833 50.6339C97.5098 50.74 97.9632 50.5289 98.1478 50.1139C98.3541 49.6488 98.1452 49.1047 97.68 48.8972L97.6813 48.8984Z" fill="#CCD5AC"/>
<path d="M59.6775 98.1748C76.2758 101.102 92.104 90.0185 95.0307 73.4202C97.9575 56.8218 86.8745 40.9936 70.2761 38.0669C53.6778 35.1402 37.8496 46.2232 34.9228 62.8215C31.9961 79.4199 43.0791 95.2481 59.6775 98.1748Z" fill="#F2ECE0"/>
<mask id="mask0_2726_7224" style="mask-type:alpha" maskUnits="userSpaceOnUse" x="34" y="37" width="62" height="62">
<path d="M59.6775 98.1748C76.2758 101.102 92.104 90.0185 95.0307 73.4202C97.9575 56.8218 86.8745 40.9936 70.2761 38.0669C53.6778 35.1402 37.8496 46.2232 34.9228 62.8215C31.9961 79.4199 43.0791 95.2481 59.6775 98.1748Z" fill="#F2ECE0"/>
</mask>
<g mask="url(#mask0_2726_7224)">
<path d="M77.7888 8.57612L77.253 7.8109L75.5379 9.01167L74.337 7.29674L73.5718 7.83254L74.7727 9.54746L67.879 14.374L66.6781 12.6591L65.9129 13.1949L67.1138 14.9098L60.2201 19.7363L59.0192 18.0214L58.2539 18.5572L59.4549 20.2721L52.5612 25.0987L51.3603 23.3837L50.595 23.9195L51.7959 25.6344L44.9023 30.461L43.7014 28.7461L42.9361 29.2819L44.137 30.9968L37.2434 35.8233L36.0424 34.1084L35.2772 34.6442L36.4781 36.3591L29.5844 41.1856L28.3835 39.4707L27.6183 40.0065L28.8192 41.7214L21.9255 46.548L20.7246 44.8331L19.9593 45.3688L21.1603 47.0838L14.2666 51.9103L13.0657 50.1954L12.3004 50.7312L13.5013 52.4461L6.60768 57.2726L5.40677 55.5577L4.62504 56.1035L5.82596 57.8184L4.10883 59.0206L4.64469 59.7858L6.36182 58.5836L11.189 65.4768L9.47184 66.6791L10.0077 67.4443L11.7248 66.2421L16.552 73.1353L14.8348 74.3375L15.3707 75.1027L17.0878 73.9005L21.915 80.7937L20.1978 81.996L20.7337 82.7612L22.4508 81.5589L27.278 88.4522L25.5609 89.6544L26.0967 90.4196L27.8138 89.2174L32.641 96.1106L30.9239 97.3128L31.4597 98.0781L33.1768 96.8758L38.004 103.769L36.2869 104.971L36.8227 105.737L38.5398 104.534L43.367 111.428L41.6499 112.63L42.1857 113.395L43.9029 112.193L48.73 119.086L47.0129 120.288L47.5487 121.053L49.2659 119.851L54.093 126.744L52.3759 127.947L52.9117 128.712L54.6289 127.51L55.8312 129.227L56.5965 128.691L55.3941 126.974L62.2878 122.147L63.4902 123.864L64.2554 123.329L63.053 121.611L69.9467 116.785L71.1491 118.502L71.9143 117.966L70.712 116.249L77.6056 111.423L78.808 113.14L79.5733 112.604L78.3709 110.887L85.2645 106.06L86.4669 107.777L87.2322 107.242L86.0298 105.525L92.9235 100.698L94.1258 102.415L94.8911 101.879L93.6887 100.162L100.582 95.3356L101.785 97.0527L102.55 96.5169L101.348 94.7999L108.241 89.9733L109.444 91.6903L110.209 91.1545L109.007 89.4375L115.9 84.611L117.103 86.328L117.868 85.7922L116.665 84.0752L123.559 79.2487L124.762 80.9657L125.527 80.4299L124.324 78.7129L126.039 77.5121L125.504 76.7469L123.789 77.9476L118.961 71.0544L120.676 69.8536L120.141 69.0884L118.426 70.2892L113.598 63.396L115.313 62.1952L114.778 61.43L113.063 62.6308L108.235 55.7375L109.95 54.5368L109.415 53.7715L107.7 54.9723L102.872 48.0791L104.587 46.8783L104.052 46.1131L102.337 47.3139L97.5094 40.4206L99.2244 39.2199L98.6885 38.4547L96.9735 39.6554L92.1464 32.7622L93.8614 31.5614L93.3255 30.7962L91.6105 31.997L86.7834 25.1037L88.4984 23.903L87.9625 23.1378L86.2475 24.3385L81.4204 17.4453L83.1354 16.2445L82.5995 15.4793L80.8845 16.6801L76.0574 9.78684L77.7724 8.58608L77.7888 8.57612ZM67.6475 15.6765L72.4747 22.5697L65.581 27.3962L60.7539 20.503L67.6475 15.6765ZM58.6917 66.4675L53.8646 59.5743L60.7582 54.7477L65.5854 61.6409L58.6917 66.4675ZM66.123 62.4065L70.9502 69.2997L64.0565 74.1262L59.2293 67.233L66.123 62.4065ZM57.9264 67.0033L51.0328 71.8298L46.2056 64.9366L53.0993 60.11L57.9264 67.0033ZM58.4623 67.7685L63.2894 74.6617L56.3958 79.4883L51.5687 72.595L58.4623 67.7685ZM63.8268 75.429L68.6539 82.3223L61.7603 87.1488L56.9331 80.2556L63.8268 75.429ZM64.592 74.8932L71.4857 70.0667L76.3128 76.9599L69.4192 81.7865L64.592 74.8932ZM72.2531 69.5294L79.1467 64.7029L83.9739 71.5961L77.0802 76.4227L72.2531 69.5294ZM71.7172 68.7642L66.89 61.871L73.7837 57.0445L78.6109 63.9377L71.7172 68.7642ZM66.3527 61.1037L61.5256 54.2105L68.4192 49.3839L73.2464 56.2771L66.3527 61.1037ZM60.9883 53.4431L56.1611 46.5499L63.0548 41.7234L67.8819 48.6166L60.9883 53.4431ZM60.223 53.9789L53.3293 58.8055L48.5022 51.9122L55.3958 47.0857L60.223 53.9789ZM52.562 59.3427L45.6683 64.1693L40.8412 57.276L47.7348 52.4495L52.562 59.3427ZM44.901 64.7065L38.0073 69.5331L33.1802 62.6398L40.0738 57.8133L44.901 64.7065ZM45.4368 65.4717L50.264 72.365L43.3703 77.1915L38.5432 70.2983L45.4368 65.4717ZM50.8013 73.1323L55.6284 80.0255L48.7348 84.852L43.9076 77.9588L50.8013 73.1323ZM56.1658 80.7928L60.9929 87.6861L54.0993 92.5126L49.2721 85.6194L56.1658 80.7928ZM61.5302 88.4534L66.3574 95.3466L59.4637 100.173L54.6366 93.2799L61.5302 88.4534ZM62.2955 87.9176L69.1891 83.091L74.0163 89.9843L67.1226 94.8108L62.2955 87.9176ZM69.9565 82.5538L76.8502 77.7272L81.6773 84.6205L74.7837 89.447L69.9565 82.5538ZM77.6175 77.19L84.5112 72.3634L89.3383 79.2567L82.4447 84.0832L77.6175 77.19ZM85.2785 71.8262L92.1722 66.9996L96.9994 73.8929L90.1057 78.7194L85.2785 71.8262ZM84.7427 71.061L79.9155 64.1677L86.8092 59.3412L91.6363 66.2344L84.7427 71.061ZM79.3782 63.4004L74.5511 56.5072L81.4447 51.6807L86.2719 58.5739L79.3782 63.4004ZM74.0137 55.7399L69.1866 48.8467L76.0803 44.0201L80.9074 50.9133L74.0137 55.7399ZM68.6493 48.0793L63.8221 41.1861L70.7158 36.3596L75.5429 43.2528L68.6493 48.0793ZM63.2848 40.4188L58.4576 33.5256L65.3513 28.699L70.1784 35.5923L63.2848 40.4188ZM62.5195 40.9546L55.6259 45.7811L50.7987 38.8879L57.6924 34.0614L62.5195 40.9546ZM54.8585 46.3184L47.9649 51.1449L43.1377 44.2517L50.0314 39.4252L54.8585 46.3184ZM47.1975 51.6822L40.3038 56.5087L35.4767 49.6155L42.3704 44.789L47.1975 51.6822ZM39.5365 57.046L32.6428 61.8725L27.8157 54.9793L34.7093 50.1528L39.5365 57.046ZM31.8755 62.4098L24.9818 67.2363L20.1547 60.3431L27.0483 55.5166L31.8755 62.4098ZM32.4113 63.175L37.2385 70.0682L30.3448 74.8948L25.5177 68.0015L32.4113 63.175ZM37.7758 70.8355L42.6029 77.7288L35.7093 82.5553L30.8821 75.6621L37.7758 70.8355ZM43.1403 78.4961L47.9674 85.3893L41.0738 90.2158L36.2466 83.3226L43.1403 78.4961ZM48.5047 86.1566L53.3319 93.0499L46.4382 97.8764L41.6111 90.9832L48.5047 86.1566ZM53.8692 93.8172L58.6964 100.71L51.8027 105.537L46.9756 98.6437L53.8692 93.8172ZM59.2337 101.478L64.0608 108.371L57.1672 113.197L52.34 106.304L59.2337 101.478ZM59.999 100.942L66.8926 96.1154L71.7198 103.009L64.8261 107.835L59.999 100.942ZM67.66 95.5781L74.5536 90.7516L79.3808 97.6448L72.4871 102.471L67.66 95.5781ZM75.321 90.2143L82.2146 85.3878L87.0418 92.281L80.1481 97.1076L75.321 90.2143ZM82.982 84.8505L89.8757 80.024L94.7028 86.9172L87.8091 91.7438L82.982 84.8505ZM90.643 79.4867L97.5367 74.6602L102.364 81.5534L95.4702 86.38L90.643 79.4867ZM98.304 74.1229L105.198 69.2964L110.025 76.1896L103.131 81.0162L98.304 74.1229ZM97.7682 73.3577L92.941 66.4645L99.8347 61.6379L104.662 68.5312L97.7682 73.3577ZM92.4037 65.6972L87.5766 58.8039L94.4702 53.9774L99.2974 60.8706L92.4037 65.6972ZM87.0392 58.0366L82.2121 51.1434L89.1057 46.3169L93.9329 53.2101L87.0392 58.0366ZM81.6748 50.3761L76.8476 43.4829L83.7413 38.6563L88.5684 45.5495L81.6748 50.3761ZM76.3103 42.7155L71.4831 35.8223L78.3768 30.9958L83.2039 37.889L76.3103 42.7155ZM70.9458 35.055L66.1187 28.1618L73.0123 23.3352L77.8395 30.2285L70.9458 35.055ZM59.9889 21.037L64.8161 27.9303L57.9224 32.7568L53.0953 25.8636L59.9889 21.037ZM52.3279 26.4008L57.1551 33.2941L50.2614 38.1206L45.4343 31.2274L52.3279 26.4008ZM44.6669 31.7646L49.494 38.6578L42.6004 43.4844L37.7732 36.5912L44.6669 31.7646ZM37.0059 37.1284L41.833 44.0216L34.9394 48.8482L30.1122 41.955L37.0059 37.1284ZM29.3449 42.4922L34.172 49.3854L27.2784 54.212L22.4512 47.3187L29.3449 42.4922ZM21.6839 47.856L26.511 54.7492L19.6173 59.5758L14.7902 52.6825L21.6839 47.856ZM7.12886 58.0481L14.0225 53.2216L18.8497 60.1148L11.956 64.9414L7.12886 58.0481ZM12.4933 65.7087L19.387 60.8821L24.2141 67.7754L17.3205 72.6019L12.4933 65.7087ZM17.8578 73.3692L24.7515 68.5427L29.5786 75.4359L22.685 80.2624L17.8578 73.3692ZM23.2223 81.0298L30.1159 76.2032L34.9431 83.0965L28.0494 87.923L23.2223 81.0298ZM28.5868 88.6903L35.4804 83.8638L40.3076 90.757L33.4139 95.5835L28.5868 88.6903ZM33.9512 96.3508L40.8449 91.5243L45.672 98.4175L38.7784 103.244L33.9512 96.3508ZM39.3157 104.011L46.2094 99.1848L51.0365 106.078L44.1428 110.905L39.3157 104.011ZM44.6802 111.672L51.5738 106.845L56.401 113.739L49.5073 118.565L44.6802 111.672ZM54.8718 126.226L50.0446 119.332L56.9383 114.506L61.7654 121.399L54.8718 126.226ZM62.5328 120.862L57.7057 113.969L64.5993 109.142L69.4265 116.035L62.5328 120.862ZM70.1938 115.498L65.3667 108.605L72.2603 103.778L77.0875 110.672L70.1938 115.498ZM77.8548 110.134L73.0277 103.241L79.9213 98.4145L84.7485 105.308L77.8548 110.134ZM85.5159 104.771L80.6887 97.8773L87.5824 93.0507L92.4095 99.944L85.5159 104.771ZM93.1769 99.4067L88.3497 92.5135L95.2434 87.6869L100.071 94.5802L93.1769 99.4067ZM100.838 94.0429L96.0107 87.1497L102.904 82.3231L107.732 89.2164L100.838 94.0429ZM108.499 88.6791L103.672 81.7859L110.565 76.9593L115.393 83.8526L108.499 88.6791ZM123.054 78.4888L116.16 83.3153L111.333 76.4221L118.226 71.5956L123.054 78.4888ZM117.689 70.8282L110.795 75.6548L105.968 68.7615L112.862 63.935L117.689 70.8282ZM112.325 63.1677L105.431 67.9942L100.604 61.101L107.497 56.2745L112.325 63.1677ZM106.96 55.5072L100.066 60.3337L95.2394 53.4405L102.133 48.6139L106.96 55.5072ZM101.596 47.8466L94.702 52.6731L89.8749 45.7799L96.7685 40.9534L101.596 47.8466ZM96.2312 40.1861L89.3375 45.0126L84.5104 38.1194L91.4041 33.2928L96.2312 40.1861ZM90.8667 32.5255L83.9731 37.3521L79.1459 30.4588L86.0396 25.6323L90.8667 32.5255ZM85.5023 24.865L78.6086 29.6915L73.7815 22.7983L80.6751 17.9717L85.5023 24.865ZM80.1378 17.2044L73.2441 22.031L68.417 15.1377L75.3106 10.3112L80.1378 17.2044Z" fill="#CCD5AC"/>
</g>
<path d="M52.556 58.4374C53.6613 58.6323 54.7153 57.8943 54.9102 56.7891C55.105 55.6838 54.367 54.6298 53.2618 54.4349C52.1565 54.24 51.1025 54.978 50.9076 56.0833C50.7127 57.1886 51.4507 58.2426 52.556 58.4374Z" fill="#225733"/>
<path d="M80.5436 63.3701C81.6488 63.565 82.7028 62.8269 82.8977 61.7217C83.0926 60.6164 82.3546 59.5624 81.2493 59.3675C80.144 59.1726 79.0901 59.9106 78.8952 61.0159C78.7003 62.1212 79.4383 63.1752 80.5436 63.3701Z" fill="#225733"/>
<path d="M65.4604 67.0822C68.0344 67.5361 70.4872 65.8186 70.9411 63.2446L61.6228 61.6016C61.1689 64.1755 62.8865 66.6284 65.4604 67.0822Z" fill="#225733"/>
<path d="M28.6343 97.8448L26.5513 95.179L28.8611 93.3748C29.3209 93.7649 29.8658 93.8424 30.9236 93.0146L31.7419 92.3758C32.4027 91.8598 32.4396 91.8303 31.8318 91.0529L34.1274 89.259L37.3029 93.3223L35.5108 94.7212C34.9707 95.1437 34.5675 95.6694 34.3589 96.2953L33.9968 97.368L35.0702 97.2804C35.5407 97.2388 36.1754 97.1093 36.9343 96.5172L38.7142 95.1269L41.8516 99.1429L39.5909 100.909C38.9831 100.132 38.9568 100.171 38.2959 100.689L36.696 101.939C36.0228 102.466 35.9775 102.481 36.5834 103.259L34.2737 105.063L30.8557 100.689L33.1655 98.8844C34.007 99.9606 34.4697 100.06 34.9402 99.693L37.2009 97.9269L31.1746 98.5155L30.707 97.918L32.9987 92.5483L31.4827 93.7326C30.425 94.5584 30.2673 95.1254 30.9422 96.0405L28.6324 97.8446L28.6343 97.8448Z" fill="#F2ECE0"/>
<path d="M38.7014 109.662L40.3437 107.236C41.2609 107.856 41.2992 107.826 41.7784 107.118L42.8814 105.488C43.3607 104.78 43.3727 104.734 42.4556 104.113L44.0881 101.699L51.4001 106.646L49.0233 110.161L48.395 109.736C48.8101 108.69 48.5148 108.233 45.7712 106.358L44.993 107.509C46.0246 108.096 46.4039 108.186 46.9115 108.273L47.4273 108.622L46.4687 110.038L45.9529 109.689C45.7341 109.282 45.5212 108.974 44.5296 108.192L43.6651 109.47C46.6014 111.438 47.0951 111.33 47.8874 110.594L48.5157 111.018L46.061 114.646L38.6988 109.665L38.7014 109.662Z" fill="#F2ECE0"/>
<path d="M59.0214 111.533C57.5312 111.25 57.3432 111.262 57.1854 112.102L56.6515 114.921L57.2175 115.029C59.4989 115.46 59.9055 115.352 60.1999 113.792L60.2691 113.432L61.0433 113.578L60.0996 118.557L51.8576 116.995L52.4021 114.116C53.4895 114.321 53.5143 114.279 53.6718 113.441L54.0381 111.506C54.1977 110.667 54.1907 110.619 53.1034 110.414L53.6452 107.549L59.563 108.67L59.0211 111.534L59.0214 111.533Z" fill="#F2ECE0"/>
<path d="M71.5809 117.456C67.7873 118.417 65.8814 117.009 65.0681 113.799C64.2549 110.59 65.3216 108.682 69.1152 107.722C72.9088 106.761 74.8022 107.998 75.5973 111.135C76.3924 114.272 75.3745 116.496 71.5806 117.458L71.5809 117.456ZM69.8054 110.443C68.5259 110.767 68.0735 111.575 68.4186 112.936C68.7637 114.296 69.5904 114.969 70.8699 114.644C72.1636 114.316 72.5685 113.317 72.2267 111.97C71.8868 110.624 71.0991 110.115 69.8054 110.443Z" fill="#F2ECE0"/>
<path d="M85.0699 111.225L81.8484 113.284L80.2707 110.815C80.8094 110.363 80.6113 109.546 79.8967 108.428L79.5343 107.861C79.0829 107.153 79.0713 107.107 78.2399 107.638L76.6709 105.182L81.5531 102.062L82.7784 103.978C83.2958 104.788 83.5818 105.149 84.8937 105.343L87.7319 105.756L87.6746 105.666C86.8203 104.328 85.6545 103.208 84.2095 103.823L82.6405 101.367L85.8621 99.3081L87.4224 101.752C86.9463 102.274 86.9133 102.784 87.6848 103.994L90.2075 107.943L86.1423 110.542L84.7198 108.317C84.2024 107.507 83.7207 107.343 82.6517 107.193L79.9386 106.808C80.7246 108.008 81.7193 109.201 83.49 108.758L85.0676 111.226L85.0699 111.225Z" fill="#F2ECE0"/>
<path d="M47.9094 26.8485L45.024 25.2171L45.6698 24.879L47.9192 26.1797L48.1204 23.5915L48.7591 23.2564L48.4649 26.5442L49.3151 28.1627L48.7548 28.4576L47.9112 26.851L47.9094 26.8485Z" fill="#F2ECE0"/>
<path d="M52.218 26.635C51.9348 26.5851 51.6841 26.4609 51.4661 26.2623C51.248 26.0638 51.0763 25.8108 50.956 25.4997C50.8352 25.1907 50.7891 24.8884 50.8149 24.5945C50.8429 24.3009 50.9431 24.0396 51.1175 23.8108C51.292 23.582 51.5345 23.4085 51.8435 23.2877C52.1524 23.167 52.4483 23.1327 52.7315 23.1826C53.0147 23.2325 53.2654 23.3568 53.4834 23.5553C53.7015 23.7538 53.8732 24.0068 53.9935 24.3179C54.1139 24.629 54.1605 24.9292 54.1346 25.2231C54.1087 25.517 54.0065 25.778 53.832 26.0068C53.6576 26.2356 53.4171 26.4095 53.106 26.5299C52.795 26.6502 52.5012 26.685 52.218 26.635ZM52.0965 25.9993C52.3354 26.1409 52.6077 26.1543 52.9121 26.035C53.2186 25.916 53.4106 25.7227 53.4898 25.4577C53.5689 25.1926 53.5427 24.8873 53.4083 24.5457C53.276 24.2044 53.0895 23.9617 52.8506 23.82C52.6117 23.6784 52.3393 23.665 52.0349 23.7844C51.7305 23.9037 51.5365 24.0966 51.4573 24.3617C51.3777 24.6289 51.4043 24.932 51.5387 25.2737C51.6711 25.615 51.8575 25.8577 52.0965 25.9993Z" fill="#F2ECE0"/>
<path d="M56.1398 24.7129C56.2926 24.8155 56.4839 24.8341 56.7153 24.7733C56.8266 24.7431 56.9406 24.6854 57.0577 24.5979C57.1748 24.5104 57.2667 24.3817 57.3296 24.2089C57.3946 24.0365 57.3914 23.8218 57.3203 23.5627L56.8377 21.7732L57.417 21.6157L58.283 24.8248L57.7265 24.9754L57.6027 24.5123C57.5315 24.7074 57.4238 24.8766 57.2772 25.0216C57.1305 25.1666 56.9439 25.2678 56.7171 25.3273C56.4626 25.3971 56.2353 25.3981 56.0328 25.3321C55.8303 25.2661 55.666 25.155 55.5362 24.9958C55.4042 24.8363 55.3114 24.6512 55.2539 24.4377L54.6914 22.3529L55.2707 22.1955L55.819 24.2259C55.8793 24.4485 55.9849 24.6099 56.1398 24.7129Z" fill="#F2ECE0"/>
<path d="M59.3843 19.9402L59.1532 21.7294L58.6996 21.8116L58.7543 20.0541L59.3822 19.9399L59.3843 19.9402Z" fill="#F2ECE0"/>
<path d="M60.9972 20.9783L61.5686 20.9147L61.6323 21.4861C61.7259 21.2495 61.8543 21.0732 62.0206 20.9641C62.1852 20.8525 62.3809 20.7854 62.606 20.7602L62.8598 20.7314L62.9235 21.3028L62.65 21.3325C62.3412 21.3667 62.1059 21.4744 61.947 21.6519C61.7877 21.8315 61.7276 22.1107 61.7706 22.4925L61.9646 24.2138L61.3665 24.2814L60.9947 20.98L60.9972 20.9783Z" fill="#F2ECE0"/>
<path d="M64.7921 23.8374C64.5518 23.6912 64.3649 23.4874 64.2319 23.2239C64.0988 22.9603 64.0298 22.6648 64.0259 22.331C64.0217 21.9993 64.083 21.7008 64.2102 21.4334C64.337 21.1681 64.5186 20.96 64.7554 20.8071C64.9918 20.6563 65.2674 20.5773 65.5837 20.5746C65.8978 20.5716 66.1752 20.6422 66.4134 20.788C66.6516 20.9338 66.8381 21.1397 66.9708 21.4054C67.1034 21.671 67.1717 21.9708 67.1752 22.3066L67.1783 22.4975L64.6597 22.5271C64.6922 22.8335 64.7918 23.0782 64.9589 23.2591C65.126 23.4399 65.3437 23.5302 65.6169 23.5265C65.825 23.5242 66.0068 23.4741 66.1608 23.3736C66.3148 23.2732 66.4303 23.1335 66.5051 22.9542L67.1184 22.9477C67.0162 23.2822 66.833 23.5484 66.5688 23.7462C66.3043 23.9462 65.9903 24.0465 65.6239 24.0512C65.3076 24.0538 65.0302 23.9832 64.79 23.8371L64.7921 23.8374ZM66.5411 22.0023C66.4912 21.721 66.385 21.5011 66.2233 21.3385C66.0617 21.1759 65.8505 21.0975 65.5907 21.0993C65.3308 21.1011 65.1209 21.1874 64.96 21.3515C64.8009 21.5181 64.7011 21.7406 64.662 22.0235L66.5411 22.0023Z" fill="#F2ECE0"/>
<path d="M70.804 24.0392C70.5141 23.7696 70.3189 23.4411 70.2203 23.056C70.1195 22.6705 70.1115 22.2624 70.1919 21.831C70.2723 21.3996 70.4274 21.0225 70.6595 20.7C70.8916 20.3776 71.1908 20.1405 71.5585 19.9934C71.9265 19.8441 72.3429 19.8137 72.8078 19.9C73.2728 19.9863 73.65 20.1653 73.9378 20.4345C74.2256 20.7037 74.4186 21.0319 74.5194 21.4174C74.618 21.8025 74.6282 22.211 74.5478 22.6424C74.4674 23.0738 74.3122 23.4509 74.0802 23.7733C73.8481 24.0958 73.551 24.3332 73.1854 24.4808C72.8195 24.6304 72.4052 24.6611 71.9403 24.5748C71.4753 24.4885 71.0981 24.3095 70.8082 24.04L70.804 24.0392ZM70.8439 22.8804C70.906 23.1661 71.0361 23.4096 71.2391 23.6076C71.4421 23.8057 71.7092 23.9349 72.0441 23.9983C72.3793 24.0596 72.6755 24.0361 72.9312 23.9233C73.1889 23.8108 73.3979 23.6314 73.5578 23.3871C73.7177 23.1427 73.8293 22.8531 73.8899 22.522C73.9504 22.1909 73.9509 21.8817 73.8887 21.5961C73.8266 21.3104 73.6965 21.0668 73.4977 20.8696C73.2989 20.6723 73.0298 20.5426 72.6949 20.4793C72.36 20.4159 72.0635 20.4415 71.8036 20.5535C71.5437 20.6656 71.3347 20.8451 71.1749 21.0894C71.015 21.3338 70.9033 21.6234 70.8428 21.9544C70.7822 22.2855 70.7818 22.5948 70.8439 22.8804Z" fill="#F2ECE0"/>
<path d="M77.8055 23.2809C77.7336 23.1124 77.582 22.9905 77.3551 22.9159C77.2465 22.8816 77.1171 22.8675 76.9727 22.8766C76.8262 22.8854 76.6796 22.9439 76.5329 23.0521C76.3862 23.1604 76.2697 23.3431 76.1878 23.5991L75.6151 25.3626L75.0442 25.1776L76.0688 22.0164L76.6153 22.1928L76.4677 22.6491C76.6346 22.525 76.8181 22.4405 77.0178 22.4C77.2195 22.3599 77.4309 22.3756 77.6537 22.4494C77.9054 22.5306 78.0979 22.6532 78.2291 22.817C78.3624 22.981 78.4402 23.1656 78.4628 23.3686C78.485 23.5737 78.4634 23.7819 78.396 23.9928L77.7288 26.0468L77.158 25.8617L77.8067 23.8629C77.8778 23.644 77.8775 23.4493 77.8035 23.2805L77.8055 23.2809Z" fill="#F2ECE0"/>
<path d="M79.3945 26.5769C79.2391 26.3418 79.1582 26.0767 79.1515 25.7835C79.1427 25.4899 79.2086 25.1901 79.348 24.8902C79.4877 24.5882 79.6693 24.3434 79.8987 24.1589C80.126 23.974 80.3813 23.8633 80.6604 23.826C80.9391 23.7908 81.2227 23.8386 81.509 23.9691C81.7953 24.0996 82.0159 24.2835 82.1671 24.5178C82.3204 24.7525 82.3992 25.0172 82.4055 25.3125C82.4118 25.6078 82.3456 25.9098 82.2051 26.2159L82.1247 26.3899L79.8375 25.3399C79.7364 25.6314 79.7224 25.895 79.7958 26.1285C79.8689 26.3642 80.0287 26.5373 80.2766 26.6524C80.4667 26.74 80.6516 26.7704 80.8354 26.7466C81.017 26.7224 81.1799 26.6451 81.3261 26.5152L81.8844 26.7715C81.6487 27.0284 81.3691 27.1911 81.046 27.2574C80.7228 27.3237 80.393 27.2807 80.0606 27.1291C79.7747 26.9965 79.5537 26.8148 79.3983 26.5797L79.3945 26.5769ZM81.7613 25.6661C81.8357 25.3916 81.8359 25.145 81.7591 24.9303C81.6823 24.7156 81.5252 24.5517 81.2891 24.443C81.0531 24.3343 80.8263 24.3203 80.6105 24.4034C80.395 24.4843 80.209 24.644 80.0523 24.8825L81.7592 25.6658L81.7613 25.6661Z" fill="#F2ECE0"/>
<path d="M86.4929 25.2952L87.0315 25.6389L84.5587 29.518L84.0201 29.1743L86.4929 25.2952Z" fill="#F2ECE0"/>
<path d="M88.847 29.3236C88.834 29.1396 88.7329 28.9768 88.5424 28.8308C88.4509 28.7606 88.3352 28.7056 88.193 28.6653C88.053 28.6255 87.8939 28.6321 87.7197 28.6879C87.5458 28.7416 87.3772 28.8762 87.2141 29.0897L86.0929 30.5662L85.614 30.2027L87.6231 27.5547L88.0811 27.9016L87.7911 28.283C87.9885 28.2183 88.1904 28.202 88.3929 28.2312C88.5954 28.2604 88.7903 28.3446 88.9774 28.4857C89.1871 28.646 89.3286 28.8245 89.3996 29.023C89.4706 29.2216 89.4831 29.4206 89.4388 29.6226C89.3925 29.8242 89.3031 30.0118 89.1701 30.1895L87.8652 31.9104L87.3864 31.547L88.6573 29.872C88.7956 29.6887 88.8603 29.5055 88.8473 29.3215L88.847 29.3236Z" fill="#F2ECE0"/>
<path d="M93.0425 35.161L91.5961 33.6363L90.3583 34.1426L89.8968 33.6568L94.5096 31.8335L94.9986 32.348L92.9411 36.8649L92.474 36.3737L93.0443 35.1635L93.0425 35.161ZM93.3058 34.6126L94.2965 32.527L92.1587 33.4024L93.3058 34.6126Z" fill="#F2ECE0"/>
<path fillRule="evenodd" clipRule="evenodd" d="M103.997 78.5345L99.9569 77.827L100.156 76.6994L104.203 77.4081L102.821 75.434L103.76 74.7765L106.259 78.3458L102.681 80.8509L102.026 79.9148L103.997 78.5345Z" fill="#CCD4AC"/>
<path fillRule="evenodd" clipRule="evenodd" d="M24.9117 63.3503L28.9518 64.0577L28.753 65.1853L24.7057 64.4767L26.088 66.4508L25.149 67.1083L22.6498 63.539L26.2275 61.0338L26.883 61.97L24.9117 63.3503Z" fill="#CCD4AC"/>
</g>
<defs>
<filter id="filter0_d_2726_7224" x="7.74048" y="6.61523" width="112.015" height="128.523" filterUnits="userSpaceOnUse" color-interpolation-filters="sRGB">
<feFlood flood-opacity="0" result="BackgroundImageFix"/>
<feColorMatrix in="SourceAlpha" type="matrix" values="0 0 0 0 0 0 0 0 0 0 0 0 0 0 0 0 0 0 127 0" result="hardAlpha"/>
<feOffset/>
<feGaussianBlur stdDeviation="1"/>
<feComposite in2="hardAlpha" operator="out"/>
<feColorMatrix type="matrix" values="0 0 0 0 0 0 0 0 0 0 0 0 0 0 0 0 0 0 0.4 0"/>
<feBlend mode="normal" in2="BackgroundImageFix" result="effect1_dropShadow_2726_7224"/>
<feBlend mode="normal" in="SourceGraphic" in2="effect1_dropShadow_2726_7224" result="shape"/>
</filter>
</defs>
</svg>
