<svg width="138" height="104" viewBox="0 0 138 104" fill="none" xmlns="http://www.w3.org/2000/svg">
<g filter="url(#filter0_d_2726_7177)">
<g filter="url(#filter1_d_2726_7177)">
<ellipse cx="68.8" cy="51.9668" rx="62.5" ry="41.748" transform="rotate(-10 68.8 51.9668)" fill="#DFD7FD"/>
</g>
<path d="M124.906 42.5701C126.635 52.3754 121.999 62.4153 112.963 70.7281C103.932 79.0364 90.5524 85.5657 74.9614 88.3148C59.3704 91.0639 44.5648 89.5045 33.2364 84.7861C21.9021 80.0651 14.1126 72.216 12.3837 62.4108C10.6547 52.6056 15.2899 42.5657 24.3261 34.2529C33.3575 25.9445 46.7369 19.4153 62.3279 16.6662C77.9189 13.9171 92.7245 15.4765 104.053 20.1949C115.387 24.9158 123.177 32.7649 124.906 42.5701Z" stroke="#820065" stroke-width="0.976562"/>
<path d="M67.0535 84.2046C76.6084 83.7849 84.0139 75.6989 83.5942 66.1441C83.1745 56.5892 75.0886 49.1837 65.5337 49.6034C55.9789 50.0231 48.5734 58.109 48.993 67.6639C49.4127 77.2187 57.4987 84.6242 67.0535 84.2046Z" fill="#FA9600"/>
<path d="M67.2819 80.6271C75.3108 80.2744 81.5337 73.4799 81.181 65.451C80.8284 57.4221 74.0338 51.1993 66.0049 51.5519C57.976 51.9046 51.7532 58.6991 52.1058 66.728C52.4585 74.7569 59.253 80.9797 67.2819 80.6271Z" fill="#FFBF1A"/>
<path d="M47.179 58.1085C50.7477 60.1125 52.6817 57.9885 54.8865 56.8561C56.2304 56.1659 57.4718 56.5728 58.163 56.9966C58.4103 57.1482 58.6544 57.0432 58.5731 56.7117C57.2092 51.1539 49.921 52.7658 46.9516 57.1724C46.737 57.4908 46.8443 57.9205 47.179 58.1085Z" fill="#820065"/>
<path d="M59.0434 57.0587C59.5639 56.8519 59.8177 56.2593 59.6007 55.743C56.8183 49.1247 53.9425 45.9315 52.8565 46.0164C51.7202 46.1053 50.6724 47.3387 50.7618 48.483C50.8477 49.5811 54.3276 50.2812 57.7504 56.5767C58.0011 57.0378 58.5557 57.2525 59.0434 57.0587Z" fill="#820065"/>
<path d="M73.6256 63.6275C72.9027 63.6735 72.2795 63.1248 72.2335 62.402C72.1876 61.6792 72.7363 61.056 73.4591 61.01C74.1819 60.964 74.8051 61.5127 74.8511 62.2355C74.897 62.9583 74.3484 63.5816 73.6256 63.6275Z" fill="#820065"/>
<path d="M60.5379 64.4605C59.8151 64.5065 59.1919 63.9578 59.1459 63.235C59.0999 62.5122 59.6486 61.889 60.3714 61.843C61.0942 61.797 61.7174 62.3457 61.7634 63.0685C61.8094 63.7913 61.2607 64.4146 60.5379 64.4605Z" fill="#820065"/>
<path d="M67.1644 65.352C66.4416 65.3979 65.8183 64.8493 65.7724 64.1265L68.3899 63.96C68.4359 64.6828 67.8872 65.306 67.1644 65.352Z" fill="#820065"/>
<path d="M98.9193 55.4985C91.9119 58.257 83.9951 54.8126 81.2366 47.8052C78.4782 40.7979 81.9226 32.8811 88.93 30.1226C95.9373 27.3641 103.854 30.8085 106.613 37.8159C109.371 44.8233 105.927 52.7401 98.9193 55.4985Z" fill="#FA9600"/>
<path d="M97.3588 52.5857C91.6335 54.8395 85.1651 52.0252 82.9113 46.2999C80.6575 40.5745 83.4717 34.1062 89.1971 31.8524C94.9224 29.5986 101.391 32.4128 103.645 38.1381C105.898 43.8635 103.084 50.3319 97.3588 52.5857Z" fill="#FFBF1A"/>
<path d="M98.1826 38.9674C97.6208 39.2464 96.9391 39.0172 96.6601 38.4555C96.381 37.8937 96.6102 37.2121 97.172 36.933C97.7338 36.654 98.4154 36.8831 98.6945 37.4449C98.9735 38.0067 98.7443 38.6883 98.1826 38.9674Z" fill="#820065"/>
<path d="M88.0109 44.0191C87.4491 44.2982 86.7675 44.069 86.4885 43.5072C86.2094 42.9454 86.4386 42.2638 87.0004 41.9848C87.5622 41.7057 88.2438 41.9349 88.5228 42.4967C88.8019 43.0585 88.5727 43.7401 88.0109 44.0191Z" fill="#820065"/>
<path d="M93.6021 42.5117C93.0403 42.7908 92.3587 42.5616 92.0796 41.9998L94.114 40.9893C94.3931 41.551 94.1639 42.2327 93.6021 42.5117Z" fill="#820065"/>
<path d="M94.2332 32.4148C93.8056 32.4957 93.3924 32.2126 93.32 31.7835C92.3909 26.2834 92.9486 22.9915 93.6964 22.5952C94.4789 22.1806 95.6797 22.5537 96.0973 23.3417C96.498 24.0979 94.5063 26.0055 94.8808 31.5604C94.9083 31.9672 94.6338 32.3389 94.2332 32.4148Z" fill="#820065"/>
<path d="M102.596 28.855C100.9 31.2964 98.8884 30.561 97.0344 30.5645C95.8843 30.5666 95.1864 31.2753 94.8666 31.8033C94.7522 31.9922 94.5504 32.0064 94.4898 31.7537C93.486 27.574 98.8201 26.103 102.37 27.9321C102.711 28.108 102.815 28.5397 102.596 28.855Z" fill="#820065"/>
<path d="M32.9701 75.0713L34.0938 73.3209L34.087 69.5218L34.7897 69.9729L34.766 72.9517L37.4584 71.6862L38.1549 72.1333L34.7119 73.7003L33.5802 75.4631L32.9701 75.0713Z" fill="#820065"/>
<path d="M37.6458 77.7571C36.5872 77.2719 36.3019 76.2066 36.778 75.1679C37.254 74.1292 38.2471 73.6498 39.3058 74.135C40.3645 74.6202 40.6497 75.6855 40.1737 76.7242C39.6977 77.7629 38.7045 78.2423 37.6458 77.7571ZM37.4305 75.467C37.0948 76.1994 37.1933 76.881 37.8991 77.2045C38.6049 77.5279 39.1855 77.1575 39.5212 76.4251C39.8568 75.6927 39.7583 75.0111 39.0525 74.6876C38.3468 74.3642 37.7661 74.7346 37.4305 75.467Z" fill="#820065"/>
<path d="M41.4448 77.7261C41.283 78.2049 41.4086 78.6339 41.9499 78.8168C42.2205 78.9082 42.9751 79.0086 43.2987 78.051L43.9786 76.0388L44.6308 76.2591L43.4117 79.8673L42.7872 79.6563L42.963 79.1359C42.6053 79.3939 42.1346 79.5286 41.6003 79.3481C40.7052 79.0456 40.537 78.2621 40.7714 77.5682L41.5639 75.2229L42.2161 75.4432L41.4448 77.7261Z" fill="#820065"/>
<path d="M100.007 71.1311C98.6368 72.0594 97.225 71.5029 96.3995 70.284C95.5739 69.0651 95.5811 67.5476 96.9759 66.6029C98.0856 65.8513 99.2307 66.04 99.9861 66.8287L99.3675 67.2477C98.8641 66.7394 98.0895 66.6537 97.3496 67.1548C96.3369 67.8407 96.4017 68.929 97.0301 69.8569C97.6585 70.7847 98.6451 71.2488 99.6579 70.5629C100.489 70.0002 100.572 69.1829 100.2 68.3467L98.6175 69.4187L98.2602 68.8911L100.449 67.4084L101.99 69.6825L101.492 70.0193L100.967 69.243C101.047 69.9494 100.79 70.6013 100.007 71.1311Z" fill="#820065"/>
<path d="M99.6908 64.76L100.224 64.3249L102.942 67.6566C103.113 67.8666 103.278 67.8833 103.488 67.7121L103.885 67.388L104.255 67.8421L103.75 68.2541C103.239 68.6707 102.857 68.6423 102.459 68.1542L99.6908 64.76Z" fill="#820065"/>
<path d="M106.809 65.5165L106.486 65.1773C106.535 65.7069 106.319 66.1059 105.99 66.4193C105.375 67.0057 104.716 67.0782 104.215 66.5535C103.75 66.0659 103.878 65.468 104.403 64.7344L105.1 63.7666L104.912 63.5705C104.619 63.2631 104.296 63.3383 103.925 63.6922C103.602 64.0006 103.369 64.425 103.717 64.8321L103.219 65.3073C102.608 64.6246 102.917 63.8445 103.516 63.2732C104.247 62.5756 104.879 62.5595 105.35 63.0524L107.276 65.0717L106.809 65.5165ZM104.714 66.0472C104.952 66.2963 105.267 66.3089 105.644 65.95C106.036 65.5759 106.242 64.9643 105.752 64.4503L105.479 64.1641L104.857 65.0508C104.578 65.4586 104.431 65.7504 104.714 66.0472Z" fill="#820065"/>
<path d="M110.371 61.4895L109.951 61.9978L109.505 61.6294C109.659 62.0985 109.576 62.5903 109.207 63.0365C108.484 63.9118 107.433 63.8509 106.552 63.1234C105.671 62.3958 105.412 61.3748 106.135 60.4995C106.494 60.0646 106.936 59.8976 107.408 59.9358L105.866 58.6626L106.304 58.1317L110.371 61.4895ZM107.009 62.5699C107.63 63.0829 108.314 63.1633 108.808 62.5647C109.298 61.9717 109.09 61.3152 108.469 60.8022C107.847 60.2892 107.163 60.2088 106.674 60.8018C106.179 61.4005 106.388 62.0569 107.009 62.5699Z" fill="#820065"/>
<path d="M110.504 58.6677C109.795 58.255 109.664 57.9414 109.537 57.1554C109.475 56.7379 109.418 56.3995 109.013 56.1637C108.645 55.95 108.212 56.1127 107.906 56.6381C107.6 57.1635 107.68 57.6674 108.306 58.0322L107.945 58.6526C106.964 58.0814 106.81 57.2544 107.355 56.3175C107.897 55.3871 108.692 55.1127 109.376 55.5107C109.901 55.8165 110.026 56.1691 110.128 56.8386C110.228 57.5407 110.299 57.7684 110.843 58.0853L110.504 58.6677ZM111.727 59.4642L110.891 58.9778L111.3 58.2752L112.136 58.7616L111.727 59.4642Z" fill="#820065"/>
<path d="M18.617 56.6193C18.9874 53.8893 21.059 52.0226 23.9313 52.4123C26.8037 52.802 28.303 55.1532 27.9326 57.8832C27.5728 60.5356 25.5011 62.4023 22.6288 62.0126C19.7565 61.6229 18.2448 59.3622 18.617 56.6193ZM26.7956 57.4259C26.849 56.3526 25.4495 55.5962 23.3548 55.4964C21.273 55.3985 19.8056 56.0163 19.7522 57.0896C19.6988 58.1628 21.0983 58.9193 23.1931 59.019C25.2878 59.1187 26.7552 58.5009 26.7956 57.4259Z" fill="#820065"/>
<path d="M34.7604 44.6235C35.1782 44.9191 35.0978 45.6463 34.3677 46.4822C33.8265 47.1018 33.2987 47.5075 32.4682 47.2675C31.6008 47.03 31.0135 46.829 29.6939 46.3352C29.6681 46.3647 29.6423 46.3942 29.608 46.4335L29.1441 46.9645L30.452 48.107C30.9339 48.5278 31.3354 48.3064 31.6697 48.5985C31.6894 48.6156 31.6795 48.607 31.6894 48.6156C32.0532 48.9334 31.619 49.629 30.992 50.3469C30.3649 51.0648 29.7254 51.5984 29.3616 51.2806C29.3517 51.272 29.3616 51.2806 29.3419 51.2634C29.0076 50.9714 29.1816 50.5339 28.6998 50.1131L24.6187 46.5484C24.1369 46.1275 23.7268 46.3588 23.3925 46.0667C23.3826 46.0581 23.3925 46.0667 23.3826 46.0581C23.0188 45.7403 23.28 45.223 23.7524 44.6821L25.4188 42.7743C26.9649 41.0043 28.7909 40.5015 30.1382 41.6783C30.9052 42.3483 31.132 43.2398 30.8835 44.219C33.6627 45.0863 34.1864 44.2088 34.7604 44.6235ZM28.6078 46.0106C29.2348 45.2927 29.0216 44.4651 28.2742 43.8122C27.4875 43.1251 26.5994 42.9907 26.1527 43.5021C25.8692 43.8266 25.8891 44.1214 26.371 44.5423L28.3673 46.286L28.6078 46.0106Z" fill="#820065"/>
<path d="M43.1424 37.6267C43.7121 38.0389 44.3203 37.9015 44.6273 38.3871C44.6413 38.4092 44.6273 38.3871 44.6413 38.4092C44.9064 38.8286 44.5046 39.268 43.5113 39.896C42.7167 40.3984 41.9494 40.8217 41.6912 40.4134C41.6842 40.4024 41.6912 40.4134 41.6842 40.4024C41.447 40.0271 41.6473 39.6842 41.1096 39.2981L40.3872 38.7662L37.8157 40.392L37.9997 41.1716C38.1697 41.9292 38.5537 41.7791 38.777 42.1323C38.7909 42.1544 38.784 42.1433 38.7909 42.1544C39.0282 42.5296 38.6223 42.9871 38.1256 43.3011C37.6731 43.5871 37.1189 43.7367 36.9026 43.3946C36.8956 43.3836 36.9026 43.3946 36.8887 43.3725C36.6514 42.9973 37.0887 42.4428 36.9355 41.7363L35.7975 36.0759C35.6711 35.4607 35.3016 35.4626 35.0644 35.0873C35.0504 35.0653 35.0644 35.0873 35.0504 35.0653C34.7922 34.6569 35.2412 34.2186 35.8371 33.8418C36.6428 33.3325 36.9803 33.3044 37.479 33.6534L43.1424 37.6267ZM37.5665 39.3137L39.4868 38.0996L36.8388 36.1591L37.5665 39.3137Z" fill="#820065"/>
<path d="M51.9005 26.1665C52.4492 25.9564 52.9733 25.9376 53.132 26.3522C53.1413 26.3766 53.132 26.3522 53.1413 26.3766C53.3 26.7912 52.8316 27.1383 53.0603 27.7358L55.3051 33.6013C55.5758 34.3086 55.366 34.7104 54.8783 34.8971C54.2685 35.1304 53.9453 35.0165 53.3684 34.678C52.813 34.3593 48.9706 32.0271 47.077 30.8785L48.7431 35.2319C48.9718 35.8294 49.5643 35.7704 49.723 36.185C49.7324 36.2094 49.7277 36.1972 49.7324 36.2094C49.891 36.624 49.4883 36.9599 48.9396 37.1699C48.3908 37.3799 47.8546 37.4034 47.6959 36.9888C47.6912 36.9766 47.6959 36.9888 47.6865 36.9644C47.5279 36.5498 48.0084 36.1981 47.7797 35.6006L45.829 30.5033C45.6003 29.9057 45.0931 29.9321 44.9344 29.5175C44.9251 29.4931 44.9344 29.5175 44.9251 29.4931C44.7524 29.0419 45.2301 28.7193 45.8886 28.4673C47.1446 27.9866 47.4388 28.0977 48.0709 28.4709C48.453 28.7021 51.7064 30.7005 53.4895 31.7797L52.0847 28.1091C51.856 27.5116 51.2757 27.566 51.117 27.1513C51.1077 27.127 51.117 27.1513 51.1077 27.127C50.949 26.7123 51.3517 26.3765 51.9005 26.1665Z" fill="#820065"/>
<path d="M65.9812 27.4556C66.9152 27.2658 67.6832 27.1763 67.7794 27.6498C67.7846 27.6754 67.7794 27.6498 67.7846 27.6754C67.873 28.1104 67.4819 28.3498 67.6093 28.9767C67.6327 29.0919 67.9863 30.8321 68.0357 31.0752C68.1865 31.8174 67.4749 31.922 66.8137 31.7499C66.6318 31.7069 66.4984 31.6407 66.3753 31.5592C65.7519 32.0322 65.2075 32.3693 64.2479 32.5643C61.676 33.0869 58.9558 32.0274 58.4542 28.7718C58.0232 25.9947 59.8168 23.8715 62.3631 23.3542C63.5403 23.115 64.0688 23.4206 64.8611 22.9265C65.2623 22.6718 65.6954 22.7703 65.8681 23.1616C66.0539 23.6168 66.4834 25.0751 66.6178 25.4742C66.7574 25.8988 66.6353 26.1502 66.3666 26.2048C66.3538 26.2074 66.3666 26.2048 66.341 26.21C65.4837 26.3841 64.7871 23.8742 62.8934 24.259C61.5627 24.5294 60.9428 26.1343 61.3551 27.8359C62.0397 30.6147 63.9469 31.2798 65.3538 30.7941L65.0886 29.4889C64.9612 28.8619 64.4949 28.7968 64.4065 28.3617C64.4013 28.3362 64.4065 28.3617 64.4013 28.3362C64.3052 27.8627 65.0471 27.6453 65.9812 27.4556Z" fill="#820065"/>
<path d="M78.9852 28.0401C79.2722 28.0262 79.4394 28.2403 79.4087 28.6863C79.3898 29.1055 79.2868 29.9471 79.2189 30.4341C79.1602 30.8422 78.9995 31.033 78.6213 31.0513C78.1779 31.0728 77.9976 30.8593 77.3064 30.8928L73.4852 31.0779C72.7809 31.112 72.2138 31.0088 72.1904 30.5263C72.1892 30.5002 72.1904 30.5263 72.1892 30.5002C72.1677 30.0568 72.6035 29.8788 72.5726 29.2397L72.3122 23.8665C72.2813 23.2275 71.8303 23.0925 71.8088 22.6491C71.8081 22.636 71.8088 22.6491 71.8081 22.636C71.7841 22.1404 72.3386 21.9828 73.0429 21.9487L76.6032 21.7762C77.3075 21.7421 77.4533 21.5128 77.8967 21.4913C78.2749 21.473 78.4533 21.6474 78.5517 22.0609C78.6788 22.5254 78.8497 23.3537 78.9221 23.7685C78.9964 24.2224 78.8369 24.4393 78.563 24.4526C78.537 24.4539 78.563 24.4526 78.537 24.4539C77.6501 24.4968 77.4617 22.7673 76.2358 22.8267L75.5577 22.8596C75.1273 22.8804 74.9287 23.0992 74.9597 23.7383L75.0671 25.9554L76.2017 25.9004C76.8408 25.8694 76.7804 24.8919 77.2238 24.8704C77.2499 24.8692 77.2368 24.8698 77.2499 24.8692C77.6541 24.8496 77.7198 25.3954 77.7659 26.3475C77.8121 27.2995 77.7995 27.8492 77.3952 27.8688C77.3821 27.8694 77.3952 27.8688 77.3691 27.87C76.9257 27.8915 76.8913 26.9128 76.2523 26.9437L75.1177 26.9987L75.22 29.1114C75.251 29.7505 75.4698 29.949 75.9001 29.9282L76.8261 29.8833C78.052 29.8239 78.0854 28.0837 78.9722 28.0407C78.9852 28.0401 78.9722 28.0407 78.9852 28.0401Z" fill="#820065"/>
<path fillRule="evenodd" clipRule="evenodd" d="M117.163 43.9325L113.125 44.6495L112.926 43.5219L116.972 42.8036L114.998 41.4213L115.655 40.4823L119.224 42.9815L116.719 46.5593L115.783 45.9038L117.163 43.9325Z" fill="#820065"/>
</g>
<defs>
<filter id="filter0_d_2726_7177" x="4.81812" y="7.43457" width="127.964" height="89.0645" filterUnits="userSpaceOnUse" color-interpolation-filters="sRGB">
<feFlood flood-opacity="0" result="BackgroundImageFix"/>
<feColorMatrix in="SourceAlpha" type="matrix" values="0 0 0 0 0 0 0 0 0 0 0 0 0 0 0 0 0 0 127 0" result="hardAlpha"/>
<feOffset/>
<feGaussianBlur stdDeviation="1"/>
<feComposite in2="hardAlpha" operator="out"/>
<feColorMatrix type="matrix" values="0 0 0 0 0 0 0 0 0 0 0 0 0 0 0 0 0 0 0.4 0"/>
<feBlend mode="normal" in2="BackgroundImageFix" result="effect1_dropShadow_2726_7177"/>
<feBlend mode="normal" in="SourceGraphic" in2="effect1_dropShadow_2726_7177" result="shape"/>
</filter>
<filter id="filter1_d_2726_7177" x="5.84155" y="9.43457" width="125.917" height="87.0176" filterUnits="userSpaceOnUse" color-interpolation-filters="sRGB">
<feFlood flood-opacity="0" result="BackgroundImageFix"/>
<feColorMatrix in="SourceAlpha" type="matrix" values="0 0 0 0 0 0 0 0 0 0 0 0 0 0 0 0 0 0 127 0" result="hardAlpha"/>
<feOffset dy="0.976562"/>
<feGaussianBlur stdDeviation="0.488281"/>
<feComposite in2="hardAlpha" operator="out"/>
<feColorMatrix type="matrix" values="0 0 0 0 0 0 0 0 0 0 0 0 0 0 0 0 0 0 0.25 0"/>
<feBlend mode="normal" in2="BackgroundImageFix" result="effect1_dropShadow_2726_7177"/>
<feBlend mode="normal" in="SourceGraphic" in2="effect1_dropShadow_2726_7177" result="shape"/>
</filter>
</defs>
</svg>
