<svg width="119" height="142" viewBox="0 0 119 142" fill="none" xmlns="http://www.w3.org/2000/svg">
<g filter="url(#filter0_d_2726_7406)">
<path d="M70.1934 132.558C27.6545 140.059 17.2483 113.481 11.2541 79.4868C5.25994 45.4922 5.9485 16.9582 48.4874 9.45743C91.0263 1.95667 101.433 28.5344 107.427 62.529C113.421 96.5236 112.732 125.058 70.1934 132.558Z" fill="#4B3660"/>
<path d="M16.6896 36.4534L16.6896 36.4532C18.8072 30.9501 22.1819 26.6011 27.0129 23.1456C32.468 19.2437 39.9965 16.4103 49.4201 14.7486C58.8438 13.087 66.8874 13.1747 73.348 14.9754C79.0694 16.5702 83.7258 19.5032 87.6003 23.9499C91.7616 28.726 94.7718 35.0409 97.0554 41.9592C99.3381 48.8745 100.885 56.3619 102.137 63.4634C103.39 70.566 104.497 78.131 104.717 85.4097C104.937 92.6915 104.268 99.6545 101.991 105.566L101.991 105.566C99.8738 111.069 96.499 115.418 91.668 118.874C86.213 122.775 78.6845 125.609 69.2608 127.271C59.8371 128.932 51.7936 128.845 45.333 127.044C39.6116 125.449 34.9552 122.516 31.0807 118.069C26.9193 113.293 23.9092 106.979 21.6256 100.061C19.3431 93.1459 17.796 85.6585 16.5437 78.5558C15.2913 71.4532 14.1841 63.8881 13.964 56.6095C13.7438 49.3277 14.4127 42.3647 16.6896 36.4534Z" stroke="#F6B3F3" stroke-width="0.976562"/>
<path fillRule="evenodd" clipRule="evenodd" d="M45.4076 61.02C37.0441 64.9963 30.1482 73.1191 30.7183 83.1195C31.2856 92.9186 38.8012 100.192 47.8828 103.51C50.4306 104.568 52.7456 105.495 54.6709 106.752C57.2835 108.458 57.2339 111.314 59.5066 113.067C60.3703 113.733 61.4292 114.108 62.5131 114.182C65.0492 114.353 67.0294 112.235 68.231 110.437C69.4327 108.639 71.8536 105.567 78.675 101.239C86.9421 96.4969 92.8016 88.99 92.2568 79.6161M45.4076 61.02C18.7857 45.8795 48.7324 20.9277 65.2875 48.8621C78.4414 39.9476 97.812 53.7204 84.8329 64.9607C89.0417 68.7192 91.9138 73.7131 92.2567 79.6159" fill="#F6B3F3"/>
<path d="M63.7365 58.4806C60.5457 61.3514 61.3788 64.8282 61.3788 64.8282C61.3788 64.8282 63.6574 60.1011 64.1064 60.5614C64.4009 61.2853 64.6975 61.5285 65.4758 61.6418C66.4947 63.9348 67.4093 64.7061 70.1246 64.4623C73.0618 65.7092 74.5153 66.0633 75.5415 63.8908C78.1027 64.0292 79.1104 63.6898 79.6613 61.8776C82.0138 61.2315 82.5654 60.4337 82.4209 58.3736C83.4457 56.0157 82.9129 55.3341 80.4195 55.0085C78.0766 52.1101 76.5473 51.8164 73.4921 53.337C70.7902 52.1365 69.6744 52.5224 68.2249 54.6583C64.5459 54.2842 63.6974 57.0513 63.7348 58.4836L63.7365 58.4806Z" fill="#4B3660"/>
<path d="M61.5773 56.1114C63.7515 60.6327 61.3239 64.0161 61.3239 64.0161C61.3239 64.0161 60.949 57.8966 60.2621 58.1935C59.6267 58.8422 59.2029 58.9762 58.3125 58.7504C56.2088 60.7737 54.883 61.2014 52.0655 59.7319C48.3528 59.7727 46.6336 59.51 46.483 56.7056C43.6634 55.7169 42.7287 54.9022 42.9281 52.7C40.6796 50.9544 40.4331 49.8476 41.4957 47.6854C41.4307 44.6836 42.3024 44.1842 45.1304 44.9408C48.9267 42.8522 50.7028 43.2149 53.3257 46.2166C56.7643 46.1198 57.7976 47.0354 58.418 49.9844C62.5459 51.2164 62.2431 54.584 61.5749 56.1121L61.5773 56.1114Z" fill="#4B3660"/>
<path fillRule="evenodd" clipRule="evenodd" d="M74.7208 95.2117C81.1489 91.7105 85.2183 85.9608 84.8574 79.7004C84.2974 69.9784 73.2711 62.7038 60.229 63.4527C47.1868 64.2017 37.0681 72.6913 37.625 82.4117C38.0009 88.9594 43.1259 94.3959 50.4157 97.0197C50.6001 97.0961 50.7985 97.1762 51.0122 97.2649C54.3476 98.6226 61.0043 101.334 62.2188 106.391C62.2468 106.506 62.7019 106.537 62.7452 106.426C63.7526 103.872 67.0672 99.9071 74.7201 95.2093L74.7208 95.2117Z" fill="white" stroke="#4B3660" stroke-width="1.46484"/>
<path d="M49.8539 75.6081C50.0633 75.112 50.7744 75.1438 50.939 75.657L51.5042 77.4187C51.5553 77.5797 51.6753 77.7106 51.8305 77.7747L53.5353 78.4933C54.0313 78.7027 53.9996 79.414 53.4865 79.5786L51.7251 80.1437C51.5642 80.1948 51.4333 80.3148 51.3692 80.4699L50.6509 82.175C50.4416 82.671 49.7304 82.6392 49.5658 82.1261L49.0006 80.3643C48.9495 80.2034 48.8295 80.0724 48.6737 80.0059L46.9689 79.2873C46.4729 79.0779 46.5046 78.3667 47.0176 78.2021L48.7791 77.637C48.94 77.5859 49.0709 77.4658 49.1374 77.31L49.8557 75.605L49.8539 75.6081Z" fill="#4B3660"/>
<path d="M67.3076 74.8405C67.5169 74.3444 68.228 74.3762 68.3927 74.8894L68.9578 76.6512C69.009 76.8121 69.129 76.943 69.2841 77.0072L70.9889 77.7257C71.4849 77.9352 71.4532 78.6464 70.9401 78.811L69.1787 79.3761C69.0178 79.4272 68.8869 79.5472 68.8228 79.7024L68.1045 81.4074C67.8952 81.9035 67.1841 81.8717 67.0194 81.3585L66.4542 79.5967C66.4031 79.4358 66.2831 79.3048 66.128 79.2407L64.4232 78.5221C63.9271 78.3127 63.9589 77.6015 64.4719 77.4369L66.2334 76.8718C66.3943 76.8207 66.5252 76.7007 66.5893 76.5455L67.3076 74.8405Z" fill="#4B3660"/>
<path d="M60.2292 80.8233C60.061 79.5 59.2303 78.5156 58.3737 78.6244C57.517 78.7332 56.9589 79.8941 57.1271 81.2174C57.2953 82.5406 58.1261 83.5251 58.9827 83.4162C59.8393 83.3074 60.3974 82.1465 60.2292 80.8233Z" fill="#4B3660"/>
<path d="M32.1997 35.4899C32.5048 35.5508 32.7102 35.6168 32.8161 35.688C33.0676 35.8571 33.1415 36.2047 33.0377 36.7307C32.9879 37.0048 32.9186 37.208 32.8296 37.3404C32.745 37.4662 32.6441 37.552 32.5266 37.598C32.4071 37.633 32.3008 37.648 32.2079 37.6432C32.0377 37.6249 31.2652 37.4803 29.8904 37.2095L29.7033 37.5306L28.8623 38.7815L29.9842 39.5358C30.1364 39.6381 30.2478 39.7226 30.3183 39.7892C30.3867 39.8448 30.4527 39.9324 30.5164 40.0521C30.6328 40.2649 30.5486 40.5831 30.2638 41.0067C29.9523 41.47 29.6474 41.659 29.3492 41.5738C29.21 41.5379 29.0245 41.442 28.7929 41.2863L23.2829 37.5819C23.1307 37.4796 23.0204 37.4006 22.9521 37.3451C22.8815 37.2784 22.8144 37.1853 22.7508 37.0656C22.6344 36.8528 22.7185 36.5346 23.0033 36.111L24.445 33.9666C24.8366 33.3842 25.4288 32.9607 26.2217 32.6961C26.6049 32.5693 27.0297 32.5378 27.4962 32.6015C27.9627 32.6653 28.411 32.8418 28.8412 33.131C29.5891 33.6338 30.0378 34.2958 30.1872 35.1171C30.6359 35.2073 31.3067 35.3316 32.1997 35.4899ZM27.1051 37.6001L27.9595 36.3294C28.0885 36.1374 28.1447 35.8966 28.1282 35.6067C28.1116 35.3169 27.9577 35.0741 27.6665 34.8783C27.3753 34.6825 27.0924 34.6316 26.8177 34.7257C26.5364 34.8153 26.3268 34.9627 26.1889 35.1678L25.3479 36.4187L27.1051 37.6001Z" fill="white"/>
<path d="M32.5581 26.2935C33.5872 25.7154 34.6896 25.5855 35.8655 25.9038C37.0413 26.2221 37.9398 26.934 38.5608 28.0396C39.1779 29.1382 39.3436 30.28 39.0579 31.465C38.7683 32.6431 38.0951 33.5289 37.0381 34.1226C35.9812 34.7163 34.866 34.8397 33.6923 34.4927C32.5256 34.1419 31.6454 33.438 31.0517 32.3811C30.7275 31.8039 30.5291 31.2065 30.4565 30.5886C30.38 29.9639 30.4199 29.3835 30.5762 28.8475C30.7324 28.3115 30.9819 27.8192 31.3245 27.3706C31.6671 26.922 32.0783 26.563 32.5581 26.2935ZM32.8685 31.2919C33.2162 31.9108 33.6975 32.3036 34.3126 32.4703C34.9307 32.6262 35.4866 32.5655 35.9803 32.2882C36.474 32.0109 36.8135 31.5732 36.999 30.9751C37.1844 30.3769 37.0994 29.7615 36.744 29.1288C36.3885 28.496 35.9018 28.1017 35.2836 27.9458C34.6725 27.786 34.12 27.8447 33.6264 28.122C33.1327 28.3994 32.797 28.844 32.6194 29.456C32.4379 30.0611 32.5209 30.6731 32.8685 31.2919Z" fill="white"/>
<path d="M43.2416 21.9221C44.3812 21.6145 45.4818 21.7594 46.5434 22.3567C47.6051 22.954 48.3011 23.8648 48.6316 25.089C48.96 26.3056 48.8402 27.4531 48.2722 28.5316C47.7022 29.6024 46.8319 30.2958 45.6616 30.6117C44.4912 30.9276 43.3798 30.7733 42.3273 30.1487C41.2825 29.5221 40.6022 28.6236 40.2863 27.4532C40.1138 26.8142 40.0682 26.1863 40.1495 25.5695C40.2288 24.9451 40.41 24.3923 40.6931 23.9111C40.9763 23.4299 41.339 23.0139 41.7813 22.6632C42.2236 22.3126 42.7103 22.0655 43.2416 21.9221ZM42.3149 26.8437C42.4999 27.5289 42.8701 28.0279 43.4253 28.3407C43.9862 28.6436 44.54 28.7213 45.0867 28.5737C45.6334 28.4261 46.07 28.0852 46.3967 27.551C46.7233 27.0167 46.7921 26.3993 46.6029 25.6986C46.4138 24.9979 46.0388 24.4961 45.4779 24.1932C44.9247 23.8882 44.3748 23.8094 43.8281 23.957C43.2814 24.1046 42.8468 24.4532 42.5243 25.0028C42.1998 25.5448 42.13 26.1584 42.3149 26.8437Z" fill="white"/>
<path d="M50.6565 20.2613L57.2591 19.4573C57.5124 19.4265 57.7023 19.4355 57.8288 19.4844C57.9543 19.5253 58.0445 19.6067 58.0995 19.7286C58.1545 19.8504 58.1946 20.0143 58.2196 20.2201C58.2447 20.4259 58.2452 20.5946 58.221 20.7261C58.1959 20.8496 58.1387 20.941 58.0495 21C57.9157 21.0886 57.7181 21.1488 57.4569 21.1807L55.1887 21.4568L55.916 27.4301C55.9382 27.6121 55.9467 27.7477 55.9415 27.8367C55.9441 27.9248 55.9211 28.032 55.8722 28.1585C55.8303 28.2761 55.737 28.3678 55.5923 28.4336C55.4477 28.4994 55.2527 28.5472 55.0073 28.5771C54.7618 28.607 54.561 28.6074 54.4048 28.5782C54.2565 28.548 54.144 28.4814 54.0671 28.3783C53.9973 28.2663 53.9491 28.1677 53.9227 28.0825C53.9032 27.9885 53.8824 27.8504 53.8602 27.6683L53.1343 21.707L50.8543 21.9846C50.6009 22.0155 50.4115 22.0104 50.286 21.9695C50.1596 21.9206 50.0688 21.8352 50.0138 21.7134C49.9588 21.5915 49.9188 21.4277 49.8937 21.2219C49.8686 21.016 49.8687 20.8513 49.8938 20.7277C49.918 20.5963 49.9746 20.501 50.0639 20.4419C50.1977 20.3533 50.3952 20.2931 50.6565 20.2613Z" fill="white"/>
<path d="M60.5986 20.3643C60.6002 20.1808 60.6054 20.0453 60.6141 19.9576C60.6309 19.8621 60.6717 19.7548 60.7366 19.6357C60.8501 19.4214 61.1621 19.3164 61.6725 19.3209C62.2307 19.3258 62.5604 19.4763 62.6615 19.7723C62.7001 19.9082 62.7183 20.1157 62.7158 20.3948L62.6574 27.0459C62.6557 27.2373 62.6465 27.3768 62.6298 27.4644C62.621 27.5521 62.5842 27.6554 62.5194 27.7745C62.4058 27.9888 62.0939 28.0938 61.5835 28.0893C61.0252 28.0844 60.6996 27.93 60.6066 27.6261C60.5598 27.4981 60.5377 27.2945 60.5401 27.0154L60.5986 20.3643Z" fill="white"/>
<path d="M71.3194 20.7785C71.4287 20.6559 71.5625 20.5878 71.7208 20.5743C71.8791 20.5609 72.0672 20.5786 72.2851 20.6275C72.5108 20.6782 72.6854 20.7378 72.8089 20.8064C72.9403 20.8768 73.0309 20.9462 73.081 21.0146C73.1388 21.0848 73.171 21.1779 73.1777 21.2938C73.1964 21.4288 73.1752 21.6324 73.1141 21.9048L71.6596 28.3829C71.6177 28.5697 71.5793 28.7041 71.5445 28.7862C71.5175 28.8701 71.4598 28.9634 71.3714 29.0661C71.2152 29.2518 70.8882 29.2887 70.3902 29.1769C70.0867 29.1087 69.8818 29.0382 69.7756 28.9653C69.6693 28.8924 69.5887 28.7967 69.5336 28.678C68.3068 25.9505 67.4976 24.1667 67.1058 23.3268L66.2437 27.167C66.2017 27.3537 66.1634 27.4882 66.1286 27.5703C66.1016 27.6541 66.0439 27.7474 65.9554 27.8502C65.7993 28.0358 65.4722 28.0727 64.9742 27.9609C64.4917 27.8526 64.2196 27.6811 64.1579 27.4466C64.1218 27.3159 64.1065 27.2021 64.1119 27.1052C64.1251 27.0101 64.1518 26.873 64.1919 26.6941L65.6543 20.1809C65.7206 19.8852 65.8037 19.6791 65.9034 19.5625C66.0127 19.4399 66.1465 19.3719 66.3048 19.3584C66.4632 19.3449 66.659 19.3643 66.8925 19.4168C67.1259 19.4692 67.3036 19.5336 67.4254 19.61C67.5567 19.6803 67.6435 19.7488 67.6857 19.8155C67.7116 19.8459 67.7784 19.9671 67.8861 20.1793C69.0266 22.7812 69.7927 24.5022 70.1844 25.3421L71.0702 21.3969C71.1366 21.1012 71.2197 20.895 71.3194 20.7785Z" fill="white"/>
<path d="M78.7987 28.2304L80.3668 29.6354C80.6769 29.9347 80.7984 30.1935 80.7313 30.4118C80.6896 30.5779 80.5702 30.7708 80.3733 30.9905L78.6171 32.9507C78.4468 33.1408 78.2013 33.2474 77.8806 33.2706C76.9187 33.3404 75.9388 32.9282 74.9409 32.0341C74.0558 31.2411 73.5847 30.2193 73.5274 28.9686C73.4754 27.712 73.8725 26.6114 74.7187 25.667C75.5649 24.7226 76.6027 24.2336 77.8321 24.2001C79.0668 24.1606 80.1355 24.5453 81.0384 25.3542C81.7393 25.9822 82.194 26.8073 82.4026 27.8294C82.4565 28.0919 82.4169 28.2974 82.2839 28.4459C82.1562 28.5884 81.9388 28.6935 81.6319 28.7612C81.1182 28.8685 80.7663 28.8369 80.5762 28.6666C80.4634 28.5655 80.3541 28.323 80.2483 27.9391C80.1478 27.5493 79.9254 27.2 79.5808 26.8913C79.1294 26.4869 78.5848 26.288 77.947 26.2947C77.3144 26.2956 76.7667 26.5543 76.3037 27.0711C75.846 27.5819 75.633 28.1782 75.6647 28.8598C75.7018 29.5355 75.9461 30.0756 76.3975 30.4801C76.7242 30.7728 77.0661 30.9828 77.4232 31.11L78.2934 30.1389L77.5895 29.5082C77.4054 29.3432 77.296 29.2024 77.2614 29.0857C77.2267 28.969 77.2374 28.8554 77.2935 28.745C77.3549 28.6287 77.4548 28.4933 77.5931 28.3389C77.7368 28.1785 77.8631 28.0615 77.9721 27.9877C78.0869 27.9193 78.1959 27.8992 78.2991 27.9274C78.454 27.9698 78.6205 28.0708 78.7987 28.2304Z" fill="white"/>
<path d="M52.4401 122.643L52.6386 117.373L56.2176 117.508L56.1928 118.166L53.3457 118.059L53.2875 119.603L55.9882 119.705L55.9637 120.357L53.263 120.255L53.172 122.67L52.4401 122.643Z" fill="white"/>
<path d="M59.3788 122.761C58.2164 122.833 57.4622 122.028 57.3916 120.888C57.321 119.748 57.9704 118.856 59.1327 118.784C60.295 118.712 61.0493 119.517 61.1198 120.657C61.1904 121.798 60.5411 122.689 59.3788 122.761ZM58.108 120.844C58.1578 121.648 58.5663 122.202 59.3412 122.154C60.1161 122.106 60.4532 121.506 60.4034 120.702C60.3537 119.897 59.9451 119.343 59.1702 119.391C58.3953 119.439 58.0583 120.04 58.108 120.844Z" fill="white"/>
<path d="M62.9506 122.392L62.4661 118.614L63.1199 118.53L63.2038 119.184C63.4245 118.602 63.8335 118.394 64.3058 118.334L64.5963 118.297L64.6802 118.95L64.3678 118.99C63.7285 119.072 63.2617 119.406 63.381 120.335L63.6335 122.304L62.9506 122.392Z" fill="white"/>
<path d="M71.2102 121.048L70.7564 119.018L68.0513 116.35L68.8662 116.168L70.9668 118.28L71.9612 115.476L72.7689 115.296L71.4609 118.845L71.9178 120.889L71.2102 121.048Z" fill="white"/>
<path d="M77.1281 119.614C76.0172 119.964 75.0916 119.364 74.7487 118.274C74.4059 117.184 74.8217 116.163 75.9326 115.814C77.0435 115.464 77.9692 116.064 78.312 117.154C78.6548 118.243 78.239 119.265 77.1281 119.614ZM75.4334 118.059C75.6752 118.828 76.2051 119.267 76.9457 119.034C77.6863 118.801 77.869 118.137 77.6273 117.369C77.3855 116.6 76.8556 116.161 76.115 116.393C75.3744 116.626 75.1917 117.29 75.4334 118.059Z" fill="white"/>
<path d="M80.666 116.827C80.8667 117.291 81.2475 117.525 81.7718 117.299C82.0339 117.185 82.6613 116.754 82.2598 115.826L81.4161 113.877L82.0479 113.604L83.5608 117.099L82.9559 117.361L82.7377 116.857C82.645 117.288 82.3858 117.703 81.8683 117.927C81.0012 118.302 80.3513 117.834 80.0604 117.161L79.077 114.89L79.7088 114.616L80.666 116.827Z" fill="white"/>
<path d="M84.5839 114.943L83.3908 113.084L82.6076 111.676L83.2413 111.323L84.0245 112.732L84.9744 114.726L84.5839 114.943ZM85.1323 116.306L84.6624 115.461L85.3729 115.066L85.8428 115.911L85.1323 116.306Z" fill="white"/>
</g>
<defs>
<filter id="filter0_d_2726_7406" x="6.55103" y="6.18164" width="105.579" height="129.653" filterUnits="userSpaceOnUse" color-interpolation-filters="sRGB">
<feFlood flood-opacity="0" result="BackgroundImageFix"/>
<feColorMatrix in="SourceAlpha" type="matrix" values="0 0 0 0 0 0 0 0 0 0 0 0 0 0 0 0 0 0 127 0" result="hardAlpha"/>
<feOffset/>
<feGaussianBlur stdDeviation="1"/>
<feComposite in2="hardAlpha" operator="out"/>
<feColorMatrix type="matrix" values="0 0 0 0 0 0 0 0 0 0 0 0 0 0 0 0 0 0 0.4 0"/>
<feBlend mode="normal" in2="BackgroundImageFix" result="effect1_dropShadow_2726_7406"/>
<feBlend mode="normal" in="SourceGraphic" in2="effect1_dropShadow_2726_7406" result="shape"/>
</filter>
</defs>
</svg>
