<svg width="161" height="161" viewBox="0 0 161 161" fill="none" xmlns="http://www.w3.org/2000/svg">
<g filter="url(#filter0_d_2726_7476)">
<circle cx="80.107" cy="80.107" r="62.5" transform="rotate(20 80.107 80.107)" fill="#E6FFD2"/>
<path fillRule="evenodd" clipRule="evenodd" d="M125.672 68.0736L124.955 64.0352L126.082 63.8364L126.8 67.882L128.183 65.9079L129.122 66.5654L126.622 70.1346L123.045 67.6295L123.7 66.6933L125.672 68.0736Z" fill="#51B968"/>
<path fillRule="evenodd" clipRule="evenodd" d="M52.9361 41.6016L56.0812 38.969L55.3452 38.0918L52.1945 40.7292L52.4045 38.3284L51.2626 38.2285L50.8828 42.5692L55.2338 42.9499L55.3334 41.8114L52.9361 41.6016Z" fill="#51B968"/>
<circle cx="80.1069" cy="80.1065" r="57.1289" transform="rotate(20 80.1069 80.1065)" stroke="#51B968" stroke-width="0.976562"/>
<path d="M62.9615 105.3C64.8643 106.606 66.9454 107.713 69.1863 108.581L74.644 93.5859L61.6435 88.8541C60.8543 94.7037 61.1679 100.374 62.9615 105.3Z" fill="#015772"/>
<path d="M61.7495 88.113L74.8948 92.8975L79.5049 80.2314L65.3377 75.075C63.6486 79.3531 62.4016 83.7755 61.7495 88.113Z" fill="#51B968"/>
<path d="M65.6106 74.3952L79.7556 79.5436L84.1597 67.4434L71.6055 62.874C69.3131 66.4186 67.2672 70.3274 65.6106 74.3952Z" fill="#015772"/>
<path d="M89.9695 51.4805L84.4101 66.7548L72.0176 62.2443C75.0704 57.6405 78.7133 53.269 83.199 50.0031C85.4605 50.2307 87.73 50.7172 89.9695 51.4805Z" fill="#51B968"/>
<path d="M71.0742 61.9L59.7208 57.7678C65.6566 52.3754 73.5865 49.4725 81.7271 49.8906C77.4991 53.201 74.016 57.4292 71.0742 61.9Z" fill="#015772"/>
<path d="M60.7042 88.5134C59.9329 94.0481 60.1183 99.47 61.5981 104.309C55.3267 99.4684 51.2394 92.3694 50.1025 84.6547L60.7042 88.5134Z" fill="#51B968"/>
<path d="M64.4191 74.7408C62.7438 78.9889 61.4871 83.4092 60.8135 87.7725L49.9938 83.8344C49.4542 79.3226 49.9221 74.6221 51.5484 70.0563L64.4191 74.7408Z" fill="#015772"/>
<path d="M64.6916 74.0624C66.3436 69.9994 68.3797 66.0904 70.6637 62.5329L59.1192 58.3311C55.9864 61.3362 53.4536 65.0599 51.8023 69.3711L64.6916 74.0624Z" fill="#51B968"/>
<path d="M76.9812 110.405C74.6843 110.182 72.3785 109.692 70.1038 108.917L75.5615 93.9219L88.562 98.6537C85.4066 103.642 81.5214 107.784 76.9812 110.405Z" fill="#51B968"/>
<path d="M88.9577 98.018L75.8123 93.2334L80.4224 80.5674L94.5895 85.7238C93.1336 90.0868 91.2461 94.276 88.9577 98.018Z" fill="#015772"/>
<path d="M94.818 85.0278L80.673 79.8795L85.0771 67.7793L97.6313 72.3486C97.109 76.5375 96.1637 80.8468 94.818 85.0278Z" fill="#51B968"/>
<path d="M90.887 51.8164L85.3276 67.0907L97.72 71.6012C98.3407 66.1122 98.3601 60.4218 97.0231 55.0367C95.1444 53.7573 93.0931 52.6712 90.887 51.8164Z" fill="#015772"/>
<path d="M98.6637 71.9447L110.017 76.077C108.936 68.1308 104.727 60.8098 98.2227 55.8975C99.3336 61.151 99.2839 66.6289 98.6637 71.9447Z" fill="#51B968"/>
<path d="M89.5012 98.9993C86.5343 103.735 82.9073 107.769 78.6633 110.525C86.5788 110.848 94.273 108.037 100.103 102.858L89.5012 98.9993Z" fill="#015772"/>
<path d="M95.5077 86.058C94.0604 90.389 92.1818 94.583 89.8931 98.3584L100.713 102.297C104.026 99.1871 106.689 95.2855 108.378 90.7425L95.5077 86.058Z" fill="#51B968"/>
<path d="M95.7363 85.3617C97.0824 81.1873 98.0354 76.8841 98.5725 72.6908L110.117 76.8926C110.585 81.2084 110.132 85.689 108.626 90.053L95.7363 85.3617Z" fill="#015772"/>
<path d="M91.544 50.6678C86.5527 49.1375 84.3735 44.8114 87.0847 40.3719C89.0711 41.9146 94.8184 42.33 91.544 50.6678Z" fill="#015772"/>
<path d="M91.3454 51.1441L90.881 50.939L91.1039 50.483C93.3715 45.8432 95.8333 44.2904 98.1655 44.1113C99.3037 44.0239 100.359 44.27 101.264 44.5664C101.674 44.7006 102.061 44.8479 102.41 44.9807C102.445 44.9943 102.481 45.0077 102.516 45.021C102.899 45.1665 103.224 45.287 103.506 45.3635L103.989 45.4947L103.846 45.9746C102.963 48.9283 101.119 50.8083 98.823 51.6455C96.5417 52.4772 93.8719 52.2596 91.3454 51.1441Z" fill="#015772" stroke="#E6FFD2" stroke-width="0.976562"/>
<path d="M45.4149 46.8524L45.1258 47.2346C44.8675 47.1887 44.5768 47.154 44.2536 47.1307C43.9342 47.1103 43.5961 47.1146 43.2393 47.1435C42.8825 47.1725 42.5132 47.2339 42.1313 47.3276C41.7532 47.4242 41.3764 47.5666 41.0008 47.7548C40.6252 47.943 40.2551 48.1832 39.8905 48.4753C39.5297 48.7704 39.1867 49.1328 38.8616 49.5624C38.7666 49.6879 38.6659 49.8329 38.5593 49.9975C38.4565 50.1649 38.3743 50.3328 38.3125 50.5014C38.2546 50.6728 38.231 50.8343 38.2418 50.986C38.2535 51.1444 38.3278 51.2753 38.4647 51.3789C38.6092 51.4883 38.7826 51.5238 38.9849 51.4856C39.1882 51.454 39.4333 51.3554 39.7201 51.1898C40.0107 51.027 40.3502 50.7995 40.7387 50.5075C41.1242 50.2192 41.5735 49.8744 42.0863 49.4732C43.2213 48.574 44.2516 48.0501 45.1773 47.9014C46.1039 47.7595 46.9418 47.9719 47.6908 48.5388C48.1585 48.8927 48.503 49.3028 48.7241 49.7691C48.9424 50.2393 49.05 50.7333 49.0468 51.2511C49.0446 51.7756 48.9398 52.3092 48.7324 52.852C48.526 53.4013 48.2314 53.9289 47.8487 54.4346C47.6531 54.6932 47.426 54.9459 47.1674 55.1927C46.906 55.4434 46.6332 55.6735 46.3491 55.8831C46.0649 56.0926 45.7752 56.274 45.4798 56.4272C45.1883 56.5833 44.9084 56.7004 44.6401 56.7784L44.8211 58.2698L44.5233 58.6633L42.0422 56.7859L42.3141 56.4266C42.7411 56.4866 43.1831 56.4832 43.6402 56.4165C44.0973 56.3498 44.549 56.2192 44.9952 56.0246C45.4414 55.8301 45.875 55.5692 46.296 55.242C46.717 54.9147 47.1016 54.5211 47.4498 54.061C47.516 53.9735 47.597 53.8585 47.693 53.7158C47.7928 53.5761 47.8759 53.4267 47.9424 53.2677C48.006 53.1125 48.0358 52.9586 48.0317 52.806C48.0313 52.6563 47.9646 52.5311 47.8316 52.4304C47.6148 52.2664 47.2575 52.304 46.7596 52.5431C46.2626 52.7889 45.6166 53.2239 44.8214 53.848C44.4836 54.1127 44.1488 54.3616 43.8168 54.5948C43.4887 54.8308 43.1612 55.0345 42.8343 55.2057C42.5083 55.3836 42.1835 55.5205 41.8598 55.6164C41.537 55.7189 41.2102 55.7676 40.8793 55.7624C40.5484 55.7571 40.2144 55.6928 39.8773 55.5693C39.5373 55.4495 39.1886 55.2545 38.8312 54.984C38.4168 54.6704 38.0826 54.298 37.8289 53.8668C37.5752 53.4356 37.4246 52.9628 37.3772 52.4486C37.3269 51.9382 37.3898 51.3967 37.5658 50.8243C37.7457 50.2548 38.0586 49.6753 38.5045 49.086C38.7491 48.7628 39.004 48.4773 39.2692 48.2295C39.5345 47.9817 39.8187 47.7603 40.1218 47.5651C40.4221 47.3737 40.7456 47.203 41.0925 47.0528C41.4431 46.9055 41.8242 46.7694 42.2358 46.6443L41.8801 44.8503L42.2038 44.4226L45.4149 46.8524Z" fill="#015772"/>
<path d="M42.1457 61.2059L42.551 60.0217L43.0788 60.2023L40.6723 67.2334L40.1445 67.0528L40.5475 65.8753L35.3233 64.0872C34.8992 63.9421 34.4877 63.8264 34.0888 63.7403C33.6899 63.6541 33.3199 63.6308 32.9787 63.6703C32.6406 63.7159 32.341 63.8401 32.08 64.0431C31.8175 64.2506 31.6113 64.5732 31.4616 65.0108C31.4044 65.1777 31.3616 65.3545 31.3329 65.5413C31.3088 65.7296 31.3163 65.9212 31.3554 66.116C31.3931 66.3153 31.4706 66.5158 31.5881 66.7173C31.7041 66.9233 31.8744 67.1252 32.099 67.323C32.3266 67.5269 32.6145 67.7237 32.9628 67.9135C33.3157 68.1048 33.747 68.2877 34.2568 68.4622L38.696 69.9816C38.8269 70.0264 38.9609 69.9589 39.098 69.779C39.2336 69.6037 39.3686 69.3198 39.5029 68.9273L40.0308 69.1079L39.0232 72.0516L38.4954 71.871C38.6282 71.483 38.6947 71.1782 38.695 70.9565C38.6953 70.7348 38.63 70.6016 38.4992 70.5568L34.2494 69.1023C33.4283 68.8213 32.7485 68.5029 32.21 68.1473C31.6745 67.7976 31.279 67.3775 31.0236 66.8869C30.7666 66.4008 30.6498 65.8291 30.6731 65.1718C30.6995 64.5206 30.864 63.7529 31.1666 62.8686C31.3766 62.2551 31.6176 61.7277 31.8895 61.2866C32.1615 60.8454 32.4562 60.4776 32.7737 60.1831C33.0958 59.8901 33.4346 59.6659 33.7902 59.5104C34.1503 59.3564 34.519 59.2584 34.8964 59.2161C35.2782 59.1755 35.6664 59.1824 36.0611 59.2368C36.4542 59.2957 36.847 59.3924 37.2395 59.5267L42.1457 61.2059Z" fill="#015772"/>
<path d="M32.4542 73.7163L32.4481 74.1954C32.213 74.3117 31.9584 74.4563 31.6844 74.6293C31.4152 74.8023 31.1455 75.0063 30.8755 75.2414C30.6055 75.4764 30.3446 75.7449 30.0928 76.0469C29.8458 76.349 29.6269 76.6872 29.4362 77.0615C29.2455 77.4358 29.09 77.8488 28.9699 78.3003C28.8545 78.7518 28.7934 79.247 28.7866 79.7858C28.7846 79.9432 28.7895 80.1197 28.8013 80.3153C28.8179 80.5111 28.8514 80.6951 28.9016 80.8674C28.9567 81.0398 29.0335 81.1838 29.1322 81.2995C29.2356 81.42 29.3731 81.4814 29.5448 81.4835C29.726 81.4858 29.8867 81.4116 30.0269 81.2607C30.1718 81.1147 30.3105 80.89 30.4431 80.5864C30.5805 80.283 30.7189 79.8985 30.8583 79.4329C30.9976 78.9721 31.1547 78.428 31.3296 77.8008C31.7097 76.4036 32.2282 75.3705 32.8852 74.7017C33.5469 74.0377 34.3474 73.7116 35.2867 73.7235C35.8732 73.7309 36.3938 73.8567 36.8485 74.1009C37.3031 74.3498 37.6828 74.6837 37.9875 75.1024C38.2969 75.526 38.5291 76.0177 38.6841 76.5776C38.8439 77.1423 38.9198 77.7418 38.9118 78.3759C38.9077 78.7001 38.8748 79.0383 38.8131 79.3904C38.7514 79.7473 38.6683 80.0944 38.5639 80.4316C38.4595 80.7689 38.3338 81.0868 38.187 81.3854C38.0449 81.684 37.889 81.9443 37.7193 82.1663L38.7499 83.2595L38.7436 83.7529L35.6325 83.7136L35.6382 83.263C36.0175 83.058 36.3714 82.793 36.6998 82.4682C37.0282 82.1433 37.3142 81.7701 37.558 81.3488C37.8018 80.9275 37.996 80.4602 38.1408 79.947C38.2856 79.4338 38.3616 78.8888 38.3689 78.3118C38.3703 78.2022 38.3673 78.0615 38.36 77.8897C38.3574 77.718 38.3357 77.5484 38.2949 77.381C38.254 77.2183 38.1866 77.0768 38.0928 76.9564C38.0037 76.8361 37.8757 76.7748 37.7088 76.7727C37.4371 76.7693 37.1717 77.0115 36.9128 77.4994C36.6586 77.9922 36.3966 78.7256 36.1268 79.6998C36.0119 80.1132 35.89 80.5123 35.7611 80.8969C35.637 81.2816 35.4942 81.6398 35.3326 81.9716C35.1758 82.3082 34.9955 82.6111 34.7918 82.8804C34.5928 83.1544 34.3586 83.3875 34.0891 83.5796C33.8196 83.7718 33.5126 83.9181 33.168 84.0186C32.8233 84.124 32.4269 84.1738 31.9787 84.1681C31.459 84.1615 30.9691 84.06 30.509 83.8634C30.0489 83.6668 29.6472 83.3756 29.304 82.9898C28.9607 82.6087 28.6901 82.1356 28.4922 81.5704C28.299 81.0052 28.2071 80.3531 28.2165 79.6141C28.2216 79.2088 28.2574 78.8277 28.3239 78.4709C28.3904 78.1141 28.4878 77.7672 28.6161 77.4303C28.7442 77.0981 28.9034 76.7687 29.0935 76.442C29.2884 76.1154 29.5144 75.7797 29.7715 75.4349L28.4208 74.2017L28.4276 73.6653L32.4542 73.7163Z" fill="#015772"/>
<path d="M29.8986 90.2711L30.251 91.4647L38.8943 88.9125L38.6026 87.9247L34.7176 87.2447L34.5778 86.7714L38.5016 85.6127L41.7568 96.6363L37.833 97.7949L37.6912 97.3148L40.5857 94.6403L40.292 93.6457L31.6487 96.1979L32.0032 97.3984L31.4612 97.5584L29.3566 90.4312L29.8986 90.2711Z" fill="#015772"/>
<path d="M33.6109 102.434C33.8279 102.753 34.0156 102.983 34.1742 103.123C34.3355 103.268 34.4894 103.324 34.6359 103.294L44.3208 101.171L46.0847 103.768L40.59 112.712L41.2891 113.742L40.8216 114.059L36.2653 107.349L36.7328 107.032L37.5083 108.174L38.9953 105.971L37.2274 103.367L35.0354 103.844C35.0208 103.848 35.0037 103.857 34.984 103.87C34.9288 103.908 34.9008 103.964 34.9001 104.04C34.9061 104.116 34.9294 104.21 34.97 104.321C35.0172 104.433 35.0811 104.557 35.1616 104.692C35.2448 104.832 35.3399 104.98 35.4471 105.138L34.9796 105.456L33.1434 102.751L33.6109 102.434ZM39.3382 105.47L41.3558 102.432L37.8194 103.233L39.3382 105.47Z" fill="#015772"/>
<path d="M43.8347 116.244L44.7946 117.047L50.5782 110.136L49.6182 109.332L49.9762 108.904L55.6756 113.674L55.3176 114.101L54.3631 113.303L48.5796 120.214L49.5341 121.013L49.1715 121.446L43.4721 116.677L43.8347 116.244Z" fill="#015772"/>
<path d="M52.4282 123.497C52.6149 123.582 52.7971 123.66 52.9747 123.73C53.1586 123.798 53.3238 123.849 53.4702 123.884C53.6167 123.919 53.7398 123.931 53.8396 123.918C53.9438 123.908 54.0136 123.864 54.0491 123.786L57.1333 116.993L56.8119 115.59L56.0369 115.238L56.2675 114.73L61.9596 117.315L63.6427 124.732L65.7422 120.108C65.7776 120.03 65.778 119.954 65.7432 119.881C65.7148 119.805 65.6544 119.731 65.562 119.657C65.4716 119.58 65.3546 119.503 65.2109 119.427C65.0692 119.347 64.905 119.265 64.7183 119.18L64.9489 118.672L67.8992 120.012L67.6685 120.519C67.2951 120.35 66.9912 120.241 66.7568 120.192C66.5224 120.143 66.3687 120.199 66.2957 120.36L62.5107 128.696L59.2088 127.197L57.3557 117.974L54.6175 124.004C54.5781 124.091 54.5812 124.176 54.6271 124.26C54.6772 124.346 54.7562 124.431 54.8639 124.517C54.978 124.6 55.1168 124.687 55.2802 124.777C55.4456 124.862 55.6238 124.948 55.8148 125.035L55.5812 125.55L52.1946 124.012L52.4282 123.497Z" fill="#015772"/>
<path d="M67.3187 130.006C67.703 130.045 67.9998 130.048 68.2091 130.016C68.423 129.985 68.5654 129.903 68.6361 129.771L73.2168 120.978L76.3412 121.29L79.6811 131.242L80.9195 131.366L80.8633 131.928L72.7925 131.121L72.8487 130.559L74.2223 130.696L73.4855 128.143L70.354 127.83L69.3143 129.818C69.3082 129.831 69.3039 129.85 69.3015 129.874C69.2949 129.94 69.3203 129.998 69.3777 130.047C69.4403 130.091 69.5271 130.134 69.6382 130.174C69.7544 130.209 69.8904 130.239 70.046 130.265C70.2064 130.29 70.3814 130.313 70.5712 130.331L70.515 130.894L67.2625 130.569L67.3187 130.006ZM73.3211 127.559L72.2833 124.062L70.6308 127.29L73.3211 127.559Z" fill="#015772"/>
<path d="M84.661 131.292L85.8871 131.006L83.8448 122.229L82.6187 122.514L82.4923 121.971L89.5354 120.332C90.1392 120.191 90.7098 120.098 91.2472 120.051C91.7836 120 92.2661 120.022 92.6948 120.118C93.1225 120.21 93.4822 120.388 93.7739 120.653C94.0693 120.912 94.2726 121.281 94.3839 121.759C94.4746 122.15 94.474 122.505 94.382 122.825C94.2936 123.139 94.1061 123.427 93.8196 123.69C93.532 123.948 93.1366 124.184 92.6334 124.399C92.1348 124.613 91.5215 124.807 90.7935 124.981C91.1893 124.894 91.585 124.817 91.9805 124.749C92.375 124.677 92.7557 124.63 93.1227 124.608C93.4897 124.587 93.8377 124.599 94.1666 124.645C94.4944 124.686 94.7914 124.773 95.0575 124.907C95.3226 125.037 95.5492 125.221 95.7372 125.461C95.9253 125.702 96.0626 126.008 96.149 126.379C96.2722 126.909 96.2745 127.371 96.1558 127.765C96.036 128.156 95.8119 128.497 95.4832 128.788C95.1535 129.076 94.7238 129.323 94.1941 129.529C93.6691 129.734 93.0583 129.918 92.3616 130.08L84.7891 131.842L84.661 131.292ZM89.5589 125.041C89.7679 124.992 89.957 124.921 90.1263 124.828C90.2955 124.735 90.4307 124.601 90.5319 124.425C90.632 124.245 90.689 124.017 90.7028 123.739C90.7201 123.456 90.6802 123.106 90.5829 122.688C90.4857 122.27 90.3679 121.942 90.2295 121.705C90.0957 121.467 89.9453 121.294 89.7782 121.186C89.61 121.073 89.43 121.015 89.238 121.011C89.045 121.002 88.844 121.021 88.635 121.07L89.5589 125.041ZM90.687 129.89C90.9425 129.83 91.1582 129.758 91.3343 129.673C91.5092 129.583 91.6414 129.457 91.7308 129.294C91.8249 129.13 91.8729 128.916 91.875 128.651C91.8759 128.382 91.8277 128.038 91.7305 127.62C91.536 126.784 91.2714 126.204 90.9366 125.881C90.6054 125.551 90.1867 125.446 89.6805 125.563L90.687 129.89Z" fill="#015772"/>
<path d="M100.675 126.849L101.77 126.243L97.4068 118.358L96.3115 118.964L96.0414 118.475L102.544 114.877L102.814 115.366L101.725 115.968L106.088 123.854L107.177 123.251L107.451 123.746L100.948 127.344L100.675 126.849Z" fill="#015772"/>
<path d="M110.841 121.069L111.746 120.205L105.524 113.685L104.619 114.549L104.234 114.146L109.61 109.015L109.995 109.419L109.095 110.278L115.317 116.798L116.962 115.227L116.014 111.633L116.366 111.298L119.003 114.061L111.231 121.478L110.841 121.069Z" fill="#015772"/>
<path d="M120.883 110.843L121.54 109.777L113.87 105.045L113.213 106.111L112.738 105.818L116.64 99.493L117.115 99.786L116.462 100.845L124.132 105.577L124.785 104.518L125.266 104.815L121.364 111.139L120.883 110.843Z" fill="#015772"/>
<path d="M127.589 98.7887L127.941 97.5952L119.299 95.0411L119.007 96.0289L121.899 98.7108L121.759 99.1841L117.835 98.0246L121.093 87.0017L125.016 88.1611L124.874 88.6413L120.991 89.3136L120.697 90.3082L129.34 92.8622L129.695 91.6619L130.237 91.822L128.131 98.9488L127.589 98.7887Z" fill="#015772"/>
<path d="M131.008 83.6742L130.991 82.4226L127.98 82.4637L122.022 85.6281L122.036 86.7224L121.479 86.73L121.374 79.0918L121.932 79.0842L121.949 80.3L126.873 77.9079L122.332 75.8955C122.299 75.8817 122.258 75.8751 122.21 75.8757C122.148 75.8766 122.099 75.9106 122.061 75.9779C122.019 76.0405 121.987 76.1291 121.965 76.2439C121.943 76.3586 121.928 76.4971 121.921 76.6594C121.908 76.8169 121.904 76.991 121.906 77.1817L121.348 77.1894L121.304 73.9281L121.862 73.9205C121.865 74.1303 121.874 74.3066 121.89 74.4494C121.902 74.5923 121.925 74.7112 121.96 74.8061C121.994 74.8963 122.041 74.9696 122.099 75.026C122.156 75.0777 122.231 75.1243 122.322 75.166L127.584 77.5334L130.923 77.4878L130.906 76.2362L131.471 76.2285L131.573 83.6665L131.008 83.6742Z" fill="#015772"/>
<path d="M66.0649 35.5154L65.0702 34.3491L62.7941 35.1403L62.7373 36.6721L62.0108 36.9246L62.2857 31.2461L63.0537 30.9792L66.7982 35.2605L66.0649 35.5154ZM62.8153 34.4428L64.621 33.8152L62.9112 31.7964L62.8153 34.4428Z" fill="#015772"/>
<path d="M66.5809 29.8827L67.2491 29.7168L68.2846 33.8896C68.3499 34.1526 68.4919 34.2381 68.7549 34.1728L69.2525 34.0493L69.3936 34.618L68.7609 34.775C68.1212 34.9338 67.7875 34.7449 67.6358 34.1336L66.5809 29.8827Z" fill="#015772"/>
<path d="M74.0907 33.759L72.8285 31.0006L72.3792 34.0006L71.6757 34.0999L69.7871 30.5202L70.5341 30.4147L71.9103 33.194L72.3617 30.1567L73.0507 30.0595L74.3253 32.853L74.8783 29.8014L75.618 29.697L74.8015 33.6586L74.0907 33.759Z" fill="#015772"/>
<path d="M79.6312 33.3719L79.6213 32.9032C79.3006 33.3276 78.8715 33.4758 78.4175 33.4854C77.5681 33.5034 77.0324 33.1118 77.017 32.3869C77.0028 31.7132 77.5008 31.3584 78.3832 31.1712L79.5502 30.9267L79.5445 30.6558C79.5355 30.2311 79.2464 30.0687 78.7338 30.0796C78.2871 30.089 77.8289 30.2452 77.8109 30.7804L77.1226 30.7949C77.1325 29.879 77.8866 29.5114 78.7141 29.4939C79.7246 29.4725 80.2022 29.8873 80.2166 30.5683L80.2756 33.3582L79.6312 33.3719ZM77.7269 32.3499C77.7342 32.6941 77.9586 32.9164 78.4785 32.9054C79.0204 32.894 79.5852 32.5816 79.5702 31.8714L79.5618 31.4759L78.5045 31.7107C78.0234 31.8235 77.7182 31.9398 77.7269 32.3499Z" fill="#015772"/>
<path d="M81.292 34.8044L81.3353 34.2127L81.9197 34.2555C82.2703 34.2811 82.367 34.1634 82.508 33.8432L82.6913 33.4454L81.5235 29.5338L82.2759 29.5888L83.1075 32.6753L84.3796 29.7428L85.1247 29.7973L83.1536 34.052C82.9341 34.5427 82.7091 34.9081 82.1101 34.8642L81.292 34.8044Z" fill="#015772"/>
<path d="M87.3389 34.0297C86.4141 33.8762 85.8225 33.3698 85.9242 32.4437L86.6034 32.5564C86.5688 33.1224 86.8604 33.3786 87.4385 33.4745C87.9659 33.562 88.3162 33.4197 88.3725 33.0801C88.4253 32.7622 88.3397 32.6069 87.5388 32.333C86.4211 31.9545 86.1872 31.5296 86.2867 30.9299C86.397 30.2652 87.0518 29.9432 87.8899 30.0823C88.8654 30.2441 89.3667 30.8024 89.2504 31.5924L88.5785 31.4809C88.6479 30.9282 88.2817 30.7189 87.7976 30.6386C87.3785 30.5691 87.0234 30.6958 86.9683 31.0282C86.9143 31.3533 87.0746 31.5061 87.8334 31.7656C88.9137 32.1453 89.1693 32.5293 89.0662 33.1506C88.9451 33.8804 88.2277 34.1771 87.3389 34.0297Z" fill="#015772"/>
<path d="M92.6127 35.0166L94.3011 30.0207L96.0011 30.5952C97.6664 31.158 98.0915 32.531 97.6201 33.9256C97.1488 35.3203 95.978 36.1539 94.3127 35.5911L92.6127 35.0166ZM93.5153 34.6335L94.5214 34.9736C95.7426 35.3863 96.5397 34.7434 96.8985 33.6818C97.2573 32.6201 97.0136 31.6255 95.7924 31.2128L94.7863 30.8728L93.5153 34.6335Z" fill="#015772"/>
<path d="M99.7552 37.8118C98.7554 37.3392 98.4828 36.2705 98.9712 35.2376C99.4595 34.2046 100.458 33.737 101.458 34.2097C102.451 34.6793 102.727 35.7413 102.229 36.7941L102.135 36.9927L99.5265 35.7594C99.2919 36.41 99.4292 36.9934 100.012 37.2689C100.449 37.4755 100.883 37.4135 101.214 37.1244L101.85 37.4249C101.309 38.0037 100.523 38.175 99.7552 37.8118ZM99.7805 35.2394L101.727 36.1597C101.904 35.5465 101.751 35.0125 101.201 34.7527C100.645 34.4897 100.136 34.7106 99.7805 35.2394Z" fill="#015772"/>
<path d="M103.538 39.7768C102.731 39.2999 102.362 38.614 102.791 37.7871L103.384 38.1374C103.147 38.6527 103.327 38.9969 103.831 39.295C104.291 39.567 104.669 39.5607 104.845 39.2644C105.008 38.9869 104.985 38.8112 104.337 38.2666C103.431 37.5102 103.366 37.0296 103.675 36.5062C104.018 35.9261 104.745 35.8622 105.477 36.2944C106.328 36.7974 106.594 37.4991 106.2 38.1939L105.614 37.8473C105.878 37.3569 105.612 37.0296 105.19 36.78C104.824 36.5638 104.447 36.5538 104.276 36.8439C104.108 37.1276 104.202 37.328 104.816 37.8439C105.687 38.5879 105.786 39.0382 105.466 39.5805C105.09 40.2174 104.313 40.2351 103.538 39.7768Z" fill="#015772"/>
<path d="M106.095 41.2615L108.265 38.1313L108.837 38.5277L106.667 41.6579L106.095 41.2615ZM108.657 37.5655L109.1 36.9274L109.665 37.3196L109.223 37.9577L108.657 37.5655Z" fill="#015772"/>
<path d="M108.204 44.7234C107.402 44.0727 107.275 43.3466 107.711 42.6816L108.24 43.1108C107.984 43.554 108.148 43.9326 108.575 44.2787C108.995 44.6203 109.566 44.8473 110.129 44.1535L110.406 43.8122C109.955 43.9372 109.494 43.8551 109.062 43.5043C108.18 42.7889 108.232 41.7369 108.947 40.8554C109.663 39.9739 110.677 39.7122 111.558 40.4275C112.008 40.7921 112.18 41.2429 112.136 41.7264L112.487 41.2942L113.004 41.7142L110.669 44.5919C109.935 45.4962 109 45.3695 108.204 44.7234ZM109.505 41.3077C108.997 41.9333 108.927 42.6123 109.53 43.1015C110.127 43.5861 110.777 43.3779 111.285 42.7523C111.788 42.1324 111.862 41.4477 111.265 40.9631C110.662 40.4739 110.008 40.6878 109.505 41.3077Z" fill="#015772"/>
<path d="M115.248 45.7487C115.606 45.3917 115.684 44.9516 115.281 44.5472C115.079 44.345 114.448 43.9196 113.732 44.6336L112.229 46.1339L111.742 45.6465L114.438 42.9563L114.904 43.4229L114.515 43.8109C114.95 43.7389 115.432 43.8275 115.83 44.2267C116.497 44.8955 116.3 45.6721 115.781 46.1895L114.029 47.9381L113.543 47.4507L115.248 45.7487Z" fill="#015772"/>
<path d="M116.589 50.8214L120.852 47.7171L122.96 50.6123L122.427 51.0004L120.75 48.6972L119.501 49.6069L121.092 51.7917L120.565 52.1754L118.974 49.9907L117.02 51.4135L116.589 50.8214Z" fill="#015772"/>
<path d="M120.257 56.3682C119.675 55.3597 120.059 54.3259 121.048 53.7547C122.038 53.1834 123.125 53.3675 123.708 54.3761C124.29 55.3846 123.906 56.4183 122.916 56.9896C121.927 57.5609 120.839 57.3767 120.257 56.3682ZM121.407 54.3763C120.71 54.7791 120.395 55.3919 120.783 56.0642C121.172 56.7366 121.859 56.7708 122.557 56.368C123.255 55.9652 123.569 55.3524 123.181 54.68C122.793 54.0077 122.105 53.9735 121.407 54.3763Z" fill="#015772"/>
<path d="M121.832 59.0114L125.284 57.4018L125.563 57.9992L124.965 58.2778C125.587 58.3112 125.909 58.6378 126.11 59.0693L126.234 59.3348L125.637 59.6134L125.504 59.3279C125.231 58.7438 124.772 58.4003 123.922 58.7965L122.123 59.6353L121.832 59.0114Z" fill="#015772"/>
</g>
<defs>
<filter id="filter0_d_2726_7476" x="15.5898" y="15.5898" width="129.034" height="129.034" filterUnits="userSpaceOnUse" color-interpolation-filters="sRGB">
<feFlood flood-opacity="0" result="BackgroundImageFix"/>
<feColorMatrix in="SourceAlpha" type="matrix" values="0 0 0 0 0 0 0 0 0 0 0 0 0 0 0 0 0 0 127 0" result="hardAlpha"/>
<feOffset/>
<feGaussianBlur stdDeviation="1"/>
<feComposite in2="hardAlpha" operator="out"/>
<feColorMatrix type="matrix" values="0 0 0 0 0 0 0 0 0 0 0 0 0 0 0 0 0 0 0.4 0"/>
<feBlend mode="normal" in2="BackgroundImageFix" result="effect1_dropShadow_2726_7476"/>
<feBlend mode="normal" in="SourceGraphic" in2="effect1_dropShadow_2726_7476" result="shape"/>
</filter>
</defs>
</svg>
