<svg width="121" height="141" viewBox="0 0 121 141" fill="none" xmlns="http://www.w3.org/2000/svg">
<g filter="url(#filter0_d_2726_7572)">
<path fillRule="evenodd" clipRule="evenodd" d="M109.668 78.9746C103.826 112.103 77.727 136.807 50.0072 131.919C22.2873 127.031 6.211 94.8913 12.0525 61.7624C17.894 28.6335 43.9933 3.93026 71.7132 8.81802C99.4331 13.7058 115.509 45.8457 109.668 78.9746Z" fill="#02343F"/>
<path d="M104.38 78.0397C98.8796 109.233 74.8691 130.846 50.9413 126.627C27.0135 122.408 11.8432 93.8859 17.3434 62.6929C22.8436 31.4998 46.8541 9.88617 70.7819 14.1053C94.7097 18.3244 109.88 46.8467 104.38 78.0397Z" stroke="#E5F8FF" stroke-width="0.976563"/>
<path d="M37.7058 113.106C36.4388 112.04 36.5888 110.53 37.5362 109.403C38.4836 108.277 39.9455 107.869 41.2349 108.953C42.2608 109.816 42.3918 110.969 41.8391 111.911L41.2672 111.43C41.6188 110.807 41.4899 110.039 40.806 109.464C39.8698 108.676 38.8404 109.036 38.1192 109.894C37.3981 110.751 37.2209 111.827 38.1571 112.614C38.9251 113.26 39.7341 113.117 40.4372 112.531L38.974 111.301L39.3841 110.813L41.4079 112.515L39.6404 114.617L39.1807 114.231L39.784 113.513C39.1263 113.783 38.4289 113.714 37.7058 113.106Z" fill="#E5F8FF"/>
<path d="M43.0106 116.856C41.9859 116.303 41.7708 115.221 42.3136 114.216C42.8564 113.21 43.8787 112.797 44.9035 113.35C45.9282 113.903 46.1433 114.985 45.6005 115.99C45.0577 116.995 44.0354 117.409 43.0106 116.856ZM42.9452 114.557C42.5624 115.265 42.6163 115.952 43.2994 116.321C43.9826 116.69 44.5862 116.358 44.9689 115.649C45.3517 114.94 45.2978 114.254 44.6147 113.885C43.9315 113.516 43.3279 113.848 42.9452 114.557Z" fill="#E5F8FF"/>
<path d="M48.377 113.831L49.0348 114.058L48.6527 115.166L49.6082 115.495L49.4172 116.049L48.4617 115.719L47.7286 117.845C47.6402 118.101 47.7059 118.248 47.969 118.339L48.5575 118.542L48.3665 119.096L47.6395 118.845C47.0163 118.63 46.8392 118.29 47.0445 117.694L47.8039 115.493L47.1461 115.266L47.3372 114.712L47.995 114.939L48.377 113.831Z" fill="#E5F8FF"/>
<path d="M54.6129 120.357L54.8595 115.749L53.1042 115.655L53.1394 114.997L57.396 115.225L57.3608 115.883L55.6055 115.789L55.3589 120.397L54.6129 120.357Z" fill="#E5F8FF"/>
<path d="M59.0621 120.445L58.321 115.224L59.0026 115.127L59.2806 117.085C59.486 116.708 59.8415 116.399 60.3781 116.323C61.3136 116.19 61.8164 116.814 61.9194 117.539L62.2673 119.99L61.5857 120.087L61.247 117.701C61.176 117.201 60.8707 116.874 60.3051 116.955C60.0223 116.995 59.3032 117.245 59.4452 118.246L59.7438 120.348L59.0621 120.445Z" fill="#E5F8FF"/>
<path d="M64.2077 119.562L63.1855 115.893L63.8558 115.706L64.8779 119.375L64.2077 119.562ZM63.0007 115.23L62.7924 114.482L63.4556 114.297L63.664 115.045L63.0007 115.23Z" fill="#E5F8FF"/>
<path d="M68.2228 118.361C67.3542 118.714 66.5851 118.591 66.1876 117.749L66.8255 117.49C67.092 117.99 67.4745 118.056 68.0174 117.835C68.5127 117.634 68.7369 117.33 68.6074 117.011C68.4861 116.712 68.332 116.625 67.506 116.81C66.3554 117.072 65.9339 116.832 65.7051 116.269C65.4516 115.644 65.8414 115.027 66.6286 114.708C67.5447 114.336 68.2639 114.55 68.5779 115.284L67.9468 115.54C67.717 115.033 67.2954 115.046 66.8408 115.23C66.4472 115.39 66.2107 115.684 66.3375 115.996C66.4615 116.301 66.678 116.348 67.4605 116.172C68.5799 115.931 68.9985 116.125 69.2355 116.708C69.5139 117.394 69.0575 118.022 68.2228 118.361Z" fill="#E5F8FF"/>
<path d="M70.4234 115.689L69.2735 113.803L68.523 112.377L69.1646 112.039L69.9151 113.465L70.8188 115.481L70.4234 115.689ZM70.9402 117.064L70.4899 116.208L71.2093 115.83L71.6596 116.685L70.9402 117.064Z" fill="#E5F8FF"/>
<path d="M48.9097 44.055C48.0426 44.6497 47.2813 44.9394 46.6257 44.924C45.967 44.9258 45.4487 44.6513 45.0709 44.1005C44.903 43.8556 44.7963 43.5688 44.7508 43.24C44.695 42.9183 44.6998 42.63 44.7651 42.3752C45.2064 42.5375 45.672 42.5931 46.162 42.5421C46.652 42.491 47.1877 42.2661 47.7691 41.8673C48.7076 41.2236 49.4733 40.0984 50.0663 38.4917C50.6663 36.8952 50.8232 35.0026 50.537 32.8139C50.2508 30.6253 49.324 28.3884 47.7568 26.1034C47.5539 25.8076 47.3465 25.5599 47.1345 25.3602C46.9226 25.1606 46.6734 24.994 46.3868 24.8606C46.5599 24.4569 46.768 24.1041 47.0111 23.8024C47.2573 23.4835 47.5284 23.2226 47.8242 23.0197C48.222 22.7469 48.6069 22.6629 48.9788 22.7677C49.361 22.8656 49.7095 23.1441 50.0243 23.6031C51.2488 25.3883 52.1516 27.634 52.7328 30.3403C53.3071 33.0364 53.309 35.6526 52.7386 38.1888C52.1751 40.7352 50.8988 42.6906 48.9097 44.055ZM50.709 38.0509C49.6889 38.7506 48.7451 38.9929 47.8776 38.7779C47.0204 38.5559 46.2577 38.089 45.5895 37.3773C44.9246 36.6484 44.1271 35.6279 43.1971 34.3158C42.554 33.4219 42.0267 32.7186 41.615 32.2059C41.1964 31.6831 40.7392 31.2242 40.2433 30.8293C39.7475 30.4344 39.24 30.1975 38.7209 30.1186C38.9548 29.3881 39.3625 28.8235 39.944 28.4246C40.6274 27.9559 41.2917 27.8528 41.9368 28.1153C42.5921 28.3709 43.1968 28.8261 43.751 29.481C44.2981 30.1256 44.974 31.0345 45.7787 32.2076C46.5591 33.3673 47.2229 34.2695 47.7701 34.9142C48.3103 35.5487 48.8943 35.9956 49.5222 36.2549C50.15 36.5143 50.7904 36.4201 51.4433 35.9723L50.709 38.0509Z" fill="#E5F8FF"/>
<path d="M65.9604 33.377C65.3552 33.4106 64.8879 33.2507 64.5586 32.8973C64.2416 32.5432 64.0643 32.0265 64.0266 31.3472C63.9944 30.7668 64.0434 30.2003 64.1738 29.648L64.0071 29.6572C63.4897 30.8257 62.7808 31.7818 61.8806 32.5256C60.9803 33.2693 59.9867 33.6713 58.8998 33.7317C57.9118 33.7865 57.1608 33.537 56.6469 32.9833C56.1454 32.4288 55.8665 31.6452 55.8103 30.6325C55.7815 30.1137 55.8141 29.3624 55.9082 28.3785C56.0139 27.3815 56.2374 25.4922 56.5785 22.7105L55.6719 21.1069C56.3045 20.6754 56.8631 20.3595 57.3475 20.1591C57.8436 19.9458 58.3202 19.8264 58.7771 19.801C59.1847 19.7784 59.4942 19.8851 59.7055 20.1212C59.9161 20.3449 60.0348 20.6976 60.0615 21.1793C60.0705 21.3398 60.032 21.7632 59.9462 22.4493C59.8597 23.1231 59.7636 23.847 59.6579 24.621C59.4883 25.8073 59.3425 26.8623 59.2203 27.7858C59.1104 28.7087 59.0641 29.3245 59.0812 29.6333C59.1127 30.2014 59.2352 30.622 59.4486 30.8951C59.6613 31.1559 60.0023 31.2732 60.4716 31.2472C60.9162 31.2225 61.364 31.0304 61.8148 30.6709C62.278 30.3107 62.7089 29.816 63.1076 29.1868C63.5063 28.5577 63.8319 27.8396 64.0845 27.0327C64.0412 26.9236 63.9977 26.8083 63.9538 26.6869C63.9215 26.5524 63.8893 26.4179 63.857 26.2834C63.7473 25.6453 63.6821 25.141 63.6616 24.7704C63.6095 23.8318 63.6912 22.96 63.9067 22.1552C64.1345 21.3497 64.4945 20.6917 64.9865 20.1812C65.4908 19.67 66.1197 19.3936 66.8731 19.3517C67.4165 19.3216 67.9236 19.4173 68.3943 19.639C68.06 21.2061 67.7666 23.0622 67.514 25.2071C67.2606 27.3396 67.17 29.0543 67.2419 30.3511C67.2988 31.3763 67.4947 32.1149 67.8295 32.5671C67.2751 33.0686 66.652 33.3386 65.9604 33.377Z" fill="#E5F8FF"/>
<path d="M70.5383 31.6326L79.206 27.1535L82.8935 28.3635L72.9995 33.518L70.5383 31.6326ZM75.574 37.4278C74.8982 37.0921 74.2886 36.6927 73.7452 36.2294C73.2074 35.7828 72.5391 35.1263 71.7402 34.2599L71.7235 34.2516C71.1984 34.3913 70.7532 34.4534 70.3881 34.4377C70.034 34.4276 69.6797 34.3345 69.3252 34.1584C68.9153 33.9548 68.6434 33.6541 68.5096 33.2561C68.3813 32.8471 68.4216 32.4321 68.6307 32.0111C68.9224 31.4239 69.3888 31.0548 70.0301 30.9038C70.6714 30.7527 71.3466 30.8532 72.0556 31.2054C72.3326 31.3429 72.6347 31.5551 72.9618 31.8419C73.3055 32.1231 73.7547 32.5119 74.3092 33.0083C74.8638 33.5324 75.3296 33.9571 75.7066 34.2825C76.1003 34.6023 76.4577 34.842 76.779 35.0016L79.5341 35.0855C79.5296 35.4561 79.5 35.7798 79.4454 36.0566C79.3964 36.3223 79.3168 36.5659 79.2067 36.7874C79.0252 37.153 78.7382 37.4249 78.3459 37.6029C77.9647 37.7865 77.5334 37.8623 77.0521 37.8304C76.5652 37.8096 76.0725 37.6754 75.574 37.4278ZM78.5933 27.6779C77.3858 27.0782 76.4522 26.5247 75.7925 26.0175C75.1494 25.5048 74.7415 25.0052 74.5687 24.5188C74.407 24.038 74.461 23.5261 74.7306 22.9833C74.8351 22.7728 74.9701 22.5567 75.1354 22.335C75.3174 22.1077 75.516 21.9025 75.7313 21.7193C76.4249 22.5196 77.2624 23.3361 78.2438 24.1688C79.2251 25.0016 80.0676 25.6134 80.7712 26.0043C81.2462 25.7153 81.7187 25.5426 82.1888 25.486C82.6589 25.4294 83.0878 25.4974 83.4755 25.69C83.963 25.9321 84.2791 26.2411 84.424 26.6169C84.5688 26.9927 84.5312 27.4021 84.3111 27.8453C83.9644 28.5432 83.3015 28.8769 82.3222 28.8463C81.3541 28.8212 80.1111 28.4318 78.5933 27.6779Z" fill="#E5F8FF"/>
<path d="M82.9914 47.225C82.6678 46.7125 82.5802 46.2265 82.7288 45.7668C82.884 45.3177 83.2492 44.9114 83.8245 44.5481C84.316 44.2376 84.8348 44.005 85.3808 43.8503L85.2916 43.7092C84.019 43.8253 82.8388 43.671 81.7511 43.2461C80.6634 42.8212 79.8289 42.1486 79.2476 41.2282C78.7192 40.3916 78.5719 39.6141 78.8058 38.8957C79.0463 38.1878 79.5954 37.5631 80.453 37.0214C80.8922 36.7439 81.5646 36.407 82.47 36.0107C83.3926 35.6182 85.1521 34.8946 87.7485 33.8398L88.7087 32.2677C89.3935 32.6106 89.9412 32.945 90.3518 33.2708C90.7795 33.6005 91.1156 33.9589 91.36 34.3458C91.578 34.6909 91.6353 35.0132 91.5318 35.3127C91.4388 35.6055 91.1883 35.8807 90.7805 36.1384C90.6445 36.2242 90.2559 36.3966 89.6146 36.6553C88.9838 36.9074 88.3046 37.1755 87.5769 37.4596C86.4578 37.8884 85.4651 38.274 84.5987 38.6164C83.7389 38.9693 83.1783 39.2283 82.9169 39.3934C82.4358 39.6973 82.1278 40.0089 81.993 40.3281C81.8686 40.6408 81.9319 40.9958 82.1829 41.3933C82.4207 41.7698 82.8063 42.0675 83.3397 42.2866C83.8797 42.5161 84.5215 42.652 85.2652 42.6944C86.0088 42.7368 86.7946 42.6721 87.6225 42.5003C87.6968 42.4095 87.7763 42.3153 87.8611 42.2179C87.9629 42.1243 88.0647 42.0307 88.1666 41.9372C88.6708 41.5309 89.0797 41.2287 89.3935 41.0305C90.1883 40.5285 90.9898 40.1759 91.7978 39.9728C92.6125 39.7801 93.3625 39.7745 94.0478 39.9562C94.7397 40.1483 95.2871 40.5633 95.6901 41.2012C95.9807 41.6614 96.1437 42.151 96.1789 42.6701C94.6471 43.1402 92.8826 43.7865 90.8856 44.6089C88.8991 45.4248 87.3567 46.1795 86.2586 46.8731C85.3906 47.4214 84.8404 47.9518 84.6082 48.4642C83.9003 48.2237 83.3614 47.8106 82.9914 47.225Z" fill="#E5F8FF"/>
<mask id="mask0_2726_7572" style="mask-type:alpha" maskUnits="userSpaceOnUse" x="16" y="14" width="90" height="113">
<ellipse cx="60.8614" cy="70.3668" rx="43.7012" ry="56.6406" transform="rotate(10 60.8614 70.3668)" fill="#D9D9D9"/>
</mask>
<g mask="url(#mask0_2726_7572)">
<ellipse cx="23.9241" cy="101.586" rx="3.22348" ry="3.22348" transform="rotate(10 23.9241 101.586)" fill="#2D626D"/>
<ellipse cx="100.25" cy="90.5038" rx="3.22348" ry="3.22348" transform="rotate(10 100.25 90.5038)" fill="#2D626D"/>
<ellipse cx="48.732" cy="103.307" rx="4.02832" ry="4.02832" transform="rotate(10 48.732 103.307)" fill="#2D626D"/>
<ellipse cx="83.6375" cy="115.536" rx="3.41797" ry="3.41797" transform="rotate(10 83.6375 115.536)" fill="#2D626D"/>
<ellipse cx="104.48" cy="74.277" rx="2.3752" ry="2.3752" transform="rotate(10 104.48 74.277)" fill="#2D626D"/>
<ellipse cx="25.9216" cy="68.9251" rx="2.20554" ry="2.20554" transform="rotate(10 25.9216 68.9251)" fill="#2D626D"/>
<ellipse cx="34.7736" cy="89.9938" rx="2.3752" ry="2.3752" transform="rotate(10 34.7736 89.9938)" fill="#2D626D"/>
<ellipse cx="83.9206" cy="100.889" rx="2.3752" ry="2.3752" transform="rotate(10 83.9206 100.889)" fill="#2D626D"/>
<ellipse cx="21.3294" cy="84.0355" rx="1.52691" ry="1.52691" transform="rotate(10 21.3294 84.0355)" fill="#2D626D"/>
<ellipse cx="69.2266" cy="107.293" rx="1.46485" ry="1.46484" transform="rotate(10 69.2266 107.293)" fill="#2D626D"/>
<ellipse cx="26.2876" cy="47.4759" rx="1.52691" ry="1.52691" transform="rotate(10 26.2876 47.4759)" fill="#2D626D"/>
<ellipse cx="94.1614" cy="64.6517" rx="1.52691" ry="1.52691" transform="rotate(10 94.1614 64.6517)" fill="#2D626D"/>
<ellipse cx="18.677" cy="60.9878" rx="1.01794" ry="1.01794" transform="rotate(10 18.677 60.9878)" fill="#2D626D"/>
<ellipse cx="99.6529" cy="53.5321" rx="1.34277" ry="1.34277" transform="rotate(10 99.6529 53.5321)" fill="#2D626D"/>
<ellipse cx="72.4693" cy="48.12" rx="1.95313" ry="1.95312" transform="rotate(10 72.4693 48.12)" fill="#2D626D"/>
<ellipse cx="104.172" cy="83.5005" rx="1.01794" ry="1.01794" transform="rotate(10 104.172 83.5005)" fill="#E5F8FF"/>
<ellipse cx="104.696" cy="49.4869" rx="1.01794" ry="1.01794" transform="rotate(10 104.696 49.4869)" fill="#E5F8FF"/>
<ellipse cx="29.5491" cy="30.6089" rx="1.01794" ry="1.01794" transform="rotate(10 29.5491 30.6089)" fill="#E5F8FF"/>
</g>
<path d="M88.6992 68.1197C83.4375 54.9812 68.0411 55.4478 61.0006 57.3234C55.431 59.3751 53.1404 60.2419 47.2992 66.506C41.0421 73.2159 42.5746 82.7482 44.5724 87.2174C46.8413 91.9456 53.4051 99.7128 64.1773 99.1907C74.9495 98.6685 81.1668 93.5218 84.569 90.8326C87.9713 88.1434 93.9608 81.2582 88.6992 68.1197Z" fill="#FFD540"/>
<ellipse cx="2.3788" cy="2.3788" rx="2.3788" ry="2.3788" transform="matrix(0.833364 -0.552724 0.552725 0.833364 68.4275 66.1436)" fill="#FFEA93"/>
<path d="M59.8582 58.2786L61.7027 62.09C66.2623 67.8527 68.8153 77.7408 69.5218 81.9645C68.2718 81.0015 65.1431 78.577 62.629 76.5839C60.1149 74.5907 57.7818 70.9512 56.9295 69.3805C56.5871 68.5778 56.2626 66.6872 57.7032 65.5473C59.1439 64.4074 59.6294 63.0472 59.692 62.5096C58.4018 62.3592 56.5435 63.3415 55.7757 63.8514C54.4704 67.6507 46.4229 71.8187 42.5623 73.4277C40.7542 73.9799 36.8155 75.0466 35.5252 74.8962C34.2349 74.7459 29.4861 75.2822 27.2729 75.5692C32.9901 72.8025 32.2559 69.284 41.5747 63.6675C49.0297 59.1744 54.0084 61.2477 55.5659 62.8461C56.6045 61.7901 58.6795 61.8466 59.5871 62.0069L58.8529 58.4883L57.9525 59.2008C57.5504 59.2847 54.7545 58.1197 53.4068 57.5267C52.5413 58.4067 49.4826 60.3388 44.171 61.0276C37.5317 61.8886 30.4509 58.1207 29.1309 56.8225C28.0749 55.784 25.4506 54.2684 24.2705 53.6404C24.9407 53.5006 26.7628 53.0155 28.6895 52.1938C30.6162 51.3721 32.8433 51.1521 33.716 51.1449C34.6237 51.3051 37.8089 51.6546 43.2883 51.7701C48.7676 51.8855 52.5822 55.2509 53.8045 56.9191C54.6088 56.7513 56.7651 57.7001 57.7427 58.1955L58.0356 57.0853L57.0915 52.5614L58.0968 52.3516C58.499 52.2677 58.8093 53.2521 58.9142 53.7547L59.8582 58.2786Z" fill="#2D626D"/>
<ellipse cx="2.3788" cy="2.3788" rx="2.3788" ry="2.3788" transform="matrix(0.833364 -0.552724 0.552725 0.833364 74.9622 62.8311)" fill="#FFEA93"/>
<ellipse cx="2.3788" cy="2.3788" rx="2.3788" ry="2.3788" transform="matrix(0.833364 -0.552724 0.552725 0.833364 80.5337 67.7812)" fill="#FFEA93"/>
<ellipse cx="2.3788" cy="2.3788" rx="2.3788" ry="2.3788" transform="matrix(0.833364 -0.552724 0.552725 0.833364 74.6511 70.2148)" fill="#FFEA93"/>
<ellipse cx="2.3788" cy="2.3788" rx="2.3788" ry="2.3788" transform="matrix(0.833364 -0.552724 0.552725 0.833364 82.822 74.9902)" fill="#FFEA93"/>
<ellipse cx="2.3788" cy="2.3788" rx="2.3788" ry="2.3788" transform="matrix(0.833364 -0.552724 0.552725 0.833364 76.217 77.332)" fill="#FFEA93"/>
<ellipse cx="2.3788" cy="2.3788" rx="2.3788" ry="2.3788" transform="matrix(0.833364 -0.552724 0.552725 0.833364 81.4861 81.5869)" fill="#FFEA93"/>
<ellipse cx="2.3788" cy="2.3788" rx="2.3788" ry="2.3788" transform="matrix(0.833364 -0.552724 0.552725 0.833364 75.8694 85.7998)" fill="#FFEA93"/>
</g>
<defs>
<filter id="filter0_d_2726_7572" x="8.85938" y="6.2002" width="104.002" height="128.337" filterUnits="userSpaceOnUse" color-interpolation-filters="sRGB">
<feFlood flood-opacity="0" result="BackgroundImageFix"/>
<feColorMatrix in="SourceAlpha" type="matrix" values="0 0 0 0 0 0 0 0 0 0 0 0 0 0 0 0 0 0 127 0" result="hardAlpha"/>
<feOffset/>
<feGaussianBlur stdDeviation="1"/>
<feComposite in2="hardAlpha" operator="out"/>
<feColorMatrix type="matrix" values="0 0 0 0 0 0 0 0 0 0 0 0 0 0 0 0 0 0 0.4 0"/>
<feBlend mode="normal" in2="BackgroundImageFix" result="effect1_dropShadow_2726_7572"/>
<feBlend mode="normal" in="SourceGraphic" in2="effect1_dropShadow_2726_7572" result="shape"/>
</filter>
</defs>
</svg>
