<?xml version="1.0" encoding="UTF-8"?>
<svg id="Layer_2" data-name="Layer 2" xmlns="http://www.w3.org/2000/svg" viewBox="0 0 200 228.09">
  <defs>
    <style>
      .cls-1 {
        fill: #000;
        stroke-width: 0px;
      }
    </style>
  </defs>
  <g id="Layer_1-2" data-name="Layer 1">
    <path class="cls-1" d="M117.63,227.57c-7.87.1-15.23.19-22.41-2.02-1.98-.61-4.13-.47-6.12-.01-9.16,2.13-16.99-.42-23.76-6.62-8.17-7.48-17.21-14.07-23.87-23.11-4.22-5.74-7.18-12.15-10.03-18.66-4.85-11.06-6.48-22.59-6.93-34.58-.5-13.49.4-26.83,2.12-40.15,1.66-12.87,6.77-24.57,12.6-36.01,4.92-9.66,10.59-18.83,17.84-26.92,3.41-3.81,7.22-7.21,11.29-10.38,6.94-5.41,14.54-9.52,22.68-12.72,1.57-.61,3.18-.98,4.9-.91,1.2.05,2.78.41,3.56-.19,4.36-3.36,8.66-1.07,12.89-.03,4.31,1.06,8.72,1.72,12.89,3.46,4.72,1.97,8.85,4.77,12.61,8.11,7.5,6.66,13.71,14.42,19.01,22.93,3.7,5.94,7,12.09,10,18.4,5.8,12.2,12.18,24.14,16.54,37,8.89,26.28,8.2,52.09-3.58,77.34-2.94,6.31-5.76,12.76-10.45,18.11-9.23,10.54-20.14,18.86-32.94,24.55-6.11,2.72-12.88,1.69-18.85,2.42Z"/>
  </g>
</svg>