<?xml version="1.0" encoding="UTF-8"?>
<svg id="Layer_2" data-name="Layer 2" xmlns="http://www.w3.org/2000/svg" viewBox="0 0 200 213.85">
  <defs>
    <style>
      .cls-1 {
        fill: #000;
        stroke-width: 0px;
      }
    </style>
  </defs>
  <g id="Layer_1-2" data-name="Layer 1">
    <path class="cls-1" d="M51.72,213.84c-25.55-.11-39.86-14.36-48.86-37.07-1.82-4.59-1.68-9.75-.54-14.4,4.65-18.95,14.95-33.74,32.62-43.01,15.36-8.06,43.58-1.37,48.24,17.6,1.09,4.45,3.46,6.06,8.53,4.12,18.29-7,36.82-13.55,51.95-26.54,20.97-18,37.76-39.04,44.84-66.41,1.86-7.18,1.46-14.41-.96-21.86-1.77-5.45-5.59-10.65-4.29-17.02.57-2.81,1.22-5.88,3.94-6.77,2.71-.88,4.81,1.54,6.27,3.69,4.08,6.05,7.96,12.06,4.34,20.03-1.2,2.64-.77,6.04-1.04,9.09-1.81,20.76-11.61,38.15-23.2,54.73-16.92,24.19-39.68,40.85-66.93,51.73-4.34,1.73-8.45,4.07-12.72,6.01-2.97,1.35-3.64,3.16-1.23,5.51,17.7,17.21,8.06,43.66-13.6,54.34-8.22,4.05-16.91,6.44-27.37,6.23Z"/>
  </g>
</svg>