<?xml version="1.0" encoding="UTF-8"?>
<svg id="Layer_1" data-name="Layer 1" xmlns="http://www.w3.org/2000/svg" viewBox="0 0 400 405.36">
  <defs>
    <style>
      .cls-1 {
        fill: #000;
        stroke-width: 0px;
      }
    </style>
  </defs>
  <path class="cls-1" d="M195.86,89.4c.27.58.47,1,.66,1.42.39-.1.34-.35.32-.56-.07-.53-.08-1.06.17-1.55.04-.09.2-.14.31-.16.05,0,.17.09.18.15.07.3.11.61.18.91.19.82.41,1.62.96,2.27.55.12,1.07.2,1.58.35.13.04.32.27.29.38-.04.18-.2.44-.35.48-.33.09-.7.06-1.05.08-.87.05-1.6.69-1.7,1.55-.04.39-.01.79.03,1.19.11.96.27,1.92.35,2.89.09,1.07.34,2.08.81,3.05.58,1.19,1.08,2.42,1.4,3.71.04.17.09.34.14.51.36,1.25.85,1.36,1.79,1.34,1.91-.03,3.78-.23,5.63-.75,1.66-.47,3.36-.76,5.08-.84,2.43-.11,4.85-.31,7.28-.3,3.98.02,7.94.38,11.79,1.49,1.95.56,3.89,1.18,5.81,1.82.88.29,1.71.72,2.56,1.08,1.38.59,2.75,1.19,4.13,1.79.2.09.4.19.59.3,2.3,1.32,4.6,2.63,6.88,3.98.83.49,1.6,1.1,2.38,1.67,1.04.75,2.06,1.51,3.09,2.27,3.01,2.25,5.85,4.7,8.54,7.32,3.3,3.2,6.43,6.56,9.13,10.3,1.32,1.83,2.65,3.64,3.9,5.51,1.8,2.68,3.42,5.46,4.85,8.36.86,1.74,1.79,3.45,2.56,5.23.86,1.98,1.52,4.05,2.36,6.04.95,2.29,1.65,4.66,2.39,7.01.83,2.65,1.63,5.32,2.07,8.08.03.17.07.35.11.52.45,1.93.91,3.87,1.34,5.8.16.73.28,1.47.4,2.21.6,3.52,1.2,7.05,1.79,10.57.57,3.35.9,6.74,1.21,10.12.26,2.86.4,5.73.29,8.6-.16,3.93-.32,7.85-.6,11.77-.17,2.29-.52,4.56-.88,6.83-.5,3.14-.99,6.28-1.65,9.39-1.03,4.88-2.32,9.7-3.88,14.45-1.41,4.28-3.05,8.47-4.69,12.66-.47,1.19-1.06,2.33-1.6,3.49-.74,1.6-1.49,3.2-2.24,4.79-.19.4-.39.79-.61,1.18-.79,1.38-1.58,2.76-2.38,4.13-.71,1.22-1.47,2.4-2.27,3.57-.98,1.41-2.01,2.79-3.07,4.15-1.5,1.91-3.1,3.73-4.8,5.47-2.07,2.12-4.26,4.1-6.49,6.05-2.33,2.04-4.79,3.9-7.35,5.64-2.52,1.71-5.1,3.34-7.77,4.8-1.62.89-3.35,1.6-5.06,2.29-2.42.97-4.87,1.88-7.42,2.4-2.25.45-4.45,1.1-6.75,1.35-2.28.25-4.54.67-6.82.9-1.71.17-3.44.24-5.16.24-5.26.02-10.5-.29-15.75-.56-3.22-.16-6.44-.14-9.66-.28-3.04-.13-6.09-.32-9.13-.54-2.16-.15-4.31-.35-6.46-.62-4.17-.52-8.3-1.23-12.32-2.49-1.43-.45-2.87-.9-4.3-1.35-1.89-.61-3.69-1.44-5.51-2.25-1.78-.8-3.45-1.78-5.15-2.72-2.02-1.11-3.85-2.49-5.71-3.83-2.34-1.67-4.55-3.5-6.67-5.43-2.42-2.21-4.61-4.63-6.62-7.21-1.16-1.5-2.34-2.99-3.49-4.5-2.03-2.67-3.87-5.48-5.62-8.34-1.73-2.83-3.11-5.84-4.48-8.85-1.16-2.57-2.15-5.22-3.18-7.85-.72-1.85-1.38-3.72-2.07-5.58-.02-.04-.03-.08-.04-.13-1.25-3.82-2.37-7.68-3.28-11.59-.42-1.8-.88-3.6-1.27-5.41-.36-1.64-.63-3.29-.91-4.94-.26-1.52-.49-3.05-.71-4.58-.24-1.66-.46-3.32-.66-4.99-.22-1.84-.45-3.68-.59-5.53-.21-2.64-.37-5.28-.52-7.93-.24-4.15-.01-8.3.28-12.44.25-3.48.64-6.95,1.24-10.38.42-2.39.83-4.79,1.3-7.17,1.29-6.56,3.14-12.96,5.43-19.23.79-2.15,1.72-4.25,2.62-6.36.62-1.46,1.29-2.9,1.95-4.34.18-.4.41-.78.63-1.17.68-1.23,1.34-2.48,1.95-3.76.86-1.78,1.8-3.54,3.06-5.1.11-.14.23-.27.31-.43.95-1.8,2.21-3.4,3.31-5.11.57-.89,1.19-1.75,1.83-2.59,2.32-3.01,4.72-5.95,7.35-8.69,2.79-2.91,5.89-5.45,9.2-7.75,2.32-1.62,4.73-3.08,7.26-4.35,2.37-1.19,4.86-2.11,7.33-3.06,2.89-1.11,5.83-2.05,8.84-2.75,4.53-1.06,9.1-1.7,13.78-1.39,3.52.23,7.06.34,10.59.19.22,0,.44,0,.66-.02.34-.02.58-.2.7-.52.35-.91.67-1.8.7-2.81.02-.87.18-1.76.37-2.61.17-.74.23-1.47.17-2.23-.12-1.63-.24-3.26-.02-4.89.03-.22.05-.45,0-.66-.34-1.49.39-2.76.86-4.08.07-.2.37-.39.59-.45.33-.09.69-.05,1.08-.07Z"/>
</svg>