<svg width="181" height="55" viewBox="0 0 181 55" fill="none" xmlns="http://www.w3.org/2000/svg">
<path d="M0.740906 47.1923C7.59562 43.543 13.0942 40.1896 17.2366 37.1321C21.4283 34.0253 24.4858 30.9678 26.4091 27.9596C28.3324 24.9021 29.294 21.672 29.294 18.2693C29.294 14.8173 28.3817 12.0804 26.557 10.0585C24.7324 7.98728 22.2667 6.95167 19.1599 6.95167C17.0887 6.95167 15.1901 7.42016 13.464 8.35714C11.7874 9.29411 10.4805 10.5763 9.54354 12.2037C8.60657 13.7817 8.13808 15.5571 8.13808 17.5296L0.666935 16.7899C0.666935 13.7324 1.45597 10.9708 3.03403 8.50508C4.61209 6.03936 6.78193 4.11609 9.54354 2.73529C12.3052 1.30517 15.4366 0.590107 18.938 0.590107C22.4393 0.590107 25.5461 1.30517 28.2584 2.73529C30.9707 4.1654 33.0666 6.1873 34.546 8.80097C36.0254 11.3653 36.7651 14.3242 36.7651 17.6776C36.7651 21.672 35.6556 25.5679 33.4364 29.3651C31.2173 33.1623 27.9625 36.7623 23.6721 40.165C19.4311 43.5184 14.2777 46.5265 8.21205 49.1895L7.25042 47.1923H37.9487V53.5539H0.740906V47.1923ZM65.2911 54.7374C61.0007 54.7374 57.2775 53.6278 54.1213 51.4087C50.9652 49.1895 48.5241 46.0581 46.7981 42.0143C45.0721 37.9212 44.2091 33.1377 44.2091 27.6638C44.2091 22.1899 45.0721 17.431 46.7981 13.3872C48.5241 9.29411 50.9652 6.13799 54.1213 3.91884C57.2775 1.69968 61.0007 0.590107 65.2911 0.590107C69.5814 0.590107 73.3047 1.69968 76.4608 3.91884C79.6169 6.13799 82.058 9.29411 83.784 13.3872C85.51 17.431 86.373 22.1899 86.373 27.6638C86.373 33.1377 85.51 37.9212 83.784 42.0143C82.058 46.0581 79.6169 49.1895 76.4608 51.4087C73.3047 53.6278 69.5814 54.7374 65.2911 54.7374ZM65.2911 48.3758C68.0527 48.3758 70.4444 47.5375 72.4663 45.8608C74.5375 44.1841 76.1156 41.7924 77.2005 38.6855C78.2854 35.5787 78.8279 31.9048 78.8279 27.6638C78.8279 21.2529 77.6197 16.1981 75.2033 12.4996C72.7869 8.80097 69.4828 6.95167 65.2911 6.95167C62.5295 6.95167 60.113 7.79002 58.0418 9.46671C56.0199 11.1434 54.4665 13.5352 53.3816 16.642C52.2967 19.7488 51.7542 23.4227 51.7542 27.6638C51.7542 34.0746 52.9624 39.1294 55.3789 42.828C57.7953 46.5265 61.0993 48.3758 65.2911 48.3758ZM93.4223 47.1923C100.277 43.543 105.776 40.1896 109.918 37.1321C114.11 34.0253 117.167 30.9678 119.09 27.9596C121.014 24.9021 121.975 21.672 121.975 18.2693C121.975 14.8173 121.063 12.0804 119.238 10.0585C117.414 7.98728 114.948 6.95167 111.841 6.95167C109.77 6.95167 107.871 7.42016 106.145 8.35714C104.469 9.29411 103.162 10.5763 102.225 12.2037C101.288 13.7817 100.819 15.5571 100.819 17.5296L93.3483 16.7899C93.3483 13.7324 94.1373 10.9708 95.7154 8.50508C97.2935 6.03936 99.4633 4.11609 102.225 2.73529C104.987 1.30517 108.118 0.590107 111.619 0.590107C115.121 0.590107 118.227 1.30517 120.94 2.73529C123.652 4.1654 125.748 6.1873 127.227 8.80097C128.707 11.3653 129.447 14.3242 129.447 17.6776C129.447 21.672 128.337 25.5679 126.118 29.3651C123.899 33.1623 120.644 36.7623 116.354 40.165C112.112 43.5184 106.959 46.5265 100.893 49.1895L99.9318 47.1923H130.63V53.5539H93.4223V47.1923ZM135.951 33.3596C139.699 30.598 142.412 26.7268 144.088 21.746C145.814 16.7159 146.677 10.0585 146.677 1.77365H153.927C153.927 10.8475 152.743 18.3187 150.376 24.1871C148.058 30.0555 144.507 34.4445 139.724 37.3541L139.058 33.3596H180.926V39.7951H135.951V33.3596ZM165.54 1.77365H172.789V53.5539H165.54V1.77365Z" fill="#212121"/>
</svg>
