<svg width="102" height="53" viewBox="0 0 102 53" fill="none" xmlns="http://www.w3.org/2000/svg">
<path d="M24.041 52.7859C19.5069 52.7859 15.4501 51.6643 11.8706 49.4211C8.29105 47.178 5.47515 44.0757 3.42289 40.1144C1.41836 36.153 0.416092 31.6428 0.416092 26.5838C0.416092 21.5247 1.41836 17.0145 3.42289 13.0532C5.42743 9.09182 8.21946 5.98956 11.799 3.7464C15.4262 1.50323 19.5069 0.381643 24.041 0.381643C28.0023 0.381643 31.558 1.24073 34.7079 2.9589C37.9057 4.67707 40.459 7.11115 42.3681 10.2611C44.3249 13.3634 45.4942 16.9906 45.8761 21.1429L38.717 21.8588C38.192 17.1338 36.5932 13.4111 33.9204 10.6907C31.2955 7.97024 27.9784 6.61002 23.9694 6.61002C20.8194 6.61002 17.9796 7.4691 15.4501 9.18727C12.9683 10.9054 11.0115 13.2918 9.57968 16.3463C8.14787 19.3531 7.43196 22.7895 7.43196 26.6554C7.43196 30.4735 8.124 33.9099 9.50809 36.9644C10.9399 39.9712 12.8967 42.3337 15.3785 44.0518C17.908 45.77 20.7717 46.6291 23.9694 46.6291C26.6421 46.6291 29.0284 46.0325 31.1284 44.8393C33.2761 43.5984 34.9943 41.8564 36.2829 39.6132C37.6193 37.3223 38.4545 34.6735 38.7886 31.6667L45.8761 32.3826C45.4942 36.4394 44.3249 40.0189 42.3681 43.1212C40.459 46.1757 37.9057 48.5621 34.7079 50.2802C31.558 51.9507 28.0023 52.7859 24.041 52.7859ZM77.3177 52.7859C72.7359 52.7859 68.6314 51.6882 65.0041 49.4927C61.4246 47.2496 58.6087 44.1473 56.5565 40.186C54.5519 36.1769 53.5497 31.6428 53.5497 26.5838C53.5497 21.5247 54.5519 17.0145 56.5565 13.0532C58.6087 9.04409 61.4246 5.94184 65.0041 3.7464C68.6314 1.50323 72.7359 0.381643 77.3177 0.381643C81.8995 0.381643 86.004 1.50323 89.6313 3.7464C93.2585 5.94184 96.0744 9.04409 98.079 13.0532C100.083 17.0145 101.086 21.5247 101.086 26.5838C101.086 31.6428 100.083 36.1769 98.079 40.186C96.0744 44.1473 93.2585 47.2496 89.6313 49.4927C86.004 51.6882 81.8995 52.7859 77.3177 52.7859ZM77.3177 46.6291C80.6109 46.6291 83.5222 45.7939 86.0518 44.1234C88.5813 42.4053 90.5381 40.0428 91.9222 37.036C93.354 33.9815 94.0699 30.4974 94.0699 26.5838C94.0699 22.6702 93.354 19.2099 91.9222 16.2031C90.5381 13.1486 88.5813 10.7861 86.0518 9.11568C83.5222 7.39751 80.6109 6.53842 77.3177 6.53842C74.0723 6.53842 71.1848 7.39751 68.6553 9.11568C66.1257 10.7861 64.1451 13.1486 62.7133 16.2031C61.2814 19.2099 60.5655 22.6702 60.5655 26.5838C60.5655 30.4974 61.2814 33.9815 62.7133 37.036C64.1451 40.0428 66.1257 42.4053 68.6553 44.1234C71.1848 45.7939 74.0723 46.6291 77.3177 46.6291Z" fill="#212121"/>
</svg>
