<svg width="360" height="55" viewBox="0 0 360 55" fill="none" xmlns="http://www.w3.org/2000/svg">
<path d="M19.1868 54.2899C15.3896 54.2899 12.0609 53.4763 9.20063 51.8489C6.34039 50.2215 4.09658 47.9284 2.4692 44.9695C0.89114 42.0106 0.102108 38.5833 0.102108 34.6874L0.102108 1.32619H7.35134L7.35134 34.6874C7.35134 37.3504 7.81982 39.6682 8.7568 41.6408C9.74309 43.6134 11.1239 45.1668 12.8992 46.301C14.6745 47.3859 16.7704 47.9284 19.1868 47.9284C21.6525 47.9284 23.7484 47.3859 25.4744 46.301C27.2497 45.1668 28.6059 43.6134 29.5429 41.6408C30.4798 39.6682 30.9483 37.3504 30.9483 34.6874V1.32619H38.1975V34.6874C38.1975 38.5833 37.4085 42.0106 35.8305 44.9695C34.3017 47.9284 32.0826 50.2215 29.173 51.8489C26.3128 53.4763 22.984 54.2899 19.1868 54.2899ZM48.887 1.32619L66.6403 1.32619C70.043 1.32619 73.0265 1.94262 75.5908 3.17548C78.2045 4.40834 80.2017 6.15901 81.5825 8.42747C83.0127 10.6466 83.7277 13.2356 83.7277 16.1945C83.7277 19.1041 83.0127 21.6931 81.5825 23.9615C80.2017 26.1807 78.2045 27.9067 75.5908 29.1396C73.0265 30.3724 70.043 30.9889 66.6403 30.9889H56.1363V53.1064H48.887V1.32619ZM66.6403 24.6273C68.6128 24.6273 70.3388 24.2821 71.8183 23.5917C73.2977 22.852 74.4319 21.8657 75.221 20.6328C76.0593 19.3506 76.4785 17.8712 76.4785 16.1945C76.4785 13.6302 75.5662 11.5836 73.7415 10.0549C71.9662 8.47679 69.5991 7.68776 66.6403 7.68776L56.1363 7.68776V24.6273H66.6403ZM88.3943 28.03H113.397V34.4655H88.3943V28.03ZM146.502 54.2899C141.817 54.2899 137.601 53.1311 133.853 50.8133C130.154 48.4955 127.245 45.2901 125.124 41.197C123.004 37.0545 121.943 32.3697 121.943 27.1423C121.943 21.9643 122.979 17.3287 125.05 13.2356C127.171 9.14253 130.105 5.96175 133.853 3.69328C137.601 1.3755 141.842 0.216613 146.576 0.216613C150.817 0.216613 154.664 1.12893 158.116 2.95357C161.617 4.72889 164.428 7.21927 166.548 10.4247C168.669 13.5808 169.852 17.1561 170.099 21.1506L162.776 21.8903C162.628 18.9315 161.839 16.2931 160.409 13.9754C158.979 11.6083 157.055 9.78362 154.639 8.50145C152.222 7.21927 149.51 6.57818 146.502 6.57818C143.05 6.57818 140.017 7.44119 137.403 9.16719C134.79 10.8439 132.768 13.2603 131.338 16.4164C129.908 19.5232 129.193 23.1232 129.193 27.2163C129.193 31.3094 129.908 34.934 131.338 38.0901C132.768 41.197 134.79 43.6134 137.403 45.3394C140.066 47.0654 143.124 47.9284 146.576 47.9284C149.486 47.9284 152.198 47.3119 154.713 46.0791C157.228 44.8462 159.299 43.1202 160.926 40.9011C162.554 38.6819 163.589 36.1422 164.033 33.282H146.132V26.9204H171.874V53.1064H164.995L166.548 32.9861L167.436 30.3231C167.387 35.2546 166.499 39.5203 164.773 43.1202C163.047 46.7202 160.631 49.4818 157.524 51.405C154.417 53.3283 150.743 54.2899 146.502 54.2899ZM182.6 1.32619L200.353 1.32619C203.657 1.32619 206.591 1.94262 209.155 3.17548C211.769 4.40834 213.791 6.13435 215.221 8.3535C216.701 10.5233 217.44 12.9891 217.44 15.7507C217.44 18.2657 216.849 20.5095 215.665 22.4821C214.531 24.4054 212.903 25.9095 210.783 26.9944C208.662 28.03 206.221 28.5478 203.46 28.5478L204.717 27.956C208.564 27.956 211.523 29.1149 213.594 31.4327C215.714 33.7505 216.922 37.2025 217.218 41.7887L217.884 53.1064H210.635L209.747 40.5312C209.55 37.2271 208.687 34.8107 207.158 33.282C205.629 31.7532 203.312 30.9889 200.205 30.9889H189.849V53.1064H182.6V1.32619ZM200.353 24.6273C203.312 24.6273 205.679 23.8629 207.454 22.3342C209.279 20.7561 210.191 18.7095 210.191 16.1945C210.191 13.6795 209.279 11.6329 207.454 10.0549C205.629 8.47679 203.262 7.68776 200.353 7.68776H189.849V24.6273H200.353ZM241.349 1.32619H251.927L269.532 53.1064H262.209L245.121 2.95357H248.228L231.067 53.1064H223.743L241.349 1.32619ZM234.321 30.7669H258.954V37.1285H234.321V30.7669ZM276.798 1.32619H293.368C298.2 1.32619 302.491 2.41111 306.239 4.58095C309.987 6.75078 312.896 9.80828 314.967 13.7534C317.039 17.6493 318.074 22.1369 318.074 27.2163C318.074 32.2957 317.039 36.808 314.967 40.7531C312.896 44.649 309.987 47.6818 306.239 49.8516C302.491 52.0215 298.2 53.1064 293.368 53.1064H276.798V1.32619ZM293.368 46.7448C296.77 46.7448 299.803 45.9311 302.466 44.3038C305.129 42.6271 307.176 40.3339 308.606 37.4244C310.085 34.4655 310.825 31.0628 310.825 27.2163C310.825 23.3698 310.085 19.9917 308.606 17.0822C307.176 14.1233 305.129 11.8302 302.466 10.2028C299.803 8.5261 296.77 7.68776 293.368 7.68776H284.047V46.7448H293.368ZM327.726 1.32619H359.386V7.68776H334.975V22.9999H354.947V29.4354H334.975V46.7448H359.386V53.1064H327.726V1.32619Z" fill="#212121"/>
</svg>
