<svg width="256" height="55" viewBox="0 0 256 55" fill="none" xmlns="http://www.w3.org/2000/svg">
<path d="M0.659575 1.40988H17.255C22.0953 1.40988 26.3923 2.49648 30.146 4.66969C33.8998 6.8429 36.8138 9.90514 38.8883 13.8564C40.9627 17.7583 41.9999 22.2529 41.9999 27.3402C41.9999 32.4275 40.9627 36.9468 38.8883 40.898C36.8138 44.7999 33.8998 47.8375 30.146 50.0107C26.3923 52.1839 22.0953 53.2705 17.255 53.2705H0.659575L0.659575 1.40988ZM17.255 46.8991C20.663 46.8991 23.7005 46.0841 26.3676 44.4542C29.0347 42.7749 31.0845 40.4782 32.5168 37.5641C33.9986 34.6007 34.7394 31.1927 34.7394 27.3402C34.7394 23.4877 33.9986 20.1044 32.5168 17.1903C31.0845 14.2269 29.0347 11.9302 26.3676 10.3003C23.7005 8.62098 20.663 7.78133 17.255 7.78133H7.92006L7.92006 46.8991H17.255ZM51.6665 1.40988H83.3755V7.78133H58.927V23.1173H78.9303V29.5628H58.927V46.8991H83.3755V53.2705H51.6665L51.6665 1.40988ZM109.21 54.4559C105.358 54.4559 101.9 53.5915 98.8382 51.8629C95.8254 50.1342 93.4546 47.7634 91.7259 44.7505C90.0466 41.6883 89.207 38.2309 89.207 34.3784L96.4674 33.6376C96.4674 36.3047 96.9861 38.7495 98.0233 40.9721C99.1099 43.1453 100.641 44.874 102.617 46.1582C104.592 47.4424 106.864 48.0844 109.433 48.0844C111.309 48.0844 113.088 47.7387 114.767 47.0472C116.446 46.3558 117.804 45.3679 118.842 44.0838C119.879 42.7996 120.397 41.2685 120.397 39.4904C120.397 37.6629 119.829 36.1318 118.693 34.897C117.607 33.6623 116.249 32.6744 114.619 31.9336C112.989 31.1927 110.741 30.3284 107.877 29.3405C104.469 28.1551 101.703 27.0685 99.5791 26.0807C97.5047 25.0435 95.7266 23.6112 94.2449 21.7837C92.8125 19.9068 92.0963 17.5608 92.0963 14.7455C92.0963 11.8808 92.8372 9.36184 94.3189 7.18863C95.8007 4.96604 97.801 3.26204 100.32 2.07666C102.888 0.841882 105.704 0.224494 108.766 0.224494C111.779 0.224494 114.545 0.792492 117.064 1.92849C119.582 3.06448 121.657 4.69439 123.287 6.8182C124.917 8.94202 125.855 11.4363 126.102 14.3009L118.842 15.0418C118.644 13.3625 118.051 11.8808 117.064 10.5966C116.076 9.31245 114.841 8.32463 113.359 7.63315C111.877 6.94168 110.272 6.59594 108.544 6.59594C105.975 6.59594 103.802 7.28742 102.024 8.67036C100.246 10.0039 99.3568 11.8067 99.3568 14.0787C99.3568 15.758 99.8754 17.1656 100.913 18.3016C101.999 19.4376 103.333 20.3761 104.913 21.1169C106.494 21.8084 108.667 22.5987 111.433 23.4877C114.89 24.7225 117.681 25.8585 119.805 26.8957C121.978 27.9329 123.83 29.4146 125.361 31.3409C126.892 33.2177 127.658 35.6626 127.658 38.6754C127.658 41.6389 126.843 44.3307 125.213 46.7509C123.633 49.1217 121.435 50.9985 118.619 52.3815C115.853 53.7644 112.717 54.4559 109.21 54.4559ZM136.172 1.40988H143.432V53.2705H136.172V1.40988ZM177.36 54.4559C172.668 54.4559 168.445 53.2952 164.691 50.9738C160.987 48.6524 158.073 45.442 155.949 41.3426C153.825 37.1937 152.763 32.5016 152.763 27.2661C152.763 22.08 153.801 17.4373 155.875 13.3378C157.999 9.23836 160.938 6.05264 164.691 3.78065C168.445 1.45927 172.693 0.29858 177.434 0.29858C181.682 0.29858 185.534 1.21231 188.992 3.03978C192.499 4.81786 195.314 7.31211 197.438 10.5225C199.561 13.6836 200.747 17.2644 200.994 21.2651L193.659 22.006C193.511 19.0425 192.721 16.4001 191.288 14.0787C189.856 11.7079 187.93 9.88045 185.51 8.59628C183.09 7.31211 180.373 6.67003 177.36 6.67003C173.903 6.67003 170.865 7.53437 168.248 9.26306C165.63 10.9424 163.605 13.3625 162.172 16.5235C160.74 19.6352 160.024 23.2407 160.024 27.3402C160.024 31.4397 160.74 35.0699 162.172 38.2309C163.605 41.3426 165.63 43.7627 168.248 45.4914C170.915 47.2201 173.977 48.0844 177.434 48.0844C180.348 48.0844 183.065 47.4671 185.584 46.2323C188.103 44.9975 190.177 43.2688 191.807 41.0462C193.437 38.8236 194.474 36.28 194.919 33.4153L176.99 33.4153V27.0438L202.772 27.0438V53.2705H195.882L197.438 33.1189L198.327 30.4518C198.277 35.3909 197.388 39.6633 195.66 43.2688C193.931 46.8744 191.511 49.6403 188.399 51.5665C185.287 53.4928 181.608 54.4559 177.36 54.4559ZM213.514 1.40988L222.108 1.40988L249.742 46.0841L247.89 46.6027V1.40988H255.225V53.2705H246.631L218.996 8.59628L220.848 8.07768V53.2705H213.514V1.40988Z" fill="#212121"/>
</svg>
